<?xml version="1.0" standalone="no"?>
<!DOCTYPE svg PUBLIC "-//W3C//DTD SVG 20010904//EN"
 "http://www.w3.org/TR/2001/REC-SVG-20010904/DTD/svg10.dtd">
<svg version="1.0" xmlns="http://www.w3.org/2000/svg"
 width="400.000000pt" height="400.000000pt" viewBox="0 0 400.000000 400.000000"
 preserveAspectRatio="xMidYMid meet">
<metadata>
Created by potrace 1.14, written by Peter Selinger 2001-2017
</metadata>
<g transform="translate(0.000000,400.000000) scale(0.100000,-0.100000)"
fill="#ffd700" stroke="none">
<path d="M110 3982 c0 -10 5 -23 12 -30 8 -8 8 -15 -2 -27 -8 -10 -9 -15 -1
-15 6 0 11 -5 11 -11 0 -5 -4 -7 -10 -4 -5 3 -7 0 -4 -8 3 -8 -2 -17 -10 -20
-9 -4 -16 -13 -16 -22 0 -8 -4 -16 -10 -16 -5 -1 -14 -2 -19 -3 -21 -3 -23
-17 -5 -37 19 -21 27 -69 12 -69 -4 0 -8 -7 -8 -15 0 -8 -4 -15 -10 -15 -5 0
-9 -11 -8 -24 1 -15 7 -22 15 -19 11 4 11 9 1 22 -7 9 -8 13 -4 9 5 -4 15 0
23 10 7 9 12 13 11 7 -2 -5 2 -10 7 -10 6 0 9 3 8 8 -2 4 3 6 10 5 7 -2 11 7
11 20 -1 19 2 23 20 18 11 -3 27 -6 34 -6 6 0 12 -6 12 -14 0 -8 9 -18 20 -21
27 -8 26 -29 -1 -22 -12 3 -18 3 -15 0 3 -4 -3 -12 -14 -20 -15 -11 -25 -11
-40 -3 -42 22 -56 20 -55 -8 0 -15 -4 -35 -9 -44 -15 -25 -2 -32 54 -31 38 1
50 -2 50 -13 0 -8 -5 -12 -11 -8 -7 4 -9 -2 -7 -17 2 -19 -2 -23 -24 -24 -16
-1 -28 1 -28 5 0 22 -34 17 -57 -8 -14 -15 -21 -20 -14 -11 8 12 7 16 -4 16
-7 0 -13 -5 -12 -11 1 -6 -3 -10 -9 -9 -6 1 -11 -4 -11 -12 0 -8 4 -12 9 -9 4
3 8 -2 8 -10 0 -8 -4 -17 -9 -21 -19 -11 -7 -45 16 -45 17 0 21 4 16 17 -4 11
7 5 27 -14 37 -34 37 -37 4 -47 -17 -5 -23 -2 -27 16 -6 22 -7 22 -24 5 -13
-13 -19 -36 -20 -82 -2 -57 1 -66 19 -76 16 -9 18 -13 7 -19 -7 -5 -17 -6 -21
-4 -5 3 -8 -151 -7 -342 0 -191 4 -343 7 -338 11 14 35 17 26 3 -5 -9 -2 -10
9 -6 13 5 14 2 8 -16 -5 -12 -15 -22 -22 -22 -8 -1 -13 -6 -12 -13 2 -7 -2
-12 -8 -12 -8 0 -8 -5 1 -15 9 -10 9 -15 1 -15 -16 0 -15 -296 1 -306 7 -5 8
-3 3 6 -6 9 -4 11 4 6 9 -6 9 -12 -3 -25 -12 -13 -16 -40 -16 -113 0 -96 4
-113 24 -101 20 13 37 12 43 -3 3 -8 10 -11 17 -7 6 4 5 -1 -3 -10 -16 -20
-13 -25 17 -30 11 -2 30 -11 41 -21 12 -11 21 -14 26 -6 3 5 12 7 18 3 8 -4 7
-1 -1 9 -11 14 -10 16 5 14 10 -2 18 -9 19 -17 0 -8 2 -22 2 -32 1 -10 6 -15
12 -12 5 3 10 -2 10 -11 0 -10 3 -15 6 -12 3 3 15 -4 28 -17 12 -12 28 -24 35
-26 9 -3 11 -12 6 -28 -4 -12 -9 -20 -12 -17 -4 3 -12 1 -19 -5 -8 -7 -14 -7
-19 1 -3 5 0 10 7 10 8 0 9 3 3 8 -5 4 -17 16 -25 26 -13 18 -13 19 0 12 8 -4
6 0 -4 8 -12 10 -23 12 -30 7 -6 -5 -13 -9 -16 -8 -3 0 -14 -5 -25 -12 -18
-11 -18 -12 8 -8 19 3 25 1 19 -5 -6 -6 -9 -16 -8 -22 2 -6 1 -7 -2 -3 -2 4
-10 3 -17 -3 -18 -15 -84 -20 -92 -7 -3 6 -2 7 4 4 5 -3 10 6 10 21 0 30 -41
60 -53 40 -4 -7 -9 -6 -14 2 -8 12 10 71 19 66 4 -2 13 5 23 15 15 16 15 19
-3 37 -11 13 -26 18 -39 15 -18 -5 -20 -13 -19 -92 1 -113 3 -119 36 -113 19
4 24 2 18 -8 -5 -8 -4 -11 2 -7 6 4 16 0 23 -8 9 -11 10 -15 1 -15 -8 0 -10
-8 -6 -20 5 -17 3 -19 -17 -11 -12 4 -25 17 -28 27 -3 10 -11 20 -17 22 -10 1
-13 -30 -13 -132 l0 -133 27 5 c16 2 33 9 40 14 8 6 11 4 9 -8 -2 -10 -7 -19
-13 -21 -6 -2 -9 -17 -7 -33 2 -17 -1 -30 -7 -30 -6 0 -7 -5 -4 -10 5 -8 -13
-14 -36 -12 -15 2 -6 -57 9 -64 42 -18 79 -6 68 23 -3 8 2 13 12 13 13 1 11 4
-8 16 -21 13 -22 14 -4 9 13 -3 28 0 37 9 8 8 18 12 23 8 5 -4 2 1 -5 11 -12
15 -11 17 7 14 32 -5 36 -14 13 -29 -25 -15 -27 -25 -6 -25 8 0 12 4 9 9 -3 4
2 8 10 8 11 0 16 -9 16 -26 0 -20 4 -25 16 -20 8 3 12 2 9 -4 -3 -6 -2 -10 4
-10 6 0 8 -7 4 -16 -3 -9 -13 -14 -24 -11 -11 3 -17 1 -13 -4 3 -5 0 -9 -5 -9
-6 0 -11 5 -11 11 0 5 -4 8 -9 4 -5 -3 -12 4 -16 14 -7 22 -35 18 -35 -5 0 -8
-5 -14 -10 -14 -6 0 -9 -6 -8 -12 2 -7 -5 -12 -15 -12 -14 2 -15 -1 -6 -12 6
-8 10 -14 8 -15 -23 -5 -49 -4 -49 2 0 4 -7 9 -15 13 -10 4 -15 -1 -15 -15 0
-11 6 -19 13 -18 31 4 41 -1 29 -13 -18 -18 -15 -25 13 -25 14 0 25 4 25 9 0
5 4 7 9 4 11 -7 61 49 61 69 0 18 12 19 28 3 9 -9 12 -9 12 0 0 7 9 12 20 12
11 0 25 9 32 20 15 24 28 26 28 4 0 -8 4 -13 8 -10 5 3 9 -1 9 -9 0 -8 -4 -15
-8 -15 -10 0 12 -52 26 -62 5 -4 13 -2 17 5 5 7 7 0 6 -16 -1 -15 -5 -27 -8
-27 -9 0 -35 20 -27 20 12 0 -20 30 -32 30 -6 0 -11 5 -11 10 0 6 5 10 11 10
5 0 7 5 4 10 -12 19 -25 10 -26 -17 0 -25 -1 -26 -9 -8 -5 11 -9 14 -9 7 -1
-7 -5 -11 -10 -8 -14 9 -21 -20 -8 -34 10 -10 8 -12 -7 -6 -15 5 -17 4 -7 -8
9 -11 9 -16 0 -22 -8 -5 -10 -3 -4 7 7 12 5 12 -6 1 -12 -11 -12 -14 1 -23 12
-8 9 -9 -10 -4 -57 14 -60 14 -60 -1 0 -9 -5 -12 -12 -8 -7 4 3 -10 22 -32 19
-23 39 -39 44 -36 5 3 6 -1 4 -9 -3 -9 -18 -14 -44 -13 -71 3 -109 9 -116 19
-4 6 -8 -7 -8 -28 0 -21 4 -36 9 -33 4 3 16 -3 26 -14 10 -11 13 -20 7 -20 -6
0 -13 6 -15 13 -4 9 -6 9 -6 -1 -1 -7 -6 -10 -11 -7 -7 4 -10 -25 -9 -84 1
-68 5 -93 17 -103 8 -7 48 -14 91 -16 42 -1 81 -3 87 -4 13 -1 -55 -72 -70
-72 -5 -1 -11 -8 -13 -16 -3 -9 -1 -11 4 -5 11 13 47 19 39 6 -4 -5 -2 -12 4
-16 5 -3 10 -1 10 5 0 8 6 8 20 0 16 -8 25 -5 52 21 18 19 34 27 36 21 2 -7 8
-10 13 -6 5 3 17 -2 26 -12 16 -15 16 -17 -1 -30 -16 -12 -15 -14 21 -34 21
-12 30 -19 20 -16 -27 8 -70 -12 -63 -29 3 -8 0 -15 -6 -15 -6 0 -8 -3 -5 -6
4 -4 13 -1 22 6 13 11 15 10 10 -2 -4 -9 0 -15 8 -15 8 0 14 7 13 16 -1 8 8
17 18 19 15 3 17 0 12 -14 -4 -9 -2 -20 4 -24 6 -4 -3 -7 -19 -7 -16 0 -37 -5
-45 -13 -19 -15 -21 -46 -4 -56 7 -4 8 -3 4 4 -5 8 5 12 31 11 21 0 32 -3 26
-6 -9 -3 -10 -10 -3 -22 5 -10 7 -21 3 -24 -3 -4 2 -18 11 -32 9 -14 13 -24 9
-24 -12 3 -47 -13 -54 -24 -4 -5 -12 0 -18 12 -7 11 -18 21 -26 21 -20 0 -19
-16 2 -24 15 -6 14 -8 -2 -20 -19 -14 -15 -48 6 -44 7 2 14 -12 16 -32 3 -19
9 -38 15 -41 14 -9 49 1 42 12 -3 5 2 6 10 3 9 -3 16 -2 16 4 0 14 24 9 44 -8
13 -10 20 -10 28 -2 9 9 7 12 -9 12 -24 0 -51 26 -33 32 6 2 12 10 13 18 2 8
7 21 11 29 6 9 5 12 -2 7 -6 -3 -13 -2 -16 3 -16 25 53 -7 87 -41 16 -15 37
-28 47 -28 10 0 20 -9 23 -20 3 -11 11 -20 19 -20 8 0 9 3 3 8 -22 16 -14 32
14 32 16 0 36 6 43 13 15 14 48 19 48 7 0 -4 18 -6 40 -4 27 3 40 0 40 -8 0
-20 17 5 24 35 5 19 3 26 -4 22 -15 -9 -28 36 -20 67 5 14 5 30 2 34 -4 4 -1
4 6 0 7 -4 10 -11 7 -16 -3 -4 2 -10 10 -14 8 -3 15 -13 15 -21 0 -9 4 -14 9
-10 5 3 11 -4 13 -16 2 -12 17 -29 36 -40 19 -9 37 -21 40 -25 4 -4 2 -4 -5 0
-8 4 -11 -1 -10 -14 1 -11 4 -20 7 -20 4 0 7 -7 7 -15 0 -11 -4 -12 -14 -4 -9
8 -13 8 -13 0 0 -6 -1 -14 -2 -18 -2 -5 12 -9 30 -10 17 -1 32 3 32 8 0 5 -4
9 -8 9 -5 0 -9 7 -9 14 0 11 5 13 19 5 13 -7 18 -6 18 2 0 7 3 9 7 6 3 -4 13
2 20 13 18 25 33 18 27 -13 -2 -12 -2 -16 2 -9 3 6 10 10 15 6 5 -3 9 -2 8 3
-3 20 2 34 11 28 6 -3 7 1 4 9 -3 9 -11 13 -17 9 -5 -3 -7 -1 -4 5 13 21 -5
42 -33 40 -23 -2 -30 -8 -35 -33 -6 -21 -9 -25 -12 -13 -2 10 -10 18 -16 18
-7 1 -1 9 12 20 12 11 27 17 32 14 5 -3 9 -1 9 4 0 5 -13 12 -29 15 -16 3 -36
13 -45 22 -15 15 -16 15 -17 -2 0 -10 -3 -13 -5 -6 -3 6 2 23 10 36 9 13 13
27 9 32 -5 4 -3 5 4 1 7 -4 9 -14 6 -24 -6 -15 -5 -16 12 -2 14 11 17 11 11 1
-7 -10 -3 -12 15 -6 13 4 25 9 27 10 7 6 -11 55 -20 55 -5 0 -7 -4 -4 -8 2 -4
-4 -8 -15 -8 -10 0 -19 4 -19 9 0 5 -9 7 -20 4 -13 -3 -20 0 -20 9 0 8 -4 14
-10 14 -5 0 -9 5 -7 12 1 6 -9 17 -21 24 -15 7 -20 14 -13 19 6 3 8 12 5 18
-4 7 -4 9 0 5 4 -3 15 1 24 10 18 18 23 68 7 70 -26 3 -45 9 -52 17 -4 4 -3 5
4 1 6 -3 14 -2 18 3 3 6 12 8 20 5 10 -4 12 0 8 15 -6 25 37 67 49 48 4 -6 4
-16 0 -22 -3 -5 1 -4 10 3 12 10 18 9 28 -3 7 -8 17 -12 23 -8 5 3 7 2 4 -4
-4 -6 6 -10 22 -11 21 0 28 4 27 16 0 9 4 17 11 17 6 0 14 3 18 7 4 4 18 3 31
-2 13 -5 29 -7 36 -5 7 3 19 -4 26 -15 7 -12 8 -20 2 -20 -5 0 -10 -5 -10 -11
0 -5 4 -8 8 -5 4 2 14 -4 21 -16 7 -11 8 -17 2 -13 -7 4 -11 -3 -11 -16 0 -12
-3 -19 -7 -16 -3 4 -12 -1 -19 -11 -12 -15 -14 -14 -15 13 -1 17 -1 35 -1 40
1 6 -10 18 -24 28 -22 17 -25 17 -30 2 -6 -13 -8 -14 -15 -3 -6 9 -11 10 -16
2 -11 -15 -57 -39 -49 -25 5 7 -2 10 -18 9 -21 -2 -25 -6 -20 -21 4 -14 3 -17
-7 -12 -7 5 -4 -4 7 -18 10 -15 25 -27 32 -27 7 0 17 -12 22 -26 6 -16 15 -23
22 -19 7 4 0 -5 -17 -19 l-30 -26 30 15 c32 16 41 14 29 -7 -5 -7 -7 -21 -5
-32 1 -10 -2 -15 -7 -12 -6 4 -13 2 -17 -4 -3 -5 -1 -10 4 -10 6 0 11 -7 11
-16 0 -8 4 -12 10 -9 5 3 10 1 10 -4 0 -6 7 -11 17 -11 9 0 13 -3 10 -7 -4 -3
1 -12 11 -19 11 -9 13 -13 4 -14 -7 0 -11 -4 -8 -9 3 -5 -1 -11 -9 -14 -20 -8
-16 -66 5 -59 24 8 38 21 43 42 3 13 1 18 -6 14 -7 -3 3 7 20 24 18 16 29 32
26 36 -4 4 0 4 10 0 9 -3 14 -11 10 -17 -3 -6 -1 -7 6 -3 6 4 18 2 26 -4 12
-10 18 -10 30 0 9 8 15 8 15 2 0 -6 8 -10 18 -9 14 1 19 9 18 29 -1 15 -6 28
-12 28 -7 0 -15 8 -18 17 -6 15 -8 15 -16 3 -12 -18 -12 -2 0 25 5 11 9 15 9
9 1 -6 7 -11 15 -11 8 0 12 6 9 13 -3 8 1 20 9 27 11 12 16 12 26 0 7 -7 8
-13 3 -13 -5 0 -9 -9 -8 -20 1 -18 26 -27 60 -21 5 1 6 -3 2 -9 -3 -6 -10 -8
-14 -6 -4 3 -13 1 -21 -5 -12 -7 -12 -9 3 -9 12 0 16 -4 11 -12 -5 -9 -2 -8 9
1 10 8 20 11 24 7 3 -3 0 -6 -7 -6 -10 0 -11 -3 -3 -11 17 -17 4 -50 -16 -40
-22 11 -66 -1 -66 -18 0 -8 -10 -16 -23 -18 -16 -2 -21 1 -16 9 4 7 3 8 -4 4
-6 -4 -9 -12 -6 -20 3 -7 -10 -20 -30 -31 -30 -16 -33 -21 -25 -42 5 -15 5
-31 0 -41 -6 -11 -6 -24 0 -35 6 -9 7 -17 3 -17 -3 0 -1 -6 5 -14 9 -10 8 -15
-4 -20 -8 -3 -15 -10 -15 -16 0 -15 377 -14 386 2 4 6 2 14 -4 16 -7 2 -9 8
-6 14 4 6 -1 8 -14 4 -11 -4 -23 -2 -27 4 -3 5 -1 10 6 10 8 0 8 4 -1 15 -7 9
-13 29 -12 45 0 16 -3 29 -8 27 -4 -1 -8 3 -8 8 0 6 4 9 9 7 27 -7 34 -6 32 6
-5 22 -5 27 -4 45 1 17 31 25 31 8 0 -13 39 -21 46 -10 3 6 1 16 -6 24 -8 10
-8 15 0 20 16 10 -40 43 -65 39 -19 -3 -19 -2 -3 10 10 7 14 17 10 21 -4 5 0
4 8 0 14 -9 50 -15 50 -9 0 1 -8 10 -17 20 -13 13 -15 18 -5 22 9 3 7 9 -8 22
-12 10 -21 21 -21 24 2 18 -1 19 -12 5 -10 -13 -15 -14 -24 -4 -8 9 -4 16 20
30 17 10 42 19 56 21 38 3 59 9 68 19 4 4 3 6 -2 2 -14 -8 -36 41 -23 50 7 4
8 1 3 -7 -5 -9 -2 -10 14 -5 17 5 24 1 34 -23 7 -18 18 -28 29 -26 9 1 25 -4
35 -12 17 -13 17 -15 -10 -39 -16 -14 -26 -29 -23 -34 3 -4 -5 -7 -18 -6 -14
2 -23 -2 -23 -11 0 -8 4 -14 9 -14 4 0 8 -5 8 -11 0 -6 -6 -9 -14 -6 -18 7
-40 -18 -30 -34 4 -7 3 -9 -3 -6 -15 10 -24 -18 -10 -32 8 -8 7 -11 -6 -11
-16 0 -16 -1 0 -20 22 -25 89 -29 79 -4 -3 8 -2 13 3 9 5 -3 12 1 14 7 3 7 6
3 6 -8 1 -12 9 -28 18 -35 14 -12 16 -12 9 1 -4 9 -2 8 7 -2 8 -10 17 -15 20
-11 4 3 7 0 7 -8 0 -11 2 -11 10 1 5 8 10 10 10 4 0 -7 9 -14 20 -17 10 -3 19
-2 18 2 -2 20 4 22 22 6 11 -10 20 -13 20 -7 0 6 -6 13 -12 16 -9 3 -6 11 9
24 15 13 19 22 12 29 -7 7 -7 13 0 18 6 3 10 1 9 -6 -2 -6 3 -14 11 -17 8 -2
11 0 7 6 -3 6 -2 13 3 16 17 11 21 -11 5 -25 -8 -7 -20 -22 -25 -33 -9 -18 -8
-19 3 -6 18 22 74 60 87 60 7 0 9 -11 7 -26 -3 -17 0 -27 12 -30 37 -12 61
-27 59 -38 -1 -6 5 -10 14 -8 22 3 46 -43 31 -61 -7 -8 -9 -17 -5 -20 3 -4 -2
-7 -13 -8 -10 0 -13 -3 -7 -6 9 -3 10 -10 3 -23 -12 -23 -1 -31 37 -28 23 1
29 7 31 27 1 14 7 30 12 35 14 14 13 46 -1 46 -6 0 -1 9 12 20 l24 19 -34 1
c-24 0 -32 -4 -28 -13 3 -8 -1 -14 -9 -14 -17 0 -18 9 -3 24 7 7 8 19 4 30
-13 31 -14 44 -2 40 17 -5 35 23 29 45 -2 10 -8 16 -12 13 -4 -3 -10 2 -14 10
-4 10 1 15 16 15 12 0 19 3 15 6 -3 4 4 15 16 26 12 11 17 17 11 14 -6 -3 -20
1 -30 9 -17 13 -18 14 -1 15 9 0 17 4 17 8 0 5 15 8 33 7 39 -2 42 -21 8 -52
-13 -13 -19 -23 -13 -23 10 0 28 -38 24 -52 -1 -4 5 -5 14 -1 11 4 12 8 4 13
-8 5 -7 10 2 18 14 12 48 -1 36 -14 -4 -4 -3 -15 3 -26 10 -18 9 -19 -13 -7
-21 11 -22 11 -9 -4 12 -16 8 -22 -12 -18 -5 1 -6 -3 -2 -9 4 -6 14 -5 28 3
33 18 38 31 20 45 -9 6 -12 12 -6 12 7 0 15 -5 18 -10 4 -6 11 -8 16 -4 5 3 7
10 4 15 -3 5 1 6 9 3 9 -3 16 -10 16 -14 0 -5 9 -6 20 -3 11 3 20 10 20 16 0
6 3 7 7 4 3 -4 13 -1 22 6 14 11 14 10 2 -5 -7 -10 -11 -25 -7 -33 3 -9 2 -14
-3 -10 -5 3 -11 2 -14 -2 -2 -5 -3 -3 -1 4 3 12 -14 12 -33 0 -6 -4 -14 -3
-18 3 -3 5 -11 10 -16 10 -6 0 -7 -4 -4 -10 3 -5 1 -10 -4 -10 -6 0 -2 -9 9
-20 22 -22 26 -40 9 -40 -5 0 -7 4 -4 10 6 9 -8 14 -28 11 -5 -1 -5 4 -1 11 5
10 4 10 -6 1 -37 -34 -8 -77 34 -50 38 24 56 28 49 10 -4 -10 -2 -14 4 -10 6
4 17 -1 24 -10 12 -15 12 -16 -5 -10 -16 7 -17 5 -5 -9 11 -14 11 -18 -5 -30
-11 -7 -24 -11 -29 -7 -6 4 -8 0 -4 -10 4 -10 2 -17 -5 -17 -6 0 0 -9 13 -20
13 -11 29 -24 36 -30 7 -6 80 -10 178 -10 152 0 166 1 163 18 -2 9 -10 24 -19
32 -9 8 -14 21 -12 28 3 6 -2 12 -11 12 -9 0 -16 6 -16 14 0 26 38 14 45 -14
4 -14 7 -27 6 -30 0 -3 10 -9 22 -14 14 -5 17 -10 10 -13 -18 -7 -16 -33 2
-33 8 0 15 5 15 10 0 6 5 10 11 10 5 0 7 -5 4 -10 -9 -15 61 -12 74 3 8 10 7
17 -2 27 -10 10 -9 11 2 5 7 -4 16 -2 21 5 5 8 9 5 13 -9 3 -12 1 -21 -4 -21
-5 0 -9 -4 -9 -10 0 -19 39 -10 66 15 27 25 39 32 31 17 -3 -4 1 -13 9 -20 12
-11 14 -10 14 4 0 14 2 15 17 3 11 -9 14 -10 9 -2 -5 9 -2 11 9 7 9 -4 14 -12
12 -19 -3 -6 2 -12 11 -12 17 0 42 20 43 34 0 4 9 16 19 25 18 17 20 16 39 -9
12 -14 21 -22 21 -17 0 5 5 1 11 -9 9 -15 13 -16 27 -5 9 7 13 8 9 2 -4 -7 0
-15 9 -18 24 -9 46 -7 39 4 -3 5 0 7 9 4 9 -3 19 3 27 18 7 13 21 29 31 36 10
7 16 18 13 23 -4 5 -2 9 2 9 13 0 14 42 1 57 -6 8 -8 16 -5 20 4 3 2 12 -4 20
-9 9 -8 13 0 13 9 0 9 5 1 20 -11 21 -40 28 -40 9 0 -5 -4 -8 -9 -4 -5 3 -12
1 -16 -4 -6 -11 -44 19 -39 30 2 3 -3 6 -11 6 -8 0 -15 -5 -15 -11 0 -6 -4 -5
-9 2 -6 10 -10 10 -20 -1 -13 -16 -55 -11 -45 5 4 6 -1 8 -13 4 -26 -8 -54 21
-33 34 7 4 23 5 34 1 22 -8 71 11 60 22 -4 4 5 1 20 -6 14 -7 26 -16 26 -22 0
-5 4 -4 9 4 7 10 13 11 30 1 20 -10 23 -9 28 9 3 12 9 21 14 21 5 0 9 10 9 21
0 17 5 20 25 17 20 -4 23 -2 15 12 -6 12 -5 17 4 17 7 0 13 -7 12 -16 -1 -9 5
-15 13 -13 11 2 12 0 3 -11 -10 -12 -8 -13 14 -9 20 3 25 2 19 -7 -4 -8 1 -14
15 -18 13 -3 19 -11 16 -19 -3 -8 -1 -14 5 -14 6 0 9 -7 6 -14 -4 -10 -1 -13
8 -9 8 3 13 9 10 13 -3 4 9 6 25 5 17 -1 30 2 30 7 0 5 5 6 10 3 6 -3 10 3 10
13 0 28 26 48 34 27 3 -9 10 -14 15 -10 5 3 13 1 16 -5 4 -6 3 -10 -2 -9 -20
3 -34 -2 -28 -11 3 -5 -1 -20 -11 -32 -12 -17 -15 -18 -10 -5 4 13 2 16 -7 10
-6 -4 -21 -8 -32 -9 -40 -2 -46 -4 -40 -14 4 -6 -1 -7 -11 -3 -11 4 -15 3 -10
-5 3 -6 -2 -16 -13 -21 -13 -8 -20 -8 -23 0 -2 5 -11 7 -21 3 -15 -5 -15 -9
-5 -22 10 -12 10 -14 1 -8 -8 4 -13 1 -13 -8 0 -9 8 -16 18 -16 9 0 13 -4 7
-8 -5 -4 -10 -14 -10 -22 0 -8 -6 -14 -12 -13 -16 4 -16 -2 -3 -28 6 -11 7
-18 3 -17 -4 2 -8 -2 -8 -7 0 -5 3 -9 8 -8 4 2 7 -1 7 -7 0 -5 7 -7 15 -4 8 4
12 10 9 15 -3 5 2 9 11 9 9 0 13 4 10 10 -3 5 -1 10 5 10 6 0 8 5 5 10 -3 6
-2 10 2 10 5 0 19 18 33 40 14 22 28 40 32 40 3 0 15 3 25 6 15 5 15 4 3 -5
-13 -9 -12 -11 5 -12 12 0 15 -3 7 -6 -10 -4 -9 -9 5 -19 10 -8 13 -13 8 -12
-6 2 -12 -1 -14 -7 -2 -5 -11 -16 -20 -23 -10 -8 -10 -11 -2 -6 10 5 13 3 9
-8 -4 -9 4 -26 16 -39 23 -24 23 -24 3 -41 -11 -10 -18 -18 -16 -19 44 -10 69
-8 69 5 0 9 7 12 20 9 12 -3 22 1 26 11 3 9 10 13 15 10 5 -3 9 0 9 5 0 6 6
11 14 11 26 0 28 21 5 41 -21 18 -20 34 4 34 18 0 19 37 2 59 -13 17 -17 18
-28 6 -10 -10 -9 -11 3 -5 13 8 13 6 2 -8 -8 -9 -11 -25 -7 -37 4 -11 2 -20
-4 -20 -6 0 -11 4 -11 8 0 13 -44 12 -52 -1 -5 -9 -10 -9 -18 -1 -8 8 -8 15 3
25 8 9 13 29 11 51 -2 21 1 40 6 43 6 4 10 17 10 31 0 27 28 76 39 69 4 -2 8
2 8 10 0 8 -5 15 -11 15 -6 0 -4 4 4 9 8 6 19 7 25 4 5 -4 -1 6 -14 20 -14 15
-19 27 -13 27 6 0 9 6 6 13 -6 16 -34 18 -51 4 -20 -15 -16 18 3 38 14 13 19
14 25 3 7 -10 11 -10 21 0 6 6 8 12 4 12 -5 0 3 9 18 21 15 12 23 26 19 32 -4
7 0 6 10 -1 9 -8 21 -11 26 -7 6 3 9 0 7 -7 -3 -7 -7 -26 -11 -42 -6 -26 -4
-28 19 -24 14 3 24 2 23 -1 -1 -3 2 -7 7 -8 5 -1 12 -6 16 -12 3 -7 14 -9 23
-5 9 3 14 10 11 15 -3 5 -1 9 5 9 6 0 8 7 5 15 -4 9 0 15 10 16 33 3 37 4 46
19 15 23 13 45 -2 32 -7 -5 -29 -11 -48 -13 -19 -2 -42 -9 -52 -17 -11 -9 -18
-10 -23 -2 -3 5 -10 8 -15 5 -5 -3 -3 8 3 25 6 16 15 30 19 30 4 0 6 16 4 36
-2 26 2 38 16 45 12 6 18 6 18 0 0 -6 7 -8 15 -5 8 4 13 9 10 13 -2 4 9 15 25
25 24 14 27 20 17 30 -6 8 -16 11 -21 8 -5 -3 -6 0 -3 6 4 5 15 8 25 5 17 -4
19 5 21 132 2 100 -1 141 -11 153 -10 12 -10 14 0 8 10 -6 12 134 12 691 0
642 -2 701 -18 733 -9 18 -24 36 -32 38 -9 2 -11 0 -5 -5 6 -4 10 -15 10 -23
0 -8 6 -14 13 -12 8 1 11 -2 7 -8 -3 -5 -15 -10 -26 -10 -10 0 -19 -4 -19 -10
0 -5 -7 -7 -15 -4 -8 4 -15 1 -15 -5 0 -17 -20 -13 -27 7 -4 9 -19 29 -35 44
-15 14 -28 32 -28 40 0 11 2 11 9 -1 5 -7 14 -10 20 -6 9 5 7 11 -6 21 -17 13
-17 14 1 7 14 -5 17 -3 11 7 -5 8 -3 11 6 8 8 -3 14 -18 14 -36 0 -17 3 -32 8
-32 24 -1 28 1 23 9 -4 5 0 12 6 14 9 4 9 8 3 14 -17 14 -36 53 -25 53 5 0 6
7 3 17 -4 9 -2 14 3 11 5 -3 15 0 22 8 9 10 9 14 1 14 -8 0 -7 5 2 18 13 15
12 16 -3 3 -15 -11 -19 -11 -24 2 -3 9 -11 14 -19 11 -20 -8 -43 22 -38 50 3
14 16 37 30 52 24 26 48 72 45 87 -1 4 2 7 7 7 5 0 8 11 7 24 -2 14 1 30 5 38
7 10 9 10 10 -2 1 -8 0 -19 -1 -25 -10 -48 -9 -51 7 -27 8 12 21 22 28 22 8 0
16 6 19 13 3 6 4 0 2 -16 -2 -15 0 -29 4 -32 4 -2 7 27 8 65 1 55 -2 70 -13
70 -8 0 -15 6 -15 14 0 9 -7 12 -20 9 -12 -3 -20 0 -20 6 0 7 -5 9 -10 6 -6
-4 -8 -10 -5 -15 3 -4 -2 -11 -11 -14 -11 -4 -15 -14 -12 -30 4 -19 0 -26 -19
-31 -13 -3 -21 -9 -18 -14 2 -5 -2 -12 -11 -15 -12 -5 -15 -2 -10 9 3 9 1 15
-7 14 -33 -4 -55 3 -61 18 -4 10 -4 14 0 11 11 -11 34 19 28 36 -4 11 -1 16
11 16 9 0 13 5 10 10 -3 6 -2 10 4 10 5 0 12 -6 14 -12 4 -9 8 -10 14 -2 4 6
16 10 25 9 18 -3 32 21 21 37 -3 6 -1 8 4 5 6 -4 16 0 23 8 10 12 10 15 -1 15
-9 0 -14 12 -15 30 -1 17 2 30 6 30 18 0 19 33 3 47 -10 8 -12 11 -4 7 11 -5
11 -3 3 11 -5 10 -17 20 -26 21 -9 1 -14 -1 -11 -6 3 -4 -4 -10 -14 -13 -19
-5 -20 7 -2 38 3 6 6 17 6 25 0 17 45 23 45 6 0 -15 40 -18 57 -5 6 6 17 8 22
5 7 -4 10 89 10 268 1 195 -3 277 -11 282 -6 4 -8 3 -4 -4 3 -6 -2 -15 -11
-21 -10 -6 -14 -11 -10 -11 4 0 2 -10 -5 -22 -17 -32 -21 -61 -6 -52 7 4 8 3
4 -4 -11 -18 -26 -14 -26 6 -1 15 -2 15 -11 -2 -8 -13 -8 -20 1 -26 13 -8 13
-19 -2 -38 -6 -7 -8 -15 -4 -19 9 -9 15 0 19 28 2 13 7 23 10 22 4 -2 12 -3
17 -3 6 0 10 -8 10 -18 0 -10 5 -23 12 -30 9 -9 6 -16 -11 -31 -13 -11 -20
-25 -16 -31 3 -6 3 -9 -2 -8 -4 1 -18 -3 -31 -10 -23 -13 -55 -6 -33 7 8 5 4
14 -10 27 -13 10 -19 13 -15 7 4 -7 3 -13 -3 -13 -5 0 -18 14 -28 30 -9 17
-21 30 -26 30 -4 0 -6 4 -3 8 3 5 -13 8 -34 8 -22 -1 -40 -4 -40 -9 0 -4 0
-12 0 -18 0 -5 4 -7 10 -4 6 3 7 -1 4 -10 -4 -11 -10 -12 -18 -6 -8 7 -16 4
-24 -10 -12 -18 -7 -24 19 -21 3 1 6 -6 6 -14 0 -8 -6 -13 -13 -10 -6 2 -15 2
-18 -2 -8 -8 -45 -10 -43 -3 1 3 -1 7 -5 9 -20 6 -34 0 -46 -19 -8 -12 -9 -19
-4 -15 5 3 9 -2 9 -10 0 -9 -6 -13 -14 -10 -8 3 -12 2 -8 -3 9 -15 -6 -40 -21
-34 -17 6 -18 -10 -3 -38 5 -11 15 -16 21 -13 8 5 9 1 5 -11 -4 -9 -2 -24 4
-31 9 -11 9 -14 0 -14 -7 0 -10 -4 -7 -9 3 -5 -3 -11 -14 -14 -18 -5 -22 2
-19 29 1 10 -35 33 -52 34 -9 0 -23 8 -30 17 -10 11 -10 14 -1 9 7 -4 12 -2
12 8 0 8 9 17 19 21 28 9 16 45 -16 45 -13 0 -22 -4 -19 -9 3 -5 -2 -12 -12
-16 -16 -6 -16 -7 2 -21 11 -8 15 -14 9 -14 -13 0 -26 18 -29 38 -3 19 -5 20
-36 26 -18 3 -28 -1 -32 -11 -4 -9 -9 -13 -13 -9 -3 3 -16 0 -27 -8 -18 -11
-23 -11 -34 0 -9 10 -9 15 1 21 6 4 17 8 22 8 6 1 9 7 7 14 -1 7 2 10 8 6 6
-3 8 -10 5 -15 -3 -4 2 -11 11 -14 8 -3 12 -2 9 3 -3 5 -1 13 5 16 7 4 7 11 2
18 -5 7 -8 20 -7 30 2 9 0 17 -5 17 -8 0 -23 39 -21 54 2 12 -32 35 -44 29 -5
-4 -7 -3 -3 2 4 4 0 15 -10 24 -24 22 -30 83 -8 75 9 -3 14 -9 11 -14 -2 -4 7
-12 21 -19 23 -10 26 -9 31 9 3 11 9 20 13 20 4 0 10 9 13 20 3 11 1 20 -5 20
-6 0 -8 7 -5 14 4 10 1 13 -9 9 -8 -3 -23 4 -33 16 -10 11 -22 17 -26 13 -5
-4 -5 -2 -2 5 4 6 4 19 1 28 -5 13 -8 14 -15 3 -7 -10 -9 -11 -9 0 0 7 -4 11
-9 8 -4 -3 -6 7 -4 22 3 16 1 22 -4 15 -6 -8 -13 -8 -27 3 -11 7 -17 17 -13
20 4 4 -2 13 -12 21 -14 9 -56 13 -149 12 l-130 0 8 -35 c7 -30 -3 -50 -12
-23 -2 6 -26 11 -53 12 -54 2 -71 13 -52 35 9 11 3 13 -34 11 -24 -1 -50 -7
-56 -12 -9 -6 -13 -5 -13 2 0 16 -36 5 -74 -21 -16 -11 -26 -16 -22 -9 9 14 5
14 -28 1 -19 -7 -26 -6 -26 3 0 8 -3 7 -9 -3 -6 -8 -7 -18 -4 -24 3 -5 1 -6
-6 -2 -6 4 -9 11 -7 15 3 4 -4 12 -14 19 -12 7 -21 8 -25 2 -4 -6 -10 -8 -15
-5 -4 3 -13 -2 -20 -10 -15 -18 -50 -20 -50 -2 0 8 -3 7 -9 -3 -14 -20 -5 -28
24 -22 20 3 24 1 19 -11 -3 -9 -11 -14 -19 -11 -7 3 -19 -2 -28 -11 -10 -9
-18 -11 -22 -5 -4 6 -10 8 -15 5 -5 -3 -11 -1 -15 4 -3 6 -12 8 -20 5 -8 -4
-13 -10 -10 -14 7 -11 -76 29 -90 44 -13 13 -13 31 -1 43 5 5 6 3 2 -4 -4 -7
-2 -13 3 -13 19 0 12 19 -10 31 -17 8 -23 8 -30 -2 -4 -7 -5 -17 -2 -23 3 -5
1 -6 -6 -2 -10 7 -30 -11 -77 -67 -9 -10 -8 -18 2 -32 10 -14 14 -15 15 -4 0
8 5 3 10 -10 7 -19 6 -28 -7 -40 -9 -9 -14 -11 -11 -6 2 6 -1 16 -8 22 -11 10
-13 9 -12 -7 1 -11 9 -22 18 -25 10 -3 16 -13 15 -23 -2 -9 7 -26 18 -38 22
-22 66 -38 66 -24 0 14 39 18 50 5 13 -15 -13 -40 -31 -29 -8 4 -9 3 -5 -4 4
-7 2 -12 -3 -12 -6 0 -11 4 -11 10 0 5 -10 9 -22 9 -32 -2 -80 19 -73 31 3 5
2 10 -3 10 -9 0 -37 50 -34 62 1 4 -5 5 -13 2 -11 -5 -13 -2 -9 10 3 9 10 14
14 11 4 -3 8 10 8 28 0 17 3 47 7 65 5 21 4 32 -4 32 -6 0 -11 9 -11 20 0 11
-5 20 -11 20 -5 0 -7 4 -4 10 4 6 -33 9 -99 9 -65 0 -108 -4 -112 -11 -4 -6
-2 -8 4 -4 6 3 14 1 18 -5 4 -8 3 -9 -4 -5 -10 6 -34 -24 -31 -41 4 -24 -3
-44 -13 -41 -11 4 -30 -8 -65 -41 -10 -10 -17 -11 -22 -3 -3 6 -13 12 -21 14
-8 2 -21 10 -28 18 -8 8 -11 10 -8 3 4 -6 2 -14 -3 -17 -15 -10 -43 5 -37 20
3 7 -1 17 -7 23 -15 12 -42 -2 -33 -18 4 -6 2 -11 -4 -11 -6 0 -8 -4 -5 -10 3
-5 1 -10 -4 -10 -6 0 -11 -6 -11 -14 0 -8 -5 -16 -11 -18 -5 -2 -11 -18 -11
-36 -1 -19 -6 -31 -12 -29 -6 2 -10 11 -10 20 1 9 -2 14 -7 11 -5 -3 -6 -17
-3 -32 4 -21 3 -23 -5 -12 -6 8 -14 16 -18 16 -30 6 -53 19 -58 34 -6 20 -42
17 -60 -4 -11 -13 -56 -16 -49 -4 3 5 -3 11 -12 15 -10 4 -19 2 -22 -5 -5 -16
-53 -16 -49 1 1 6 -4 11 -12 9 -7 -1 -19 2 -27 9 -20 16 -58 -48 -41 -70 9
-12 9 -13 -1 -7 -7 4 -19 1 -27 -8 -20 -20 -19 -21 10 -24 25 -2 27 2 28 56 1
13 7 22 16 22 13 0 13 2 2 9 -8 5 -9 11 -3 15 5 3 22 -10 36 -28 29 -38 31
-46 15 -46 -5 0 -7 6 -3 13 4 6 3 9 -1 4 -5 -4 -9 -16 -10 -27 -1 -17 10 -24
36 -22 3 1 6 -5 6 -13 0 -7 -5 -11 -12 -9 -7 3 -11 -8 -10 -28 0 -24 7 -36 23
-43 30 -13 28 -34 -3 -30 -14 1 -28 -2 -31 -6 -3 -5 -11 -9 -17 -9 -7 0 -6 4
3 10 8 5 11 10 6 10 -5 0 -4 6 2 13 8 9 4 18 -13 32 -26 23 -45 29 -45 16 0
-17 -62 -42 -76 -30 -13 11 -15 49 -2 49 16 0 23 -5 20 -14 -2 -5 4 -4 12 3
20 17 12 31 -14 26 -14 -3 -18 0 -13 8 11 18 12 36 3 42 -5 3 -11 1 -15 -4 -9
-15 -57 10 -51 26 5 12 -6 17 -26 14 -11 -2 -10 17 1 24 5 3 12 2 15 -3 14
-22 120 12 111 36 -3 7 -1 11 4 7 5 -3 12 1 14 7 4 10 8 10 15 -1 8 -10 11
-11 17 -1 5 8 1 18 -10 26 -10 8 -15 17 -12 21 4 3 7 3 7 -1 0 -4 9 -2 21 5
15 8 20 18 16 35 -4 24 15 34 28 14 3 -5 1 -10 -6 -10 -10 0 -10 -3 -1 -12 9
-9 15 -8 27 8 8 10 15 17 16 14 7 -29 6 -72 -1 -60 -5 8 -6 19 -2 25 3 5 -1 4
-10 -2 -8 -7 -17 -11 -20 -8 -2 3 -5 -1 -5 -9 0 -8 3 -14 6 -14 3 1 17 -2 31
-5 58 -15 79 -16 73 -2 -3 9 4 16 21 21 33 8 44 0 40 -31 -2 -21 0 -24 11 -15
8 6 16 7 19 2 3 -5 17 -12 30 -14 18 -4 23 -1 21 11 -2 9 6 27 16 40 10 13 19
20 19 17 0 -4 10 -2 22 5 19 10 20 9 14 -7 -4 -13 1 -10 17 8 13 15 27 25 30
22 3 -4 5 10 4 30 -1 20 -7 36 -13 36 -6 0 -10 -11 -9 -24 2 -19 -3 -27 -25
-35 -16 -5 -32 -6 -36 -3 -4 4 -4 1 0 -5 4 -7 3 -13 -2 -13 -6 0 -12 6 -15 14
-6 16 -47 10 -47 -6 0 -5 -6 -6 -12 -3 -7 4 -2 -2 11 -13 16 -13 20 -21 12
-26 -6 -4 -9 -12 -6 -17 7 -10 -15 -12 -39 -3 -13 5 -14 9 -5 20 6 8 7 14 2
14 -5 0 -8 15 -8 34 0 19 3 32 8 29 4 -2 7 0 7 6 0 5 9 13 20 16 35 11 14 20
-55 23 -46 2 -65 0 -60 -7 3 -6 10 -9 14 -7 3 3 7 -3 7 -13 0 -23 -20 -21 -73
7 -54 28 -143 31 -144 5 0 -15 -2 -15 -7 -3 -10 21 -36 19 -40 -4 -3 -13 0
-16 10 -10 10 6 11 5 2 -7 -6 -8 -10 -24 -9 -37 1 -15 -3 -21 -11 -18 -7 3
-15 0 -17 -7 -3 -9 -8 -9 -18 1 -7 6 -8 12 -3 12 6 0 11 7 11 15 0 8 -4 15 -9
15 -5 0 -6 4 -3 10 3 5 8 19 10 30 4 18 -1 20 -66 20 l-70 0 18 -25 c17 -23
41 -36 28 -15 -3 6 3 10 14 10 11 0 23 5 26 10 8 13 25 13 25 -1 0 -5 -4 -8
-8 -5 -5 3 -9 -1 -9 -9 0 -12 3 -12 15 -2 13 10 14 9 10 -3 -2 -8 -16 -16 -29
-17 -54 -3 -93 -13 -101 -25 -6 -9 -8 -7 -6 7 5 28 -32 46 -52 26 -11 -11 -12
-15 -2 -19 7 -2 9 -9 5 -15 -4 -6 0 -8 10 -4 23 9 32 -12 11 -27 -9 -7 -14
-18 -11 -23 4 -6 -1 -17 -10 -24 -12 -10 -14 -10 -9 -1 4 6 3 12 -2 12 -6 0
-12 -6 -15 -14 -3 -8 -14 -13 -24 -12 -10 2 -21 -2 -25 -8 -5 -8 -8 -7 -8 2 0
7 -5 10 -12 6 -8 -5 -8 -3 -2 7 10 15 13 59 4 59 -3 0 -6 14 -7 31 -1 18 0 29
4 25 3 -3 13 4 21 15 12 17 12 23 2 29 -20 12 -104 10 -112 -2 -3 -6 -22 -11
-42 -10 -19 1 -38 -3 -41 -8 -3 -6 2 -7 12 -4 16 5 16 4 -1 -10 -11 -9 -15
-16 -9 -16 6 0 15 6 21 13 13 15 66 22 57 7 -3 -6 -1 -10 6 -10 7 0 9 -3 6 -7
-4 -3 1 -15 10 -25 23 -25 27 -57 8 -64 -8 -4 -15 -13 -15 -21 0 -8 4 -12 9
-9 5 3 21 -6 35 -19 15 -14 23 -25 19 -25 -17 0 -65 -53 -54 -59 7 -5 6 -14
-5 -30 -15 -21 -17 -21 -29 -4 -9 12 -10 23 -3 36 5 10 7 21 4 25 -3 3 -6 1
-6 -5 0 -6 -9 -13 -20 -16 -11 -3 -17 -1 -14 4 3 5 -2 12 -10 15 -9 3 -14 10
-11 14 3 5 -3 14 -12 20 -16 10 -16 11 4 7 13 -3 26 0 30 5 3 7 1 8 -5 4 -7
-4 -12 -3 -12 3 0 6 -10 10 -22 9 -38 -1 -49 2 -43 11 3 5 1 12 -5 16 -5 3
-10 14 -10 23 0 15 2 15 10 2 7 -11 12 -12 21 -3 14 14 4 47 -12 37 -8 -4 -9
0 -4 15 4 15 2 20 -7 18 -7 -2 -10 -2 -5 0 4 3 7 11 7 19 0 8 5 14 11 14 5 0
8 -4 5 -8 -3 -5 0 -9 7 -9 7 0 13 8 13 16 0 13 -12 16 -63 15 -61 -1 -93 -14
-93 -39 0 -6 -12 -17 -27 -24 -23 -11 -28 -10 -37 6 -14 23 -14 35 -3 51 6 8
5 12 -4 12 -11 0 -11 2 1 10 10 6 -24 9 -98 9 -100 0 -112 -2 -112 -17z m640
-15 c0 -6 -3 -7 -7 -4 -3 4 -13 1 -21 -6 -13 -9 -14 -9 -8 1 4 7 2 12 -6 12
-10 0 -10 2 1 9 17 11 41 4 41 -12z m470 -7 c0 -5 -7 -7 -15 -4 -8 4 -15 8
-15 10 0 2 7 4 15 4 8 0 15 -4 15 -10z m1554 -21 c1 -8 8 -24 14 -36 9 -16 9
-23 2 -23 -6 0 -8 -5 -4 -12 4 -7 3 -8 -5 -4 -6 4 -9 11 -7 15 3 4 -3 24 -14
43 -10 20 -16 39 -13 42 8 8 24 -7 27 -25z m363 7 c0 -8 -6 -12 -12 -9 -9 3
-12 -11 -11 -46 2 -34 -2 -52 -11 -55 -10 -4 -6 -14 14 -36 20 -23 29 -27 36
-18 7 10 10 10 14 -1 4 -9 7 -10 12 -2 5 7 12 1 20 -16 8 -16 18 -36 23 -47 7
-12 6 -16 -1 -11 -6 3 -11 1 -11 -4 0 -6 5 -11 11 -11 8 0 7 -6 -2 -17 -12
-15 -12 -16 1 -8 8 5 2 -5 -15 -21 -18 -17 -33 -25 -37 -19 -4 6 -8 6 -8 1 0
-5 -6 -3 -14 3 -8 7 -13 21 -11 32 2 11 0 17 -6 14 -5 -4 -9 -1 -9 6 0 8 -5 7
-17 -2 -9 -8 -18 -13 -20 -11 -1 1 -8 2 -14 2 -8 0 -8 -5 1 -15 10 -12 10 -15
-1 -15 -12 0 -12 -2 0 -9 9 -6 4 -8 -18 -6 -17 1 -35 6 -39 10 -4 5 -1 5 6 1
6 -4 12 -3 12 2 0 5 -9 12 -20 15 -11 3 -19 11 -18 17 4 17 -47 23 -73 10 -11
-7 -18 -18 -15 -25 3 -9 -3 -12 -19 -10 -14 1 -22 -1 -20 -5 3 -5 -2 -10 -10
-13 -9 -4 -12 -1 -9 7 3 8 0 17 -5 21 -6 3 -8 12 -4 18 4 7 8 19 10 27 1 8 7
16 13 18 7 3 1 10 -12 16 -13 7 -22 19 -20 29 2 9 -3 17 -9 17 -7 0 -4 6 6 14
18 13 17 13 -6 12 -16 -1 -24 -7 -23 -19 2 -23 -18 -17 -22 6 -1 9 2 15 7 11
14 -8 11 20 -3 35 -11 10 -7 11 16 7 24 -4 27 -2 23 14 -3 11 -1 18 4 14 5 -3
9 0 9 5 0 6 -4 11 -10 11 -5 0 -10 8 -10 18 0 17 18 19 93 13 4 -1 7 -8 7 -16
0 -8 7 -15 15 -15 8 0 15 4 15 10 0 17 25 0 37 -25 6 -14 7 -23 2 -19 -5 3 -9
-2 -9 -10 0 -9 -4 -16 -9 -16 -5 0 -13 -10 -16 -21 -4 -12 -10 -17 -14 -12
-10 16 -40 23 -47 11 -5 -7 -2 -8 6 -3 9 5 11 4 6 -4 -6 -9 -11 -9 -22 0 -13
10 -18 6 -15 -13 0 -4 -7 -4 -17 -1 -10 4 -5 -5 13 -24 17 -17 32 -27 33 -22
2 5 10 9 17 9 7 0 15 5 17 12 3 8 20 11 43 10 22 -2 36 0 33 3 -13 14 27 42
48 34 28 -10 41 1 39 31 -1 13 1 39 5 57 5 22 4 36 -4 40 -6 5 1 10 19 14 17
4 30 7 31 8 0 0 1 -5 1 -13z m-1847 -2 c0 -8 -19 -13 -24 -6 -3 5 1 9 9 9 8 0
15 -2 15 -3z m-982 -23 c11 -7 10 -9 -3 -14 -9 -4 -14 -3 -10 2 3 5 -1 12 -7
14 -7 3 -8 6 -3 6 6 0 16 -3 23 -8z m701 -20 c24 -23 28 -30 16 -35 -9 -3 -15
0 -15 8 0 8 -12 24 -27 35 -16 11 -23 21 -17 21 7 0 26 -13 43 -29z m1515 3
c3 -8 2 -12 -4 -9 -6 3 -10 10 -10 16 0 14 7 11 14 -7z m-303 -51 c-10 -17
-10 -16 -11 3 0 23 13 41 18 25 2 -6 -1 -18 -7 -28z m291 25 c10 -27 -2 -36
-32 -25 -28 11 -28 11 -7 23 29 16 34 16 39 2z m633 3 c3 -5 2 -12 -3 -15 -5
-3 -9 1 -9 9 0 17 3 19 12 6z m-2755 -12 c0 -5 6 -7 13 -3 6 4 9 4 5 -1 -4 -4
-3 -14 2 -20 7 -9 6 -16 -5 -25 -12 -10 -15 -10 -15 3 0 9 -9 21 -20 27 -11 6
-18 15 -15 21 8 12 35 12 35 -2z m-233 -10 c-1 -4 2 -6 6 -5 5 0 13 -7 19 -17
7 -14 6 -22 -9 -33 -10 -9 -12 -13 -3 -9 10 4 9 2 -2 -8 -10 -8 -14 -18 -10
-23 4 -4 0 -3 -9 4 -14 11 -46 19 -77 21 -7 1 -11 5 -7 11 3 5 13 6 22 3 12
-5 14 -3 8 7 -6 10 -4 12 9 7 10 -4 15 -3 11 3 -3 6 -1 10 4 10 6 0 11 8 11
18 0 10 7 19 14 19 8 0 14 -4 13 -8z m333 1 c0 -5 -2 -10 -4 -10 -3 0 -8 5
-11 10 -3 6 -1 10 4 10 6 0 11 -4 11 -10z m-199 -30 c6 0 7 5 3 12 -4 7 -3 8
5 4 15 -10 3 -29 -15 -22 -12 5 -12 2 0 -17 8 -12 15 -24 14 -27 0 -3 2 -15 6
-27 7 -23 25 -25 50 -4 13 11 16 11 16 1 0 -7 8 -19 18 -27 11 -10 12 -12 2
-8 -13 6 -13 5 0 -7 31 -28 39 -53 24 -79 -7 -13 -14 -19 -14 -14 0 6 -4 4 -9
-4 -8 -12 -11 -12 -24 0 -7 8 -13 22 -11 32 1 10 -4 21 -12 24 -8 3 -14 10
-14 15 0 6 6 8 13 5 8 -3 19 -2 26 2 7 5 -2 12 -24 18 -19 6 -33 7 -29 2 3 -5
0 -9 -7 -9 -8 0 -8 -4 1 -15 11 -13 10 -14 -4 -9 -9 3 -16 11 -16 16 0 6 -7 8
-15 4 -13 -4 -14 -2 -5 14 8 15 8 20 -1 20 -7 0 -9 3 -6 7 4 3 -3 13 -16 22
-12 9 -22 13 -22 11 0 -3 -8 2 -17 10 -10 9 -13 19 -7 26 5 6 6 14 2 18 -4 4
7 4 25 1 25 -4 34 -1 39 12 4 10 8 12 11 5 2 -7 8 -12 13 -12z m1466 -11 c2
-14 -1 -18 -9 -13 -8 5 -7 0 2 -11 8 -10 10 -16 4 -12 -7 4 -14 0 -18 -8 -3
-8 -1 -15 4 -15 15 0 -13 -39 -32 -46 -11 -3 -15 -11 -11 -21 4 -10 2 -14 -4
-10 -6 4 -13 0 -17 -8 -8 -21 -23 -19 -31 4 -4 15 -13 18 -33 15 -26 -4 -26
-4 -7 11 11 9 28 14 37 12 10 -3 16 -2 15 2 -1 3 8 18 21 31 18 20 22 21 16 6
-5 -14 -4 -17 4 -12 7 4 12 2 12 -4 0 -6 5 -8 11 -4 8 4 7 9 -2 15 -11 6 -11
11 -1 21 6 6 12 24 12 38 0 44 21 51 27 9z m-1302 1 c-3 -5 -2 -10 3 -10 8 0
9 -17 3 -53 0 -4 -12 5 -26 20 -22 26 -23 29 -8 41 20 14 37 16 28 2z m2088
-5 c4 -8 3 -16 -1 -19 -4 -3 -9 4 -9 15 -2 23 3 25 10 4z m107 -43 c-5 -2 -7
-9 -3 -15 3 -7 2 -8 -3 -4 -4 4 -9 20 -10 34 -1 25 0 25 13 7 9 -12 10 -20 3
-22z m-76 6 c-3 -4 2 -8 10 -8 14 0 14 -3 4 -20 -7 -11 -20 -20 -28 -20 -13 0
-13 1 0 10 11 7 11 10 2 10 -7 0 -10 5 -7 10 3 6 1 10 -5 10 -6 0 -9 4 -6 8 3
5 12 9 20 9 8 0 13 -4 10 -9z m61 -47 c-3 -3 -10 1 -14 8 -7 11 -11 9 -20 -5
-9 -16 -10 -17 -11 -2 0 9 6 18 13 21 14 5 40 -13 32 -22z m175 7 c0 -5 4 -7
9 -4 5 4 4 -5 -2 -18 -7 -14 -14 -21 -17 -18 -9 12 -43 14 -35 3 3 -6 -1 -11
-9 -11 -20 0 -20 14 -1 30 8 7 13 15 11 19 -2 3 7 7 20 7 13 1 24 -2 24 -8z
m-1546 -6 c2 -4 -5 -9 -17 -9 -17 -2 -19 0 -7 7 18 12 18 12 24 2z m1469 -24
c-10 -12 -19 -15 -21 -8 -7 20 7 40 23 34 14 -6 14 -9 -2 -26z m-803 0 c0 -5
11 -6 25 -2 16 4 25 2 25 -5 0 -9 5 -9 20 -1 14 7 26 8 38 1 16 -10 16 -10 -1
-11 -10 0 -15 -4 -12 -10 3 -5 16 -10 28 -10 14 0 18 -3 11 -10 -9 -9 -44 -12
-94 -9 -8 1 -27 -1 -43 -4 -16 -3 -25 -2 -22 4 4 5 11 7 16 4 5 -4 9 1 9 10 0
9 -5 13 -11 10 -15 -10 -59 -14 -59 -6 0 4 8 16 19 27 19 21 51 28 51 12z
m747 -15 c23 -24 24 -28 10 -31 -9 -2 -17 -8 -17 -13 0 -6 -4 -8 -9 -4 -6 3
-15 -4 -21 -15 -8 -15 -8 -20 2 -21 10 0 10 -2 1 -6 -7 -2 -13 -11 -13 -19 0
-12 -2 -12 -14 -2 -7 7 -12 17 -10 23 2 6 -5 16 -16 23 -14 8 -20 9 -20 1 0
-8 -6 -7 -17 2 -13 11 -15 11 -9 1 5 -9 1 -15 -13 -19 -12 -3 -21 -10 -21 -17
0 -6 -5 -3 -11 7 -6 9 -15 14 -21 11 -7 -4 -8 -2 -4 5 4 6 12 9 17 6 5 -3 6 1
3 9 -5 13 -9 13 -27 2 -18 -11 -45 -14 -76 -7 -2 1 2 7 8 14 6 8 8 17 4 20 -3
4 4 7 17 7 12 0 29 -8 37 -17 12 -16 13 -15 7 10 -6 27 -5 28 29 25 20 -1 33
-6 30 -11 -3 -4 -11 -6 -19 -3 -8 3 -14 3 -14 0 0 -13 46 -21 59 -10 11 8 13
8 7 -1 -4 -7 -3 -13 3 -13 5 0 15 8 20 18 6 9 11 13 11 8 0 -5 10 2 21 15 l21
24 -7 -24 c-5 -17 -4 -22 6 -19 8 3 13 15 12 27 -3 27 0 27 34 -6z m-2422 -46
c1 -12 5 -28 9 -36 6 -10 5 -12 -2 -7 -7 4 -12 5 -12 2 0 -3 12 -12 27 -19
l27 -14 -22 -12 c-13 -7 -28 -9 -34 -5 -7 5 -8 3 -4 -5 5 -7 15 -10 24 -6 11
4 8 -3 -7 -19 -14 -15 -21 -26 -16 -26 5 0 3 -6 -3 -12 -15 -15 -92 -19 -92
-6 0 5 5 6 10 3 6 -3 10 -1 10 5 0 6 5 8 12 4 20 -13 45 -11 45 2 0 7 -5 10
-11 7 -6 -4 -5 1 3 10 9 11 10 17 2 17 -6 0 -11 5 -11 11 0 5 3 8 8 6 4 -3 7
6 7 19 0 13 -4 24 -9 24 -5 0 -4 6 3 13 8 10 7 17 -2 27 -10 10 -9 11 2 5 10
-6 13 -4 8 7 -6 16 12 42 22 32 3 -3 6 -15 6 -27z m1360 22 c12 -18 -3 -22
-20 -5 -14 14 -14 16 -1 16 8 0 18 -5 21 -11z m81 -15 c-3 -8 -2 -12 4 -9 6 3
10 2 10 -4 0 -15 -14 -21 -29 -11 -16 9 -8 40 10 40 6 0 8 -7 5 -16z m480 1
c-4 -10 2 -19 17 -25 16 -6 17 -9 5 -9 -9 -1 -20 4 -23 9 -4 6 -12 7 -18 3 -7
-4 -5 1 3 12 14 17 13 17 -10 11 -19 -6 -21 -5 -10 3 23 16 43 13 36 -4z m594
-2 c0 -7 -4 -13 -10 -13 -5 0 -13 -1 -17 -2 -3 -2 -7 5 -9 14 -1 11 4 16 17
15 10 -1 19 -7 19 -14z m543 -26 c-3 -13 -11 -24 -18 -24 -17 0 -28 24 -15 32
6 4 10 0 10 -7 0 -8 5 -6 11 5 14 23 17 22 12 -6z m-933 -34 c0 -7 -7 -13 -16
-13 -8 0 -13 -4 -9 -10 3 -5 -8 -16 -24 -25 -33 -17 -86 -21 -76 -5 3 6 -1 7
-9 4 -9 -3 -14 -10 -11 -15 3 -4 -3 -6 -15 -4 -11 2 -22 0 -25 -5 -4 -6 -14
-5 -25 2 -10 7 -16 16 -14 20 3 4 0 8 -6 8 -6 0 -9 4 -5 10 3 5 12 7 20 4 14
-6 39 29 28 40 -3 3 1 6 10 6 10 0 17 -2 17 -4 0 -2 3 -12 7 -22 5 -13 3 -15
-7 -9 -9 5 -11 4 -6 -4 6 -9 11 -9 22 0 10 8 14 8 14 1 0 -6 7 -9 15 -6 9 4
15 0 15 -7 0 -8 9 -3 21 11 11 14 18 19 14 13 -3 -7 -1 -13 4 -13 6 0 11 9 11
19 0 11 3 26 6 34 5 14 8 13 25 -1 10 -9 19 -22 19 -29z m856 25 c10 -12 14
-18 7 -14 -16 9 -38 -30 -21 -40 7 -4 8 -3 4 4 -4 7 -4 12 1 13 4 0 15 2 24 4
11 2 16 -3 14 -14 -1 -9 2 -25 8 -36 10 -20 10 -20 -12 -1 -25 23 -28 11 -3
-17 9 -11 11 -17 5 -13 -7 4 -13 5 -13 2 0 -11 24 -56 29 -56 11 0 10 -39 0
-46 -6 -4 -5 -12 3 -22 7 -10 9 -14 4 -10 -14 12 -35 -15 -24 -30 9 -10 5 -11
-17 -2 -33 12 -69 51 -57 59 13 9 24 43 11 36 -6 -4 -9 -1 -8 6 2 8 -2 24 -9
36 -10 17 -9 24 3 36 8 8 11 18 7 22 -4 5 1 5 12 1 14 -5 17 -3 11 11 -3 10
-7 23 -8 28 -1 6 -6 14 -12 18 -6 6 -6 10 3 14 6 2 12 11 12 19 0 19 4 18 26
-8z m-430 -3 c8 -7 9 -12 1 -17 -6 -4 -17 1 -24 10 -12 15 -12 14 -2 -8 7 -14
17 -28 23 -32 7 -5 3 -8 -9 -8 -15 0 -17 -3 -7 -9 11 -7 11 -9 -1 -14 -11 -4
-15 0 -12 14 2 10 0 19 -5 19 -5 0 -7 9 -5 20 2 11 -2 20 -8 20 -7 0 -7 4 3 9
16 11 30 10 46 -4z m304 3 c0 -9 4 -8 10 2 9 13 11 13 19 0 5 -8 8 -17 5 -21
-2 -4 3 -12 11 -19 17 -14 20 -30 4 -30 -5 0 -7 5 -4 10 3 6 1 10 -4 10 -6 0
-12 -3 -12 -7 -6 -34 -5 -53 3 -53 10 0 31 -50 23 -58 -3 -3 -13 5 -24 17 -14
16 -21 18 -24 9 -4 -9 -6 -7 -6 4 -1 9 -6 20 -13 24 -7 5 -8 3 -3 -5 6 -10 3
-11 -14 -2 -11 7 -21 15 -21 18 0 3 3 3 7 0 3 -4 12 -2 20 4 10 9 10 15 2 25
-9 11 -9 14 0 14 8 0 10 11 5 35 -4 23 -2 35 5 35 6 0 11 -6 11 -12z m-380 -9
c0 -5 -4 -7 -10 -4 -5 3 -10 1 -10 -5 0 -6 -5 -8 -11 -4 -8 4 -7 9 2 15 19 12
29 11 29 -2z m1077 -12 c6 -9 12 -57 7 -57 0 0 -15 14 -32 30 -18 17 -27 30
-21 30 5 0 8 4 5 9 -4 5 3 7 14 4 11 -3 23 -10 27 -16z m-3462 3 c-3 -5 -11
-10 -16 -10 -6 0 -7 5 -4 10 3 6 11 10 16 10 6 0 7 -4 4 -10z m2202 -4 c-4
-10 -1 -13 9 -9 7 3 14 1 14 -4 0 -15 -38 -12 -44 3 -3 9 -1 12 4 9 6 -3 10
-1 10 4 0 6 3 11 6 11 3 0 4 -7 1 -14z m500 8 c-3 -3 -12 -4 -19 -1 -8 3 -5 6
6 6 11 1 17 -2 13 -5z m-1188 -25 c-10 -20 -12 -35 -3 -26 7 6 64 -19 64 -29
0 -3 -4 -3 -9 1 -5 3 -17 -5 -25 -17 -11 -15 -16 -18 -16 -8 0 13 -2 13 -9 1
-7 -11 -13 -8 -31 12 -13 15 -28 24 -33 20 -6 -3 -7 -1 -3 5 4 7 13 12 21 12
8 0 16 3 18 8 3 4 -8 7 -24 7 -24 0 -37 -13 -27 -27 1 -2 -4 -13 -11 -26 -7
-13 -17 -20 -24 -15 -8 4 -8 2 1 -9 10 -13 10 -18 1 -24 -8 -5 -10 -3 -5 7 4
8 1 6 -7 -4 -15 -18 -37 -19 -49 -2 -5 6 -8 5 -8 -2 0 -7 -7 -13 -15 -13 -8 0
-15 9 -15 20 0 11 -6 20 -12 20 -7 0 -2 7 11 16 18 13 20 18 10 26 -11 8 -11
9 1 6 8 -3 15 -14 15 -26 0 -12 3 -22 8 -22 32 0 38 2 43 15 6 15 -44 72 -59
67 -5 -1 -6 2 -2 8 8 13 32 13 37 -1 2 -5 11 -11 20 -13 10 -1 21 -5 24 -9 4
-4 12 -7 18 -7 6 0 4 5 -4 10 -13 8 -12 10 5 11 11 1 24 1 29 0 5 -1 16 1 25
4 13 5 14 7 1 16 -11 7 -6 9 17 7 26 -2 30 -5 22 -19z m891 11 c0 -5 -5 -10
-11 -10 -5 0 -7 5 -4 10 3 6 8 10 11 10 2 0 4 -4 4 -10z m-2079 -61 c12 -8 12
-10 -1 -19 -8 -5 -15 -15 -15 -21 0 -19 -22 -22 -28 -4 -4 8 -1 15 6 15 8 0 8
3 -2 9 -9 6 -10 11 -2 15 12 8 15 27 4 25 -5 -1 -15 -1 -23 0 -13 1 -13 2 0
11 8 5 11 10 5 10 -5 0 -3 5 5 10 11 7 18 4 26 -16 6 -14 17 -30 25 -35z
m2639 57 c0 -3 -4 -8 -10 -11 -5 -3 -10 -1 -10 4 0 6 5 11 10 11 6 0 10 -2 10
-4z m-2386 -47 c-9 -16 -20 -10 -21 12 -2 17 1 18 12 9 8 -7 12 -16 9 -21z
m469 22 c4 -1 3 -10 -2 -20 -9 -16 -8 -18 8 -14 10 3 22 0 25 -5 4 -6 21 -3
46 9 21 10 51 19 65 19 14 0 25 4 25 8 0 5 7 9 15 9 8 0 13 -2 10 -5 -2 -3 0
-13 6 -23 8 -15 6 -21 -7 -26 -10 -4 -19 -2 -22 5 -3 9 -9 8 -24 -2 -11 -8
-28 -12 -37 -9 -9 4 -13 3 -9 -2 4 -4 0 -14 -10 -21 -22 -17 -35 -17 -29 0 6
16 -24 17 -35 1 -5 -6 -8 -4 -8 5 0 9 -6 5 -17 -10 -10 -14 -17 -29 -15 -33 1
-5 -3 -5 -9 -1 -6 3 -16 0 -21 -7 -6 -9 -7 -2 -3 21 4 19 11 39 16 45 5 5 9
14 9 20 0 5 -5 3 -10 -5 -8 -12 -10 -11 -10 6 0 16 -6 21 -22 20 -14 -1 -22
-7 -20 -16 3 -11 0 -11 -15 0 -28 22 -29 24 -11 17 9 -3 18 0 21 6 4 11 41 14
90 8z m2481 -7 c5 -14 4 -15 -9 -4 -17 14 -19 20 -6 20 5 0 12 -7 15 -16z
m-3293 -5 c14 -7 18 -16 14 -30 -4 -11 -2 -19 5 -19 6 0 9 -4 6 -9 -7 -10 -25
-9 -44 3 -10 6 -10 11 -2 21 14 16 4 38 -12 29 -7 -4 -8 -2 -4 4 9 15 12 15
37 1z m1843 -11 c-3 -4 1 -8 8 -8 7 -1 3 -6 -10 -13 -12 -7 -21 -15 -20 -18 2
-2 -3 2 -9 10 -18 21 -16 36 2 21 13 -11 14 -10 10 2 -4 9 0 15 9 15 8 0 13
-4 10 -9z m107 -8 c30 5 49 -1 49 -14 0 -8 -9 -12 -25 -11 -14 2 -25 -1 -25
-6 0 -18 -29 -9 -35 11 -8 24 4 48 15 30 4 -6 13 -11 21 -10z m-2052 3 c-9 -2
-22 -14 -28 -27 -7 -12 -19 -23 -26 -23 -10 0 -11 5 -5 17 5 10 6 21 2 26 -4
5 0 3 9 -4 14 -10 18 -10 23 3 3 8 13 14 23 14 15 -1 15 -2 2 -6z m757 -14
c-8 -12 -12 -28 -9 -35 3 -8 0 -14 -7 -14 -6 0 -8 6 -4 13 4 6 -7 -4 -24 -23
-16 -19 -28 -38 -26 -42 3 -4 -5 -6 -16 -5 -19 1 -19 3 -5 13 8 6 13 18 9 27
-4 10 0 15 13 14 11 -1 18 4 17 15 -1 10 3 16 9 15 6 -1 11 4 12 12 0 11 20
25 43 30 2 1 -4 -9 -12 -20z m-181 1 c3 -6 -1 -7 -9 -4 -18 7 -21 14 -7 14 6
0 13 -4 16 -10z m1750 0 c3 -5 1 -10 -4 -10 -6 0 -11 5 -11 10 0 6 2 10 4 10
3 0 8 -4 11 -10z m-684 -23 c-10 -9 -11 -8 -5 6 3 10 9 15 12 12 3 -3 0 -11
-7 -18z m366 -23 c3 -8 8 -12 12 -10 4 3 8 -7 9 -21 2 -30 11 -45 22 -38 4 3
13 -2 20 -11 7 -8 19 -13 27 -10 7 3 13 1 13 -5 0 -6 5 -7 10 -4 6 3 10 2 10
-3 0 -17 -31 -22 -46 -7 -16 16 -47 9 -37 -9 4 -7 1 -7 -7 1 -10 10 -17 10
-28 1 -17 -15 -42 -19 -42 -8 0 5 -8 16 -17 26 -13 13 -14 19 -5 22 7 2 9 8 6
14 -4 6 2 5 15 -1 18 -10 21 -9 21 9 0 11 -3 19 -7 18 -5 -2 -8 1 -8 5 0 5 -8
13 -17 18 -10 6 -18 16 -18 23 0 17 60 8 67 -10z m1448 -4 c-2 -11 2 -20 8
-21 7 -1 1 -4 -13 -8 -14 -5 -32 -4 -41 0 -12 6 -19 1 -28 -17 -15 -33 -14
-45 2 -38 25 9 36 -19 16 -40 -11 -11 -19 -14 -19 -8 0 7 -6 12 -14 12 -7 0
-19 6 -25 14 -7 8 -21 13 -32 11 -16 -3 -19 1 -17 26 3 33 22 38 50 12 18 -16
18 -16 12 0 -4 12 -2 17 7 15 10 -2 13 6 12 25 -2 25 0 27 13 16 13 -10 17
-10 26 2 8 11 8 9 3 -6 -6 -18 -5 -18 15 3 26 27 30 28 25 2z m-3896 -4 c7 -8
8 -17 3 -20 -6 -3 -12 3 -15 14 -6 24 -4 25 12 6z m2111 -31 c0 -5 -5 -3 -10
5 -8 13 -10 12 -10 -2 0 -25 4 -33 13 -30 5 1 6 -2 2 -8 -9 -14 -42 -13 -47 3
-7 17 2 38 12 32 5 -3 12 4 15 16 6 17 9 19 16 8 5 -8 9 -18 9 -24z m-1734 13
c4 -7 3 -8 -4 -4 -7 4 -12 2 -12 -5 0 -7 -3 -10 -6 -6 -6 5 3 27 11 27 2 0 7
-5 11 -12z m2293 -11 c0 -8 -2 -8 -6 1 -4 10 -8 10 -21 0 -15 -12 -16 -11 -3
4 14 19 32 15 30 -5z m356 2 c-6 -8 9 -13 29 -10 5 1 6 -5 3 -14 -4 -8 -2 -15
3 -15 5 0 7 -7 4 -15 -7 -18 7 -20 24 -3 7 7 8 17 2 28 -6 12 -5 17 6 17 20 0
17 -31 -6 -52 -20 -18 -18 -35 3 -35 8 0 8 3 -1 9 -11 7 -11 9 1 14 17 6 31
-18 20 -35 -3 -6 -2 -9 3 -6 5 3 15 0 22 -8 10 -11 8 -15 -12 -20 -17 -4 -23
-11 -19 -21 3 -8 9 -11 12 -6 9 12 50 11 48 -1 -1 -6 12 -11 31 -10 33 1 45
-19 17 -30 -18 -7 -31 -4 -27 7 3 9 -2 9 -32 -3 -16 -6 -35 -6 -49 -1 -14 6
-30 5 -41 -1 -16 -9 -17 -6 -12 24 3 23 -1 40 -14 56 -19 23 -50 30 -50 11 0
-6 7 -9 15 -6 8 4 17 2 20 -3 4 -6 2 -10 -3 -10 -5 0 -19 -9 -32 -20 -28 -24
-46 -21 -43 9 2 11 -2 21 -7 21 -6 0 -10 5 -10 11 0 5 4 7 10 4 6 -3 7 1 4 9
-3 9 -11 16 -18 17 -6 0 -2 4 9 9 13 6 15 9 5 9 -10 1 -5 9 14 26 30 25 50 35
28 13 -17 -17 -15 -26 11 -39 12 -6 19 -8 15 -4 -4 4 0 14 8 22 16 16 9 37 -8
27 -7 -4 -8 -2 -4 4 4 7 2 12 -4 12 -7 0 -6 5 2 14 14 15 32 11 23 -5z m-320
1 c3 -5 2 -10 -4 -10 -5 0 -13 5 -16 10 -3 6 -2 10 4 10 5 0 13 -4 16 -10z
m-1261 -33 c4 4 4 0 1 -9 -6 -14 -10 -15 -25 -6 -10 7 -15 18 -12 26 4 13 7
12 17 -1 7 -9 15 -14 19 -10z m1227 4 c7 -53 1 -62 -31 -41 -13 9 -13 10 0 10
13 0 13 1 0 10 -11 7 -11 10 -2 10 7 0 11 4 8 8 -3 5 1 9 9 9 8 0 15 -3 16 -6z
m1194 -21 c3 -5 1 -10 -4 -10 -6 0 -11 5 -11 10 0 6 2 10 4 10 3 0 8 -4 11
-10z m-3080 -31 c-5 -27 -11 -33 -24 -25 -7 5 -7 13 2 26 16 26 27 25 22 -1z
m319 -10 c-3 -5 7 -9 23 -9 23 -1 25 -2 11 -10 -20 -12 -51 -2 -44 15 2 7 -1
19 -7 26 -10 11 -9 11 5 0 10 -7 15 -17 12 -22z m207 0 c6 -11 6 -20 -1 -24
-5 -3 -6 -13 -3 -23 6 -15 5 -15 -11 1 -10 10 -16 21 -12 24 10 10 -28 32 -40
22 -7 -5 -11 -4 -11 4 0 21 66 17 78 -4z m2399 17 c0 -3 -4 -8 -10 -11 -5 -3
-10 -1 -10 4 0 6 5 11 10 11 6 0 10 -2 10 -4z m-2465 -46 c3 0 4 4 3 9 -2 5 1
8 7 8 5 -1 11 -10 12 -19 3 -16 -8 -23 -29 -19 -5 0 -8 -4 -8 -10 0 -6 7 -9
15 -5 8 3 15 0 16 -7 0 -9 2 -9 6 1 2 6 9 12 14 12 6 0 5 -9 -1 -21 -7 -11 -9
-27 -6 -34 2 -8 -4 -15 -17 -19 -35 -9 -47 -7 -47 9 0 8 5 15 12 15 9 0 9 3 1
11 -6 6 -9 18 -6 25 3 9 -2 14 -12 14 -13 0 -16 5 -10 23 3 12 7 28 7 35 1 7
8 5 20 -8 10 -11 21 -20 23 -20z m984 26 c19 4 21 2 12 -9 -6 -8 -7 -18 -3
-22 4 -5 1 -5 -5 -1 -7 4 -13 2 -13 -4 0 -6 -4 -8 -10 -5 -5 3 -10 0 -10 -7
-1 -16 -29 32 -30 50 0 9 5 10 18 4 9 -5 28 -8 41 -6z m-724 -22 c17 -15 23
-25 15 -22 -9 3 -26 -10 -42 -30 -16 -19 -28 -30 -28 -24 0 7 -7 9 -17 5 -12
-5 -11 -1 5 15 12 12 29 22 37 22 8 0 15 5 15 11 0 5 -6 7 -12 3 -9 -5 -9 -2
1 9 12 15 9 21 -11 18 -5 0 -8 4 -8 9 0 16 13 12 45 -16z m-1125 -14 c-8 -5
-17 -7 -19 -4 -3 3 1 9 9 14 8 5 17 7 19 4 3 -3 -1 -9 -9 -14z m370 8 c0 -4
-4 -8 -9 -8 -6 0 -12 4 -15 8 -3 5 1 9 9 9 8 0 15 -4 15 -9z m1000 -13 c4 3 6
-4 3 -14 -3 -13 -10 -18 -21 -14 -9 4 -13 2 -9 -4 4 -6 -3 -8 -18 -5 -14 2
-25 8 -25 13 0 5 -6 9 -14 9 -8 0 -18 5 -22 12 -5 8 3 9 30 5 28 -4 38 -2 43
10 5 14 7 13 15 -1 5 -9 13 -14 18 -11z m1460 15 c0 -5 -2 -10 -4 -10 -3 0 -8
5 -11 10 -3 6 -1 10 4 10 6 0 11 -4 11 -10z m-2880 -4 c0 -2 -9 -6 -20 -9 -11
-3 -18 -1 -14 4 5 9 34 13 34 5z m1545 -16 c-3 -5 1 -10 7 -13 10 -3 10 -7 -1
-20 -15 -19 -26 -15 -42 15 -8 15 -8 19 0 14 6 -4 11 0 11 8 0 10 6 13 15 10
8 -4 13 -10 10 -14z m621 -12 c3 -10 10 -15 16 -12 7 4 8 2 4 -4 -4 -7 -5 -12
-2 -12 2 0 12 -3 22 -7 13 -5 16 -3 11 10 -3 9 -1 19 6 23 7 4 9 4 5 -1 -4 -4
-3 -14 3 -21 7 -9 6 -15 -3 -20 -19 -12 -39 -14 -32 -3 3 5 1 9 -5 9 -5 0 -12
-6 -15 -12 -3 -7 -4 -4 -3 7 1 12 -4 21 -13 21 -8 1 -21 2 -29 3 -11 1 -11 4
-1 16 11 13 10 15 -6 9 -13 -4 -15 -3 -6 3 20 15 41 11 48 -9z m-2359 -20 c-3
-8 -6 -5 -6 6 -1 11 2 17 5 13 3 -3 4 -12 1 -19z m183 12 c0 -5 3 -9 8 -9 4 1
13 1 21 0 12 -1 11 -4 -2 -13 -10 -7 -19 -24 -22 -37 -5 -29 -18 -44 -13 -16
2 12 -2 19 -9 18 -19 -4 -16 14 3 21 8 3 12 10 9 16 -4 6 -11 8 -16 5 -5 -3
-6 1 -3 9 7 18 24 22 24 6z m423 -2 c-4 -7 -8 -19 -8 -27 0 -17 -32 -24 -42
-9 -3 6 -2 8 4 5 5 -4 16 5 23 18 7 14 17 25 22 25 5 0 6 -6 1 -12z m2668 -8
c28 4 62 0 56 -7 -4 -3 1 -16 10 -27 10 -12 14 -18 9 -14 -4 4 -17 -1 -28 -12
-20 -18 -29 -19 -61 -5 -16 7 -16 8 -1 20 12 8 14 14 6 19 -7 4 -12 2 -12 -3
0 -6 -8 -3 -18 7 -16 15 -16 18 -2 29 9 7 17 8 21 1 3 -5 12 -9 20 -8z m-1155
-2 c4 -7 3 -9 -1 -5 -5 4 -15 -3 -22 -15 -7 -13 -12 -18 -13 -11 0 7 -6 11
-12 9 -7 -1 -10 -1 -5 1 4 3 5 9 2 14 -4 5 1 6 9 3 9 -3 16 -1 16 5 0 15 17
14 26 -1z m-2033 -26 c4 9 6 9 6 1 2 -23 -18 -23 -29 -1 -10 21 -10 22 3 5 11
-14 16 -15 20 -5z m2800 -18 c7 -6 19 -13 26 -15 27 -9 -14 -35 -52 -33 -21 1
-37 -2 -37 -7 0 -4 -6 -6 -12 -4 -20 7 -38 -9 -48 -45 -5 -18 -7 -30 -3 -26
11 11 34 -16 24 -28 -13 -16 -14 -28 -2 -35 6 -4 7 -12 1 -21 -8 -13 -10 -12
-10 3 0 9 -4 17 -9 17 -6 0 -9 9 -8 19 0 11 6 17 12 14 5 -4 6 -2 2 3 -11 11
-30 12 -38 1 -3 -4 -12 0 -20 9 -12 15 -12 17 0 9 10 -6 12 -4 7 4 -5 7 -15
10 -25 7 -13 -5 -12 -3 3 8 17 14 17 16 -9 43 -15 15 -24 22 -20 14 5 -9 4
-12 -3 -7 -15 9 -15 39 0 54 9 9 9 12 0 12 -7 0 -12 5 -12 10 0 16 32 8 51
-12 23 -25 70 -31 76 -10 2 9 19 24 36 32 32 15 36 14 70 -16z m-978 7 c4 -13
13 -18 25 -16 10 2 21 -3 24 -11 3 -8 2 -13 -3 -10 -5 3 -12 -1 -15 -10 -5
-12 -2 -15 10 -10 21 8 43 -20 44 -56 0 -16 5 -28 11 -28 7 0 9 -10 5 -25 -5
-18 -2 -25 7 -25 8 0 33 -14 55 -30 23 -17 42 -28 42 -26 0 3 11 -5 24 -17 13
-12 34 -32 47 -44 59 -54 109 -126 109 -157 0 -9 5 -16 10 -16 6 0 9 -3 8 -7
-3 -13 13 -53 21 -53 4 0 11 3 15 7 12 12 36 12 30 0 -3 -7 1 -4 9 6 10 12 17
14 22 7 3 -5 10 -8 15 -5 5 3 12 0 16 -6 4 -7 3 -9 -4 -5 -14 8 -44 -22 -36
-36 5 -7 -4 -9 -26 -6 -31 5 -32 4 -25 -26 3 -17 9 -40 12 -51 14 -53 24 -403
12 -411 -4 -2 -6 -30 -4 -61 2 -39 -1 -61 -11 -71 -8 -8 -12 -22 -9 -32 3 -10
2 -21 -4 -24 -5 -3 -10 -21 -11 -38 -3 -70 -5 -85 -16 -99 -6 -8 -14 -31 -18
-52 -4 -21 -14 -41 -21 -44 -8 -3 -12 -10 -8 -17 9 -14 4 -58 -8 -71 -5 -5 -9
-15 -9 -23 0 -8 -9 -27 -21 -43 -11 -16 -18 -36 -15 -44 3 -8 2 -15 -2 -15 -4
0 -15 -15 -23 -32 -26 -56 -54 -103 -61 -106 -5 -2 -8 -8 -8 -13 0 -16 -71
-117 -86 -123 -8 -3 -14 -12 -14 -21 0 -8 -4 -15 -10 -15 -5 0 -10 -4 -10 -9
0 -16 -148 -161 -175 -171 -14 -5 -25 -16 -25 -24 0 -10 -6 -13 -15 -10 -9 4
-15 1 -15 -7 0 -8 -21 -25 -47 -38 -27 -14 -61 -33 -76 -44 -15 -10 -34 -16
-42 -13 -9 3 -15 0 -15 -8 0 -8 -12 -16 -27 -19 -16 -3 -46 -11 -68 -17 -66
-19 -121 -29 -162 -30 -93 -2 -270 9 -294 18 -17 7 -31 7 -45 0 -16 -9 -17 -8
-6 3 18 19 15 29 -9 29 -17 0 -112 46 -138 66 -2 2 -5 18 -6 36 -2 22 3 39 16
51 10 10 19 22 19 27 0 6 7 10 15 10 8 0 15 6 15 13 0 15 51 47 74 47 9 0 16
7 16 15 0 8 8 15 18 16 40 2 57 9 74 32 11 15 25 23 36 21 20 -5 39 6 44 25 2
8 29 27 61 44 32 16 61 36 64 43 3 8 23 24 44 36 21 12 39 27 39 33 0 7 11 17
25 23 14 6 25 18 25 26 0 7 9 16 21 19 11 3 23 15 26 26 3 12 9 21 13 21 4 0
11 11 14 24 3 14 15 28 26 31 11 3 20 10 20 15 0 5 6 15 13 22 7 7 26 39 42
70 17 32 33 58 38 58 4 0 7 7 7 16 0 16 39 103 50 114 4 3 12 25 19 50 7 25
16 47 20 50 4 3 15 33 23 67 11 46 13 65 4 74 -8 9 -8 10 2 5 10 -6 17 7 10
17 -2 2 3 11 11 20 11 14 11 18 -2 23 -9 3 -13 13 -10 25 3 10 9 17 13 14 5
-3 12 0 16 6 7 12 9 24 19 119 2 25 6 57 8 73 3 15 1 30 -3 32 -4 3 -4 23 0
47 8 43 4 68 -11 68 -5 0 -9 5 -9 11 0 5 5 7 12 3 7 -5 9 -2 5 8 -3 9 0 21 6
27 8 8 8 11 -1 11 -8 0 -9 7 -3 23 10 26 8 52 -6 87 -6 14 -8 27 -4 30 3 3 7
38 8 79 0 40 5 76 10 80 31 22 36 109 10 155 -12 21 -13 26 -18 78 -2 17 -11
29 -24 33 -18 6 -17 8 10 20 17 7 33 11 37 9 4 -2 9 5 13 16 4 11 11 18 16 15
5 -4 9 -1 9 4 0 18 18 12 25 -8z m327 6 c-7 -8 -9 -17 -5 -20 3 -4 -4 -7 -16
-7 -17 0 -21 -4 -17 -15 3 -9 0 -15 -10 -15 -8 0 -13 -3 -11 -7 3 -5 -6 -8
-19 -8 -13 0 -24 1 -24 2 0 1 11 14 24 28 14 15 23 32 20 39 -3 8 8 13 32 14
31 2 35 0 26 -11z m-222 -12 c5 3 10 1 10 -4 0 -17 -26 -13 -41 7 -13 15 -12
16 3 4 9 -8 22 -11 28 -7z m-574 -7 c5 -7 3 -8 -6 -3 -9 6 -12 4 -8 -7 4 -8 0
-15 -7 -15 -10 0 -11 5 -4 19 11 21 15 22 25 6z m1509 -19 c-4 -5 -2 -9 3 -9
6 0 8 -9 5 -21 -4 -12 0 -25 8 -30 11 -7 10 -9 -4 -9 -10 0 -20 7 -23 15 -4 8
-9 13 -13 10 -4 -2 -8 2 -8 10 0 8 4 15 9 15 4 0 7 3 7 8 -3 20 2 33 11 27 6
-4 8 -11 5 -16z m705 11 c0 -5 -5 -10 -11 -10 -5 0 -7 5 -4 10 3 6 8 10 11 10
2 0 4 -4 4 -10z m-3668 -7 c-6 -2 -10 -9 -7 -14 4 -5 -1 -6 -9 -3 -20 8 -11
24 12 23 11 0 12 -2 4 -6z m628 1 c0 -8 -19 -13 -24 -6 -3 5 1 9 9 9 8 0 15
-2 15 -3z m634 -5 c-3 -6 -12 -8 -19 -5 -7 2 -19 -1 -26 -7 -11 -10 -11 -9 -2
3 13 17 57 25 47 9z m1111 1 c3 -5 1 -10 -4 -10 -6 0 -11 5 -11 10 0 6 2 10 4
10 3 0 8 -4 11 -10z m-855 -20 c8 -5 11 -10 5 -10 -5 0 -17 5 -25 10 -8 5 -10
10 -5 10 6 0 17 -5 25 -10z m752 -33 c-9 -11 -18 -14 -20 -8 -2 6 -9 8 -14 5
-7 -4 -8 -2 -4 4 4 7 14 12 22 12 8 0 14 8 14 18 0 14 2 15 10 2 6 -10 4 -20
-8 -33z m-483 -11 c0 -11 -3 -15 -6 -9 -3 9 -10 10 -23 3 -25 -14 -38 20 -14
37 22 16 44 0 43 -31z m556 33 c11 -16 1 -19 -13 -3 -7 8 -8 14 -3 14 5 0 13
-5 16 -11z m1209 -5 c3 -8 2 -12 -3 -9 -5 3 -13 -4 -16 -15 -5 -16 -10 -18
-19 -11 -7 6 -16 8 -19 4 -9 -9 -9 9 1 23 4 6 15 10 25 8 9 -1 17 2 17 7 0 14
7 11 14 -7z m-3384 -9 c0 -8 -4 -15 -10 -15 -5 0 -10 7 -10 15 0 8 5 15 10 15
6 0 10 -7 10 -15z m-24 -45 c-1 -16 -6 -33 -11 -37 -4 -4 -5 -2 -1 5 5 8 0 12
-13 12 -30 0 -35 -19 -7 -26 16 -4 24 -12 23 -24 -2 -28 -36 -20 -60 15 -11
16 -17 27 -13 23 12 -10 39 20 30 33 -5 8 -3 9 7 4 12 -7 12 -6 1 7 -11 14
-10 17 10 20 33 6 37 2 34 -32z m2531 23 c-4 -3 -2 -12 4 -20 8 -9 8 -13 1
-13 -6 0 -14 5 -17 10 -6 10 2 30 12 30 4 0 3 -3 0 -7z m257 -17 c-6 -15 -28
-16 -41 -1 -4 4 -3 5 4 1 6 -3 14 -2 18 4 9 15 25 12 19 -4z m74 -21 c-3 -3
-9 2 -12 12 -6 14 -5 15 5 6 7 -7 10 -15 7 -18z m-663 5 c3 -5 -1 -10 -10 -10
-9 0 -13 5 -10 10 3 6 8 10 10 10 2 0 7 -4 10 -10z m-585 -5 c0 -2 -7 -8 -15
-15 -12 -10 -15 -10 -15 2 0 8 7 15 15 15 8 0 15 -1 15 -2z m680 -25 c-8 -5
-17 -7 -19 -4 -3 3 1 9 9 14 8 5 17 7 19 4 3 -3 -1 -9 -9 -14z m917 3 c8 -11
11 -12 7 -3 -7 13 -6 13 10 1 21 -17 17 -43 -7 -47 -9 -1 -15 2 -11 7 3 5 10
7 15 4 5 -4 9 -1 9 4 0 14 -11 13 -32 -3 -10 -7 -15 -16 -11 -19 3 -4 2 -7 -4
-7 -13 0 -23 24 -23 56 0 29 26 32 47 7z m-831 -10 c-3 -3 -1 -13 3 -22 7 -13
4 -16 -14 -16 -14 0 -21 5 -18 13 3 6 -2 12 -11 12 -9 0 -16 -7 -16 -16 0 -8
-4 -12 -10 -9 -5 3 -10 2 -10 -4 0 -5 -9 -9 -19 -8 -11 0 -19 6 -18 12 3 17
50 42 75 40 12 -1 22 2 22 7 0 5 5 6 11 3 6 -4 8 -9 5 -12z m-149 -35 c0 -13
-1 -18 -4 -11 -2 7 -11 9 -19 6 -7 -3 -11 -10 -7 -17 3 -6 2 -7 -2 -3 -11 9
-16 39 -6 33 4 -3 13 -1 21 5 8 5 15 9 15 9 1 0 1 -10 2 -22z m116 -38 c-3
-11 -9 -17 -14 -14 -5 3 -9 -2 -9 -10 0 -9 5 -16 11 -16 5 0 7 -5 3 -12 -6 -9
-9 -9 -12 0 -2 7 -11 12 -20 12 -15 0 -15 -2 -2 -10 12 -7 11 -9 -6 -8 -11 1
-21 8 -21 15 0 6 4 10 9 7 4 -3 8 1 8 8 0 11 14 22 57 47 0 1 -1 -8 -4 -19z
m797 10 c0 -5 -2 -10 -4 -10 -3 0 -8 5 -11 10 -3 6 -1 10 4 10 6 0 11 -4 11
-10z m335 -10 c3 -5 1 -10 -4 -10 -6 0 -11 5 -11 10 0 6 2 10 4 10 3 0 8 -4
11 -10z m-220 -20 c-3 -5 -13 -6 -21 -3 -12 4 -13 8 -3 14 15 9 32 2 24 -11z
m-2981 -25 c-4 -8 -8 -15 -10 -15 -2 0 -4 7 -4 15 0 8 4 15 10 15 5 0 7 -7 4
-15z m2967 -2 c7 -10 10 -15 5 -11 -5 4 -15 1 -23 -7 -19 -20 -32 -19 -29 1 2
12 21 33 32 34 1 0 8 -8 15 -17z m-3348 -22 c5 -1 7 -7 4 -13 -2 -7 3 -22 12
-33 16 -20 16 -20 -6 -1 -13 10 -20 24 -16 30 5 8 2 7 -8 0 -11 -9 -17 -9 -26
1 -14 16 -8 24 15 20 9 -2 21 -4 25 -4z m2477 -5 c0 -2 -6 -9 -14 -15 -11 -9
-16 -9 -22 0 -4 7 -3 9 4 5 6 -3 13 -2 17 4 6 10 15 14 15 6z m1139 -49 c-16
-13 -24 -15 -30 -6 -4 6 -11 9 -16 6 -5 -3 -10 0 -10 7 0 8 7 12 15 8 9 -3 13
-1 9 5 -10 16 15 22 36 9 17 -10 16 -12 -4 -29z m-511 -17 c-7 -11 -15 -15
-17 -9 -2 6 3 15 10 20 20 12 21 11 7 -11z m-3098 -25 c0 -8 -4 -15 -10 -15
-5 0 -7 7 -4 15 4 8 8 15 10 15 2 0 4 -7 4 -15z m3064 -27 c-3 -4 -12 -8 -20
-8 -12 0 -13 4 -3 21 9 17 13 19 19 8 5 -7 6 -17 4 -21z m-1500 14 c2 -4 -5
-9 -17 -9 -17 -2 -19 0 -7 7 18 12 18 12 24 2z m-270 -47 c6 -6 19 -14 28 -18
11 -4 15 -12 12 -22 -3 -8 -11 -12 -16 -9 -6 4 -8 -2 -3 -15 4 -12 2 -21 -4
-21 -6 0 -11 7 -11 16 0 8 -4 13 -9 10 -10 -6 -25 10 -35 38 -5 16 -4 17 9 6
14 -11 14 -10 6 12 -5 14 -7 29 -3 33 4 3 9 0 11 -7 2 -7 9 -17 15 -23z m142
-4 c8 6 14 9 14 5 0 -3 0 -9 0 -13 0 -4 -11 -8 -24 -9 -18 0 -23 3 -18 15 4
10 7 11 10 3 3 -10 7 -10 18 -1z m95 -2 c-14 -5 -28 -6 -33 -1 -4 4 7 9 25 9
30 2 31 2 8 -8z m924 1 c-3 -5 0 -10 7 -10 9 0 9 -3 -2 -10 -8 -5 -18 -10 -22
-10 -13 0 -9 28 5 33 18 8 19 8 12 -3z m-758 -14 c0 -22 -33 -38 -47 -21 -7 9
-8 15 0 20 5 3 10 0 10 -7 0 -8 5 -6 11 5 12 20 26 22 26 3z m-587 -45 c0 -11
-4 -9 -15 5 -10 13 -14 15 -15 5 0 -8 -3 -11 -6 -8 -4 4 -1 14 6 22 11 13 15
13 21 3 5 -7 9 -19 9 -27z m663 -11 c-7 -8 -22 24 -16 34 4 5 10 1 13 -10 4
-10 6 -21 3 -24z m1720 12 c3 8 6 6 6 -4 1 -10 7 -18 14 -19 9 0 9 -2 -1 -6
-6 -2 -9 -10 -6 -16 5 -8 2 -8 -7 1 -7 6 -24 12 -37 12 -13 0 -20 4 -17 10 3
6 -2 10 -11 10 -16 0 -15 2 2 21 l19 21 16 -21 c12 -15 19 -17 22 -9z m-536
12 c-3 -3 -12 -4 -19 -1 -8 3 -5 6 6 6 11 1 17 -2 13 -5z m-1540 -18 c-3 -8
-1 -17 6 -20 9 -3 9 -5 0 -5 -15 -1 -26 16 -18 29 9 15 18 12 12 -4z m160 -1
c0 -8 -4 -15 -9 -15 -10 0 -11 14 -1 23 9 10 10 9 10 -8z m-1386 -19 c15 9 10
-13 -6 -26 -8 -7 -12 -17 -8 -23 4 -7 0 -8 -11 -4 -10 4 -20 7 -23 7 -4 0 2 9
12 20 10 11 15 20 11 20 -4 0 -4 5 0 12 6 9 9 9 12 0 2 -7 8 -10 13 -6z m877
-9 c-2 6 0 11 5 12 21 3 27 0 27 -15 0 -8 4 -13 9 -9 12 7 26 -14 16 -23 -4
-4 -17 6 -31 23 -22 28 -23 28 -17 5 6 -23 5 -24 -11 -11 -13 11 -19 12 -25 3
-8 -13 -25 -3 -29 17 -2 8 3 11 13 8 8 -4 15 -1 15 5 0 7 7 3 15 -8 8 -10 14
-14 13 -7z m2542 13 c0 -5 -7 -7 -15 -4 -8 4 -15 8 -15 10 0 2 7 4 15 4 8 0
15 -4 15 -10z m-1946 -26 c3 -8 2 -12 -4 -9 -6 3 -10 10 -10 16 0 14 7 11 14
-7z m-187 -9 c0 -8 -4 -15 -9 -15 -4 0 -8 7 -8 15 0 8 4 15 8 15 5 0 9 -7 9
-15z m1955 8 c-6 -2 -10 -9 -7 -14 4 -5 -1 -6 -10 -2 -13 5 -14 7 -3 14 7 5
18 8 23 8 6 0 4 -3 -3 -6z m-3587 -13 c3 -5 1 -10 -4 -10 -6 0 -11 5 -11 10 0
6 2 10 4 10 3 0 8 -4 11 -10z m3735 -30 c0 -5 6 -7 13 -4 19 7 17 -28 -2 -43
-11 -8 -20 -8 -28 -1 -7 6 -19 8 -27 5 -11 -4 -13 -1 -10 11 4 11 -2 9 -16 -8
-27 -30 -43 -33 -58 -10 -9 14 -7 17 6 16 10 0 24 13 33 31 9 18 19 30 23 26
3 -3 0 -13 -7 -22 -10 -14 -10 -14 4 -4 9 7 19 10 22 6 4 -3 7 -2 7 3 0 6 -6
16 -12 22 -7 7 2 6 20 -3 17 -9 32 -20 32 -25z m-1810 -15 c0 -21 -17 -27 -24
-9 -4 10 -2 13 6 8 8 -5 9 -2 5 10 -4 10 -3 15 3 11 6 -3 10 -12 10 -20z
m1045 -5 c3 -6 -1 -7 -9 -4 -18 7 -21 14 -7 14 6 0 13 -4 16 -10z m-1650 -11
c11 -16 1 -19 -13 -3 -7 8 -8 14 -3 14 5 0 13 -5 16 -11z m-958 -14 c0 -8 -4
-12 -9 -9 -5 3 -6 10 -3 15 9 13 12 11 12 -6z m1276 3 c3 -9 -6 -14 -25 -15
-25 -2 -28 0 -18 12 15 18 36 19 43 3z m1488 -31 c-6 -8 -8 -17 -4 -20 3 -4 2
-7 -3 -7 -5 0 -10 -9 -10 -19 0 -11 4 -17 9 -14 5 3 8 0 5 -8 -8 -23 -43 -17
-46 9 -2 12 -7 20 -12 17 -13 -8 -6 29 8 40 7 6 25 12 39 13 20 2 23 -1 14
-11z m-2842 -19 c1 6 8 12 17 12 14 0 14 -2 -1 -16 -8 -9 -22 -14 -29 -11 -10
4 -12 0 -9 -14 3 -12 0 -19 -9 -19 -16 0 -49 -36 -41 -44 4 -3 3 -6 0 -6 -3 0
-11 10 -18 21 -7 13 -7 19 -1 15 6 -3 13 3 17 14 3 11 11 20 16 20 5 0 9 7 9
15 0 8 7 15 15 15 8 0 15 6 16 13 0 6 4 3 9 -8 5 -11 9 -14 9 -7z m496 -78 c3
-5 1 -10 -4 -10 -6 0 -11 5 -11 10 0 6 2 10 4 10 3 0 8 -4 11 -10z m45 -20 c6
-11 9 -20 8 -20 -2 0 -11 9 -21 20 -9 11 -13 20 -7 20 5 0 14 -9 20 -20z
m2406 8 c4 -7 3 -8 -4 -4 -7 4 -12 2 -12 -3 0 -6 5 -11 12 -11 9 0 9 -3 1 -11
-9 -9 -7 -18 5 -38 16 -25 16 -26 -3 -11 -17 14 -18 13 -12 -2 4 -12 2 -18 -7
-18 -9 0 -13 -8 -10 -22 2 -13 1 -16 -2 -8 -4 8 -13 19 -21 23 -12 8 -12 11 1
26 10 10 12 21 6 31 -6 9 -1 21 13 37 26 27 24 26 33 11z m-3199 -20 c-3 -8
-6 -5 -6 6 -1 11 2 17 5 13 3 -3 4 -12 1 -19z m116 14 c3 8 6 6 6 -6 1 -12 -4
-16 -14 -12 -10 3 -17 -3 -21 -19 -3 -14 -10 -25 -14 -25 -15 0 -18 -41 -4
-54 20 -21 17 -28 -5 -16 -15 7 -18 17 -15 37 3 15 7 29 10 32 2 2 -1 9 -6 16
-15 18 27 60 45 45 10 -8 14 -7 18 2z m3160 -22 c3 -11 1 -18 -4 -14 -5 3 -9
12 -9 20 0 20 7 17 13 -6z m-2708 0 c-3 -5 -11 -10 -16 -10 -6 0 -7 5 -4 10 3
6 11 10 16 10 6 0 7 -4 4 -10z m201 -9 c23 4 33 -2 27 -17 -3 -8 -12 -13 -20
-10 -8 3 -12 2 -9 -3 4 -5 -5 -4 -19 2 -13 7 -20 14 -15 15 6 2 10 8 10 13 0
6 -5 7 -12 3 -7 -4 -8 -3 -4 5 6 9 11 9 21 1 7 -6 17 -10 21 -9z m1831 7 c11
-18 13 -38 3 -38 -5 0 -16 -3 -26 -7 -13 -5 -15 -3 -8 8 4 8 7 22 6 32 -4 20
13 23 25 5z m-1718 -21 c0 -9 -2 -8 -6 1 -2 6 -10 9 -15 6 -7 -4 -8 -2 -4 5 9
13 26 5 25 -12z m-758 -14 c0 -5 2 -17 4 -28 3 -13 -3 -25 -15 -32 -17 -11
-18 -10 -15 15 2 15 4 33 4 40 1 13 20 17 22 5z m694 -32 c3 -5 1 -12 -5 -16
-5 -3 -10 1 -10 9 0 18 6 21 15 7z m36 -14 c-10 -9 -11 -8 -5 6 3 10 9 15 12
12 3 -3 0 -11 -7 -18z m-767 -50 c16 -12 16 -14 -3 -31 -12 -11 -21 -17 -22
-15 -5 20 -5 59 1 59 3 0 14 -6 24 -13z m311 -15 c-3 -3 -11 0 -18 7 -9 10 -8
11 6 5 10 -3 15 -9 12 -12z m3225 -13 c0 -5 5 -7 12 -3 6 4 8 3 5 -3 -8 -13
17 -36 28 -25 5 4 5 1 1 -5 -4 -7 -2 -13 3 -13 6 0 11 5 11 12 0 6 3 9 6 5 3
-3 -1 -20 -10 -38 -11 -22 -13 -36 -6 -44 5 -6 7 -15 3 -18 -10 -11 -23 -8
-23 4 0 6 -6 17 -14 25 -13 12 -16 11 -22 -8 -4 -13 -7 -29 -5 -37 2 -11 0
-11 -12 0 -10 9 -12 18 -6 24 5 5 9 21 9 36 0 15 5 29 12 31 7 3 9 11 3 24
-13 30 -14 44 -4 44 5 0 9 -5 9 -11z m-2144 -14 c-1 -8 -5 -18 -9 -21 -10 -10
-9 -36 1 -30 5 3 9 -1 9 -9 0 -8 -5 -11 -10 -8 -6 4 -8 0 -4 -10 3 -9 -1 -21
-11 -29 -15 -11 -15 -11 -5 3 10 12 9 21 -1 41 -12 23 -12 29 7 52 24 30 26
31 23 11z m-383 -9 c3 3 3 -4 0 -15 -3 -12 -8 -19 -11 -16 -3 3 -15 -3 -26
-12 -12 -10 -18 -14 -14 -9 4 4 3 19 -2 31 -10 27 4 38 31 24 9 -5 19 -6 22
-3z m2672 -19 c1 -7 6 -11 11 -10 6 1 10 -8 10 -20 -1 -13 4 -21 12 -19 8 1
11 -1 8 -6 -7 -11 -51 -8 -51 4 0 5 -4 15 -8 21 -6 9 -3 11 10 6 17 -6 17 -5
0 14 -9 11 -14 23 -10 26 8 8 18 0 18 -16z m-3368 6 c-4 -3 2 -13 14 -21 l20
-14 -20 -19 c-26 -24 -31 -24 -31 1 0 12 -7 20 -17 21 -14 0 -15 2 -3 6 8 3
19 12 23 19 4 8 11 14 14 14 4 0 3 -3 0 -7z m196 -56 c4 3 7 3 7 0 0 -3 -8
-11 -18 -16 -15 -8 -18 -5 -20 17 -1 24 0 25 12 10 7 -10 16 -15 19 -11z
m1253 -9 c4 -7 4 -10 -1 -6 -4 4 -14 0 -21 -10 -9 -11 -13 -13 -14 -4 0 8 -5
10 -12 6 -9 -5 -9 -2 1 9 16 20 37 22 47 5z m1585 -4 c7 -8 6 -15 -1 -19 -8
-5 -6 -14 7 -28 10 -11 12 -17 6 -13 -8 4 -13 2 -13 -6 0 -8 -3 -9 -8 -3 -4 6
-14 12 -22 13 -41 10 -50 10 -45 1 4 -5 1 -9 -4 -9 -6 0 -11 5 -11 10 0 6 -5
10 -11 10 -5 0 -8 -4 -4 -9 3 -6 -9 -9 -28 -8 -19 1 -34 7 -34 14 0 6 7 9 15
5 10 -3 13 -1 8 6 -7 11 10 17 40 13 6 -1 19 8 30 18 21 21 60 23 75 5z m426
-6 c-3 -10 -2 -16 2 -14 4 3 7 -4 7 -14 0 -14 -3 -16 -13 -8 -10 8 -13 6 -13
-6 0 -9 5 -16 10 -16 6 0 10 -5 10 -11 0 -5 -4 -7 -10 -4 -6 3 -7 -1 -4 -9 4
-10 1 -16 -8 -16 -11 0 -14 11 -13 38 1 21 5 44 9 50 4 7 2 12 -3 12 -6 0 -11
4 -11 9 0 6 9 9 21 8 14 -1 19 -7 16 -19z m-3760 -22 c-7 -18 -52 -21 -63 -4
-4 6 -3 8 3 5 6 -4 14 0 17 9 3 8 10 12 16 9 5 -3 10 -1 10 6 0 10 3 10 11 2
7 -7 9 -19 6 -27z m185 20 c13 -19 9 -23 -15 -19 -13 3 -24 10 -24 17 0 16 29
17 39 2z m3248 -6 c-10 -7 -11 -10 -2 -10 10 0 10 -4 0 -20 -15 -24 -39 -35
-31 -14 3 7 10 14 15 14 6 0 8 6 5 14 -6 14 13 40 22 30 3 -3 -1 -9 -9 -14z
m-2795 0 c3 -5 1 -10 -4 -10 -6 0 -11 5 -11 10 0 6 2 10 4 10 3 0 8 -4 11 -10z
m2899 -22 c-9 -14 -23 2 -17 18 4 12 8 13 14 3 4 -7 5 -17 3 -21z m-3146 14
c7 -5 14 -18 17 -31 2 -12 0 -19 -5 -16 -4 3 -16 2 -26 -2 -17 -6 -17 -7 0
-13 16 -5 16 -7 3 -19 -14 -11 -19 -6 -37 29 -12 23 -17 39 -11 35 6 -3 11 -1
11 5 0 6 5 8 10 5 6 -3 10 -1 10 4 0 13 10 14 28 3z m112 4 c0 -2 -7 -7 -16
-10 -8 -3 -12 -2 -9 4 6 10 25 14 25 6z m-380 -30 c-6 -16 -5 -28 3 -36 9 -10
9 -11 -1 -6 -7 4 -19 3 -26 -3 -15 -12 -65 4 -67 21 -1 4 -2 14 -3 21 -4 23 5
27 54 27 48 0 49 -1 40 -24z m550 -33 c6 -7 9 -13 8 -14 -2 0 -10 -2 -19 -4
-19 -3 -44 31 -29 40 6 4 8 12 4 18 -3 7 1 3 10 -8 8 -11 20 -26 26 -32z
m2940 32 c-7 -8 -16 -12 -21 -9 -5 3 -17 -8 -26 -23 -22 -33 -43 -40 -43 -14
0 16 38 40 72 45 3 1 10 4 14 9 13 13 17 7 4 -8z m-2266 -23 c3 -5 -1 -9 -9
-9 -8 0 -12 4 -9 9 3 4 7 8 9 8 2 0 6 -4 9 -8z m1950 -17 c-4 -9 0 -15 7 -15
10 -1 8 -5 -4 -15 -18 -13 -18 -14 2 -24 16 -9 19 -9 16 2 -4 8 2 13 15 13 11
0 23 -9 26 -19 5 -15 8 -16 22 -5 12 10 14 10 8 1 -4 -8 -2 -13 7 -13 8 0 18
-7 21 -16 3 -8 11 -12 17 -8 7 4 9 3 5 -4 -3 -5 0 -13 6 -16 7 -3 1 -3 -14 0
-18 4 -28 2 -28 -6 0 -7 -6 -6 -16 4 -8 9 -20 13 -26 10 -6 -4 -14 -1 -18 6
-4 7 -10 8 -13 3 -3 -4 1 -17 9 -28 8 -10 14 -14 14 -7 0 8 6 9 23 1 13 -6 24
-16 24 -23 0 -13 -32 -16 -52 -5 -11 6 -34 4 -75 -5 -14 -4 -19 -4 -12 0 6 3
10 10 6 15 -3 5 -1 9 5 9 6 0 7 7 4 17 -4 9 -2 14 3 10 5 -3 10 3 10 14 0 10
-3 19 -7 19 -8 0 -23 -31 -21 -42 1 -4 -8 -5 -20 -3 -24 5 -37 15 -19 15 8 0
9 6 3 18 -11 20 -5 45 9 36 5 -3 9 0 9 7 0 8 4 8 13 1 9 -8 12 -3 11 24 -1 19
2 31 7 28 5 -3 9 0 9 5 0 6 4 11 10 11 5 0 7 -7 4 -15z m-471 -38 c-3 -5 -10
-4 -15 1 -6 6 -7 16 -3 22 6 9 9 9 16 -1 4 -7 5 -17 2 -22z m-2958 -7 c3 -6
-1 -7 -9 -4 -18 7 -21 14 -7 14 6 0 13 -4 16 -10z m298 -20 c3 0 3 8 0 17 -6
15 -5 16 9 3 11 -11 13 -20 7 -32 -6 -10 -7 -18 -4 -18 4 0 3 -6 -2 -12 -4 -7
-8 -18 -9 -25 -1 -6 -7 -19 -13 -30 -11 -16 -11 -15 -5 6 3 14 2 21 -3 18 -5
-4 -10 0 -10 8 0 8 3 15 7 15 11 0 3 49 -11 68 -12 15 -11 15 7 0 11 -10 23
-18 27 -18z m3057 26 c0 -3 -4 -8 -10 -11 -5 -3 -10 -1 -10 4 0 6 5 11 10 11
6 0 10 -2 10 -4z m-148 -28 c-7 -7 -12 -8 -12 -2 0 14 12 26 19 19 2 -3 -1
-11 -7 -17z m-2942 -8 c0 -5 -7 -7 -15 -4 -8 4 -12 10 -9 15 6 11 24 2 24 -11z
m625 0 c-3 -5 3 -18 14 -29 12 -12 16 -23 10 -26 -5 -4 -6 -12 -3 -18 4 -7 -4
-1 -17 13 -13 14 -20 28 -16 31 5 4 4 10 -2 13 -13 8 -5 26 10 26 6 0 8 -4 4
-10z m-539 -26 c9 3 12 1 9 -4 -12 -19 -35 -10 -34 13 1 18 2 18 6 4 3 -11 11
-16 19 -13z m118 -20 c9 -8 13 -20 10 -26 -5 -7 -2 -8 7 -3 11 7 11 5 -1 -9
-9 -12 -16 -14 -18 -7 -3 8 -8 9 -16 2 -8 -7 -11 0 -12 25 0 38 7 42 30 18z
m31 -4 c3 -5 1 -10 -4 -10 -6 0 -11 5 -11 10 0 6 2 10 4 10 3 0 8 -4 11 -10z
m3085 -42 c0 -4 -8 -6 -19 -5 -15 1 -17 4 -8 19 8 13 13 14 19 5 4 -7 8 -15 8
-19z m-1073 -22 c0 -11 -4 -12 -18 -3 -10 6 -16 14 -13 19 7 11 31 -1 31 -16z
m273 14 c-8 -5 -19 -10 -25 -10 -5 0 -3 5 5 10 8 5 20 10 25 10 6 0 3 -5 -5
-10z m-2684 -40 c0 -20 -7 -25 -19 -13 -4 3 -2 12 4 20 15 17 15 17 15 -7z
m2801 -17 c0 -8 -6 -9 -19 -2 -10 5 -18 11 -18 12 0 2 8 3 18 3 10 0 19 -6 19
-13z m-2347 -24 c0 -5 5 -9 11 -9 5 0 8 4 4 9 -3 5 0 13 6 17 7 4 9 3 6 -3 -4
-6 0 -13 8 -17 8 -3 15 0 16 7 0 7 5 1 10 -12 11 -28 4 -40 -13 -23 -7 7 -24
12 -39 12 -18 0 -28 6 -32 19 -3 14 -1 18 9 14 8 -3 14 -9 14 -14z m3080 1
c10 0 22 -4 25 -10 3 -5 1 -10 -5 -10 -6 0 -8 -5 -5 -10 4 -6 -7 -13 -24 -16
-35 -7 -47 -5 -44 6 3 9 -17 8 -34 -3 -15 -10 -27 9 -18 31 5 14 4 15 -6 5 -7
-7 -18 -13 -23 -13 -6 0 -1 7 10 14 23 17 68 10 57 -8 -3 -6 -2 -8 2 -3 5 4
17 -1 28 -10 20 -18 20 -18 3 9 -13 20 -14 27 -4 31 7 2 15 0 16 -4 2 -5 12
-9 22 -9z m-3355 -71 c-4 -5 -14 -8 -23 -8 -15 1 -15 2 1 6 9 2 14 9 11 15 -4
7 -2 8 5 4 6 -4 9 -12 6 -17z m39 3 c3 -5 -1 -9 -9 -9 -8 0 -12 4 -9 9 3 4 7
8 9 8 2 0 6 -4 9 -8z m82 -14 c6 -4 19 -6 27 -2 12 4 15 0 13 -23 -2 -20 -9
-29 -26 -31 -14 -2 -20 0 -16 7 4 6 3 18 -2 26 -7 14 -11 13 -31 -4 -13 -12
-29 -18 -35 -14 -6 3 -8 3 -4 -2 9 -9 -30 -40 -39 -32 -2 3 0 14 6 24 8 14 10
14 11 3 0 -8 6 -3 14 12 28 54 48 63 82 36z m2628 -3 c-7 -18 -20 -19 -30 -3
-4 6 -3 8 4 4 6 -3 13 -2 17 4 9 15 15 12 9 -5z m-2190 -26 c-3 -5 -10 -6 -16
-3 -7 4 -8 2 -4 -4 4 -6 13 -9 21 -5 10 3 15 -1 15 -14 0 -12 -8 -19 -21 -20
-21 -2 -21 -1 -3 13 11 9 14 13 7 10 -6 -4 -14 -2 -18 4 -4 6 -11 8 -16 5 -5
-4 -4 5 2 19 9 20 15 23 25 15 8 -6 11 -15 8 -20z m-677 -1 c-3 -8 -6 -5 -6 6
-1 11 2 17 5 13 3 -3 4 -12 1 -19z m2893 7 c0 -8 4 -15 9 -15 6 0 9 -9 8 -19
0 -11 -5 -17 -9 -15 -5 3 -6 10 -3 15 8 13 -19 11 -32 -2 -18 -18 -24 6 -7 29
18 25 34 29 34 7z m132 -9 c7 4 8 2 4 -5 -9 -13 -26 -5 -25 12 0 9 2 8 6 -1 2
-6 10 -9 15 -6z m-2919 -11 c-3 -9 -8 -14 -10 -11 -3 3 -2 9 2 15 9 16 15 13
8 -4z m102 -24 c3 -6 -3 -9 -14 -8 -11 0 -17 5 -15 9 7 11 22 10 29 -1z m2760
-30 c4 -11 3 -12 -10 -1 -8 7 -15 9 -15 4 0 -11 -20 18 -20 29 0 11 39 -16 45
-32z m33 25 c-7 -8 -17 -12 -22 -9 -4 3 -2 9 5 14 22 13 31 11 17 -5z m-2738
-6 c0 -5 -7 -7 -15 -4 -8 4 -15 8 -15 10 0 2 7 4 15 4 8 0 15 -4 15 -10z
m1115 -9 c3 -5 2 -12 -3 -15 -5 -3 -9 1 -9 9 0 17 3 19 12 6z m1503 -13 c8
-18 11 -19 11 -5 1 19 16 23 27 5 4 -7 3 -8 -4 -4 -7 4 -12 1 -12 -7 0 -9 -16
-19 -39 -25 -33 -8 -38 -7 -34 5 3 8 14 13 24 10 13 -3 17 -1 12 6 -11 17 -12
37 -4 37 5 0 13 -10 19 -22z m-2729 -11 c0 -9 -2 -9 -5 0 -3 7 -13 9 -22 6
-14 -4 -14 -3 -2 5 16 12 30 7 29 -11z m440 -10 c8 -10 7 -14 -2 -14 -8 0 -14
6 -14 14 0 7 1 13 2 13 2 0 8 -6 14 -13z m3043 -19 c22 2 28 -2 28 -18 0 -11
-5 -20 -11 -20 -5 0 -7 5 -3 11 4 7 0 9 -14 5 -11 -4 -23 -2 -27 4 -3 6 -10 8
-14 6 -4 -3 -8 1 -8 9 0 8 5 11 11 8 6 -4 23 -6 38 -5z m-3784 -172 c-7 -8
-16 -12 -21 -9 -11 7 2 23 19 23 12 0 12 -2 2 -14z m226 3 c-7 -12 45 -16 57
-5 7 7 6 2 -2 -11 -10 -17 -17 -19 -31 -12 -10 5 -18 6 -18 2 0 -4 -22 -8 -49
-8 -35 0 -47 3 -44 12 3 7 13 13 23 13 11 0 21 4 24 8 2 4 14 8 25 8 11 0 18
-3 15 -7z m3331 -49 c3 -6 -1 -7 -9 -4 -18 7 -21 14 -7 14 6 0 13 -4 16 -10z
m-3418 -11 c-9 -6 -15 -14 -13 -18 3 -5 -5 -6 -19 -4 -13 3 -26 11 -29 19 -4
11 5 14 37 14 34 -1 38 -3 24 -11z m2983 0 c0 -4 -6 -9 -13 -12 -8 -3 -14 0
-14 7 0 7 6 13 14 13 7 0 13 -4 13 -8z m409 -2 c21 8 12 -1 -15 -15 -17 -9
-25 -8 -34 3 -11 13 -10 14 5 9 14 -6 16 -4 10 7 -6 11 -5 11 5 2 7 -6 20 -9
29 -6z m-3334 -67 c-4 -26 -75 -5 -75 22 0 5 5 6 10 3 9 -6 14 8 11 29 -1 4
11 -2 27 -15 16 -13 28 -31 27 -39z m3444 -8 c-5 -2 -6 -9 -2 -15 3 -7 2 -9
-2 -4 -5 4 -10 17 -12 28 -2 16 -1 18 11 7 8 -7 10 -15 5 -16z m-2808 -25
c-10 -9 -11 -8 -5 6 3 10 9 15 12 12 3 -3 0 -11 -7 -18z m66 -12 c3 -19 0 -23
-13 -18 -12 4 -13 8 -3 14 10 6 9 10 -5 15 -13 5 -15 9 -5 15 17 10 22 5 26
-26z m2827 20 c-4 -8 -11 -12 -16 -9 -6 4 -5 10 3 15 19 12 19 11 13 -6z
m-2634 -7 c0 -4 -6 -8 -14 -8 -8 0 -17 4 -20 8 -2 4 4 8 15 8 10 0 19 -4 19
-8z m-885 -8 c3 -5 1 -10 -4 -10 -6 0 -11 5 -11 10 0 6 2 10 4 10 3 0 8 -4 11
-10z m3553 -24 c2 -10 -2 -23 -9 -30 -9 -8 -11 -7 -5 9 5 18 5 18 -7 4 -9 -12
-15 -13 -22 -5 -14 16 -18 39 -6 32 5 -4 13 -2 16 4 10 15 29 7 33 -14z
m-2662 2 c4 -7 3 -8 -5 -4 -8 5 -10 0 -7 -17 4 -21 1 -23 -20 -19 -13 2 -24 9
-24 14 0 6 7 7 16 4 11 -4 15 -2 11 8 -3 8 -1 17 6 20 7 2 13 5 14 5 1 1 5 -4
9 -11z m2700 0 c4 -7 3 -8 -4 -4 -7 4 -12 2 -12 -5 0 -7 -3 -10 -6 -6 -6 5 3
27 11 27 2 0 7 -5 11 -12z m-205 -18 c-2 -8 -3 -23 -3 -33 1 -15 -1 -15 -14
-3 -8 8 -14 20 -14 26 0 6 -4 8 -10 5 -11 -7 -14 8 -3 19 13 13 48 1 44 -14z
m-586 0 c3 -5 -1 -10 -10 -10 -9 0 -13 5 -10 10 3 6 8 10 10 10 2 0 7 -4 10
-10z m-2425 -14 c14 -3 16 -8 12 -36 -3 -16 -44 -12 -64 7 -18 16 -18 16 -12
-2 5 -12 4 -16 -4 -11 -15 9 -11 48 5 42 7 -3 13 -1 13 5 0 7 7 8 18 4 9 -4
24 -8 32 -9z m204 -17 c-3 -5 -10 -7 -15 -3 -5 3 -7 10 -3 15 3 5 10 7 15 3 5
-3 7 -10 3 -15z m2996 -34 c0 5 6 1 13 -10 8 -10 19 -15 25 -11 17 10 15 -7
-4 -30 -8 -10 -13 -14 -10 -7 8 15 -10 27 -19 13 -4 -6 -11 -8 -16 -4 -6 3 -5
12 3 22 10 12 10 14 1 8 -7 -4 -13 -2 -13 4 0 8 -6 8 -21 -1 -14 -7 -19 -17
-16 -30 7 -27 -8 -23 -28 7 -14 22 -15 28 -4 35 11 7 11 9 -1 9 -13 0 -13 1 0
10 8 5 23 7 34 4 14 -5 16 -3 11 7 -5 8 4 3 18 -10 15 -14 27 -21 27 -16z
m-853 19 c-3 -3 -12 -4 -19 -1 -8 3 -5 6 6 6 11 1 17 -2 13 -5z m-2687 -14 c0
-5 -2 -10 -4 -10 -3 0 -8 5 -11 10 -3 6 -1 10 4 10 6 0 11 -4 11 -10z m3400
-8 c0 -10 -7 -27 -16 -38 -8 -10 -12 -13 -8 -5 5 10 3 12 -5 7 -9 -6 -9 -11
-1 -21 8 -9 8 -15 0 -20 -6 -3 -8 -11 -4 -16 8 -14 -38 -50 -59 -45 -9 2 -15
0 -11 -5 3 -5 -4 -9 -16 -9 -28 0 -15 -20 13 -21 21 0 21 -1 2 -9 -15 -7 -10
-9 22 -7 42 2 49 13 30 44 -4 6 -3 15 3 18 6 4 10 3 9 -2 -3 -20 2 -27 11 -13
8 13 10 12 10 -3 0 -10 4 -16 8 -13 5 3 9 -1 9 -8 0 -8 -6 -12 -14 -9 -7 3
-13 -2 -13 -11 0 -9 -5 -16 -11 -16 -6 0 -9 -6 -6 -12 2 -7 10 -12 16 -11 6 2
11 -3 11 -10 0 -8 4 -7 10 3 7 11 10 11 10 2 0 -8 5 -10 12 -6 8 5 9 2 5 -10
-4 -10 -3 -15 3 -11 6 3 10 2 10 -4 0 -7 8 -7 26 -1 14 6 23 6 20 1 -3 -5 0
-11 8 -14 7 -3 16 -15 19 -27 5 -18 2 -21 -13 -17 -12 3 -17 0 -14 -7 3 -7 -1
-13 -8 -13 -7 0 -21 -4 -30 -8 -10 -4 -18 -3 -18 3 0 5 -7 13 -16 16 -8 3 -12
2 -9 -4 3 -6 -1 -7 -9 -4 -9 3 -13 10 -10 15 3 5 -6 4 -20 -2 -14 -7 -23 -16
-20 -20 3 -5 -1 -9 -8 -9 -10 0 -10 -2 1 -9 8 -5 23 -8 33 -6 10 2 18 -1 18
-7 0 -5 -6 -8 -13 -5 -8 3 -14 -1 -14 -8 0 -7 6 -11 14 -8 7 3 13 0 13 -6 0
-6 -2 -11 -4 -11 -2 0 -12 -3 -22 -7 -14 -5 -16 -2 -12 15 6 23 -6 39 -17 22
-3 -5 -14 -10 -24 -10 -25 0 -35 47 -12 55 12 3 17 16 17 39 0 22 -4 32 -10
28 -6 -3 -6 1 1 9 15 18 7 55 -14 63 -11 5 -13 1 -8 -15 5 -15 4 -19 -5 -14
-6 4 -9 17 -6 30 3 12 3 25 -1 29 -12 12 -10 45 4 50 10 4 11 11 5 23 -7 16
-8 24 -3 51 1 4 6 0 12 -8 8 -11 12 -12 16 -2 2 6 8 10 11 8 4 -2 16 6 27 17
11 11 14 16 6 12 -10 -6 -12 -4 -7 4 6 9 11 9 22 0 11 -9 14 -8 14 7 0 16 2
17 10 4 8 -13 10 -12 10 3 0 9 2 17 5 17 3 0 5 -8 5 -18z m-3290 -45 c0 -6 -8
-3 -18 6 -10 10 -23 14 -28 10 -5 -5 -6 -4 -2 1 4 5 2 16 -5 24 -6 9 3 5 21
-8 17 -13 32 -28 32 -33z m2633 12 c4 -15 3 -19 -5 -11 -7 7 -18 1 -37 -18
-14 -16 -37 -31 -49 -35 -23 -7 -24 -7 -5 12 10 11 24 19 32 19 7 -1 18 8 25
19 9 16 26 34 32 35 1 0 4 -10 7 -21z m-2170 -160 c-8 -8 -13 -8 -17 0 -4 6
-2 11 4 11 6 0 8 6 4 13 -6 10 -4 10 7 0 9 -10 10 -16 2 -24z m46 -53 c-2 -2
-15 -7 -29 -10 -19 -6 -21 -5 -10 3 8 6 11 11 5 11 -5 0 -3 5 5 10 14 8 40 -4
29 -14z m2576 -6 c-3 -5 -12 -10 -18 -10 -7 0 -6 4 3 10 19 12 23 12 15 0z
m482 -26 c-2 -13 -7 -27 -12 -31 -4 -4 -5 -2 -1 5 4 6 3 12 -1 12 -5 0 -9 8
-9 18 0 10 6 19 13 19 8 0 12 -10 10 -23z m-3507 -8 c9 -12 8 -15 -9 -13 -21
1 -26 8 -14 20 9 9 9 9 23 -7z m1863 -9 c-2 -4 -6 -7 -10 -6 -4 0 -10 -8 -14
-18 -6 -14 -7 -12 -6 8 1 18 6 26 17 24 8 -1 14 -5 13 -8z m816 -4 c-6 -7 -15
-10 -20 -7 -13 8 -3 21 15 21 12 0 13 -4 5 -14z m301 2 l1 20 8 -20 c18 -44
-12 -55 -37 -14 -8 12 -9 18 -3 14 6 -3 11 0 12 7 0 7 4 4 9 -7 l9 -20 1 20z
m-2993 -11 c7 -1 20 -9 29 -18 8 -9 19 -14 23 -12 4 3 7 -8 7 -24 0 -17 -2
-28 -4 -25 -3 3 -11 0 -17 -5 -19 -15 -64 29 -69 68 -2 21 0 29 8 25 6 -4 17
-8 23 -9z m2728 -34 c-3 -5 -11 -10 -16 -10 -6 0 -7 5 -4 10 3 6 11 10 16 10
6 0 7 -4 4 -10z m-975 -20 c8 -11 37 -19 44 -12 4 3 15 6 26 7 16 1 17 -1 8
-12 -6 -8 -17 -12 -25 -9 -7 3 -13 1 -13 -4 0 -6 -5 -10 -11 -10 -5 0 -7 5 -3
12 5 8 2 9 -9 5 -9 -3 -19 -2 -22 3 -10 17 -25 11 -36 -14 -12 -26 -41 -29
-45 -3 -2 16 22 31 36 22 4 -3 10 2 13 9 3 8 1 17 -6 20 -7 3 -1 3 13 0 14 -4
27 -10 30 -14z m847 5 c0 -8 -4 -12 -9 -9 -5 3 -6 10 -3 15 9 13 12 11 12 -6z
m868 5 c3 -5 -1 -15 -9 -23 -8 -8 -13 -16 -11 -19 2 -2 -4 -4 -15 -4 -12 0
-16 4 -11 11 5 5 7 17 6 25 -3 17 31 25 40 10z m-2239 -25 c4 -8 10 -12 15 -9
5 3 9 -2 9 -10 0 -21 -3 -20 -28 9 -12 14 -17 25 -12 25 6 0 13 -7 16 -15z
m136 -29 c3 -16 0 -27 -9 -30 -9 -4 -11 -1 -7 5 4 6 1 15 -6 19 -7 4 -9 13 -6
19 12 18 23 13 28 -13z m-1157 -13 c2 -25 15 -45 15 -24 0 8 7 11 15 7 8 -3
15 -1 15 5 0 5 6 4 14 -3 7 -7 11 -19 9 -26 -4 -8 1 -10 13 -6 18 5 18 5 2 -6
-27 -17 -22 -40 7 -40 14 0 25 -5 25 -10 0 -6 10 -15 23 -20 20 -8 21 -9 2
-11 -11 -1 -26 -1 -32 0 -7 1 -13 -3 -13 -9 0 -5 -7 -10 -15 -10 -8 0 -15 5
-15 10 0 6 -7 10 -16 10 -8 0 -13 4 -9 9 3 5 0 13 -7 17 -7 4 -10 4 -6 -1 4
-4 3 -16 -3 -26 -7 -14 -6 -19 3 -20 10 0 10 -2 0 -6 -6 -2 -10 -9 -6 -14 3
-5 0 -9 -6 -9 -6 0 -9 -4 -5 -10 3 -5 -7 -5 -25 1 -16 6 -30 13 -30 16 0 3 6
3 14 0 8 -3 17 1 20 9 3 8 1 14 -4 14 -6 0 -10 5 -10 10 0 6 -9 20 -20 32 -23
25 -19 35 12 33 13 -1 32 5 42 14 14 11 17 12 11 2 -6 -11 -4 -13 9 -8 10 4
20 7 22 7 2 0 4 4 4 9 0 12 -58 5 -75 -9 -9 -8 -15 -8 -20 0 -3 5 -1 10 5 10
7 0 6 5 -2 14 -7 7 -18 12 -24 9 -7 -2 -15 0 -19 6 -3 6 -1 11 5 11 6 0 8 5 4
12 -4 7 -3 8 5 4 6 -4 9 -12 6 -17 -3 -5 1 -6 9 -3 9 3 13 10 10 15 -3 5 0 9
6 9 6 0 8 5 4 11 -4 7 1 10 11 7 11 -2 19 -13 20 -25z m811 -10 c-1 -20 -7
-27 -18 -25 -9 1 -20 -3 -24 -9 -4 -7 -3 -9 2 -6 5 3 10 -3 10 -14 0 -15 -5
-19 -19 -15 -16 4 -16 2 -5 -12 7 -9 8 -14 4 -10 -5 4 -17 -2 -27 -14 -16 -17
-19 -18 -19 -5 0 10 5 17 10 17 6 0 10 7 10 15 0 13 -19 20 -43 16 -5 -1 -6 3
-3 8 4 5 15 8 26 6 19 -4 80 46 80 66 0 5 4 9 9 9 6 0 9 -12 7 -27z m695 -6
c-6 -6 -11 -21 -11 -34 0 -24 -12 -27 -45 -13 -19 8 -19 9 -1 9 16 1 17 3 5
19 -13 15 -12 16 4 3 15 -12 17 -11 17 6 0 12 8 19 21 20 17 2 19 -1 10 -10z
m1446 -1 c0 -8 -6 -12 -15 -9 -11 5 -11 7 0 14 7 5 13 9 14 9 0 0 1 -6 1 -14z
m-61 -5 c-4 -5 0 -12 6 -14 8 -3 6 -6 -4 -6 -18 -1 -24 10 -11 22 9 10 15 8 9
-2z m119 0 c3 -5 1 -13 -5 -16 -8 -5 -7 -11 1 -21 6 -8 9 -14 5 -14 -3 0 -8 0
-11 0 -3 0 -5 3 -4 6 0 4 -5 11 -13 15 -9 6 -10 9 -1 9 7 0 10 7 7 15 -7 16
11 21 21 6z m-2442 -34 c7 4 6 0 -2 -10 -14 -18 -26 -23 -16 -8 3 5 1 12 -5
16 -5 3 -10 12 -10 18 0 7 5 4 11 -6 6 -10 15 -14 22 -10z m677 2 c13 -9 12
-10 -3 -5 -11 3 -20 0 -23 -9 -4 -8 -10 -12 -15 -9 -5 3 -9 0 -9 -5 0 -6 -4
-11 -10 -11 -19 0 -10 31 13 40 29 12 29 12 47 -1z m1650 -11 c0 -10 3 -9 9 1
5 7 14 10 20 6 8 -5 9 -11 2 -19 -6 -7 -8 -16 -4 -19 3 -4 2 -8 -3 -8 -39 -6
-55 -5 -60 2 -3 5 0 9 5 9 6 0 10 3 10 8 -3 18 2 32 11 32 6 0 10 -6 10 -12z
m-2774 -16 c-10 -2 -22 0 -28 6 -6 6 0 7 19 4 21 -5 23 -7 9 -10z m2709 8 c4
-6 11 -8 16 -4 6 3 10 0 9 -7 -3 -23 12 -59 21 -53 5 3 6 10 3 16 -4 7 -2 8 5
4 8 -6 9 -12 2 -20 -6 -7 -7 -17 -3 -21 4 -5 1 -5 -5 -1 -8 4 -13 2 -13 -5 0
-7 -3 -9 -7 -6 -3 4 -12 2 -20 -5 -11 -9 -12 -7 -7 8 5 19 5 19 -10 0 -13 -15
-16 -16 -21 -5 -3 8 -17 16 -31 17 -14 1 -23 -2 -20 -6 3 -4 -4 -14 -16 -21
-13 -8 -18 -8 -13 -1 4 6 -1 20 -10 30 -13 14 -14 23 -6 37 10 17 10 17 11 -2
0 -17 2 -17 10 -5 9 13 10 13 10 0 1 -12 4 -11 15 4 8 10 12 23 8 29 -3 6 -1
7 5 3 7 -4 12 -3 12 3 0 8 15 15 42 20 4 0 10 -4 13 -9z m-2178 -32 c6 -1 9
-7 6 -15 -3 -8 -13 -11 -24 -8 -11 4 -19 2 -19 -4 0 -20 20 -21 54 0 20 11 36
19 36 16 0 -15 -13 -36 -20 -32 -4 2 -7 -7 -7 -20 0 -14 4 -25 9 -25 5 0 7 4
3 9 -3 5 -1 12 4 15 11 7 8 -8 -6 -44 -9 -22 -8 -25 14 -28 13 -2 27 -10 30
-18 3 -7 9 -11 14 -8 5 3 9 -2 9 -10 0 -9 -7 -16 -16 -16 -8 0 -12 -4 -9 -10
3 -5 1 -10 -4 -10 -6 0 -11 5 -11 11 0 5 -4 8 -9 5 -4 -3 -7 6 -5 19 1 14 -2
25 -7 25 -5 0 -9 -6 -9 -12 0 -9 -4 -8 -10 2 -5 8 -10 11 -10 7 0 -11 -33 23
-53 56 -10 15 -13 27 -7 27 15 0 12 26 -5 40 -12 10 -18 10 -30 0 -10 -9 -15
-9 -15 -1 0 6 5 11 11 11 5 0 7 5 3 12 -4 6 -3 8 4 4 6 -3 14 -1 17 5 4 6 17
8 29 4 11 -3 26 -7 33 -7z m2043 -8 c0 -5 -5 -10 -11 -10 -5 0 -7 5 -4 10 3 6
8 10 11 10 2 0 4 -4 4 -10z m-623 -59 c18 -19 21 -26 11 -33 -9 -5 -6 -8 10
-8 26 0 29 -15 5 -29 -17 -10 -17 -10 0 -11 12 0 16 -4 11 -12 -4 -7 -4 -10 1
-6 4 4 17 2 28 -4 16 -8 23 -7 33 6 10 15 12 15 18 1 4 -11 2 -14 -6 -9 -7 5
-9 0 -6 -14 4 -12 2 -20 -2 -17 -14 9 -17 -19 -3 -33 7 -7 13 -19 13 -25 0 -8
-3 -7 -9 2 -7 11 -9 11 -14 0 -5 -13 -10 13 -10 54 0 13 -3 15 -13 6 -10 -8
-11 -16 -4 -30 9 -15 8 -18 -7 -12 -15 5 -16 3 -6 -7 10 -11 7 -16 -15 -27
-18 -10 -28 -11 -30 -4 -2 6 -8 9 -13 5 -5 -3 -9 0 -9 6 0 6 -5 8 -12 4 -9 -5
-9 -2 1 9 11 14 11 17 0 18 -11 0 -11 2 -1 6 10 4 9 9 -5 20 -10 8 -12 12 -5
8 6 -3 12 0 12 7 0 15 -20 48 -20 34 0 -6 -6 -1 -14 9 -12 16 -12 24 -2 45 7
14 12 39 11 55 -2 40 5 52 18 29 6 -11 21 -30 34 -43z m900 17 c-3 -8 -6 -5
-6 6 -1 11 2 17 5 13 3 -3 4 -12 1 -19z m-13 -41 c1 -15 0 -27 -2 -27 -14 0
-42 24 -42 36 0 8 5 12 10 9 6 -3 10 -1 10 5 0 25 23 2 24 -23z m-1770 15 c6
-10 -30 -9 -40 1 -4 4 2 7 14 7 11 0 23 -4 26 -8z m812 -21 c-9 -8 -18 -12
-22 -9 -9 10 3 25 21 25 14 0 14 -2 1 -16z m466 -11 c6 0 8 -3 5 -7 -4 -3 -2
-12 5 -20 9 -11 7 -12 -7 -7 -12 5 -16 4 -11 -4 3 -6 -3 -16 -14 -22 -11 -6
-18 -15 -15 -21 4 -5 1 -9 -4 -9 -6 0 -11 -9 -11 -21 0 -13 -4 -18 -12 -13 -7
4 -8 3 -4 -5 6 -9 11 -9 24 1 10 8 13 9 9 1 -4 -6 -2 -15 3 -18 7 -5 5 -11 -6
-20 -24 -17 -53 1 -49 31 1 13 -2 21 -7 18 -5 -3 -12 3 -14 14 -5 18 -15 20
-57 13 -5 0 -5 -7 -1 -13 4 -7 -1 -6 -10 3 -20 18 -12 48 12 44 9 -2 17 -4 17
-5 0 -1 8 -3 18 -5 9 -2 17 1 17 5 0 5 9 12 20 15 11 3 20 13 20 21 0 8 4 13
9 10 4 -3 17 1 27 9 18 15 18 15 -1 9 l-20 -7 20 16 c17 13 20 13 23 1 2 -8 8
-14 14 -14z m-997 0 c3 -5 1 -10 -4 -10 -6 0 -11 5 -11 10 0 6 2 10 4 10 3 0
8 -4 11 -10z m1218 -5 c-3 -9 -8 -14 -10 -11 -3 3 -2 9 2 15 9 16 15 13 8 -4z
m-2105 -27 c3 2 8 -1 10 -6 1 -5 -6 -12 -18 -15 -11 -3 -20 -2 -21 1 -7 55 -6
56 8 36 8 -10 17 -18 21 -16z m877 14 c11 -6 14 -12 8 -12 -7 0 -13 -7 -13
-16 0 -13 -2 -13 -13 -2 -36 36 -25 56 18 30z m-295 4 c0 -8 -31 -36 -41 -36
-18 0 -9 21 14 30 28 11 27 11 27 6z m-1096 -18 c-3 -4 1 -8 9 -8 8 0 21 -8
30 -17 14 -16 14 -19 -1 -33 -9 -8 -18 -14 -19 -13 -37 30 -57 65 -44 79 5 5
29 -2 25 -8z m1723 -20 c-3 -7 -5 -2 -5 12 0 14 2 19 5 13 2 -7 2 -19 0 -25z
m-579 -1 c4 -19 -32 -24 -43 -7 -4 6 -12 7 -18 3 -9 -5 -8 -2 0 8 16 20 57 17
61 -4z m1772 19 c0 -3 -4 -8 -10 -11 -5 -3 -10 -1 -10 4 0 6 5 11 10 11 6 0
10 -2 10 -4z m-1116 -27 c-3 -5 -11 -7 -17 -3 -7 3 -5 0 3 -8 16 -13 22 -78 8
-78 -5 0 -12 0 -16 0 -5 0 -7 16 -6 35 3 29 0 35 -17 35 -17 0 -18 2 -7 13 25
25 67 30 52 6z m-388 -41 c-8 -6 -7 -11 4 -19 12 -8 10 -9 -9 -4 -20 6 -23 4
-18 -9 4 -10 3 -15 -2 -11 -12 7 -42 -5 -36 -14 2 -4 -3 -8 -12 -8 -13 0 -13
3 3 16 19 15 34 43 33 57 -1 14 25 21 36 11 10 -9 10 -14 1 -19z m-681 -8 c-3
-5 -1 -10 4 -10 6 0 11 -5 11 -11 0 -8 -5 -8 -15 1 -13 11 -12 30 1 30 3 0 2
-4 -1 -10z m-228 -15 c0 -8 -7 -15 -15 -15 -12 0 -12 3 -2 15 7 8 13 15 15 15
1 0 2 -7 2 -15z m706 -27 c-4 -7 5 -10 23 -7 4 0 10 -5 14 -11 6 -9 13 -9 29
-1 17 10 20 9 15 -4 -3 -8 -11 -12 -18 -8 -6 4 -5 -1 3 -11 12 -14 12 -19 1
-29 -10 -9 -11 -9 -6 0 4 7 -1 11 -13 10 -12 -1 -17 -6 -13 -16 4 -10 1 -12
-7 -6 -7 4 -11 18 -9 30 5 25 -16 25 -26 -1 -3 -8 -11 -14 -18 -14 -9 0 -8 3
2 10 13 9 13 10 0 10 -12 1 -11 3 3 11 9 5 17 15 17 20 0 6 -5 7 -12 3 -7 -5
-8 -3 -2 7 5 8 8 23 6 34 l-2 20 9 -20 c5 -11 7 -23 4 -27z m-433 2 c13 -9 13
-12 -4 -25 -11 -8 -15 -19 -10 -27 6 -10 5 -11 -8 -1 -8 7 -17 12 -19 10 -3
-1 4 7 16 17 16 16 17 18 3 13 -20 -7 -35 9 -16 16 19 8 22 8 38 -3z m1440
-14 c10 -13 10 -17 3 -12 -16 9 -17 -6 -1 -22 8 -8 4 -10 -17 -6 -37 6 -47 13
-39 25 3 5 9 7 14 4 5 -3 12 4 15 16 4 11 8 19 9 17 1 -2 8 -12 16 -22z m-309
-16 c6 0 7 -5 4 -11 -4 -6 2 -19 13 -29 15 -14 22 -16 31 -7 9 9 11 8 6 -5 -4
-10 -12 -18 -19 -19 -6 0 -2 -4 9 -9 19 -8 19 -9 1 -9 -14 -1 -16 -4 -7 -14 8
-10 7 -14 -4 -14 -8 0 -15 4 -15 9 0 4 -3 7 -7 7 -20 -3 -34 2 -28 10 3 5 -2
16 -10 24 -8 9 -15 22 -15 29 0 8 -6 20 -12 27 -11 10 -9 11 6 5 15 -6 17 -4
11 6 -6 10 -4 12 9 7 10 -4 22 -7 27 -7z m235 -12 c4 -7 4 -10 -1 -6 -4 4 -16
-3 -27 -15 l-19 -22 17 28 c19 31 20 32 30 15z m-2009 -33 c0 -8 -4 -12 -9 -9
-5 3 -6 10 -3 15 9 13 12 11 12 -6z m584 -1 c10 -13 10 -17 0 -24 -8 -4 -11
-12 -8 -17 3 -5 0 -10 -8 -10 -8 0 -17 7 -19 14 -4 9 -1 11 7 7 6 -4 4 2 -6
14 -19 20 -18 21 5 15 18 -4 20 -3 8 6 -8 6 -10 11 -4 11 6 0 17 -7 25 -16z
m1414 -34 c-3 -4 1 -10 9 -13 14 -6 11 -53 -5 -63 -12 -7 -36 17 -36 38 0 13
4 15 18 7 12 -6 20 -5 25 3 4 6 3 9 -2 6 -5 -3 -15 0 -22 8 -8 9 -9 14 -2 14
6 0 8 5 4 12 -4 7 -3 8 5 4 6 -4 9 -11 6 -16z m805 5 c7 -9 8 -15 2 -15 -5 0
-12 7 -16 15 -3 8 -4 15 -2 15 2 0 9 -7 16 -15z m-1135 -4 c3 -5 1 -12 -5 -16
-5 -3 -10 1 -10 9 0 18 6 21 15 7z m-125 -26 c3 0 18 -9 33 -19 18 -12 25 -22
18 -29 -11 -11 -34 0 -26 13 3 5 0 12 -7 17 -13 8 -18 9 -38 12 -5 0 -10 6
-10 12 0 6 5 7 13 2 6 -4 14 -8 17 -8z m530 1 c0 -2 -7 -7 -16 -10 -8 -3 -12
-2 -9 4 6 10 25 14 25 6z m-186 -32 c3 -8 2 -12 -4 -9 -6 3 -10 10 -10 16 0
14 7 11 14 -7z m806 6 c0 -5 -5 -10 -11 -10 -5 0 -7 5 -4 10 3 6 8 10 11 10 2
0 4 -4 4 -10z m-720 -46 c0 -3 -7 -1 -15 6 -8 7 -15 17 -15 22 0 5 7 3 15 -6
8 -8 15 -18 15 -22z m86 -2 c3 -20 -22 -62 -37 -62 -6 0 -9 8 -7 18 2 9 10 16
16 14 8 -1 11 7 8 22 -4 24 3 41 13 31 3 -3 6 -13 7 -23z"/>
<path d="M3082 3798 c-7 -7 -12 -18 -12 -25 0 -7 -7 -13 -16 -13 -8 0 -13 -4
-10 -9 3 -5 -8 -14 -24 -20 -28 -9 -42 -31 -21 -31 6 0 8 -9 6 -20 -3 -16 1
-19 21 -18 13 1 24 7 24 13 0 5 12 15 26 22 22 10 25 10 20 -4 -5 -13 -4 -14
8 -4 8 7 21 9 27 5 8 -5 9 -3 3 7 -5 8 -9 29 -9 47 -1 40 -25 68 -43 50z"/>
<path d="M1674 3729 c-9 -15 -2 -18 20 -9 17 6 18 7 3 13 -9 3 -19 2 -23 -4z"/>
<path d="M3103 3253 c0 -8 6 -9 19 -2 10 5 18 11 18 12 0 2 -8 3 -18 3 -10 0
-19 -6 -19 -13z"/>
<path d="M2522 2685 c-11 -12 -10 -15 3 -15 8 0 15 7 15 15 0 18 -2 18 -18 0z"/>
<path d="M3696 2573 c-6 -14 -5 -15 5 -6 7 7 10 15 7 18 -3 3 -9 -2 -12 -12z"/>
<path d="M3780 2569 c0 -5 5 -7 10 -4 6 3 10 8 10 11 0 2 -4 4 -10 4 -5 0 -10
-5 -10 -11z"/>
<path d="M3711 2178 c-13 -20 -12 -22 1 -11 8 7 17 11 20 8 2 -3 5 2 5 10 0
21 -10 19 -26 -7z"/>
<path d="M3426 1934 c-5 -14 -4 -15 9 -4 17 14 19 20 6 20 -5 0 -12 -7 -15
-16z"/>
<path d="M3545 1890 c-3 -6 1 -7 9 -4 18 7 21 14 7 14 -6 0 -13 -4 -16 -10z"/>
<path d="M614 1158 c-4 -7 -4 -10 1 -6 4 4 14 3 21 -3 9 -7 14 -6 20 3 4 7 4
10 -1 6 -4 -4 -14 -3 -21 3 -9 7 -14 6 -20 -3z"/>
<path d="M3676 843 c-6 -14 -5 -15 5 -6 7 7 10 15 7 18 -3 3 -9 -2 -12 -12z"/>
<path d="M687 619 c7 -7 15 -10 18 -7 3 3 -2 9 -12 12 -14 6 -15 5 -6 -5z"/>
<path d="M627 609 c7 -7 15 -10 18 -7 3 3 -2 9 -12 12 -14 6 -15 5 -6 -5z"/>
<path d="M3485 609 c-6 -17 -9 -19 -17 -8 -8 11 -8 10 -4 -4 3 -10 6 -22 6
-25 0 -4 4 -1 9 7 7 10 13 11 30 2 26 -14 27 -6 2 25 l-19 25 -7 -22z"/>
<path d="M2713 477 c0 -8 6 -14 14 -14 9 0 10 4 2 14 -6 7 -12 13 -14 13 -1 0
-2 -6 -2 -13z"/>
<path d="M2725 439 c-10 -15 3 -25 16 -12 7 7 7 13 1 17 -6 3 -14 1 -17 -5z"/>
<path d="M3058 438 c-9 -5 -6 -8 9 -8 12 0 24 4 27 8 7 11 -19 11 -36 0z"/>
<path d="M1738 3968 c-20 -17 -27 -28 -18 -28 12 0 13 -2 1 -9 -18 -11 -5 -32
17 -27 32 6 52 18 52 31 0 7 6 18 14 25 19 15 10 39 -15 37 -10 -1 -33 -14
-51 -29z"/>
<path d="M2250 3990 c0 -6 -6 -8 -12 -4 -9 5 -9 3 1 -9 7 -9 17 -15 21 -12 4
3 13 -2 20 -11 7 -8 19 -13 27 -10 8 3 11 1 8 -4 -3 -6 -1 -10 4 -10 6 0 11
10 11 23 0 13 5 28 10 33 7 7 -6 11 -40 13 -31 1 -50 -2 -50 -9z"/>
<path d="M2420 3990 c-9 -6 -10 -10 -3 -10 6 0 15 5 18 10 8 12 4 12 -15 0z"/>
<path d="M2530 3989 c0 -5 5 -7 10 -4 6 3 10 8 10 11 0 2 -4 4 -10 4 -5 0 -10
-5 -10 -11z"/>
<path d="M3367 3992 c-9 -2 -15 -8 -12 -13 8 -12 -2 -11 -25 3 -16 11 -23 9
-40 -10 -11 -12 -25 -22 -31 -22 -6 0 -9 -6 -6 -12 2 -7 10 -12 16 -10 6 1 10
-1 10 -5 -4 -22 3 -35 15 -30 7 3 18 1 24 -5 13 -13 67 12 67 32 0 8 3 20 6
25 11 19 -5 51 -24 47z"/>
<path d="M3424 3947 c1 -27 8 -52 15 -56 10 -6 9 -10 -4 -15 -18 -6 -12 -26 8
-26 7 0 6 4 -3 11 -12 8 -8 9 13 4 25 -5 27 -4 18 14 -9 16 -7 21 9 26 11 3
25 3 31 -1 9 -5 10 0 6 15 -3 13 -3 20 0 17 3 -3 12 2 19 12 11 15 12 14 10
-11 -2 -15 1 -30 6 -33 4 -3 6 -9 3 -14 -9 -15 73 -89 95 -85 11 2 20 -1 20
-6 0 -6 5 -7 10 -4 21 13 9 -33 -12 -49 -13 -9 -16 -14 -8 -10 12 5 12 4 3 -6
-15 -17 20 -58 50 -56 23 1 30 27 16 57 -5 9 -2 24 6 36 8 11 11 24 7 28 -4 5
-2 5 4 2 13 -7 30 9 36 33 5 23 25 40 41 34 8 -3 17 2 20 10 4 9 2 16 -4 16
-6 0 -7 5 -4 10 3 6 1 10 -6 10 -8 0 -6 6 4 18 10 10 14 22 10 27 -5 4 -3 5 4
1 6 -3 14 -2 18 4 5 9 -7 14 -27 11 -4 0 -5 5 -2 13 3 9 -2 13 -18 11 -38 -4
-39 -5 -32 -16 3 -6 -5 -4 -19 6 -20 13 -46 16 -130 13 -58 -1 -104 -5 -101
-9 2 -4 -6 -9 -18 -13 -14 -3 -26 0 -31 9 -5 9 -20 14 -37 13 -29 -2 -29 -3
-26 -51z m283 -189 c-3 -8 -6 -5 -6 6 -1 11 2 17 5 13 3 -3 4 -12 1 -19z"/>
<path d="M0 3945 c0 -19 5 -35 10 -35 6 0 10 7 10 15 0 8 4 15 10 15 14 0 1
27 -16 34 -10 4 -14 -3 -14 -29z"/>
<path d="M1305 3970 c3 -5 8 -10 11 -10 2 0 4 5 4 10 0 6 -5 10 -11 10 -5 0
-7 -4 -4 -10z"/>
<path d="M1622 3963 c-6 -2 -10 -9 -6 -14 3 -5 0 -9 -6 -9 -6 0 -4 -7 5 -16 9
-9 14 -23 11 -31 -3 -8 -1 -11 4 -8 6 3 10 13 10 21 0 9 5 12 12 8 6 -4 8 -3
4 4 -3 6 -2 13 4 17 16 10 1 25 -17 18 -11 -4 -14 -3 -9 5 8 13 7 13 -12 5z"/>
<path d="M2260 3946 c0 -9 5 -16 10 -16 6 0 10 4 10 9 0 6 -4 13 -10 16 -5 3
-10 -1 -10 -9z"/>
<path d="M795 3939 c-4 -6 -5 -12 -2 -15 2 -3 7 2 10 11 7 17 1 20 -8 4z"/>
<path d="M786 3896 c3 -8 1 -17 -5 -21 -17 -10 -14 -45 3 -39 9 3 12 12 9 21
-5 12 -3 14 7 8 10 -6 12 -3 8 13 -4 14 -2 20 4 15 7 -3 8 -1 4 5 -10 17 -36
15 -30 -2z"/>
<path d="M590 3882 c0 -5 -9 -20 -21 -33 -19 -22 -19 -24 -2 -30 25 -10 35
-10 29 0 -3 4 3 16 14 26 26 23 26 45 0 45 -11 0 -20 -4 -20 -8z"/>
<path d="M3859 3865 c-1 -6 -1 -13 0 -17 0 -5 -4 -8 -10 -8 -8 0 -7 -5 1 -16
12 -14 15 -14 29 0 14 15 14 18 -2 33 -9 10 -18 13 -18 8z"/>
<path d="M3370 3856 c0 -2 7 -7 16 -10 8 -3 12 -2 9 4 -6 10 -25 14 -25 6z"/>
<path d="M3467 3826 c-4 -10 -10 -15 -15 -12 -4 2 -14 1 -22 -4 -9 -5 -19 -5
-27 2 -9 7 -13 7 -13 0 0 -6 5 -14 10 -17 6 -4 8 -10 5 -15 -5 -9 28 -46 74
-83 17 -14 26 -16 37 -7 11 10 11 15 -4 35 -9 13 -20 21 -24 19 -4 -2 -9 0
-12 5 -3 5 6 16 20 26 24 16 26 15 44 -5 10 -12 21 -17 24 -11 7 10 -52 60
-59 51 -2 -3 -10 4 -18 14 -13 17 -14 17 -20 2z m18 -106 c3 -5 1 -10 -4 -10
-6 0 -11 5 -11 10 0 6 2 10 4 10 3 0 8 -4 11 -10z"/>
<path d="M1475 3802 c-10 -7 -18 -32 -10 -32 2 0 9 9 15 20 12 22 11 24 -5 12z"/>
<path d="M3810 3784 c0 -9 -5 -12 -12 -8 -16 10 11 -26 31 -42 17 -13 68 11
68 33 0 7 -3 11 -5 8 -3 -3 -11 0 -19 6 -7 6 -13 9 -13 5 0 -3 -11 -1 -25 4
-20 8 -25 6 -25 -6z"/>
<path d="M1106 3775 c4 -8 10 -12 15 -9 11 6 2 24 -11 24 -5 0 -7 -7 -4 -15z"/>
<path d="M1073 3765 c0 -8 6 -16 13 -19 7 -3 10 2 7 15 -6 22 -20 26 -20 4z"/>
<path d="M3366 3665 c4 -8 10 -15 15 -15 4 0 6 7 3 15 -4 8 -10 15 -15 15 -4
0 -6 -7 -3 -15z"/>
<path d="M3450 3665 c0 -6 5 -16 12 -23 8 -8 8 -12 1 -12 -6 0 -14 -7 -17 -16
-3 -8 -2 -13 3 -10 4 3 13 -6 19 -19 7 -14 16 -25 21 -25 13 0 7 30 -8 39 -6
4 -9 14 -6 22 3 8 -1 23 -9 34 -9 11 -16 15 -16 10z"/>
<path d="M1195 3650 c-3 -5 1 -10 10 -10 9 0 13 5 10 10 -3 6 -8 10 -10 10 -2
0 -7 -4 -10 -10z"/>
<path d="M3389 3630 c-13 -12 -18 -19 -11 -15 6 3 12 1 12 -5 0 -6 5 -8 10 -5
6 3 10 0 11 -7 0 -7 5 -3 11 10 17 35 -3 48 -33 22z"/>
<path d="M3540 3620 c-9 -6 -10 -10 -3 -10 6 0 15 5 18 10 8 12 4 12 -15 0z"/>
<path d="M3633 3605 c-1 -11 1 -14 4 -7 3 6 9 12 14 12 6 0 7 -4 4 -10 -3 -5
-4 -10 -1 -10 3 0 10 9 16 20 9 17 8 20 -13 18 -16 -1 -23 -9 -24 -23z"/>
<path d="M3475 3541 c-6 -11 13 -26 22 -17 4 3 1 6 -6 6 -7 0 -9 5 -6 10 3 6
4 10 1 10 -3 0 -7 -4 -11 -9z"/>
<path d="M3510 3546 c0 -2 7 -9 15 -16 13 -11 14 -10 9 4 -5 14 -24 23 -24 12z"/>
<path d="M3971 3265 c2 -11 0 -26 -5 -34 -6 -10 -5 -12 2 -7 7 4 12 2 12 -5 0
-18 13 -2 17 20 1 11 -5 25 -13 32 -14 11 -15 10 -13 -6z"/>
<path d="M3970 3175 c0 -2 6 -8 13 -14 10 -8 14 -7 14 2 0 8 -6 14 -14 14 -7
0 -13 -1 -13 -2z"/>
<path d="M3939 3081 c-19 -16 -20 -18 -6 -24 10 -4 17 -2 17 5 0 6 6 5 16 -3
15 -12 16 -11 9 10 -5 15 -4 21 3 17 6 -3 13 -3 16 2 9 16 -34 10 -55 -7z"/>
<path d="M3976 2801 c-3 -5 1 -11 9 -14 9 -4 12 -1 8 9 -6 16 -10 17 -17 5z"/>
<path d="M3945 2720 c-3 -5 -1 -10 4 -10 6 0 11 5 11 10 0 6 -2 10 -4 10 -3 0
-8 -4 -11 -10z"/>
<path d="M3942 2692 c-6 -5 -11 -20 -10 -34 1 -16 7 -24 13 -20 15 10 34 11
40 3 2 -5 -6 -14 -19 -21 -30 -16 -50 -58 -36 -75 5 -6 8 -14 5 -17 -3 -2 1
-5 8 -6 6 0 21 -2 32 -4 18 -3 20 3 23 51 2 29 0 61 -4 70 -4 9 -6 19 -6 24 1
4 -2 7 -8 7 -5 0 -9 5 -7 11 3 15 -15 21 -31 11z"/>
<path d="M3915 2460 c3 -5 8 -10 11 -10 2 0 4 5 4 10 0 6 -5 10 -11 10 -5 0
-7 -4 -4 -10z"/>
<path d="M50 1871 c0 -6 4 -13 10 -16 6 -3 7 1 4 9 -7 18 -14 21 -14 7z"/>
<path d="M126 1753 c2 -9 -6 -10 -28 -6 -23 4 -30 3 -26 -7 2 -7 21 -14 43
-16 21 -1 33 1 26 6 -7 4 -12 10 -11 14 1 4 0 10 -3 14 -2 4 -2 2 -1 -5z"/>
<path d="M6 1333 c-11 -28 -6 -37 10 -17 8 10 12 13 8 5 -4 -9 -2 -12 7 -9 8
3 14 11 14 18 0 18 -32 21 -39 3z"/>
<path d="M150 1100 c0 -5 5 -10 11 -10 5 0 7 5 4 10 -3 6 -8 10 -11 10 -2 0
-4 -4 -4 -10z"/>
<path d="M2 1004 c1 -19 4 -37 8 -39 4 -3 6 7 4 20 -1 17 2 23 9 18 7 -4 18
-8 24 -9 21 -3 -4 33 -26 39 -18 4 -20 0 -19 -29z"/>
<path d="M3970 670 c0 -11 4 -20 9 -20 6 0 9 9 8 20 -1 11 -5 20 -9 20 -4 0
-8 -9 -8 -20z"/>
<path d="M3977 623 c-11 -11 -8 -20 7 -20 8 0 12 6 9 14 -6 15 -7 15 -16 6z"/>
<path d="M966 610 c5 -8 9 -18 9 -22 0 -5 4 -8 8 -9 18 -2 16 9 -5 27 -13 11
-18 13 -12 4z"/>
<path d="M25 571 c-3 -5 -1 -12 4 -15 5 -3 11 1 15 9 6 16 -9 21 -19 6z"/>
<path d="M93 511 c1 -12 8 -19 19 -18 23 2 19 31 -4 35 -12 2 -16 -3 -15 -17z"/>
<path d="M912 460 c0 -24 4 -30 19 -30 19 0 49 21 49 34 0 3 -7 6 -15 6 -8 0
-15 5 -15 10 0 6 -8 10 -18 10 -14 0 -19 -8 -20 -30z"/>
<path d="M60 446 c0 -8 -6 -17 -12 -19 -7 -3 -3 -6 9 -6 16 -1 20 3 16 19 -6
23 -13 26 -13 6z"/>
<path d="M7 443 c-13 -12 -7 -43 8 -43 9 0 14 8 12 20 -4 24 -11 32 -20 23z"/>
<path d="M1640 440 c0 -5 5 -10 10 -10 6 0 10 5 10 10 0 6 -4 10 -10 10 -5 0
-10 -4 -10 -10z"/>
<path d="M3932 441 c-10 -6 -9 -10 7 -14 14 -3 21 0 21 9 0 16 -9 18 -28 5z"/>
<path d="M1590 437 c0 -2 6 -10 14 -16 11 -9 16 -9 22 1 4 7 4 10 -1 6 -4 -4
-14 -3 -22 3 -7 6 -13 9 -13 6z"/>
<path d="M3815 418 c-32 -19 -44 -39 -31 -55 33 -40 39 -44 46 -33 4 6 11 11
16 11 5 -1 9 4 9 9 0 6 5 14 11 18 14 9 9 42 -8 53 -17 11 -19 11 -43 -3z"/>
<path d="M108 387 c-16 -15 -24 -31 -21 -46 2 -12 -1 -20 -6 -17 -15 10 -51
-29 -40 -45 15 -24 10 -35 -7 -11 -22 32 -34 27 -34 -13 0 -26 3 -33 15 -29 8
4 15 1 15 -6 0 -6 4 -9 9 -5 6 3 14 -3 20 -12 9 -16 10 -16 8 4 0 12 -5 19 -9
17 -12 -8 -9 9 5 27 12 16 18 19 40 19 8 0 7 4 -3 10 -10 6 -11 10 -2 10 6 0
12 6 12 14 0 8 5 18 12 22 7 5 8 3 3 -6 -6 -10 -4 -11 6 -4 19 11 60 13 53 2
-3 -4 -10 -5 -16 -2 -6 4 -8 2 -4 -4 4 -7 17 -8 35 -2 16 4 31 7 33 5 2 -2 4
5 5 15 1 11 -5 20 -13 20 -8 0 -14 4 -14 10 0 6 -3 9 -7 9 -21 -3 -33 3 -33
17 0 8 -4 12 -10 9 -5 -3 -10 -1 -10 4 0 17 -15 13 -42 -12z"/>
<path d="M3871 361 c-9 -6 -10 -11 -2 -15 6 -4 9 -11 7 -15 -3 -4 1 -8 9 -8 8
0 12 4 9 8 -2 4 1 9 8 11 6 2 8 10 4 16 -8 14 -16 15 -35 3z"/>
<path d="M3462 304 c-7 -8 -15 -23 -17 -33 -3 -14 1 -17 15 -14 24 6 56 41 46
50 -12 12 -31 11 -44 -3z"/>
<path d="M3236 263 c-6 -14 -5 -15 5 -6 7 7 10 15 7 18 -3 3 -9 -2 -12 -12z"/>
<path d="M3943 269 c1 -4 -7 -15 -18 -23 -20 -15 -20 -15 1 -16 12 0 25 10 31
23 9 18 8 24 -2 24 -8 0 -13 -4 -12 -8z"/>
<path d="M127 224 c-8 -9 1 -24 14 -24 6 0 7 5 3 12 -5 8 -2 9 10 5 10 -4 15
-3 11 3 -7 11 -28 13 -38 4z"/>
<path d="M1210 219 c0 -5 5 -7 10 -4 6 3 10 8 10 11 0 2 -4 4 -10 4 -5 0 -10
-5 -10 -11z"/>
<path d="M1685 192 c-13 -9 -16 -42 -4 -42 5 0 8 -3 8 -7 -4 -25 3 -34 24 -31
16 2 22 -2 21 -15 -2 -14 1 -15 13 -6 12 11 12 14 -2 22 -13 7 -14 11 -3 25 9
11 10 14 1 8 -9 -5 -11 -2 -6 10 4 11 -1 22 -12 30 -21 16 -26 17 -40 6z"/>
<path d="M3973 193 c4 -6 -5 -19 -21 -30 -30 -20 -43 -49 -18 -40 9 4 18 2 21
-3 4 -6 12 -10 18 -9 9 0 9 2 0 5 -7 3 -9 12 -6 20 3 7 9 12 13 9 16 -10 18
35 2 47 -10 8 -13 8 -9 1z"/>
<path d="M2235 180 c-3 -5 -1 -10 4 -10 6 0 11 5 11 10 0 6 -2 10 -4 10 -3 0
-8 -4 -11 -10z"/>
<path d="M3436 181 c-3 -5 0 -11 7 -14 8 -3 14 1 14 9 0 16 -13 19 -21 5z"/>
<path d="M1623 165 c-9 -10 -7 -18 9 -35 22 -24 35 -20 23 7 -5 10 -9 21 -9
25 -2 14 -12 15 -23 3z"/>
<path d="M1767 167 c-6 -17 17 -55 25 -41 3 5 -1 19 -7 32 -10 18 -14 20 -18
9z"/>
<path d="M2053 169 c-6 -6 -19 -12 -29 -14 -11 -2 -21 -4 -23 -4 -2 -1 2 -8 9
-16 11 -13 10 -14 -3 -10 -8 4 -18 2 -21 -4 -4 -7 10 -10 38 -9 25 0 43 4 40
9 -3 5 1 9 8 9 9 1 7 5 -4 14 -13 10 -15 15 -6 24 7 7 10 12 7 12 -3 0 -10 -5
-16 -11z"/>
<path d="M58 149 c-12 -12 -13 -19 -5 -23 9 -3 9 -5 0 -5 -13 -1 -5 -41 9 -41
5 0 7 -4 4 -8 -3 -5 4 -16 14 -25 11 -9 22 -12 25 -8 3 5 15 7 28 4 12 -3 19
-2 15 2 -4 4 -1 13 7 19 21 16 28 66 9 66 -8 0 -13 4 -10 9 3 5 -2 12 -12 16
-35 15 -67 12 -84 -6z"/>
<path d="M1895 140 c3 -5 1 -10 -5 -10 -6 0 -8 -5 -4 -11 4 -8 9 -7 15 2 12
19 11 29 -2 29 -5 0 -7 -4 -4 -10z"/>
<path d="M0 93 c0 -14 1 -24 3 -22 1 2 8 11 15 20 10 14 10 18 -3 23 -11 4
-15 -1 -15 -21z"/>
<path d="M752 89 c2 -22 5 -26 19 -19 9 5 19 7 21 4 3 -2 3 6 1 20 -7 36 -44
31 -41 -5z"/>
<path d="M1563 99 c14 -23 24 -24 24 -5 0 8 -8 17 -18 19 -15 4 -16 2 -6 -14z"/>
<path d="M1770 103 c0 -8 7 -13 18 -11 9 2 17 7 17 12 0 5 -8 10 -17 12 -10 1
-18 -4 -18 -13z"/>
<path d="M1667 103 c-4 -3 -2 -12 5 -20 8 -11 7 -12 -6 -7 -16 6 -20 -3 -16
-40 1 -13 -3 -17 -13 -13 -9 3 -18 -1 -21 -9 -4 -11 4 -14 36 -14 34 0 39 2
29 14 -10 12 -8 17 7 25 29 15 36 43 16 58 -20 15 -28 16 -37 6z"/>
<path d="M866 73 c5 -18 3 -24 -4 -19 -7 4 -10 2 -6 -7 3 -8 -1 -14 -10 -14
-8 0 -12 5 -9 10 4 6 -1 8 -11 4 -10 -4 -19 -7 -22 -7 -2 0 4 -9 13 -20 14
-16 29 -20 78 -19 33 0 54 3 48 6 -7 2 -13 13 -13 24 0 21 -25 26 -33 7 -5
-11 -11 24 -9 44 1 3 -5 9 -13 12 -12 4 -14 0 -9 -21z m-9 -59 c-3 -3 -12 -4
-19 -1 -8 3 -5 6 6 6 11 1 17 -2 13 -5z"/>
<path d="M615 80 c-3 -6 -11 -8 -17 -4 -6 4 -8 -3 -6 -17 2 -18 9 -24 28 -23
20 0 25 5 25 23 0 26 -19 39 -30 21z"/>
<path d="M2291 84 c-1 -15 28 -39 36 -30 3 3 1 6 -6 6 -7 0 -9 5 -5 12 4 6 3
8 -4 4 -5 -3 -13 0 -15 6 -4 8 -6 9 -6 2z"/>
<path d="M1077 65 c-13 -9 -17 -20 -12 -36 5 -14 4 -19 -4 -15 -6 4 -19 3 -28
-3 -13 -7 -3 -9 37 -7 47 1 56 5 67 26 7 14 9 28 5 31 -16 15 -48 17 -65 4z"/>
<path d="M1803 48 c-10 -11 -24 -16 -35 -12 -12 4 -18 0 -18 -11 0 -12 6 -15
19 -10 11 3 22 1 26 -5 11 -17 69 -12 81 8 27 42 -38 68 -73 30z"/>
<path d="M460 40 c0 -5 7 -10 15 -10 8 0 14 -3 14 -7 -3 -20 2 -24 15 -13 8 6
12 18 9 26 -6 16 -53 20 -53 4z"/>
<path d="M1979 43 c-1 -5 -1 -11 0 -15 1 -11 -7 -10 -32 4 -19 10 -20 9 -9 -4
10 -13 9 -15 -13 -13 -14 2 -25 -1 -25 -5 0 -5 27 -9 59 -9 60 1 60 1 49 25
-11 23 -27 32 -29 17z"/>
<path d="M110 30 c0 -5 5 -10 11 -10 5 0 7 5 4 10 -3 6 -8 10 -11 10 -2 0 -4
-4 -4 -10z"/>
<path d="M403 24 c0 -16 20 -25 36 -15 8 5 4 11 -12 18 -19 9 -24 8 -24 -3z"/>
<path d="M3545 20 c-4 -6 -10 -8 -15 -5 -5 3 -11 1 -15 -5 -3 -6 4 -10 18 -10
14 0 24 6 24 15 0 18 -3 19 -12 5z"/>
<path d="M3968 3 c7 -3 16 -2 19 1 4 3 -2 6 -13 5 -11 0 -14 -3 -6 -6z"/>
</g>
</svg>
