<?xml version="1.0" standalone="no"?>
<!DOCTYPE svg PUBLIC "-//W3C//DTD SVG 20010904//EN"
 "http://www.w3.org/TR/2001/REC-SVG-20010904/DTD/svg10.dtd">
<svg version="1.0" xmlns="http://www.w3.org/2000/svg"
 width="400.000000pt" height="400.000000pt" viewBox="0 0 400.000000 400.000000"
 preserveAspectRatio="xMidYMid meet">
<metadata>
Created by potrace 1.14, written by Peter Selinger 2001-2017
</metadata>
<g transform="translate(0.000000,400.000000) scale(0.100000,-0.100000)"
fill="#000000" stroke="none">
<path d="M110 3988 c0 -5 -7 -16 -15 -25 -8 -8 -12 -20 -8 -26 4 -6 0 -8 -10
-4 -11 4 -17 1 -17 -8 0 -17 54 -15 56 3 1 6 2 17 3 23 0 5 5 8 10 5 5 -4 12
0 14 6 4 8 6 7 6 -3 1 -9 8 -19 16 -23 15 -5 11 -32 -9 -51 -12 -12 -56 -15
-56 -4 0 4 -7 10 -16 13 -8 3 -12 2 -9 -3 3 -5 0 -13 -6 -17 -7 -4 -9 -3 -6 3
4 6 -2 22 -13 34 -15 19 -19 20 -20 8 0 -9 7 -20 16 -23 8 -3 12 -10 9 -16 -3
-6 1 -13 10 -16 9 -4 13 -10 8 -13 -25 -18 -50 -105 -33 -116 6 -4 10 -3 9 2
-6 33 2 52 21 48 11 -2 24 3 28 12 5 8 12 14 15 14 18 -3 21 0 8 8 -11 7 -10
11 7 20 17 9 24 7 39 -12 10 -13 32 -31 49 -42 25 -14 31 -24 30 -47 -2 -33 5
-48 25 -51 18 -3 23 -22 6 -23 -6 -1 -16 -3 -22 -4 -5 -1 -14 -2 -19 -1 -5 1
-4 -5 3 -13 9 -11 9 -20 2 -34 -6 -11 -7 -22 -4 -26 3 -3 2 -6 -3 -7 -88 -7
-93 -6 -83 12 5 11 12 19 15 19 3 0 3 -4 0 -9 -3 -5 1 -11 9 -15 8 -3 15 -1
15 4 0 5 7 7 15 4 8 -4 15 -2 15 4 0 6 -6 13 -12 15 -10 4 -10 6 0 6 6 1 12 6
12 12 0 5 -3 8 -8 6 -4 -3 -5 17 -4 44 3 34 8 47 15 42 7 -4 6 1 -2 10 -7 9
-11 23 -8 31 4 9 0 13 -11 11 -9 -2 -20 -4 -24 -4 -4 -1 -10 -11 -13 -22 -4
-12 -10 -17 -14 -11 -3 5 -15 12 -26 14 -12 2 -19 11 -18 22 1 16 -1 17 -13 4
-8 -8 -16 -23 -18 -34 -2 -10 -7 -31 -11 -46 -6 -22 -4 -28 9 -29 9 -1 22 -2
29 -3 6 -1 20 2 31 7 14 7 16 6 11 -4 -6 -9 -3 -11 8 -6 21 8 21 7 2 -31 -14
-27 -19 -29 -43 -22 -51 15 -57 15 -54 1 2 -9 -4 -12 -18 -8 -13 3 -18 1 -13
-6 4 -6 0 -8 -9 -5 -9 4 -15 0 -15 -8 0 -8 6 -13 14 -10 8 3 13 -2 13 -13 0
-11 6 -22 13 -24 9 -4 9 -6 0 -6 -6 -1 -15 4 -18 9 -12 20 -25 9 -25 -20 0
-29 2 -30 35 -24 33 5 41 -1 36 -28 0 -5 5 -8 11 -8 9 0 8 -3 -2 -10 -9 -6
-20 -5 -29 3 -12 10 -13 9 -7 -3 4 -8 1 -7 -8 4 -8 10 -19 15 -25 11 -17 -10
-14 -127 4 -152 13 -19 13 -22 0 -27 -13 -5 -15 -53 -15 -341 0 -327 1 -336
19 -330 21 6 38 -10 21 -20 -6 -4 -8 -11 -4 -16 3 -6 -3 -13 -14 -16 -19 -5
-20 -13 -22 -180 0 -128 2 -173 11 -168 8 6 8 2 0 -13 -14 -27 -13 -214 2
-224 6 -3 20 -2 30 4 14 7 17 7 13 -1 -4 -5 3 -15 14 -21 11 -6 18 -15 15 -20
-3 -5 9 -16 26 -24 36 -18 63 -21 54 -7 -3 5 -1 12 5 16 5 3 10 1 10 -5 0 -6
5 -8 12 -4 8 5 9 2 5 -10 -8 -20 12 -56 31 -56 7 0 11 -4 8 -9 -7 -10 17 -22
57 -27 15 -2 25 0 22 5 -3 5 -1 12 4 15 5 4 8 -1 7 -10 -1 -9 -10 -20 -19 -26
-19 -10 -23 -38 -6 -38 5 0 7 5 3 12 -4 7 -3 8 5 4 14 -9 4 -29 -12 -23 -7 2
-22 1 -33 -4 -19 -7 -21 -5 -16 13 4 16 2 19 -8 13 -9 -6 -11 -4 -6 4 5 7 0
21 -9 31 -16 18 -20 18 -46 5 -16 -9 -33 -25 -40 -36 -8 -15 -8 -19 0 -15 6 4
11 3 11 -2 0 -13 -23 -21 -46 -17 -11 2 -22 4 -26 4 -13 2 -9 29 5 34 9 4 9 6
-1 6 -7 1 -10 6 -7 11 3 6 -1 10 -9 10 -9 0 -16 5 -16 10 0 7 -6 7 -19 1 -10
-6 -21 -7 -25 -4 -3 3 -6 -9 -6 -29 0 -32 3 -36 40 -47 27 -8 38 -16 33 -24
-4 -7 -8 -18 -9 -25 -5 -28 -19 -23 -47 18 -16 24 -17 20 -17 -107 0 -111 2
-132 16 -137 12 -5 15 -2 10 10 -5 14 -4 15 8 5 11 -9 15 -9 19 1 2 7 8 10 12
6 4 -4 2 -14 -5 -23 -7 -8 -9 -15 -5 -15 4 0 2 -6 -4 -13 -6 -8 -8 -16 -5 -20
3 -3 -1 -18 -10 -34 -8 -15 -16 -21 -16 -13 0 12 -2 12 -10 -2 -11 -18 -10
-69 1 -62 4 2 10 0 14 -5 3 -6 13 -7 22 -4 11 4 14 3 9 -6 -6 -10 -4 -10 12 0
21 13 20 35 -1 22 -8 -5 -8 -2 0 9 7 8 11 17 8 19 -2 3 9 13 26 24 16 11 29
26 29 33 0 14 26 16 35 2 3 -5 0 -10 -8 -10 -15 0 -32 -29 -23 -37 8 -8 27 8
21 18 -4 5 -2 9 3 9 12 0 24 -29 16 -41 -3 -5 2 -9 10 -9 9 0 16 -7 16 -15 0
-9 6 -12 15 -9 8 4 15 1 15 -6 0 -6 -5 -8 -10 -5 -6 3 -10 1 -10 -5 0 -6 -4
-8 -10 -5 -5 3 -10 1 -10 -4 0 -12 11 -14 34 -5 9 3 16 12 16 20 0 8 8 14 18
14 13 0 14 -2 4 -9 -11 -7 -10 -9 3 -15 9 -3 13 -11 9 -17 -4 -7 1 -19 12 -27
17 -13 17 -14 1 -8 -13 4 -16 2 -10 -7 11 -17 13 -37 3 -37 -5 0 -10 5 -12 11
-5 14 -66 20 -74 7 -3 -5 -1 -15 5 -22 9 -10 8 -15 -4 -19 -8 -4 -14 -1 -12 5
1 6 -4 12 -11 13 -7 2 -9 1 -4 -1 11 -6 2 -64 -10 -64 -5 0 -7 4 -4 8 3 5 -5
7 -17 6 -12 -1 -28 -3 -34 -3 -24 -2 -13 -29 23 -60 19 -17 32 -36 29 -41 -3
-5 -28 -7 -58 -4 -29 3 -58 6 -64 7 -7 0 -13 4 -13 9 0 5 -5 6 -10 3 -15 -9
-12 -55 4 -61 8 -3 14 -15 13 -25 -1 -19 -2 -19 -14 -3 -11 15 -13 3 -13 -75
0 -94 14 -147 31 -120 5 8 9 9 9 4 0 -15 70 -16 70 -1 0 6 4 5 9 -3 6 -9 26
-15 51 -15 l42 0 -31 -15 c-36 -17 -45 -38 -32 -72 5 -13 10 -19 10 -14 1 6
16 10 34 10 21 0 31 4 29 13 -1 8 2 11 7 8 5 -4 14 1 19 10 9 15 12 15 41 -2
17 -10 31 -24 31 -32 0 -7 -4 -11 -9 -7 -19 11 -21 -14 -2 -27 15 -10 16 -15
6 -25 -7 -6 -15 -9 -18 -7 -3 3 -10 -3 -16 -15 -6 -11 -7 -22 -3 -25 14 -9 47
1 44 14 -1 6 2 9 8 5 10 -6 14 6 11 35 -1 12 0 12 7 2 5 -7 7 -23 6 -35 -1
-12 -3 -28 -3 -35 -1 -7 -6 -10 -11 -7 -17 10 -59 -22 -55 -42 2 -10 4 -22 5
-28 0 -5 6 -3 13 5 18 23 43 20 44 -4 1 -31 7 -59 16 -73 10 -16 -1 -36 -14
-28 -5 4 -9 2 -9 -4 0 -12 -27 -8 -42 7 -7 7 -17 12 -24 12 -10 0 -11 -7 -5
-39 1 -2 7 2 14 8 10 8 14 7 14 -4 0 -8 -4 -12 -8 -10 -11 7 -32 -23 -24 -35
3 -6 11 -8 16 -5 5 4 9 -1 9 -9 0 -9 4 -16 9 -16 4 0 6 -11 4 -24 -7 -33 24
-39 56 -12 13 12 21 16 18 9 -5 -7 0 -9 13 -6 12 3 19 12 18 22 -2 9 2 15 9
14 7 -2 10 10 8 32 -3 31 -1 34 16 24 10 -5 19 -7 19 -3 0 3 16 -10 35 -30 22
-23 44 -36 60 -36 22 0 25 -4 20 -20 -3 -11 -2 -20 3 -20 5 0 12 9 15 20 3 13
14 20 30 20 14 0 27 5 29 10 4 13 46 21 53 11 2 -5 19 -7 37 -6 18 2 39 -2 47
-9 12 -8 13 -8 7 2 -4 7 -2 12 5 12 9 0 9 3 0 14 -9 11 -9 15 0 18 8 3 6 9 -5
21 -10 9 -23 14 -29 10 -9 -5 -9 -3 0 8 6 8 12 17 12 22 1 4 3 7 6 7 3 0 14 0
25 0 11 0 20 -7 20 -15 0 -8 5 -15 11 -15 5 0 8 -4 4 -10 -7 -11 49 -42 60
-32 4 4 3 -1 -2 -12 -12 -23 6 -68 25 -61 9 3 10 0 2 -15 -6 -12 -7 -21 0 -25
5 -3 12 6 16 20 4 16 13 25 25 25 21 0 27 20 7 20 -7 0 -5 5 6 11 14 9 20 8
26 -1 5 -8 13 -9 21 -4 12 6 12 5 0 -9 -8 -10 -9 -17 -3 -17 6 0 14 9 17 20 4
11 11 17 17 14 6 -4 8 -2 5 3 -8 12 17 36 27 26 12 -12 41 31 38 56 -3 18 0
22 12 18 10 -4 16 -1 16 8 0 8 3 15 8 16 4 0 15 2 25 4 9 2 17 -1 17 -7 0 -6
9 -8 20 -5 11 3 20 1 20 -4 0 -5 5 -9 11 -9 5 0 7 4 4 10 -3 6 1 7 9 4 9 -3
13 -11 9 -18 -4 -7 -1 -6 7 1 16 15 24 53 11 53 -5 0 -11 10 -15 22 -5 19 -8
20 -15 8 -9 -12 -11 -12 -16 2 -6 16 -9 16 -33 1 l-27 -15 25 20 c14 11 27 19
29 16 2 -2 11 2 19 9 13 9 14 9 8 0 -4 -8 -1 -13 8 -13 10 0 13 6 9 17 -4 11
-3 14 5 9 8 -5 10 -2 6 8 -7 18 21 23 31 6 3 -5 2 -10 -4 -10 -13 0 -7 -33 7
-38 7 -2 12 -12 12 -23 0 -18 10 -23 37 -20 6 1 14 -3 18 -9 3 -5 0 -7 -9 -4
-11 4 -13 0 -9 -15 3 -11 9 -19 13 -16 5 3 11 1 15 -4 3 -5 14 -8 25 -6 13 2
18 -2 17 -14 -1 -17 -26 -48 -28 -36 -1 3 -3 10 -4 15 -1 6 -3 15 -4 21 0 5
-5 8 -10 4 -5 -3 -12 -1 -15 4 -9 13 -91 8 -89 -6 1 -6 -4 -14 -13 -17 -10 -4
-13 -2 -8 7 4 6 -6 -3 -23 -20 -16 -18 -33 -30 -36 -27 -4 4 -9 -1 -13 -10 -3
-9 -11 -13 -17 -9 -7 4 -8 0 -3 -13 15 -36 15 -65 -1 -71 -14 -5 -14 -8 -1
-17 24 -19 27 -42 7 -55 -11 -6 -17 -16 -14 -21 3 -6 1 -10 -4 -10 -6 0 -11
-11 -11 -25 0 -31 -14 -32 -35 -2 -8 12 -21 22 -27 22 -6 0 -13 6 -16 14 -3 8
0 11 6 7 13 -8 42 32 36 49 -6 15 -48 25 -63 16 -5 -3 -11 -13 -13 -20 -2 -8
-11 -23 -22 -34 -25 -27 0 -44 29 -19 18 15 18 15 7 0 -14 -18 -10 -22 30 -32
18 -4 26 -12 25 -26 -1 -15 -4 -17 -16 -7 -11 9 -13 9 -8 0 4 -6 2 -15 -4 -19
-7 -4 -9 -3 -6 3 4 6 1 16 -7 22 -11 9 -15 9 -19 -1 -3 -9 -9 -7 -22 7 -9 11
-13 13 -9 5 6 -12 3 -12 -12 2 -21 18 -63 26 -79 16 -6 -4 -11 2 -11 12 0 10
4 16 9 13 5 -3 3 4 -4 15 -7 12 -17 18 -23 15 -5 -4 -7 1 -3 9 4 12 1 14 -13
11 -14 -4 -18 0 -16 13 3 17 -15 44 -28 44 -6 0 0 -36 9 -50 3 -6 1 -10 -4
-10 -6 0 -11 6 -11 13 0 8 -3 8 -9 -2 -8 -12 -12 -12 -24 -2 -10 8 -17 9 -22
1 -9 -14 3 -30 18 -24 7 2 18 -6 26 -18 12 -20 12 -21 0 -11 -29 24 -49 -15
-24 -49 9 -14 11 -26 5 -33 -7 -9 2 -12 31 -13 38 -2 40 0 28 15 -13 15 -12
15 7 3 21 -13 60 -7 50 8 -2 4 5 9 17 9 12 1 17 -1 12 -5 -34 -24 25 -43 67
-21 12 6 18 7 14 1 -4 -7 72 -10 220 -11 151 -1 223 2 219 9 -3 5 -1 10 6 10
7 0 20 7 30 16 16 15 20 15 33 1 9 -9 25 -13 37 -10 14 4 25 0 31 -11 16 -28
80 -21 110 12 22 25 23 31 12 47 -10 14 -14 15 -14 4 0 -12 -2 -12 -10 1 -5 8
-10 11 -10 5 0 -5 -5 -3 -10 5 -8 13 -10 12 -10 -4 0 -26 -13 -12 -15 16 -1
12 6 30 14 40 18 21 23 58 9 58 -5 0 -6 5 -3 10 4 6 11 8 16 5 5 -4 9 1 9 10
0 9 4 14 8 11 5 -3 9 1 9 9 0 8 -5 12 -10 8 -5 -3 -6 3 -2 16 6 20 -2 26 -27
22 -13 -2 -9 7 15 33 24 25 40 26 31 2 -6 -16 18 -37 45 -39 12 -1 21 -4 21
-8 0 -4 8 -6 18 -4 9 1 23 -2 30 -8 7 -6 12 -6 11 -1 -4 21 2 34 16 34 13 0
19 16 17 40 0 3 8 6 18 6 10 0 17 -3 14 -7 -2 -4 2 -10 8 -13 7 -3 2 -3 -12 0
-17 4 -21 2 -11 -4 11 -8 11 -10 0 -14 -9 -3 -8 -6 5 -11 9 -4 15 -3 12 2 -3
4 12 18 33 29 45 26 55 27 48 8 -3 -7 0 -19 6 -26 9 -10 9 -11 -2 -5 -9 5 -12
4 -7 -3 4 -7 19 -12 33 -12 19 0 24 -4 19 -16 -3 -8 -2 -13 3 -10 4 3 17 -4
29 -14 29 -27 46 -25 61 6 9 21 9 25 -1 21 -8 -3 -13 4 -13 18 0 13 3 22 6 20
3 -2 14 5 23 17 18 20 18 22 -5 39 -20 16 -22 20 -9 28 8 5 18 7 22 5 9 -6 11
7 8 49 -1 19 3 27 15 27 9 0 13 4 10 10 -3 6 1 7 9 4 9 -3 13 -11 9 -18 -4 -6
-1 -6 9 2 13 10 16 9 21 -9 4 -15 0 -23 -14 -26 -22 -6 -25 -25 -6 -45 6 -7
12 -19 12 -27 0 -8 6 -15 13 -17 7 -1 8 0 2 3 -16 8 8 43 26 36 8 -3 13 -12
10 -19 -3 -9 1 -11 12 -7 14 5 13 2 -3 -14 -11 -11 -22 -19 -25 -17 -3 1 -7
-6 -7 -17 -1 -10 2 -19 8 -19 5 0 8 5 6 12 -1 7 4 12 11 13 7 0 16 6 21 13 5
8 12 14 17 15 5 1 8 5 7 8 -1 3 5 6 13 6 8 0 14 -5 14 -10 0 -5 7 -4 15 3 8 7
15 9 15 4 0 -4 5 -3 12 4 15 15 28 15 28 1 0 -5 -4 -7 -10 -4 -5 3 -10 2 -10
-4 0 -5 6 -12 13 -14 7 -3 4 -6 -6 -6 -11 -1 -15 -6 -11 -13 4 -7 3 -8 -5 -4
-6 4 -9 12 -5 17 3 6 -4 5 -15 -3 -18 -11 -23 -11 -31 2 -8 12 -10 12 -15 -2
-9 -23 3 -42 18 -30 14 11 34 4 71 -25 25 -20 26 -24 13 -37 -8 -8 -18 -12
-22 -8 -5 4 -5 2 -2 -5 9 -15 -2 -43 -18 -43 -7 0 -18 -7 -25 -15 -10 -12 -9
-16 4 -21 9 -3 14 -9 11 -14 -2 -4 7 -13 20 -20 14 -7 25 -17 25 -22 0 -5 6
-6 12 -2 7 4 10 4 6 -1 -4 -4 -3 -14 3 -21 7 -8 7 -14 -1 -19 -16 -10 -12 -45
6 -52 24 -9 40 13 23 33 -12 16 -12 17 4 11 10 -4 16 -3 12 2 -9 15 6 40 21
34 8 -3 12 -8 10 -12 -7 -11 27 -55 44 -60 42 -10 81 -8 76 4 -2 7 4 15 14 18
14 3 17 1 13 -12 -3 -9 6 -3 21 13 14 16 26 36 26 44 0 9 3 12 6 9 4 -3 16 -2
27 4 14 8 18 8 13 0 -4 -6 -2 -11 3 -11 6 0 11 5 11 12 0 6 8 4 19 -6 19 -17
19 -18 0 -37 -10 -10 -23 -19 -27 -19 -5 0 -16 -6 -26 -13 -28 -20 105 -23
141 -3 16 9 40 20 56 26 27 9 40 50 15 50 -6 0 -4 7 5 18 10 10 15 21 12 24
-3 3 3 8 15 11 15 4 20 0 20 -16 0 -18 2 -19 10 -7 5 8 10 11 10 6 0 -5 7 -2
17 5 13 11 17 11 20 1 3 -6 9 -10 14 -6 5 3 9 1 9 -5 0 -6 -11 -13 -25 -17
-14 -3 -25 -10 -25 -16 0 -5 -4 -6 -10 -3 -5 3 -10 1 -10 -5 0 -7 -7 -7 -22 1
-21 11 -22 11 -9 -4 7 -10 9 -17 3 -17 -6 0 -9 -8 -7 -17 1 -10 -2 -24 -8 -30
-7 -10 12 -13 90 -13 84 0 100 2 100 16 0 10 -7 14 -19 11 -10 -3 -18 -1 -18
5 0 5 -4 7 -9 3 -6 -3 -9 4 -8 15 1 11 6 20 12 20 5 0 1 7 -9 15 -11 8 -14 15
-7 15 7 0 10 4 6 9 -3 5 1 16 9 24 8 8 13 17 10 19 -2 3 2 10 10 17 11 9 20 7
41 -14 26 -23 39 -29 58 -26 4 0 7 -8 7 -18 0 -11 9 -23 20 -26 11 -3 20 -11
20 -17 0 -6 3 -9 6 -6 3 4 -2 19 -11 35 -10 15 -11 21 -4 13 21 -22 37 -22 44
0 4 11 11 20 16 20 5 0 9 6 9 13 0 7 9 18 21 25 11 7 19 18 16 25 -2 7 3 17
11 23 12 9 12 12 -1 26 -11 10 -12 19 -5 26 6 6 6 12 -3 17 -8 6 -10 4 -4 -5
5 -9 4 -11 -3 -6 -8 5 -9 13 -2 25 6 12 5 24 -3 35 -10 14 -17 14 -44 4 -29
-11 -34 -10 -57 15 -20 22 -25 24 -30 10 -6 -14 -8 -14 -20 3 -8 10 -18 16
-22 11 -4 -4 -2 -7 4 -7 7 0 12 -5 12 -11 0 -6 -7 -9 -14 -6 -11 4 -13 1 -10
-11 5 -15 4 -15 -6 1 -6 9 -15 15 -21 12 -5 -4 -9 -1 -9 4 0 6 -7 11 -15 11
-8 0 -15 5 -15 10 0 6 0 13 0 18 0 10 23 10 36 0 14 -10 46 1 38 13 -3 6 8 7
28 3 18 -3 39 -7 46 -7 6 0 12 -3 12 -7 0 -4 7 -7 15 -7 8 0 15 4 15 8 0 5 8
5 18 2 15 -6 15 -5 3 11 -12 14 -12 17 -1 14 8 -2 15 3 16 10 1 6 2 17 3 23 2
18 74 6 95 -16 10 -11 21 -19 25 -18 3 0 12 -5 19 -13 8 -9 9 -14 2 -14 -6 0
-8 -5 -5 -10 4 -6 11 -8 16 -5 5 3 6 -2 3 -12 -5 -16 -4 -16 8 -2 14 17 48 22
48 6 0 -5 -9 -11 -20 -14 -11 -3 -20 -10 -20 -15 0 -5 -4 -6 -10 -3 -5 3 -10
-1 -10 -11 0 -12 -6 -15 -26 -11 -16 3 -28 0 -31 -9 -3 -8 -10 -11 -16 -7 -6
4 -8 0 -4 -10 4 -11 2 -14 -9 -10 -7 3 -14 1 -14 -4 0 -13 33 -12 43 1 6 7 7
4 3 -6 -3 -10 0 -20 6 -24 7 -5 5 -11 -6 -20 -11 -7 -15 -18 -10 -25 4 -8 3
-10 -4 -5 -17 10 -15 -29 1 -42 16 -14 42 1 32 19 -6 9 -3 11 9 6 10 -4 15 -3
11 3 -3 5 6 21 21 35 15 14 23 25 17 25 -5 0 -10 7 -10 15 0 8 3 13 5 10 3 -3
11 3 19 13 8 9 12 11 8 4 -3 -6 -2 -12 3 -12 6 0 13 7 16 16 4 9 9 14 13 11 3
-4 12 -2 20 5 11 9 12 7 4 -14 -5 -14 -7 -28 -4 -32 3 -3 2 -13 -2 -23 -11
-24 -16 -64 -7 -60 4 3 16 -4 26 -14 13 -12 15 -19 7 -19 -11 0 -11 -3 0 -18
7 -9 9 -14 5 -10 -14 12 -33 -22 -28 -48 5 -30 26 -37 45 -16 16 17 17 21 17
45 0 6 20 20 44 30 65 27 74 41 42 70 -32 30 -36 53 -6 37 11 -6 21 -9 21 -8
1 2 3 15 5 31 2 19 -2 27 -13 27 -10 0 -13 6 -9 16 3 8 2 12 -3 9 -5 -3 -15
-21 -21 -41 -9 -28 -16 -34 -31 -29 -10 4 -19 2 -19 -2 0 -5 -11 -9 -24 -9
-27 0 -25 16 2 17 11 0 13 2 4 6 -10 4 -10 8 -1 20 8 9 9 17 3 21 -13 10 -16
32 -3 32 5 0 7 4 4 10 -3 5 -1 10 6 10 8 0 7 5 -2 17 -8 9 -9 14 -3 10 7 -4
14 0 17 7 3 8 1 16 -4 18 -6 2 2 17 18 33 29 31 34 50 19 74 -6 10 -5 12 2 7
7 -4 12 -2 12 3 0 6 -5 11 -12 11 -9 0 -9 3 0 12 14 14 16 32 3 24 -5 -4 -11
-1 -13 5 -3 8 -9 7 -19 -3 -11 -12 -17 -12 -26 -3 -15 17 -3 32 25 30 14 -1
36 11 56 31 23 22 41 32 55 29 20 -4 49 28 43 48 -1 4 3 7 8 7 7 0 7 6 0 19
-17 32 -12 39 25 37 30 -1 35 2 33 19 -2 16 2 19 20 17 18 -3 22 2 22 23 0 14
6 28 14 31 19 7 18 1690 -1 1687 -7 -2 -10 3 -7 11 3 8 0 17 -5 21 -6 3 -9 10
-6 15 3 4 -1 10 -9 13 -8 3 -17 -1 -20 -9 -3 -7 -2 -13 2 -11 8 2 12 -7 12
-28 0 -12 -4 -14 -19 -5 -13 6 -18 18 -16 31 3 12 1 19 -2 15 -10 -10 -11 -56
-1 -50 4 3 8 3 8 0 0 -2 -13 -11 -29 -19 -23 -11 -28 -12 -25 -2 3 7 0 16 -5
20 -6 3 -8 11 -5 17 4 6 2 8 -3 5 -6 -4 -18 2 -27 12 -12 13 -14 21 -6 26 5 3
8 10 5 15 -3 5 -1 11 5 15 6 4 8 10 5 15 -3 5 -1 11 4 14 14 9 23 -25 11 -40
-9 -9 -6 -15 10 -24 11 -6 17 -16 14 -22 -4 -7 -3 -8 5 -4 6 4 9 12 6 17 -4 5
-1 9 5 9 8 0 8 6 0 20 -6 11 -8 20 -5 20 4 0 -1 7 -10 16 -12 12 -13 19 -5 24
6 4 11 10 11 14 -3 20 1 25 14 20 8 -4 15 -1 15 5 0 6 -4 11 -8 11 -5 0 -19 9
-32 20 -12 11 -27 17 -31 14 -5 -3 -9 -1 -9 5 0 5 -9 8 -19 6 -11 -2 -22 3
-25 10 -6 17 10 30 19 15 11 -18 26 -11 16 8 -7 13 -3 24 15 45 13 16 24 24
24 20 0 -4 7 5 15 21 9 16 13 36 10 43 -3 9 0 11 7 7 8 -5 9 0 5 15 -5 19 -3
20 10 9 12 -10 17 -9 28 5 6 9 16 13 20 9 5 -4 6 0 3 8 -4 10 0 16 11 16 10 0
18 -6 18 -13 0 -7 -4 -10 -9 -7 -14 9 -9 -13 6 -25 21 -18 15 111 -6 133 -9 8
-18 12 -22 9 -3 -4 -6 -2 -6 3 0 5 -11 10 -25 10 -15 1 -25 -3 -25 -12 0 -8
-5 -14 -11 -14 -6 0 -8 -7 -5 -16 7 -18 -15 -44 -37 -44 -10 0 -14 -8 -13 -25
2 -13 -1 -22 -5 -19 -5 3 -9 2 -9 -3 0 -4 -11 -16 -24 -25 -23 -17 -24 -17
-19 5 3 16 2 18 -5 8 -6 -8 -12 -9 -16 -3 -3 5 1 12 9 15 18 7 12 42 -12 71
-11 12 -12 16 -3 9 11 -8 18 -8 28 3 12 13 8 18 -10 15 -5 0 -8 4 -8 9 0 6 5
11 10 11 20 3 25 4 38 12 6 5 12 5 12 1 0 -4 7 1 16 12 8 10 13 13 9 7 -4 -8
0 -13 9 -13 9 0 16 7 16 15 0 8 5 15 11 15 7 0 18 8 26 18 8 9 12 11 8 5 -3
-7 -1 -14 4 -14 6 -1 17 -2 24 -3 20 -4 30 6 16 15 -11 7 -9 9 5 9 11 0 16 3
12 7 -10 10 -36 13 -36 4 0 -5 -11 -6 -24 -4 -27 5 -30 31 -9 68 6 11 13 23
15 27 1 4 -6 14 -17 23 -11 9 -13 13 -5 9 11 -5 11 -2 -2 11 -17 18 -18 18
-38 0 -11 -10 -20 -15 -20 -10 0 4 -7 2 -15 -5 -8 -7 -15 -8 -15 -4 0 5 9 15
20 22 12 7 18 17 15 22 -3 5 -1 12 5 15 6 4 8 15 5 24 -3 11 0 18 9 18 9 0 13
-4 10 -9 -5 -7 10 -12 29 -9 4 0 7 -3 7 -7 0 -4 10 -9 22 -9 13 -1 24 -7 26
-13 2 -5 8 -8 12 -5 5 3 12 0 16 -6 4 -7 3 -9 -2 -6 -17 10 -34 -7 -24 -23 7
-10 10 -11 10 -2 0 6 5 12 11 12 5 0 8 -4 4 -9 -3 -5 -2 -12 3 -15 4 -2 9 11
10 30 2 19 -1 34 -5 33 -19 -3 -33 2 -33 12 0 5 5 7 10 4 5 -3 10 -1 10 5 0 6
4 9 9 6 6 -4 9 103 8 264 -1 170 -6 271 -12 272 -17 4 -53 -75 -44 -98 5 -15
3 -21 -6 -21 -8 0 -12 4 -9 9 3 4 1 8 -4 8 -16 0 -21 -12 -12 -35 5 -14 5 -26
-2 -33 -6 -6 -6 -12 1 -16 6 -4 12 0 12 8 1 9 3 21 4 26 1 6 3 13 4 16 0 4 8
1 16 -6 9 -7 13 -20 10 -28 -5 -13 -3 -13 12 -1 11 9 14 9 9 2 -4 -7 -2 -22 5
-34 6 -13 7 -19 1 -15 -6 3 -13 2 -17 -4 -4 -6 -11 -8 -16 -5 -5 4 -9 -3 -9
-14 0 -13 -10 -23 -32 -30 -39 -13 -48 -14 -48 -3 0 4 4 7 9 7 18 0 23 14 9
28 -11 11 -16 11 -25 2 -7 -7 -9 -16 -5 -21 4 -4 1 -4 -6 0 -7 4 -12 13 -10
19 1 7 -7 26 -18 43 -17 26 -24 30 -62 29 -38 -1 -41 1 -26 12 10 7 13 13 6
13 -6 0 -9 7 -6 15 4 8 1 15 -5 15 -8 0 -9 6 -2 18 7 13 6 23 -2 32 -7 8 -8
10 -1 7 14 -8 48 28 39 42 -3 7 0 8 9 5 11 -4 14 0 11 15 -2 11 -1 20 3 19 20
-4 60 15 56 27 -4 10 -40 14 -150 14 l-145 2 12 -22 c21 -40 70 -81 91 -76 11
3 22 0 25 -9 3 -8 12 -13 19 -10 8 3 11 0 7 -9 -3 -8 -8 -13 -12 -11 -3 2 -14
-4 -23 -13 -15 -15 -15 -19 -1 -49 14 -30 33 -43 33 -24 0 5 7 9 15 9 11 0 12
-4 5 -11 -6 -6 -5 -15 6 -27 18 -20 11 -41 -11 -33 -10 4 -13 -2 -10 -25 3
-27 1 -31 -18 -31 -13 0 -29 6 -36 13 -11 10 -12 9 -6 -3 7 -13 6 -13 -7 -2
-12 10 -18 9 -28 -3 -10 -12 -10 -15 1 -15 8 0 1 -9 -16 -20 -16 -11 -24 -20
-17 -20 6 0 12 -7 12 -15 0 -9 -9 -15 -22 -15 -12 0 -18 -3 -15 -7 4 -3 2 -12
-5 -20 -9 -11 -7 -15 10 -20 13 -3 22 -13 22 -24 0 -11 4 -19 9 -19 5 0 7 -9
4 -20 -3 -12 -8 -18 -11 -16 -3 3 -11 -2 -19 -12 -8 -9 -12 -11 -8 -4 3 6 1
12 -6 12 -8 0 -8 4 1 15 7 8 8 15 3 15 -6 0 -20 9 -33 20 -12 11 -27 17 -31
14 -5 -3 -9 7 -9 22 0 15 3 24 7 21 3 -4 12 1 19 11 16 20 18 36 4 27 -6 -3
-10 -1 -10 4 0 15 -37 14 -46 -1 -5 -7 -3 -8 6 -3 8 5 11 4 7 -3 -8 -12 -32
-10 -44 3 -4 4 -2 5 5 1 6 -4 12 -2 12 3 0 12 -86 15 -92 4 -2 -5 -16 -19 -33
-33 -16 -14 -24 -17 -17 -8 11 14 10 18 -5 26 -10 6 -17 13 -15 16 1 3 0 6 -3
6 -3 0 -9 0 -14 0 -17 0 4 -60 26 -73 7 -4 13 -13 13 -20 0 -7 -4 -6 -10 3 -8
12 -10 9 -11 -12 -2 -41 -3 -46 -13 -55 -5 -5 -6 -2 -2 7 4 8 0 6 -8 -4 -13
-16 -13 -22 -3 -28 8 -5 7 -8 -6 -8 -11 0 -17 6 -15 12 3 7 -5 17 -16 23 -12
6 -21 22 -23 38 -1 15 2 25 6 22 12 -7 8 28 -3 37 -13 9 -17 68 -4 68 5 0 6 4
3 10 -3 6 1 10 9 10 20 0 20 17 1 36 -11 11 -12 20 -3 39 9 20 13 22 29 12 18
-11 18 -12 -3 -23 l-21 -11 23 -13 c14 -8 20 -8 16 -1 -4 6 -2 11 3 11 6 0 11
-7 11 -15 0 -9 10 -20 23 -25 18 -7 18 -9 4 -9 -10 -1 -15 -6 -12 -11 4 -6 11
-7 17 -4 7 4 8 2 4 -4 -4 -7 -1 -12 8 -12 8 0 18 5 22 11 4 8 9 8 13 1 4 -7
12 -8 21 -2 11 7 12 10 2 10 -7 0 -10 5 -7 10 3 6 0 10 -7 10 -10 0 -10 2 0 9
18 11 17 14 -9 61 -12 21 -26 37 -31 34 -5 -3 -8 -2 -7 3 4 25 -3 35 -21 30
-20 -5 -25 9 -23 61 1 6 -3 12 -9 12 -5 0 -6 5 -2 12 5 8 11 6 20 -7 7 -9 24
-18 37 -19 19 -1 23 -4 15 -13 -7 -9 -7 -13 1 -13 11 0 14 9 14 43 0 9 6 17
13 17 8 0 14 5 14 10 0 6 -4 10 -10 10 -5 0 -10 6 -10 14 0 7 -9 16 -20 19
-11 3 -26 18 -33 34 -12 28 -14 29 -97 31 -81 2 -84 1 -55 -13 l30 -14 -28 6
c-22 4 -26 2 -21 -11 4 -9 0 -18 -9 -22 -9 -3 -13 -13 -10 -24 3 -12 -3 -22
-16 -30 -12 -6 -19 -15 -16 -21 4 -5 -1 -12 -9 -15 -9 -3 -13 -10 -10 -15 3
-5 -1 -7 -8 -4 -19 7 -37 -8 -42 -35 -2 -14 -5 -27 -5 -29 -1 -2 -7 1 -13 7
-15 12 -69 11 -61 0 2 -5 -1 -8 -6 -8 -6 0 -11 -6 -11 -14 0 -7 -8 -16 -17
-20 -10 -3 -25 -9 -33 -12 -13 -5 -13 -4 0 5 10 8 12 13 4 19 -13 8 -26 55
-14 47 5 -3 11 -1 15 5 3 5 0 10 -7 10 -16 0 28 31 48 34 9 1 19 7 22 12 11
17 40 24 46 11 3 -9 5 -9 5 0 1 7 8 10 18 6 12 -5 15 -2 10 10 -4 10 -2 16 6
14 7 -1 11 4 9 11 -1 8 2 11 8 7 5 -3 10 -1 10 6 0 8 5 6 13 -5 17 -23 50 -11
41 16 -3 10 0 26 8 35 11 14 11 16 -1 8 -11 -6 -13 -4 -8 8 6 15 -2 17 -60 17
-53 0 -63 -2 -54 -13 8 -10 7 -17 -1 -25 -8 -8 -8 -15 2 -27 11 -13 10 -14 -4
-9 -10 4 -16 1 -16 -7 0 -11 -18 -14 -75 -13 -41 0 -76 -3 -76 -8 -1 -4 -2
-12 -3 -18 0 -5 -5 -9 -11 -7 -5 1 -8 7 -6 12 2 6 4 22 4 38 0 15 4 27 9 27 5
0 6 5 2 12 -4 7 -3 8 4 4 6 -4 9 -13 5 -21 -8 -22 5 -18 17 4 7 15 6 23 -5 35
-12 12 -52 15 -228 14 -116 0 -220 -4 -229 -9 -12 -6 -18 -6 -18 1 0 14 -33
13 -49 -2 -8 -8 -11 -8 -8 -2 5 8 -25 12 -103 12 l-109 1 11 -25 c6 -13 17
-24 25 -24 7 0 13 -6 13 -13 0 -21 -12 -28 -27 -15 -11 8 -17 7 -27 -8 -8 -10
-18 -16 -22 -12 -4 4 -2 13 3 20 6 7 9 21 8 31 -2 9 1 17 6 17 4 0 6 7 2 16
-5 13 -27 15 -144 13 -105 -1 -139 -5 -143 -15 -3 -8 -12 -14 -19 -14 -8 0
-21 -7 -28 -16 -12 -15 -11 -16 7 -10 17 5 20 2 20 -24 0 -16 -4 -30 -9 -30
-5 0 -7 -11 -5 -25 3 -16 1 -25 -7 -25 -8 0 -12 12 -11 30 0 17 3 30 7 30 3 0
6 7 6 15 0 8 -6 15 -13 15 -7 0 -15 9 -19 19 -7 23 -54 34 -62 15 -4 -11 -7
-11 -19 1 -16 15 -19 29 -5 20 5 -3 12 -2 15 3 2 4 -10 9 -29 10 -18 2 -36 -2
-40 -8 -3 -5 -1 -10 6 -10 7 0 1 -10 -13 -22 -14 -13 -24 -31 -23 -40 2 -10
-1 -18 -6 -18 -4 0 -6 -6 -3 -14 3 -7 -2 -16 -11 -20 -9 -3 -13 -10 -10 -16 3
-6 -1 -7 -10 -4 -17 7 -17 44 0 56 6 5 6 8 -1 8 -6 0 -23 -9 -37 -20 -25 -20
-26 -20 -36 -2 -14 27 -45 33 -59 12 -7 -12 -19 -16 -36 -13 -14 3 -26 9 -26
13 0 13 -34 6 -44 -9 -7 -11 -12 -10 -25 8 -22 28 -57 20 -39 -9 7 -10 15 -17
19 -14 7 4 23 -26 21 -38 -1 -5 5 -8 13 -8 12 0 11 -4 -4 -19 -13 -13 -18 -27
-14 -42 4 -13 2 -20 -3 -16 -6 3 -16 2 -24 -3 -8 -5 -21 -5 -31 1 -13 7 -22 3
-36 -14 -24 -30 -69 -32 -68 -2 1 11 5 26 9 33 4 7 2 12 -6 12 -8 0 -7 4 4 10
11 7 15 19 12 36 -3 18 -1 23 7 18 8 -5 9 -3 4 6 -6 10 -11 9 -22 -6 -17 -23
-33 -24 -54 -4 -10 10 -12 18 -5 23 7 5 3 7 -9 4 -15 -3 -21 1 -22 14 -1 15 2
17 15 11 28 -14 67 -9 64 8 -2 9 7 5 25 -11 15 -15 34 -24 41 -22 19 7 14 -7
-10 -27 l-22 -17 22 -12 c12 -6 22 -10 23 -9 4 14 10 46 11 61 1 9 6 17 10 17
4 0 8 8 7 18 0 10 -3 12 -6 4 -2 -6 -10 -9 -15 -6 -7 4 -8 2 -4 -4 4 -7 1 -12
-8 -12 -9 0 -16 6 -16 13 0 8 -4 7 -10 -3 -5 -8 -10 -13 -11 -10 0 3 -2 13 -4
23 -2 9 1 15 6 11 5 -3 12 2 15 10 7 18 35 21 50 6 7 -7 11 -6 11 5 0 8 -4 15
-8 15 -16 0 -16 39 0 43 9 3 -12 5 -46 6 -69 1 -93 -5 -93 -25 0 -8 -6 -11
-15 -8 -8 4 -15 10 -15 16 0 5 5 6 10 3 6 -3 10 -1 10 4 0 16 -132 14 -162 -2
-14 -7 -23 -17 -21 -23 6 -17 -23 -35 -56 -36 -16 -1 -32 -7 -35 -15 -3 -7
-11 -13 -18 -13 -10 0 -10 2 1 9 7 5 10 14 7 20 -4 6 -3 11 3 11 5 0 8 8 6 18
-2 9 -4 23 -4 30 -1 7 -14 12 -31 12 -27 0 -30 -3 -26 -25 3 -15 0 -24 -7 -22
-6 1 -12 -6 -15 -15 -2 -13 2 -16 19 -13 12 2 19 2 16 -2 -3 -3 1 -12 10 -21
14 -14 14 -17 -1 -27 -9 -7 -13 -15 -9 -18 3 -4 -1 -7 -10 -7 -22 0 -32 -20
-16 -31 12 -8 12 -11 -1 -19 -8 -5 -10 -10 -5 -10 6 0 4 -4 -4 -9 -21 -14 -40
9 -30 36 8 21 6 22 -18 12 -24 -9 -25 -8 -12 8 8 9 9 14 2 10 -6 -4 -19 0 -27
9 -15 14 -20 11 -17 -9 1 -5 -3 -5 -9 -2 -8 5 -6 13 5 25 13 14 13 19 2 28
-10 9 -17 8 -27 -1 -9 -8 -11 -8 -6 0 3 6 -1 19 -10 27 -8 9 -12 16 -7 16 4 0
-1 8 -12 17 l-20 16 20 -7 c33 -12 37 -12 40 6 2 10 -4 20 -13 22 -32 10 -402
4 -402 -6z m295 -69 c-10 -15 12 -10 29 7 15 14 16 14 16 -5 0 -12 5 -21 10
-21 7 0 7 -7 -1 -21 -9 -17 -13 -19 -20 -8 -5 8 -9 11 -9 7 0 -4 -10 3 -23 15
-13 12 -21 29 -18 37 2 8 1 12 -4 8 -4 -4 -16 2 -26 14 -23 26 -23 29 -4 22 9
-4 15 -1 15 7 0 8 9 -1 20 -19 11 -18 18 -37 15 -43z m2110 61 c3 -5 1 -10 -4
-10 -6 0 -11 -6 -11 -13 0 -20 -26 -16 -39 6 -7 10 -9 17 -4 14 5 -3 15 -2 23
4 19 11 27 11 35 -1z m-295 -15 c-7 -8 -16 -12 -21 -9 -13 8 -1 24 18 24 13 0
13 -3 3 -15z m-1934 -45 c0 -10 -5 -16 -11 -12 -6 3 -5 0 1 -9 6 -8 14 -26 18
-41 6 -26 36 -41 36 -18 0 16 30 12 36 -5 4 -8 11 -12 18 -8 6 3 8 2 3 -2 -4
-5 -1 -15 7 -24 14 -16 27 -80 17 -79 -20 2 -31 -3 -26 -12 11 -17 -12 -11
-36 10 -13 11 -19 20 -14 19 22 -3 24 2 8 20 -9 11 -21 17 -26 14 -6 -3 -7 -2
-4 4 4 6 17 9 30 8 13 -2 24 2 24 9 0 7 -17 13 -41 14 -30 2 -37 0 -26 -8 12
-8 9 -10 -13 -10 -24 0 -27 3 -22 20 4 11 2 20 -4 20 -6 0 -11 6 -11 14 0 7
-13 19 -29 26 -16 6 -31 17 -34 23 -6 17 29 51 38 38 3 -6 15 -11 27 -11 17 0
18 3 9 14 -10 12 -9 14 6 10 10 -3 19 -14 19 -24z m1804 -41 c0 -18 4 -28 10
-24 6 3 10 -3 10 -13 0 -40 77 -46 102 -8 6 10 10 3 24 -43 3 -9 -2 -12 -16
-8 -11 3 -20 0 -20 -6 0 -8 -3 -8 -8 -2 -4 6 -22 11 -41 12 -19 1 -38 8 -42
15 -5 7 -9 9 -9 5 0 -5 -7 -1 -16 7 -8 9 -12 20 -9 26 3 5 -1 10 -10 10 -11 0
-15 5 -11 15 3 9 0 15 -10 15 -12 0 -10 5 7 19 29 24 39 19 39 -20z m444 33
c3 -5 -1 -9 -9 -9 -8 0 -12 4 -9 9 3 4 7 8 9 8 2 0 6 -4 9 -8z m107 -36 c-6
-7 -9 -15 -6 -18 3 -3 -1 -11 -10 -18 -10 -8 -15 -9 -15 -1 0 6 5 11 10 11 6
0 9 3 9 8 -4 23 2 42 11 37 8 -5 8 -11 1 -19z m-1176 4 c-3 -5 -11 -10 -16
-10 -6 0 -7 5 -4 10 3 6 11 10 16 10 6 0 7 -4 4 -10z m1100 -1 c-4 -5 2 -9 12
-9 15 0 16 -2 3 -10 -13 -8 -12 -10 4 -10 15 0 16 -3 7 -14 -15 -18 -52 -9
-44 10 3 8 1 14 -4 14 -18 0 -10 26 9 27 10 1 16 -2 13 -8z m285 -6 c0 -8 5
-11 11 -8 6 4 5 -2 -3 -14 -14 -22 -28 -28 -28 -11 0 6 -5 10 -11 10 -6 0 -9
-6 -6 -14 7 -17 -28 -52 -37 -38 -3 6 0 13 6 15 9 4 9 6 1 6 -6 1 -19 -6 -28
-16 -10 -10 -19 -12 -23 -6 -4 5 -16 13 -27 17 -20 7 -20 8 0 22 17 12 20 12
28 -2 8 -14 11 -14 27 1 10 9 23 15 27 12 5 -3 20 3 33 14 14 11 18 17 9 13
-10 -3 -20 -1 -23 4 -3 5 6 10 19 10 15 0 25 -6 25 -15z m305 8 c5 6 10 7 14
2 3 -5 15 -15 26 -21 12 -7 14 -12 6 -12 -11 0 -11 -3 -1 -15 7 -8 10 -21 7
-28 -3 -8 -2 -20 3 -27 11 -18 -39 -73 -55 -60 -15 13 -25 3 -25 -27 0 -14 6
-23 16 -23 8 0 12 -5 9 -10 -4 -6 -10 -8 -15 -5 -4 3 -11 -2 -14 -11 -5 -14
18 -61 37 -75 5 -4 3 -10 -4 -15 -7 -4 -14 -3 -17 4 -2 7 -8 12 -14 12 -6 0
-21 12 -35 28 -13 15 -21 20 -18 11 4 -10 0 -16 -9 -16 -11 0 -12 5 -6 17 5
10 6 20 2 24 -3 4 2 4 13 0 18 -7 18 -6 6 9 -9 12 -10 17 -2 17 8 0 11 12 9
33 -2 25 0 31 14 29 9 -1 20 3 24 9 4 8 3 9 -4 5 -7 -4 -12 -2 -12 3 0 6 5 11
11 11 6 0 7 5 2 13 -9 13 -13 107 -6 120 3 4 11 3 18 -3 10 -8 15 -8 20 1z
m-1445 -15 c0 -2 -7 -9 -15 -16 -13 -11 -14 -10 -9 4 5 14 24 23 24 12z m-19
-36 c15 8 19 7 19 -5 0 -8 -9 -15 -20 -15 -11 0 -20 -5 -20 -11 0 -5 4 -8 8
-5 5 3 9 -1 9 -9 0 -16 -39 -14 -59 3 -8 6 -19 7 -27 3 -11 -7 -10 -11 4 -18
12 -7 14 -13 6 -17 -30 -19 -43 32 -14 55 14 12 16 12 9 -1 -4 -8 -1 -7 7 3
11 13 16 15 20 5 4 -10 7 -10 18 1 9 9 9 11 2 7 -7 -4 -13 -3 -13 3 0 15 25
19 28 5 3 -11 8 -11 23 -4z m251 -24 c24 -2 54 1 68 6 20 7 23 7 13 -3 -15
-15 -17 -33 -3 -24 6 3 10 -1 10 -9 0 -10 6 -13 17 -9 11 4 14 3 9 -6 -4 -6
-15 -11 -24 -9 -10 1 -22 -1 -29 -5 -6 -4 -14 -3 -17 2 -3 5 -21 6 -40 1 -18
-4 -41 -3 -50 2 -9 5 -16 6 -16 2 0 -3 -7 -1 -15 6 -16 13 -21 45 -6 36 5 -3
12 1 15 10 3 8 10 12 16 9 5 -3 29 -8 52 -9z m708 3 c0 -5 5 -7 12 -3 7 4 8 3
4 -5 -4 -6 0 -14 9 -17 13 -5 12 -9 -6 -25 -12 -11 -26 -19 -32 -19 -5 0 -7
-7 -3 -15 3 -8 1 -15 -5 -15 -6 0 -9 -6 -6 -13 3 -8 -1 -14 -9 -14 -8 0 -12 2
-10 5 6 5 -27 37 -47 45 -11 4 -17 1 -17 -9 0 -8 -4 -13 -9 -9 -5 3 -12 1 -16
-5 -3 -5 -3 -10 2 -11 4 0 17 -3 28 -5 11 -3 26 -6 33 -6 22 -2 1 -13 -26 -13
-15 0 -33 8 -40 18 -7 9 -18 14 -24 11 -7 -5 -8 -2 -3 6 6 10 4 12 -7 8 -11
-5 -14 0 -12 18 1 13 -2 22 -7 18 -5 -3 -9 7 -9 22 0 21 3 25 12 16 8 -8 16
-8 32 0 19 10 20 10 7 -5 -12 -15 -11 -17 3 -17 9 0 16 -5 16 -11 0 -8 4 -8
14 0 10 8 16 9 21 1 3 -6 11 -8 16 -4 5 3 7 9 4 14 -3 4 3 11 12 14 9 4 20 1
24 -5 12 -20 30 0 19 22 -9 15 -7 19 5 19 8 0 15 -5 15 -11z m451 -16 c-1 -4
-5 -8 -9 -8 -5 0 -20 -13 -34 -29 -26 -31 -63 -32 -52 -1 4 9 13 14 20 11 8
-3 14 -2 14 2 0 9 53 42 58 37 2 -2 3 -7 3 -12z m-666 -22 c-3 -5 -1 -12 5
-16 22 -13 10 -34 -17 -31 -36 4 -43 33 -11 45 30 13 30 13 23 2z m320 -13 c4
-13 8 -26 9 -30 2 -13 16 -21 16 -9 0 9 4 9 14 -1 15 -14 11 -32 -5 -23 -5 4
-8 -11 -6 -33 2 -28 0 -39 -9 -35 -6 2 -10 13 -7 24 3 11 0 19 -8 19 -7 0 -9
3 -6 7 4 3 2 12 -4 20 -6 7 -7 13 -2 13 5 0 10 7 10 15 0 9 -6 14 -14 11 -9
-4 -12 3 -11 19 3 31 13 32 23 3z m-1069 -2 c18 -14 18 -16 2 -33 -17 -17 -24
-10 -19 20 0 4 -3 7 -9 7 -5 0 -10 5 -10 10 0 14 13 12 36 -4z m484 4 c0 -14
-18 -21 -25 -10 -4 6 -11 7 -17 4 -6 -4 -8 -3 -5 2 7 12 47 15 47 4z m-950
-36 c0 -10 7 -14 22 -12 16 2 22 -3 23 -19 1 -17 -1 -20 -11 -12 -8 7 -14 7
-19 -1 -5 -8 -14 -6 -28 7 -11 10 -17 13 -14 6 4 -6 3 -14 -1 -17 -13 -8 -9
47 3 56 16 12 25 9 25 -8z m1847 1 c0 -8 -4 -15 -9 -15 -4 0 -8 7 -8 15 0 8 4
15 8 15 5 0 9 -7 9 -15z m243 2 c8 3 5 -3 -8 -12 -24 -18 -34 -15 -38 10 -2
11 2 12 14 6 10 -4 24 -6 32 -4z m-1470 -57 c-13 -9 -13 -10 0 -11 8 -1 18 -1
23 0 4 0 7 -3 7 -9 0 -5 7 -10 15 -10 22 0 8 -23 -21 -37 -21 -10 -29 -10 -40
2 -8 8 -14 18 -13 22 1 4 1 10 -1 13 -8 22 -8 50 0 45 13 -8 13 17 0 33 -5 7
2 1 18 -13 23 -22 25 -27 12 -35z m370 41 c7 -14 6 -21 -3 -24 -7 -3 -5 -6 6
-6 9 -1 17 -5 17 -11 0 -5 7 -6 17 -3 10 4 14 2 10 -4 -5 -7 0 -9 13 -6 11 3
17 9 14 14 -3 5 -2 9 3 8 17 -4 42 13 37 26 -6 16 16 32 25 18 3 -6 13 -12 21
-15 11 -3 8 -10 -13 -28 -14 -13 -24 -26 -22 -30 3 -4 -3 -7 -13 -6 -9 0 -16
-5 -14 -12 1 -9 -2 -11 -10 -6 -19 12 -71 10 -98 -3 -15 -8 -26 -9 -28 -3 -2
6 -10 10 -17 10 -7 0 -15 7 -19 15 -5 14 11 21 38 16 5 -1 6 5 3 13 -3 8 1 17
9 20 8 3 14 10 14 16 0 6 -4 8 -10 5 -5 -3 -10 -1 -10 4 0 18 19 12 30 -8z
m497 -2 c2 -16 -1 -19 -9 -11 -5 5 -7 15 -4 21 10 15 12 14 13 -10z m-2367 -9
c0 -5 -2 -10 -4 -10 -3 0 -8 5 -11 10 -3 6 -1 10 4 10 6 0 11 -4 11 -10z
m2956 -15 c-9 -9 -16 -13 -16 -8 0 12 22 34 28 28 2 -2 -3 -11 -12 -20z m498
10 c14 -11 16 -15 5 -15 -12 0 -12 -2 1 -10 12 -8 11 -10 -7 -10 -14 0 -23 6
-23 15 0 8 -4 15 -10 15 -5 0 -10 5 -10 10 0 14 22 12 44 -5z m-1056 -20 c-3
-3 -9 2 -12 12 -6 14 -5 15 5 6 7 -7 10 -15 7 -18z m-2118 -1 c0 5 9 -3 20
-17 11 -14 20 -30 20 -37 0 -22 -21 -51 -33 -43 -6 4 -24 8 -41 10 -37 4 -37
5 -40 43 -2 34 11 51 20 26 3 -9 11 -13 16 -10 6 4 8 -1 4 -12 -8 -26 4 -40
32 -40 20 0 21 2 7 12 -12 9 -13 13 -3 16 8 3 6 10 -9 23 -12 10 -19 24 -16
32 5 12 7 12 14 1 5 -7 9 -9 9 -4z m1084 -16 c-2 -3 5 -4 16 -1 11 3 20 9 20
13 0 4 7 11 16 14 8 3 12 2 9 -4 -3 -6 2 -10 12 -10 15 0 16 -2 3 -10 -9 -6
-17 -5 -22 3 -4 7 -8 8 -8 2 0 -5 5 -17 10 -25 9 -13 11 -13 20 0 7 12 11 13
22 2 7 -8 9 -12 3 -11 -5 1 -23 -3 -39 -10 -22 -9 -27 -16 -23 -32 5 -17 2
-20 -14 -16 -17 5 -18 3 -8 -9 10 -13 7 -14 -21 -9 -22 4 -36 1 -41 -7 -5 -8
-11 -4 -18 15 -6 16 -11 33 -11 38 0 14 20 11 37 -6 11 -12 18 -13 29 -4 7 6
19 7 25 3 8 -5 9 -3 3 7 -5 8 -9 18 -9 22 0 5 -15 17 -34 27 -31 15 -32 18
-16 27 18 11 48 -4 39 -19z m-326 -11 c-7 -14 -7 -17 1 -13 6 4 11 2 11 -4 0
-6 5 -8 10 -5 6 3 10 1 10 -5 0 -7 6 -8 18 -1 13 7 23 6 32 -2 7 -7 10 -7 7
-1 -8 14 37 38 57 31 9 -4 19 1 24 9 8 14 11 14 25 -1 10 -9 17 -21 17 -26 0
-17 -32 -23 -41 -8 -7 11 -9 11 -9 1 0 -7 -4 -11 -9 -7 -5 3 -12 1 -16 -5 -4
-6 -10 -8 -14 -5 -5 2 -16 -4 -26 -15 -10 -11 -25 -20 -34 -20 -14 0 -14 2 -1
10 13 9 13 10 0 11 -8 1 -19 0 -25 -1 -5 -2 -18 -2 -28 -2 -9 0 -15 -3 -13 -7
3 -4 -2 -18 -11 -30 -11 -17 -18 -20 -27 -11 -8 8 -7 13 4 20 12 8 12 10 1 10
-11 0 -11 3 -1 15 7 8 9 15 5 15 -4 0 -2 7 5 15 11 13 10 14 -3 10 -8 -4 -18
-1 -23 6 -4 8 -3 10 4 5 7 -4 12 -3 12 2 0 19 -27 20 -38 1 -7 -10 -18 -19
-25 -19 -8 0 -7 4 3 10 13 9 13 10 0 10 -32 1 36 25 71 26 35 1 37 -1 27 -19z
m-460 -5 c6 -18 -15 -14 -22 4 -4 10 -1 14 6 12 6 -2 14 -10 16 -16z m-448 -1
c0 -5 -7 -11 -14 -14 -10 -4 -13 -1 -9 9 6 15 23 19 23 5z m1190 -6 c11 -13
10 -14 -4 -9 -9 3 -16 10 -16 15 0 13 6 11 20 -6z m760 0 c8 -9 7 -14 -5 -19
-11 -4 -14 -2 -9 7 5 9 4 9 -7 0 -18 -18 1 -35 38 -35 15 0 34 -8 41 -17 10
-12 12 -12 6 -1 -5 12 -4 13 6 3 7 -7 13 -25 14 -40 1 -17 6 -27 14 -25 6 1
12 -2 12 -8 0 -5 9 -10 19 -10 11 0 23 -5 26 -10 4 -6 11 -8 16 -5 5 3 6 -1 3
-9 -7 -19 -32 -28 -40 -14 -4 7 -3 8 4 4 7 -4 12 -2 12 3 0 19 -50 17 -62 -2
-6 -9 -8 -8 -8 2 0 11 -3 11 -16 0 -18 -15 -47 -22 -39 -9 3 5 -4 11 -15 15
-11 3 -20 9 -20 13 0 15 18 34 26 29 10 -6 35 18 27 26 -3 3 -12 3 -21 0 -10
-4 -13 -2 -8 5 4 7 2 12 -3 12 -6 0 -11 5 -11 10 0 6 -15 24 -32 41 -18 17
-27 27 -19 23 10 -5 13 -3 9 7 -7 19 27 23 42 4z m115 -3 c11 -2 22 -8 23 -13
2 -6 10 -5 18 2 10 8 14 8 14 0 0 -11 -3 -12 -37 -15 -10 -1 -24 -5 -31 -9 -7
-5 -17 -3 -25 5 -15 17 -21 42 -7 33 5 -3 10 0 10 7 0 8 3 9 8 3 4 -5 16 -12
27 -13z m-2108 -44 c-10 -16 -12 -16 -15 -3 -2 9 -1 24 3 33 5 13 8 14 15 3 5
-9 3 -22 -3 -33z m608 32 c3 -6 -1 -7 -9 -4 -18 7 -21 14 -7 14 6 0 13 -4 16
-10z m191 -2 c-3 -7 -9 -20 -12 -28 -3 -9 -18 -24 -34 -35 -16 -11 -26 -23
-24 -27 3 -4 0 -8 -6 -8 -6 0 -8 -4 -5 -10 3 -5 1 -10 -4 -10 -9 0 -9 28 -1
50 2 3 2 8 1 12 0 4 5 5 12 2 7 -2 21 3 32 12 11 8 14 13 8 9 -7 -3 -13 -2
-13 3 0 6 7 13 16 16 8 3 12 10 9 16 -3 5 1 10 10 10 10 0 14 -5 11 -12z
m2704 -56 c-6 -2 -8 -8 -5 -12 3 -5 1 -11 -5 -15 -5 -3 -10 -1 -10 6 0 8 -4 8
-13 1 -8 -7 -18 -7 -27 -2 -8 5 -18 6 -24 3 -5 -3 -6 -1 -2 5 3 5 0 13 -6 15
-8 3 -6 6 5 6 9 1 17 -4 17 -11 0 -6 7 -3 15 8 9 12 14 14 15 6 0 -7 5 -10 10
-7 6 4 8 11 4 16 -3 6 3 5 15 -3 12 -7 17 -14 11 -16z m-1786 -4 c-3 -4 -9 -8
-15 -8 -5 0 -9 4 -9 8 0 5 7 9 15 9 8 0 12 -4 9 -9z m1311 2 c3 -6 -1 -7 -9
-4 -18 7 -21 14 -7 14 6 0 13 -4 16 -10z m-3051 -9 c3 -5 -1 -11 -9 -14 -9 -4
-12 -1 -8 9 6 16 10 17 17 5z m2322 -3 c5 4 6 3 2 -2 -11 -13 -58 -17 -58 -5
0 6 5 7 10 4 6 -3 10 -1 10 6 0 8 3 9 13 0 8 -6 18 -7 23 -3z m336 -2 c7 4 8
2 4 -4 -4 -7 -2 -12 4 -12 6 0 8 -4 5 -10 -3 -5 2 -10 12 -10 12 0 14 -3 6 -8
-19 -12 2 -36 26 -29 11 3 20 2 19 -2 -1 -3 3 -16 10 -27 6 -12 8 -24 5 -28
-3 -3 -1 -6 6 -6 7 0 9 -5 6 -10 -4 -6 -10 -8 -15 -5 -12 7 -19 -20 -9 -36 7
-11 9 -10 10 6 0 13 3 15 6 6 5 -11 7 -11 14 0 7 11 11 10 23 -6 12 -17 18
-18 35 -8 25 16 36 -7 16 -34 -9 -11 -14 -13 -15 -5 0 7 -4 10 -10 7 -5 -3
-10 -2 -10 4 0 7 -9 7 -22 3 -21 -8 -41 -8 -53 -2 -3 1 -11 3 -17 4 -7 1 -12
10 -10 21 2 15 1 17 -6 6 -10 -14 6 -71 20 -71 4 0 8 -5 8 -11 0 -5 -5 -7 -11
-4 -6 4 -5 -2 2 -13 7 -12 9 -25 5 -29 -5 -4 -11 -2 -13 5 -3 6 -8 10 -13 7
-4 -3 -7 13 -5 35 2 22 -1 43 -7 46 -15 10 -23 -5 -12 -24 16 -26 6 -46 -13
-27 -11 12 -19 13 -28 5 -10 -8 -15 -8 -20 1 -4 6 -10 7 -14 3 -3 -5 -23 -17
-44 -26 -37 -18 -37 -19 -24 -45 8 -16 12 -34 9 -42 -3 -10 0 -11 9 -5 12 6
12 5 1 -8 -9 -11 -10 -18 -2 -23 6 -3 7 -11 4 -17 -12 -19 -33 34 -23 55 9 16
8 17 -9 6 -24 -15 -54 -5 -46 16 4 9 1 15 -7 15 -11 0 -11 3 1 10 12 8 12 10
-5 10 -17 0 -17 2 -5 10 14 9 13 11 -11 14 -6 0 -19 12 -28 26 -12 18 -12 22
-2 16 11 -7 13 -3 8 25 -5 24 -4 30 3 19 5 -8 10 -11 10 -6 0 5 10 0 23 -12
34 -32 72 -35 87 -7 7 13 20 22 29 20 9 -1 19 2 23 8 4 7 15 5 31 -6 22 -14
25 -14 40 4 21 24 22 45 1 53 -8 3 -13 10 -10 14 6 10 -30 43 -38 35 -10 -10
-7 -25 4 -18 6 3 10 1 10 -5 0 -6 5 -8 12 -4 7 4 8 3 4 -5 -4 -6 -12 -9 -17
-6 -5 4 -9 -1 -9 -9 0 -22 -42 -49 -52 -33 -12 18 -10 29 5 21 6 -4 3 2 -7 14
-18 20 -15 27 8 23 5 -1 4 5 -3 13 -7 9 -17 13 -22 10 -14 -8 -10 3 7 20 8 9
11 16 4 16 -7 0 -6 5 2 14 15 16 32 10 21 -7 -4 -8 -1 -7 9 1 14 11 16 10 11
-7 -3 -12 -2 -21 2 -21 16 0 35 31 35 56 0 27 -1 27 -15 8 -14 -17 -14 -17 -3
10 7 15 14 23 16 17 2 -6 9 -8 14 -5z m-949 -25 c-11 -9 -18 -23 -16 -31 4
-13 3 -13 -6 0 -5 8 -8 17 -7 20 2 3 6 13 9 22 4 12 12 15 23 11 16 -6 15 -8
-3 -22z m894 -3 c-3 -8 -6 -5 -6 6 -1 11 2 17 5 13 3 -3 4 -12 1 -19z m818 7
c21 4 26 3 15 -4 -8 -5 -18 -7 -24 -4 -5 3 -6 1 -2 -5 4 -6 14 -8 23 -5 11 4
14 3 9 -5 -7 -12 4 -16 39 -12 l20 2 -20 -17 c-11 -9 -14 -13 -7 -10 11 6 11
3 1 -14 -8 -12 -16 -16 -20 -10 -3 6 -9 10 -13 10 -25 -3 -36 1 -36 15 0 8 -4
12 -10 9 -5 -3 -20 1 -32 9 -13 10 -17 16 -9 16 8 0 11 3 8 7 -4 3 -2 12 5 20
7 9 14 10 18 4 3 -6 19 -8 35 -6z m-2359 -30 c1 -8 -2 -15 -7 -15 -5 0 -9 7
-9 15 0 8 -5 15 -11 15 -5 0 -7 5 -3 11 8 13 27 -3 30 -26z m1671 15 c0 -9 -7
-17 -13 -17 -7 0 -12 8 -11 17 0 9 7 17 13 17 7 0 12 -8 11 -17z m-432 -16 c1
-19 -12 -34 -29 -34 -4 0 -6 7 -2 15 3 10 -1 15 -12 16 -16 1 -16 2 1 6 9 2
15 8 12 13 -3 4 3 7 12 6 10 -2 18 -12 18 -22z m-571 4 c-3 -4 -9 -8 -15 -8
-5 0 -9 4 -9 8 0 5 7 9 15 9 8 0 12 -4 9 -9z m-1310 -44 c4 -9 2 -12 -5 -8 -6
4 -15 1 -19 -6 -5 -8 -9 -7 -13 4 -4 9 -2 16 4 16 6 0 7 4 4 10 -3 5 0 7 9 4
8 -3 17 -12 20 -20z m686 -10 c0 -12 37 -30 53 -26 5 1 6 -2 3 -7 -4 -5 -16
-8 -27 -6 -16 3 -19 0 -15 -11 4 -10 -1 -18 -14 -21 -11 -3 -17 -9 -14 -14 3
-5 -2 -9 -10 -9 -9 0 -14 8 -13 21 1 16 7 19 24 16 19 -3 21 -2 12 9 -8 10 -8
14 -1 14 6 0 2 17 -10 38 -17 29 -19 34 -5 23 9 -7 17 -19 17 -27z m-346 -7
c3 4 6 1 6 -5 0 -19 -38 -14 -49 7 -15 27 1 36 20 12 9 -11 19 -17 23 -14z
m159 24 c20 -8 23 -15 20 -35 -3 -15 -10 -29 -16 -33 -6 -3 -7 -1 -3 5 4 7 2
12 -3 12 -6 0 -11 9 -11 20 0 11 -4 20 -9 20 -19 0 -19 -17 -1 -48 11 -18 15
-32 9 -32 -6 0 -9 -8 -7 -18 7 -26 -18 -45 -49 -37 -24 6 -25 7 -8 25 17 19
17 21 -1 37 -21 20 -33 60 -14 48 9 -6 9 -2 2 12 -9 15 -8 20 4 20 7 0 14 -6
14 -14 0 -7 5 -13 12 -13 6 0 8 3 5 7 -4 3 1 12 11 19 21 16 16 16 45 5z m900
-26 c-3 -5 0 -4 8 3 7 6 19 12 26 12 21 0 15 -27 -11 -43 -22 -15 -24 -14 -34
9 -13 27 -5 65 9 43 4 -7 5 -18 2 -24z m-508 -29 c11 1 26 2 33 3 7 1 10 6 7
11 -3 6 -1 10 4 10 15 0 14 -13 -1 -29 -11 -11 -9 -11 10 -2 14 8 22 8 22 1 0
-5 -5 -10 -11 -10 -5 0 -8 -4 -5 -8 9 -15 -55 -12 -70 3 -9 8 -20 13 -25 10
-5 -4 -6 2 -2 11 5 13 3 15 -7 9 -9 -6 -11 -4 -5 5 7 11 10 10 19 -1 6 -8 20
-13 31 -13z m-1382 -1 c-3 -9 -8 -14 -10 -11 -3 3 -2 9 2 15 9 16 15 13 8 -4z
m87 5 c-1 -10 -30 -44 -31 -34 0 5 -2 16 -4 24 -1 10 5 16 16 16 11 0 19 -3
19 -6z m1487 -26 c-2 -14 -6 -24 -10 -24 -4 0 -11 0 -17 0 -5 0 -10 5 -10 11
0 5 6 7 13 4 6 -4 5 -1 -3 7 -24 21 -22 36 6 30 19 -3 24 -10 21 -28z m613 16
c8 -5 16 -14 16 -20 1 -5 2 -16 3 -22 1 -9 4 -8 11 2 7 11 10 11 10 2 0 -7 5
-10 10 -7 6 4 7 12 3 18 -4 7 1 5 11 -2 17 -14 17 -16 0 -28 -13 -9 -20 -10
-22 -3 -3 7 -9 7 -20 -2 -9 -8 -13 -8 -9 -2 4 7 -7 18 -28 28 -23 11 -32 21
-29 31 7 17 22 19 44 5z m-2154 -23 c9 3 14 -1 14 -12 0 -9 -4 -13 -10 -10
-10 6 -14 -7 -11 -31 1 -7 -5 -14 -13 -17 -10 -4 -13 -1 -9 9 3 9 -2 14 -13
15 -16 1 -16 2 -2 6 18 5 33 33 17 33 -6 0 -7 5 -3 12 6 9 9 9 11 1 3 -7 11
-9 19 -6z m-186 -2 c0 -7 -30 -13 -34 -7 -3 4 4 9 15 9 10 1 19 0 19 -2z m594
-10 c-4 -8 -11 -15 -18 -15 -7 0 -6 -4 3 -9 9 -6 10 -11 2 -15 -6 -4 -11 -2
-11 4 0 6 -4 9 -9 5 -5 -3 -13 0 -17 7 -4 7 -4 10 0 6 4 -3 16 2 27 13 23 23
30 24 23 4z m1501 -5 c-21 -23 -47 -27 -39 -6 3 8 15 17 27 19 12 2 24 5 26 6
2 0 -4 -8 -14 -19z m1214 5 c5 -2 11 -14 14 -25 5 -21 -14 -38 -53 -45 -24 -5
-37 14 -19 26 11 7 11 9 1 9 -7 0 -10 5 -7 10 3 6 -3 10 -13 10 -11 0 -22 6
-25 14 -4 11 5 13 44 10 28 -2 54 -6 58 -9z m-3235 -20 c3 -8 1 -15 -4 -15 -6
0 -10 7 -10 15 0 8 2 15 4 15 2 0 6 -7 10 -15z m2139 7 c3 7 5 -1 4 -19 0 -17
-5 -29 -9 -27 -4 3 -8 -1 -9 -8 0 -10 -2 -10 -6 0 -2 6 -9 12 -14 12 -6 0 -5
-9 2 -21 6 -13 7 -19 1 -15 -6 3 -22 2 -36 -4 -18 -6 -27 -6 -32 3 -4 7 -4 9
1 5 7 -7 39 18 41 34 1 4 3 11 4 16 1 4 2 10 1 14 0 4 7 4 16 1 12 -5 14 -3 8
8 -7 12 -6 12 7 1 13 -10 17 -10 21 0z m-313 -12 c-8 -5 -11 -13 -6 -17 8 -8
13 -9 41 -12 8 0 12 -7 9 -16 -4 -8 -10 -12 -15 -9 -5 3 -9 0 -9 -6 0 -7 6
-10 14 -7 29 11 57 -44 57 -110 -1 -21 23 -38 40 -27 5 3 9 1 9 -3 0 -5 28
-29 62 -53 66 -48 68 -51 111 -101 53 -63 76 -106 64 -118 -8 -8 -6 -11 7 -11
11 0 16 -5 13 -13 -2 -7 4 -23 14 -36 11 -13 19 -18 19 -12 0 8 5 9 19 2 15
-8 18 -7 17 6 -2 23 16 26 39 7 11 -8 15 -13 8 -9 -8 3 -15 -3 -18 -18 -5 -17
-14 -23 -38 -25 -37 -3 -46 -10 -28 -21 7 -5 14 -24 16 -42 2 -19 4 -34 5 -34
10 0 19 -384 9 -390 -3 -2 -5 -27 -3 -55 1 -29 -4 -64 -12 -78 -7 -14 -11 -29
-8 -34 3 -4 2 -14 -3 -20 -4 -7 -9 -22 -10 -33 -5 -62 -11 -96 -21 -107 -5 -7
-13 -30 -17 -51 -4 -21 -14 -41 -21 -44 -9 -3 -11 -10 -5 -21 11 -22 6 -50
-13 -71 -9 -10 -13 -20 -10 -24 3 -3 -4 -20 -16 -37 -12 -17 -19 -37 -16 -45
3 -8 1 -15 -3 -15 -5 0 -14 -13 -19 -29 -6 -16 -20 -39 -31 -50 -12 -12 -21
-23 -21 -26 0 -3 0 -11 0 -18 0 -7 -9 -23 -20 -35 -11 -12 -20 -26 -20 -32 0
-6 -7 -13 -15 -16 -8 -4 -13 -9 -10 -14 2 -4 -9 -20 -25 -36 -16 -16 -30 -32
-30 -37 0 -17 -163 -187 -179 -187 -4 0 -20 -12 -35 -26 -14 -15 -26 -23 -26
-18 0 5 -6 0 -14 -11 -8 -11 -31 -29 -53 -40 -21 -10 -45 -25 -54 -32 -8 -7
-25 -14 -38 -16 -12 -2 -26 -8 -29 -14 -4 -5 -18 -13 -32 -16 -14 -3 -43 -11
-65 -17 -22 -6 -50 -13 -62 -15 -12 -2 -26 -6 -31 -9 -8 -5 -89 -8 -132 -5 -8
1 -35 0 -60 -1 -25 -1 -76 4 -115 10 -38 6 -77 12 -86 13 -9 0 -15 7 -12 14 3
7 -1 13 -8 14 -43 2 -119 35 -119 51 0 5 -7 8 -15 8 -8 0 -16 3 -16 8 -10 66
-12 63 74 154 10 10 31 21 47 25 16 3 28 9 25 13 -5 8 45 33 53 26 8 -8 43 14
37 24 -5 9 26 22 58 25 20 2 39 24 31 37 -3 4 2 8 10 8 20 0 108 56 119 75 4
8 23 22 42 31 19 9 35 23 35 30 0 8 4 14 9 14 16 0 103 92 112 120 6 15 21 33
34 40 14 7 27 21 30 32 4 10 13 25 21 33 8 8 16 24 17 35 1 11 7 22 15 25 7 3
11 9 8 14 -3 5 0 11 8 14 7 3 16 21 20 40 4 20 11 37 17 39 5 2 11 13 12 26 0
12 4 22 8 22 9 0 30 51 32 78 1 12 4 22 8 22 13 0 47 118 41 142 -1 4 5 19 12
34 14 26 12 54 -5 54 -4 0 -6 7 -3 15 3 8 9 14 12 13 20 -2 27 4 28 25 4 65
13 136 19 147 4 6 1 17 -5 25 -8 9 -8 15 -2 15 6 0 7 13 2 35 -4 19 -4 37 0
40 5 3 7 20 4 38 -7 60 -7 92 0 114 4 13 2 24 -5 28 -8 6 -8 10 2 15 10 7 10
11 0 24 -7 9 -11 22 -8 31 4 8 2 17 -4 20 -5 4 -7 10 -5 14 3 4 7 33 10 64 2
33 13 68 24 84 21 31 23 85 4 120 -7 12 -13 31 -15 42 -2 11 -6 24 -10 27 -4
4 -2 13 3 19 12 14 -22 59 -36 47 -4 -4 -2 1 6 12 8 10 16 13 18 8 5 -16 50 7
57 30 4 12 16 18 33 18 21 0 24 -3 12 -10z m111 -32 c11 -21 11 -22 -4 -9 -10
7 -17 17 -17 22 0 15 9 10 21 -13z m-598 -1 c-3 -5 1 -13 8 -18 10 -6 10 -9 2
-9 -7 0 -17 8 -22 18 -7 14 -6 19 4 19 8 0 11 -5 8 -10z m-1436 -10 c0 -8 -6
-14 -14 -14 -7 0 -13 6 -13 14 0 7 6 13 13 13 8 0 14 -6 14 -13z m1257 1 c-3
-5 -10 -6 -15 -3 -5 4 -9 1 -9 -6 0 -7 -3 -10 -6 -6 -9 9 3 24 20 24 8 0 13
-4 10 -9z m249 -18 c3 -11 1 -18 -4 -14 -5 3 -9 12 -9 20 0 20 7 17 13 -6z
m281 -41 c-8 -15 -45 -17 -51 -3 -3 8 -10 11 -17 7 -6 -4 -5 1 3 10 7 9 17 14
22 11 5 -3 9 0 9 7 0 7 8 5 19 -7 10 -10 17 -22 15 -25z m1752 15 c-16 -11
-16 -12 1 -16 15 -3 15 -5 -5 -10 -14 -4 -28 0 -39 10 -16 16 -15 17 5 20 12
2 22 7 22 12 0 5 7 7 16 3 15 -6 15 -7 0 -19z m-3376 7 c0 -6 -5 -13 -10 -16
-6 -4 -10 -16 -8 -27 2 -12 -3 -23 -12 -25 -13 -4 -13 -3 0 6 9 7 11 11 3 11
-7 0 -16 -8 -22 -17 -9 -16 -11 -16 -19 7 -8 22 2 49 18 48 3 0 14 0 25 1 17
1 18 3 5 11 -13 8 -12 10 3 10 9 0 17 -4 17 -9z m2113 -7 c-3 -8 -8 -12 -11
-10 -3 3 -11 1 -19 -5 -14 -12 -16 -9 -8 13 3 8 14 14 25 15 13 1 17 -3 13
-13z m77 6 c0 -5 -2 -10 -4 -10 -3 0 -8 5 -11 10 -3 6 -1 10 4 10 6 0 11 -4
11 -10z m334 -39 c3 -5 -3 -11 -14 -14 -11 -3 -23 0 -27 5 -3 6 -1 8 5 4 6 -3
13 -2 17 4 8 12 12 13 19 1z m252 -3 c4 -7 4 -10 -1 -6 -4 4 -16 3 -26 -3 -15
-7 -17 -6 -13 6 7 18 30 20 40 3z m-1192 -29 c-3 -5 -10 -7 -15 -3 -5 3 -7 10
-3 15 3 5 10 7 15 3 5 -3 7 -10 3 -15z m593 14 c-4 -3 -1 -13 6 -21 11 -13 9
-14 -10 -1 -16 9 -19 16 -10 21 15 9 23 10 14 1z m-2242 -35 c4 -14 8 -18 12
-10 12 30 28 -2 17 -36 -3 -11 -6 -11 -19 0 -8 7 -21 19 -29 26 -9 6 -13 19
-10 27 9 22 21 18 29 -7z m3250 12 c-3 -5 0 -10 8 -10 18 0 28 -33 15 -51 -8
-11 -9 -10 -4 4 7 22 -12 22 -36 0 -17 -16 -24 -9 -19 20 0 4 -3 7 -8 7 -5 0
-7 9 -4 20 4 13 14 20 30 20 13 0 21 -4 18 -10z m-918 -6 c-3 -3 -12 -4 -19
-1 -8 3 -5 6 6 6 11 1 17 -2 13 -5z m89 -10 c-18 -17 -21 -28 -7 -19 5 3 12 1
15 -4 3 -5 -8 -11 -24 -13 -30 -5 -41 6 -17 15 7 3 4 6 -6 6 -11 1 -21 -8 -24
-18 -5 -21 -43 -25 -43 -5 0 24 40 43 113 53 5 0 1 -6 -7 -15z m-169 -39 c-4
-31 -15 -43 -12 -13 4 35 5 38 10 38 3 0 4 -11 2 -25z m20 -7 c-3 -7 -5 -2 -5
12 0 14 2 19 5 13 2 -7 2 -19 0 -25z m108 -34 c-11 -12 -13 -20 -5 -29 8 -9 8
-15 0 -20 -5 -3 -10 0 -11 7 0 7 -4 4 -9 -7 l-9 -20 0 20 c-1 15 -3 17 -10 7
-7 -11 -9 -11 -14 1 -3 8 3 23 14 33 10 9 19 12 19 6 0 -6 -6 -13 -12 -15 -10
-4 -10 -6 0 -6 8 -1 16 8 19 19 3 11 12 20 20 20 12 0 12 -3 -2 -16z m898 -21
c-6 -16 -5 -17 12 -3 14 11 13 8 -4 -17 -23 -30 -55 -36 -44 -7 3 8 10 11 16
7 6 -4 8 0 4 10 -5 13 -1 19 20 26 1 1 -1 -7 -4 -16z m-2960 -7 c4 -10 1 -13
-8 -9 -8 3 -12 9 -9 14 7 12 11 11 17 -5z m-390 -41 c8 -8 17 -11 21 -8 3 4 6
2 6 -4 0 -17 -38 -23 -44 -7 -3 8 -13 14 -23 14 -15 0 -16 2 -3 10 20 13 26
12 43 -5z m2487 -9 c0 -3 -4 -8 -10 -11 -5 -3 -10 -1 -10 4 0 6 5 11 10 11 6
0 10 -2 10 -4z m1257 -21 c0 -20 -4 -19 -17 5 -8 15 -8 18 3 14 8 -3 14 -11
14 -19z m-634 -36 c-8 -8 -13 -7 -18 2 -5 8 -4 10 3 5 7 -4 12 -2 12 5 0 7 3
9 7 6 4 -4 2 -12 -4 -18z m-3089 -24 c-4 -8 -11 -12 -16 -9 -6 4 -5 10 3 15
19 12 19 11 13 -6z m3057 -26 c-5 -13 -10 -18 -10 -11 -1 7 -5 10 -11 7 -5 -3
-10 1 -10 10 0 9 4 14 9 10 5 -3 13 0 16 6 12 18 16 3 6 -22z m-1504 15 c-3
-3 -12 -4 -19 -1 -8 3 -5 6 6 6 11 1 17 -2 13 -5z m-281 -29 c-3 -9 0 -15 9
-15 8 0 15 -4 15 -10 0 -5 6 -10 14 -10 8 0 16 -7 20 -15 3 -8 1 -15 -5 -15
-6 0 -7 -5 -3 -12 5 -8 1 -9 -12 -4 -15 6 -17 5 -6 -5 6 -7 12 -17 12 -23 0
-5 -8 1 -19 12 -10 12 -23 22 -30 22 -11 0 -16 15 -11 35 5 25 9 41 9 48 1 4
4 7 7 7 3 0 4 -7 0 -15z m275 1 c-4 -6 -11 -18 -14 -26 -3 -8 -5 -3 -4 11 1
14 7 26 14 26 8 0 9 -5 4 -11z m-105 -41 c-19 -14 -36 -12 -36 5 0 9 41 19 50
12 3 -2 -4 -10 -14 -17z m74 13 c0 -4 -4 -8 -9 -8 -6 0 -12 4 -15 8 -3 5 1 9
9 9 8 0 15 -4 15 -9z m947 -2 c-3 -15 -19 -26 -37 -26 -12 1 -12 3 2 14 10 7
16 15 13 18 -3 2 2 5 9 5 8 0 14 -5 13 -11z m-772 -5 c7 -12 -32 -34 -44 -26
-5 3 -11 0 -13 -7 -3 -8 -6 -7 -10 3 -4 10 1 15 15 17 12 0 23 6 25 12 5 13
19 13 27 1z m75 -38 c0 -19 -3 -24 -10 -17 -6 6 -8 18 -4 27 9 24 14 21 14
-10z m-660 4 c0 -7 -8 -13 -18 -13 -10 0 -19 6 -19 13 0 7 9 13 19 13 10 0 18
-6 18 -13z m2360 -3 c0 -8 3 -13 8 -11 4 3 16 -5 27 -16 11 -11 14 -17 8 -13
-8 4 -13 2 -14 -6 0 -10 -2 -10 -6 0 -2 6 -9 9 -14 6 -6 -3 -17 0 -26 8 -9 7
-14 8 -10 2 4 -6 -3 -20 -16 -30 -22 -19 -22 -19 -6 1 9 11 14 26 12 33 -5 14
14 42 28 42 5 0 9 -7 9 -16z m-510 1 c0 -7 -30 -13 -34 -7 -3 4 4 9 15 9 10 1
19 0 19 -2z m-1545 -15 c-4 -6 -1 -19 6 -28 10 -13 8 -12 -9 2 -17 15 -19 22
-10 28 17 10 20 10 13 -2z m175 -4 c0 -2 -7 -6 -15 -10 -8 -3 -15 -1 -15 4 0
6 7 10 15 10 8 0 15 -2 15 -4z m-1404 -42 c-11 -8 -16 -14 -11 -14 5 0 4 -5
-3 -12 -9 -9 -15 -9 -24 0 -9 9 -9 12 0 12 7 0 11 6 10 13 -2 6 3 11 10 10 6
-2 11 0 11 5 -3 19 2 25 14 13 10 -10 8 -15 -7 -27z m864 2 c0 -5 -7 -3 -15 4
-13 11 -14 10 -9 -4 3 -9 1 -16 -5 -16 -15 0 -14 23 1 38 9 9 14 9 20 -1 4 -6
8 -16 8 -21z m40 17 c0 -7 -5 -13 -11 -13 -5 0 -7 -6 -4 -12 4 -7 0 -4 -9 6
-8 10 -13 22 -11 26 7 12 35 7 35 -7z m45 -41 c-3 -3 -11 0 -18 6 -8 7 -17 9
-20 5 -4 -3 -7 -2 -7 4 0 19 12 21 31 5 10 -9 16 -18 14 -20z m340 18 c-3 -4
0 -10 7 -12 7 -3 3 -7 -10 -10 -18 -5 -20 -3 -12 12 5 9 6 21 2 25 -4 5 -1 5
6 1 7 -4 10 -11 7 -16z m195 10 c0 -5 -2 -10 -4 -10 -3 0 -8 5 -11 10 -3 6 -1
10 4 10 6 0 11 -4 11 -10z m-1825 -9 c3 -5 2 -12 -3 -15 -5 -3 -9 1 -9 9 0 17
3 19 12 6z m3739 -38 c14 -10 26 -23 26 -29 0 -17 -66 -22 -86 -7 -26 19 -42
16 -18 -3 16 -13 16 -15 2 -10 -12 3 -18 0 -18 -9 0 -17 -2 -17 -24 -9 -23 9
-20 24 4 24 11 0 19 3 19 8 -4 21 2 34 14 29 8 -3 14 1 14 8 0 7 -7 11 -16 8
-12 -4 -13 -3 -3 5 19 13 57 7 86 -15z m-769 -21 c-3 -3 -11 0 -18 7 -9 10 -8
11 6 5 10 -3 15 -9 12 -12z m-1045 -17 c-8 -9 -7 -15 2 -18 7 -3 9 -6 3 -6 -5
0 -21 8 -35 19 -18 15 -20 18 -6 13 13 -4 17 -3 13 4 -5 7 0 9 13 6 15 -4 18
-9 10 -18z m-593 -2 c0 -9 -4 -10 -14 -2 -10 9 -13 8 -13 -1 0 -8 -3 -11 -6
-7 -9 9 3 24 19 24 7 0 14 -6 14 -14z m-960 1 c-3 -3 -12 -4 -19 -1 -8 3 -5 6
6 6 11 1 17 -2 13 -5z m1269 -12 c-3 -2 -18 -6 -33 -8 -26 -2 -27 -2 -10 11
17 12 55 10 43 -3z m1484 -23 c0 -6 -5 -19 -10 -30 -15 -28 -4 -41 23 -28 19
9 18 7 -3 -10 -30 -25 -39 -26 -46 -6 -4 8 -11 12 -16 9 -6 -4 -7 2 -3 16 5
14 3 20 -3 16 -6 -4 -8 2 -5 13 6 25 63 43 63 20z m639 -23 c-3 -3 -11 5 -18
17 -13 21 -12 21 5 5 10 -10 16 -20 13 -22z m-3445 4 c-6 -5 -12 -7 -41 -9 -9
0 -13 -4 -10 -8 4 -3 -1 -12 -11 -20 -10 -9 -11 -12 -2 -7 9 4 12 3 7 -2 -5
-5 -13 -9 -17 -9 -5 0 -16 -9 -24 -20 -14 -19 -15 -20 -22 -1 -11 28 56 87 96
84 16 -1 27 -5 24 -8z m507 -130 c-3 -17 -9 -31 -14 -31 -23 1 -57 15 -57 23
0 5 5 6 10 3 6 -3 10 -2 10 4 0 5 9 8 19 6 29 -5 33 21 5 34 -18 8 -24 8 -24
-1 0 -6 -3 -9 -6 -5 -3 3 -3 10 1 16 4 8 15 6 34 -4 25 -12 28 -18 22 -45z
m-255 38 c4 -7 3 -8 -4 -4 -7 4 -12 2 -12 -5 0 -7 -3 -10 -6 -6 -6 5 3 27 11
27 2 0 7 -5 11 -12z m-526 -13 c0 -12 -19 -12 -23 0 -4 9 -1 12 9 8 7 -3 14
-7 14 -8z m107 1 c12 1 20 -3 17 -8 -3 -5 -12 -7 -19 -4 -8 3 -19 -3 -27 -12
-11 -13 -11 -15 2 -8 8 4 6 0 -4 -8 -27 -22 -32 -20 -31 9 0 25 25 51 35 37 3
-4 15 -7 27 -6z m3078 4 c3 -5 2 -10 -2 -10 -5 0 -9 -9 -9 -20 0 -11 4 -20 8
-20 4 0 8 -5 8 -11 0 -5 -5 -7 -12 -3 -7 5 -9 2 -5 -8 3 -9 -3 -24 -14 -34
-10 -9 -19 -13 -20 -8 0 5 -2 19 -5 32 -2 14 0 21 6 17 6 -4 7 2 1 17 -12 32
27 75 44 48z m-600 -20 c-3 -5 1 -10 7 -13 18 -5 -9 -37 -31 -36 -9 0 -11 3
-4 5 7 4 9 14 3 33 -7 25 -5 28 11 24 10 -3 17 -9 14 -13z m677 13 c-9 -4 -10
-8 -2 -18 8 -10 8 -15 -1 -21 -7 -4 -9 -3 -5 4 3 6 2 13 -4 17 -13 8 -3 25 13
24 8 0 8 -2 -1 -6z m-2696 -15 c4 -7 3 -8 -4 -4 -7 4 -12 2 -12 -4 0 -6 -5 -8
-11 -4 -8 4 -7 9 2 15 18 11 17 11 25 -3z m301 -4 c-3 -3 -12 -4 -19 -1 -8 3
-5 6 6 6 11 1 17 -2 13 -5z m-750 -79 c-7 -13 -15 -19 -18 -13 -4 6 -13 7 -20
2 -12 -6 -12 -5 0 9 7 9 10 17 7 17 -4 0 -1 10 5 22 11 20 13 20 24 4 10 -13
10 -22 2 -41z m741 20 c-3 -3 -9 2 -12 12 -6 14 -5 15 5 6 7 -7 10 -15 7 -18z
m-813 -5 c-4 -11 -2 -20 4 -20 6 0 11 -7 11 -15 0 -8 6 -15 13 -15 8 0 7 -4
-3 -10 -10 -6 -11 -10 -2 -10 6 0 12 -5 12 -11 0 -5 -4 -7 -10 -4 -6 3 -7 -1
-4 -9 4 -10 1 -16 -8 -16 -10 0 -15 12 -16 38 -1 53 -6 76 -17 84 -6 4 -2 8 8
8 14 0 17 -5 12 -20z m771 -2 c4 -7 3 -8 -4 -4 -7 4 -12 2 -12 -4 0 -6 -5 -8
-11 -4 -8 4 -7 9 2 15 18 11 17 11 25 -3z m657 -91 c4 3 7 4 7 0 0 -3 -10 -16
-22 -28 -13 -12 -18 -19 -12 -16 6 4 10 -3 9 -16 -1 -12 2 -28 8 -34 6 -9 6
-13 -2 -13 -7 0 -9 -5 -5 -12 5 -9 2 -9 -9 1 -18 15 -23 26 -7 16 6 -3 10 -2
10 4 0 5 -5 13 -10 16 -6 4 -8 11 -5 16 4 5 1 9 -4 9 -14 0 -10 20 7 38 7 8 9
19 5 25 -5 8 -2 8 9 0 8 -7 18 -10 21 -6z m2171 -29 c5 -4 13 -5 16 -3 3 1 6
-12 7 -31 1 -19 -3 -32 -8 -29 -5 4 -6 -8 -3 -27 l6 -33 -21 33 c-22 35 -49
36 -31 2 14 -26 13 -30 -9 -30 -22 0 -36 16 -22 24 5 4 8 14 6 24 -1 9 4 24
12 33 10 12 11 23 4 42 -12 30 8 45 23 18 5 -9 14 -19 20 -23z m-2574 -11 c0
-4 6 -5 13 -1 9 6 9 4 -1 -8 -7 -9 -21 -15 -30 -13 -9 2 -21 4 -27 4 -5 1 -3
6 5 11 13 8 13 10 1 10 -11 0 -10 4 5 16 10 8 13 12 5 8 -10 -5 -12 -3 -6 6 6
10 11 9 22 -5 7 -11 13 -23 13 -28z m2698 1 c8 -8 8 -15 1 -24 -7 -8 -7 -14 1
-19 19 -12 10 -21 -19 -20 -30 0 -33 15 -3 15 15 0 15 2 2 10 -8 5 -10 10 -4
10 6 0 11 7 11 15 0 9 -6 14 -14 11 -7 -3 -13 -1 -13 4 0 14 24 12 38 -2z
m-3365 -21 c-2 -4 -3 -16 -3 -27 0 -11 -6 -19 -12 -17 -14 2 -37 39 -31 49 5
9 49 4 46 -5z m2537 -1 c0 -2 -7 -7 -16 -10 -8 -3 -12 -2 -9 4 6 10 25 14 25
6z m-2364 -21 c-10 -8 -11 -16 -4 -29 8 -14 7 -17 -2 -14 -6 2 -12 8 -12 13 0
6 -4 17 -8 25 -6 11 -2 15 16 15 19 0 21 -2 10 -10z m-366 -10 c-7 -9 -15 -13
-19 -10 -3 3 1 10 9 15 21 14 24 12 10 -5z m1606 -20 c-3 -9 -12 -12 -21 -9
-14 6 -14 8 2 24 19 18 29 10 19 -15z m1595 18 c3 -34 11 -58 22 -66 8 -5 5
-7 -8 -5 -11 1 -26 -1 -33 -5 -8 -6 -11 -4 -10 4 3 14 -40 21 -57 10 -18 -11
-74 -7 -64 5 5 6 6 14 2 17 -3 4 7 7 24 7 16 0 40 9 53 20 22 19 69 28 71 13z
m463 -5 c-3 -5 -10 -5 -16 -2 -7 5 -9 1 -5 -9 5 -15 -17 -37 -37 -37 -12 0 0
25 14 32 12 5 12 7 -2 7 -34 2 -18 18 17 18 19 0 32 -4 29 -9z m-3604 -13 c7
-9 10 -19 6 -22 -4 -4 -11 -1 -15 6 -7 11 -10 11 -14 0 -3 -8 -6 -4 -6 9 -1
26 11 29 29 7z m-175 -15 c2 -11 -9 -16 -39 -18 -30 -1 -37 1 -26 8 8 5 11 10
5 11 -5 0 -1 4 10 9 27 12 48 8 50 -10z m629 4 c5 -14 4 -15 -9 -4 -17 14 -19
20 -6 20 5 0 12 -7 15 -16z m2800 1 c3 -8 1 -15 -4 -15 -5 0 -7 -8 -3 -17 3
-10 3 -15 -1 -12 -11 10 -17 59 -7 59 5 0 11 -7 15 -15z m-3307 -14 c0 -11 -5
-17 -9 -15 -11 7 -10 -4 2 -26 8 -16 8 -18 -5 -14 -8 4 -15 2 -15 -4 0 -24
-62 1 -73 30 -8 23 11 36 58 41 22 2 41 4 42 5 1 1 1 -7 0 -17z m268 10 c20
-2 9 -54 -15 -73 -24 -19 -24 -19 -32 2 -4 12 -5 27 -1 32 3 7 1 8 -5 4 -7 -4
-12 -1 -12 9 0 10 5 13 12 9 7 -5 9 -2 6 8 -4 10 0 14 15 12 12 -1 27 -3 32
-3z m3219 -26 c-4 -8 -9 -13 -13 -10 -4 2 -22 -10 -41 -26 -24 -23 -36 -27
-44 -19 -8 8 -6 15 8 25 10 8 23 12 27 9 5 -3 9 0 9 7 0 7 3 9 6 6 4 -3 16 0
28 8 26 19 27 19 20 0z m-2950 -18 c8 -13 7 -20 -3 -27 -18 -10 -42 17 -34 38
7 16 23 11 37 -11z m3098 14 c-8 -4 -12 -16 -10 -26 2 -12 -4 -19 -22 -21 -14
-1 -19 0 -12 2 6 3 9 10 6 16 -6 10 23 37 41 38 6 0 4 -4 -3 -9z m-484 -18
c-2 -10 2 -17 9 -16 6 1 17 -5 25 -14 9 -12 9 -15 1 -9 -8 4 -13 1 -13 -9 0
-9 -4 -13 -10 -10 -6 3 -7 -1 -4 -9 6 -16 25 -23 23 -8 -3 20 4 20 36 2 21
-12 35 -15 35 -8 0 6 9 1 20 -12 11 -13 26 -20 35 -16 26 9 17 -3 -13 -18 -32
-17 -59 -14 -105 12 -5 2 -3 -5 5 -17 7 -12 21 -21 32 -21 15 0 16 -3 6 -15
-8 -10 -26 -15 -48 -13 -22 1 -37 -3 -40 -11 -4 -11 -6 -11 -12 -1 -5 8 0 20
13 31 20 16 20 18 5 24 -10 4 -15 11 -12 16 3 5 9 7 13 5 4 -3 8 1 8 8 0 8 -6
12 -14 9 -7 -3 -13 -9 -13 -15 0 -5 -5 -6 -11 -2 -7 4 -7 -1 1 -16 8 -15 8
-20 1 -16 -6 4 -11 2 -11 -5 0 -7 -6 -4 -14 7 -10 13 -11 23 -4 31 7 9 7 13
-3 13 -7 0 2 11 20 24 21 16 28 27 21 31 -9 6 -9 10 1 15 10 7 10 12 -2 26 -9
11 -9 15 -1 10 6 -4 12 -2 12 3 0 6 2 11 5 11 3 0 5 -8 3 -17z m-451 -37 c0
-8 -9 -14 -19 -13 -18 1 -18 2 -2 14 22 16 21 16 21 -1z m-2646 -36 c5 -3 3
-17 -5 -31 -7 -13 -11 -30 -8 -37 5 -15 -16 -42 -31 -42 -6 0 -2 7 9 15 13 10
14 13 3 10 -10 -4 -16 0 -16 10 0 8 4 15 9 15 5 0 8 8 6 18 -2 9 2 16 9 15 12
-3 11 13 -2 52 l-7 20 13 -20 c7 -11 16 -22 20 -25z m2904 10 c-3 -5 -12 -10
-18 -10 -7 0 -6 4 3 10 19 12 23 12 15 0z m142 -5 c0 -8 -4 -12 -9 -9 -5 3 -6
10 -3 15 9 13 12 11 12 -6z m-3077 -14 c0 -15 -38 -19 -44 -5 -3 8 0 11 10 7
7 -3 14 0 14 7 0 6 5 8 10 5 6 -3 10 -10 10 -14z m610 -16 c0 -2 -9 -3 -19 -2
-11 0 -18 5 -15 9 4 6 34 0 34 -7z m-546 -26 c-9 -16 -20 -10 -21 12 -2 17 1
18 12 9 8 -7 12 -16 9 -21z m562 -4 c10 -10 11 -15 4 -15 -7 0 -9 -7 -6 -16 5
-14 4 -15 -9 -4 -9 7 -13 15 -10 18 2 3 -3 11 -13 18 -16 13 -16 13 1 14 10 0
25 -7 33 -15z m-429 -8 c29 1 26 -30 -4 -44 -14 -7 -23 -7 -23 -1 0 5 -4 7 -9
4 -5 -4 -8 2 -6 11 1 10 -3 24 -9 32 -9 12 -7 13 9 6 11 -4 30 -8 42 -8z
m3038 -27 c-3 -5 3 -13 12 -19 15 -9 14 -10 -7 -7 -14 3 -27 5 -29 5 -2 1 2 7
8 14 6 8 7 18 3 22 -4 5 -1 5 6 1 7 -4 10 -11 7 -16z m62 -12 c1 -10 -2 -18
-6 -18 -5 0 -11 8 -13 18 -3 10 0 19 6 19 7 0 13 -9 13 -19z m-1070 -36 c0
-12 -3 -11 -12 2 -7 8 -15 13 -19 9 -4 -4 -4 0 -1 9 5 13 10 14 19 5 7 -6 13
-18 13 -25z m265 6 c-7 -7 -12 -8 -12 -2 0 14 12 26 19 19 2 -3 -1 -11 -7 -17z
m-2678 -38 c-8 -8 -15 -6 -24 5 -11 13 -10 14 5 9 14 -6 16 -4 10 7 -6 11 -5
12 6 2 9 -9 10 -16 3 -23z m2800 -5 c3 -8 1 -15 -4 -15 -6 0 -10 7 -10 15 0 8
2 15 4 15 2 0 6 -7 10 -15z m-2338 -24 c11 9 17 9 29 -1 12 -10 15 -10 15 0 0
19 13 3 17 -20 2 -11 -2 -20 -7 -20 -6 0 -10 5 -10 10 0 6 -8 10 -17 8 -12 -2
-17 3 -15 12 1 9 -7 4 -19 -10 -11 -14 -18 -19 -14 -12 4 8 -1 20 -11 28 -11
9 -13 13 -6 9 6 -3 13 0 13 7 1 7 3 5 6 -5 4 -14 8 -16 19 -6z m3076 4 c10 -4
15 -11 12 -16 -3 -5 0 -9 6 -9 7 0 6 -5 -2 -14 -7 -8 -15 -12 -17 -10 -2 2
-10 -1 -18 -7 -10 -9 -13 -8 -13 1 0 8 -3 10 -7 7 -3 -4 -13 -2 -20 5 -11 9
-17 9 -24 -3 -7 -12 -9 -12 -9 1 0 13 -1 13 -10 0 -7 -11 -10 -7 -10 17 0 27
3 30 23 25 12 -3 28 -13 35 -21 8 -9 11 -11 8 -4 -8 16 3 42 17 39 7 -2 20 -6
29 -11z m-127 -15 c3 -5 1 -10 -4 -10 -6 0 -11 5 -11 10 0 6 2 10 4 10 3 0 8
-4 11 -10z m-3180 -59 c-9 -8 -36 -10 -30 -2 2 4 11 8 20 8 8 0 13 -3 10 -6z
m83 -19 c7 -10 12 -11 12 -4 0 7 4 12 8 12 5 0 9 -7 9 -15 0 -16 -11 -18 -42
-6 -14 6 -25 2 -38 -13 -10 -12 -16 -14 -12 -6 4 10 2 9 -8 -2 -8 -10 -20 -18
-27 -18 -7 0 -10 -6 -7 -14 3 -8 0 -19 -7 -25 -11 -9 -13 -6 -12 11 0 13 9 29
19 36 9 7 17 17 17 22 0 6 7 18 16 29 18 21 52 18 72 -7z m2616 -4 c-2 -13 -2
-18 2 -11 7 15 34 5 34 -12 0 -7 5 -15 12 -17 6 -2 -8 -4 -31 -5 -23 0 -40 1
-37 4 3 3 1 15 -5 26 -7 12 -7 17 -1 13 5 -3 12 1 16 9 8 23 15 18 10 -7z
m-2899 -29 c-6 -17 -9 -19 -16 -8 -12 19 -11 32 1 24 6 -3 10 -1 10 6 0 7 3
10 6 6 3 -3 3 -15 -1 -28z m30 21 c3 -5 1 -10 -4 -10 -6 0 -11 5 -11 10 0 6 2
10 4 10 3 0 8 -4 11 -10z m678 -3 c-3 -5 0 -13 7 -17 7 -4 10 -15 7 -24 -9
-23 -25 -20 -23 6 0 11 -5 23 -12 25 -8 3 -10 -2 -6 -14 5 -17 5 -17 -6 1 -9
14 -9 20 -1 26 17 10 41 8 34 -3z m2350 -12 c-3 -9 -8 -14 -10 -11 -3 3 -2 9
2 15 9 16 15 13 8 -4z m-2750 -21 c-3 -8 -9 -11 -14 -8 -5 3 -9 0 -9 -6 0 -16
-43 -29 -57 -18 -16 12 -17 28 -3 28 6 0 9 -4 8 -9 -2 -5 0 -9 5 -10 29 -4 37
1 37 23 0 19 4 23 19 19 12 -3 17 -11 14 -19z m2732 -4 c7 -11 -42 -35 -64
-31 -7 1 -10 -2 -6 -8 3 -7 0 -8 -9 -5 -12 5 -13 11 -5 25 5 10 12 19 15 19 3
0 3 -4 0 -9 -3 -5 0 -11 7 -13 15 -6 59 16 50 25 -3 4 -4 7 0 7 3 0 9 -5 12
-10z m-1632 -33 c3 -8 -1 -14 -8 -14 -7 0 -11 6 -8 14 3 7 6 13 8 13 2 0 5 -6
8 -13z m1519 -24 c-6 -3 -9 -10 -6 -16 5 -9 3 -9 -6 0 -10 9 -16 8 -27 -3 -16
-15 -33 -19 -33 -6 0 12 56 42 65 34 5 -4 5 -2 1 5 -4 7 -14 10 -24 7 -14 -5
-15 -4 -2 5 11 8 19 6 30 -6 11 -12 12 -16 2 -20z m-2739 2 c-3 -9 -8 -14 -10
-11 -3 3 -2 9 2 15 9 16 15 13 8 -4z m3477 -27 c0 6 6 9 13 6 17 -6 18 -32 1
-38 -8 -3 -20 1 -28 9 -7 8 -17 11 -20 7 -4 -3 -4 1 0 11 5 14 9 15 20 6 10
-8 14 -8 14 -1z m-2766 -86 c3 -5 -1 -9 -9 -9 -8 0 -12 4 -9 9 3 4 7 8 9 8 2
0 6 -4 9 -8z m1550 -37 c-4 -8 -11 -12 -16 -9 -6 4 -5 10 3 15 19 12 19 11 13
-6z m-2570 -46 c-3 -5 -10 -7 -15 -3 -5 3 -7 10 -3 15 3 5 10 7 15 3 5 -3 7
-10 3 -15z m292 2 c0 -11 -3 -18 -7 -15 -4 2 -9 -1 -11 -8 -3 -7 -20 -11 -45
-10 -23 2 -44 -2 -48 -8 -3 -5 -12 -10 -18 -10 -7 0 -6 4 3 10 12 7 8 10 -15
10 l-30 0 30 16 c29 16 98 27 90 14 -2 -3 0 -12 5 -19 6 -10 12 -7 25 13 21
31 21 31 21 7z m-146 -62 c0 -5 -4 -8 -9 -5 -5 3 -12 -1 -15 -9 -4 -13 -10
-14 -26 -5 -11 6 -18 15 -15 21 8 13 65 12 65 -2z m2974 -10 c-3 -5 -10 -7
-15 -3 -5 3 -7 10 -3 15 3 5 10 7 15 3 5 -3 7 -10 3 -15z m396 9 c0 -5 4 -6
10 -3 6 3 7 -1 3 -10 -4 -12 -8 -13 -13 -5 -4 6 -11 11 -16 10 -5 -1 -10 3
-12 8 -1 5 4 9 13 9 8 0 15 -4 15 -9z m-3343 -28 c-4 -16 0 -20 21 -20 25 0
25 0 7 -18 -28 -26 -69 -23 -69 6 0 12 3 21 7 20 5 -2 13 5 18 15 13 23 23 22
16 -3z m3479 -60 c0 -28 -13 -25 -18 4 -3 15 -1 23 6 20 7 -3 12 -13 12 -24z
m-2757 -8 c-6 -3 -5 -9 2 -18 7 -8 9 -17 6 -20 -10 -10 -27 34 -21 51 5 13 8
14 15 3 5 -7 4 -14 -2 -16z m-43 -7 c2 -11 -2 -12 -17 -2 -13 8 -15 13 -6 19
13 8 20 3 23 -17z m-643 2 c3 -8 -1 -14 -8 -14 -7 0 -11 6 -8 14 3 7 6 13 8
13 2 0 5 -6 8 -13z m887 3 c0 -5 -7 -10 -16 -10 -8 0 -12 5 -9 10 3 6 10 10
16 10 5 0 9 -4 9 -10z m2662 -35 c3 -13 2 -22 -3 -20 -7 5 -25 -34 -17 -39 28
-21 92 -44 105 -39 16 6 16 5 -1 -12 -23 -24 -53 -26 -69 -6 -11 14 -10 15 8
1 18 -14 19 -13 8 1 -7 9 -10 18 -8 21 3 3 -6 3 -19 1 -14 -3 -31 -12 -38 -21
-8 -10 -9 -13 -1 -9 7 4 10 1 9 -8 -4 -26 -11 -24 -34 12 -13 19 -19 33 -14
29 5 -3 17 3 27 14 15 17 16 24 7 46 -9 18 -9 23 -1 18 8 -4 9 0 4 15 -5 16
-2 21 13 21 13 0 21 -8 24 -25z m-2664 -22 c-5 -7 -21 -12 -34 -11 -12 1 -21
5 -18 8 6 5 9 6 42 10 11 1 12 3 4 7 -6 2 -9 9 -6 15 4 6 9 5 15 -3 4 -7 3
-19 -3 -26z m2505 8 c-5 -3 -8 -16 -7 -27 1 -16 -3 -20 -18 -16 -13 3 -16 8
-8 17 8 9 6 15 -7 20 -17 6 -17 7 1 21 15 10 23 11 33 2 8 -6 10 -14 6 -17z
m203 17 c4 -6 3 -8 -4 -4 -5 3 -13 0 -15 -6 -3 -8 -6 -6 -6 5 -1 19 14 23 25
5z m-791 -18 c-3 -5 -12 -10 -18 -10 -7 0 -6 4 3 10 19 12 23 12 15 0z m-2413
-23 c10 -19 -2 -23 -19 -6 -8 8 -13 8 -18 0 -3 -6 -1 -10 5 -9 7 2 14 -5 15
-15 3 -14 0 -15 -9 -8 -7 6 -15 9 -17 7 -2 -3 -15 4 -29 14 -20 16 -22 20 -7
20 9 0 17 4 17 9 0 16 52 5 62 -12z m195 -2 c0 -8 -4 -15 -9 -15 -10 0 -11 14
-1 23 9 10 10 9 10 -8z m2126 -30 c-7 -21 -12 -19 -10 4 0 11 5 18 9 15 4 -3
5 -11 1 -19z m-2400 -4 c-4 -3 -11 -10 -15 -15 -4 -4 -6 1 -5 12 1 12 6 18 15
15 7 -3 10 -9 5 -12z m3122 -21 c3 -15 0 -20 -9 -17 -8 3 -13 0 -13 -6 1 -51
-6 -79 -25 -96 -17 -16 -24 -18 -36 -9 -11 10 -18 7 -32 -12 -10 -14 -22 -21
-26 -17 -4 4 -2 7 4 7 7 0 12 5 12 11 0 6 -6 9 -14 6 -11 -4 -9 3 5 27 18 31
18 34 3 40 -13 5 -15 9 -6 18 14 14 44 20 37 7 -4 -5 1 -6 9 -3 9 3 16 13 16
21 0 8 5 11 10 8 6 -3 10 -1 10 5 0 6 4 9 9 5 6 -3 15 4 21 16 13 24 19 21 25
-11z m-3285 -21 c0 -4 -4 -11 -10 -14 -5 -3 -10 1 -10 10 0 10 -6 15 -13 12
-8 -3 -14 1 -14 8 0 10 6 11 24 2 13 -5 23 -14 23 -18z m378 0 c-3 -8 -7 -3
-11 10 -4 17 -3 21 5 13 5 -5 8 -16 6 -23z m-479 -16 c-6 -6 -17 -9 -24 -7
-11 4 -10 9 3 23 19 19 38 5 21 -16z m2730 6 c-7 -4 -18 -5 -25 -2 -10 4 -10
8 -1 18 9 9 16 10 25 2 10 -8 10 -12 1 -18z m-63 -44 c-10 -8 -23 -12 -29 -8
-5 3 1 12 14 19 30 15 41 7 15 -11z m734 -58 c0 -2 -8 -13 -18 -24 -14 -17
-19 -18 -30 -7 -11 12 -9 14 7 14 11 0 23 5 26 10 6 10 15 14 15 7z m-115 -28
c-6 -18 -5 -19 13 -10 14 7 23 8 27 1 4 -6 11 -8 16 -5 5 3 7 -8 5 -24 -3 -29
10 -38 26 -16 5 6 8 5 8 -2 0 -7 5 -13 11 -13 5 0 7 6 4 13 -4 6 0 3 9 -7 8
-10 17 -24 20 -30 3 -8 7 -8 13 0 6 7 15 7 30 -1 13 -7 20 -15 16 -18 -3 -4
-1 -7 5 -7 9 0 9 -5 0 -19 -7 -11 -15 -18 -19 -15 -4 2 -9 0 -11 -6 -4 -14
-48 -21 -48 -8 0 5 -6 8 -14 5 -8 -3 -17 1 -20 9 -4 11 -10 12 -31 2 -20 -9
-26 -18 -22 -35 2 -13 2 -21 -1 -18 -3 2 -11 0 -19 -7 -11 -8 -17 -7 -28 8
-13 17 -12 21 7 37 18 15 20 20 7 28 -12 7 -12 9 1 9 13 0 13 1 0 10 -11 7
-11 10 -2 10 7 0 10 5 7 11 -4 6 1 17 11 24 18 14 18 14 -1 16 -11 1 -24 2
-30 4 -5 1 -14 3 -18 3 -5 1 -5 7 -2 12 4 6 13 7 24 1 13 -7 18 -6 18 4 0 8
-4 12 -8 9 -12 -7 -20 12 -13 30 9 24 16 19 9 -5z m-2722 -15 c-6 -16 -16 -11
-19 11 -1 8 4 11 11 8 8 -2 11 -11 8 -19z m47 -54 c0 -11 -22 -18 -37 -13 -9
4 -9 8 0 18 12 13 37 9 37 -5z m2554 -26 c3 -8 2 -12 -4 -9 -6 3 -10 10 -10
16 0 14 7 11 14 -7z m505 -32 c1 -10 -3 -10 -14 2 -9 8 -12 22 -8 32 6 16 7
16 14 -2 4 -10 8 -25 8 -32z m-3489 5 c0 -1 -14 -2 -30 -3 -24 -1 -28 2 -19
12 8 10 16 11 30 3 10 -5 19 -11 19 -12z m1847 2 c-9 -6 -15 -14 -12 -20 3 -5
-1 -6 -11 -2 -16 6 -15 7 2 20 10 7 23 13 28 13 6 0 3 -5 -7 -11z m818 1 c3
-5 1 -10 -4 -10 -6 0 -11 5 -11 10 0 6 2 10 4 10 3 0 8 -4 11 -10z m308 -13
c3 -8 1 -20 -4 -28 -7 -11 -9 -11 -9 -1 0 7 -4 11 -9 8 -5 -3 -11 3 -14 14 -4
15 0 20 13 20 10 0 20 -6 23 -13z m-2970 -30 c28 -26 32 -35 21 -45 -17 -15
-78 -16 -68 -1 3 6 2 14 -3 18 -6 3 -13 16 -17 28 -5 16 -2 23 11 26 10 3 19
5 20 6 2 0 18 -14 36 -32z m2697 2 c0 -5 -4 -7 -10 -4 -5 3 -10 1 -10 -6 0 -7
-3 -10 -6 -6 -8 7 4 27 17 27 5 0 9 -5 9 -11z m463 -14 c-3 -9 -8 -14 -10 -11
-3 3 -2 9 2 15 9 16 15 13 8 -4z m-1381 -24 c10 5 18 6 18 1 0 -5 -12 -14 -26
-21 -22 -10 -30 -9 -43 3 -13 12 -20 13 -29 4 -7 -7 -12 -8 -12 -4 0 5 -6 3
-14 -4 -16 -13 -10 -44 7 -33 6 4 7 1 1 -8 -5 -8 -9 -22 -10 -31 -3 -35 -4
-37 -18 -32 -9 3 -12 12 -8 22 5 15 3 15 -10 4 -13 -10 -18 -10 -24 -1 -4 8
-3 9 5 5 6 -4 14 0 17 8 3 9 14 16 23 17 10 0 7 4 -9 10 -18 8 -21 12 -11 18
10 7 10 10 1 16 -18 11 6 24 38 20 24 -2 24 -1 8 10 -28 21 3 24 43 4 25 -12
41 -14 53 -8z m1642 23 c15 -6 15 -8 -1 -20 -17 -13 -17 -14 2 -8 15 4 13 1
-5 -9 -14 -9 -28 -13 -32 -11 -10 6 2 34 14 34 5 0 6 5 3 10 -7 12 -3 12 19 4z
m-850 -12 c3 -5 -1 -9 -9 -9 -8 0 -12 4 -9 9 3 4 7 8 9 8 2 0 6 -4 9 -8z m618
-22 c6 0 9 -2 6 -5 -12 -12 -37 7 -30 23 6 16 7 15 10 0 2 -10 8 -18 14 -18z
m-1962 -17 c0 -2 -4 -2 -9 1 -5 4 -12 0 -14 -6 -3 -8 -6 -6 -6 5 -1 9 -5 17
-11 17 -5 0 -10 5 -10 10 0 6 11 3 25 -6 14 -9 25 -18 25 -21z m-1062 -21 c-9
-11 -9 -13 -1 -9 7 4 13 0 15 -10 3 -15 4 -15 21 1 10 10 17 13 17 5 0 -8 3
-9 14 0 11 9 12 6 9 -16 -4 -22 -2 -25 6 -13 6 8 11 10 11 5 0 -6 -5 -16 -12
-23 -9 -9 -8 -16 5 -29 16 -16 17 -16 18 2 1 11 1 23 0 27 0 4 6 5 14 2 8 -4
15 -14 15 -23 0 -14 -2 -14 -10 -1 -8 12 -10 11 -10 -7 0 -13 6 -23 14 -23 8
0 18 -5 22 -12 4 -7 3 -8 -4 -4 -7 4 -12 2 -12 -3 0 -6 -3 -10 -7 -10 -20 3
-34 -2 -28 -11 3 -6 -1 -7 -9 -4 -9 3 -16 10 -16 16 0 5 -3 7 -8 5 -4 -3 -15
12 -24 34 -9 22 -13 37 -9 35 16 -10 29 9 15 22 -9 8 -14 9 -14 2 0 -6 -4 -8
-10 -5 -5 3 -10 1 -10 -5 0 -6 -4 -9 -9 -5 -5 3 -13 0 -17 -6 -10 -17 -23 9
-19 40 l3 25 -18 -22 c-15 -17 -19 -19 -24 -7 -3 9 0 15 9 15 8 0 18 8 24 18
5 9 13 17 18 17 4 0 7 4 5 9 -2 5 4 4 13 -4 12 -10 13 -16 3 -28z m1163 24
c-7 -8 -21 -14 -32 -13 -25 2 -24 6 4 17 33 13 41 12 28 -4z m1854 -6 c4 -6
-1 -13 -10 -16 -14 -6 -14 -8 2 -20 10 -7 13 -14 6 -14 -6 0 -9 -9 -6 -20 3
-11 1 -20 -5 -20 -6 0 -9 11 -7 25 1 14 -1 28 -6 31 -4 2 -5 12 -2 21 4 10 2
14 -5 9 -6 -3 -13 -3 -16 2 -2 4 6 9 19 10 13 1 27 -3 30 -8z m-2198 -31 c0
-16 -4 -26 -8 -24 -10 7 -39 -5 -39 -17 0 -5 4 -7 9 -4 5 4 8 -1 7 -9 -3 -19
-16 -32 -16 -16 0 7 -5 9 -10 6 -6 -4 -8 -10 -5 -15 3 -5 -12 -21 -35 -35 -44
-28 -49 -39 -22 -54 9 -6 11 -11 5 -11 -8 0 -13 -13 -13 -29 0 -23 4 -29 18
-26 10 2 29 -6 43 -17 13 -11 18 -16 10 -12 -10 5 -13 3 -9 -7 5 -12 -1 -14
-23 -11 -16 2 -32 9 -36 15 -3 6 -1 7 5 3 7 -4 12 -2 12 3 0 6 -7 12 -15 12
-8 1 -19 2 -23 3 -13 2 -42 33 -42 46 0 6 -4 9 -8 6 -4 -2 -9 9 -10 25 -1 17
2 28 7 25 5 -4 12 -2 16 4 4 6 10 8 14 6 4 -3 24 9 44 25 20 17 37 25 37 19 0
-6 5 -8 10 -5 8 5 7 11 -1 21 -6 7 -15 12 -18 9 -4 -2 -8 2 -8 10 0 8 4 12 8
9 4 -2 9 -1 12 3 2 5 2 2 0 -6 -2 -8 12 2 32 23 19 21 33 41 31 45 -3 4 1 8 8
8 7 0 13 -12 13 -28z m353 11 c0 -5 -4 -10 -10 -10 -5 0 -10 5 -10 10 0 6 5
10 10 10 6 0 10 -4 10 -10z m81 -47 c7 -10 9 -15 5 -11 -5 4 -22 -2 -38 -14
-24 -17 -32 -18 -38 -7 -12 19 -1 32 16 18 11 -9 14 -8 14 4 0 8 6 18 13 20 6
3 13 6 13 6 1 1 8 -7 15 -16z m-686 -3 c-3 -5 -14 -10 -23 -9 -14 0 -13 2 3 9
27 11 27 11 20 0z m2368 -3 c4 3 7 2 7 -3 0 -6 -5 -15 -12 -22 -7 -7 -9 -12
-5 -12 4 0 2 -6 -4 -13 -10 -11 -19 -10 -48 5 -19 10 -42 17 -51 17 -11 -1
-11 -2 3 -6 22 -6 23 -21 1 -19 -9 0 -18 -5 -20 -12 -1 -7 0 -8 3 -2 2 5 9 7
15 4 6 -4 20 -8 32 -9 11 -1 24 -3 28 -4 4 0 -3 -11 -15 -24 -19 -19 -24 -20
-35 -7 -10 13 -11 13 -6 -3 5 -13 2 -16 -10 -11 -9 3 -14 9 -11 13 8 13 -42 6
-59 -8 -15 -12 -17 -12 -15 5 0 4 -11 14 -25 24 -15 9 -23 20 -19 23 11 11 41
8 47 -5 5 -10 7 -10 12 0 3 6 10 10 15 6 5 -3 9 -2 8 3 -6 35 30 57 69 42 17
-7 27 -4 43 12 15 15 24 17 33 10 7 -6 16 -8 19 -4z m-163 -7 c0 -5 -5 -10
-11 -10 -5 0 -7 5 -4 10 3 6 8 10 11 10 2 0 4 -4 4 -10z m-2497 -17 c-6 -16
-5 -17 12 -3 15 12 17 12 10 1 -6 -11 -4 -13 8 -8 9 3 19 1 23 -5 4 -7 3 -8
-4 -4 -7 4 -12 4 -13 -1 -8 -77 1 -113 26 -113 8 0 15 -4 15 -10 0 -5 6 -10
14 -10 17 0 10 -34 -10 -51 -8 -6 -14 -16 -14 -22 0 -6 7 -1 16 11 8 12 20 19
26 16 7 -5 8 -2 3 6 -6 9 -4 11 4 6 7 -5 9 -15 6 -25 -4 -9 -8 -22 -9 -29 -1
-8 -7 -17 -13 -20 -8 -5 -7 -15 4 -32 10 -18 13 -19 9 -5 -5 15 1 12 23 -12
16 -17 32 -29 35 -26 17 17 3 -16 -15 -35 -11 -12 -18 -26 -15 -31 3 -4 0 -15
-7 -24 -9 -13 -16 -14 -27 -6 -13 9 -12 10 3 5 19 -6 21 2 7 24 -5 8 -12 11
-16 7 -4 -4 -13 -2 -20 3 -6 6 -18 9 -25 8 -8 -2 -13 3 -11 10 1 8 -2 11 -7 8
-5 -4 -12 -2 -16 4 -3 5 -15 10 -26 10 -39 0 -16 34 26 37 54 5 54 5 39 28 -8
12 -11 25 -7 28 3 4 1 7 -6 7 -6 0 -14 -7 -18 -15 -5 -13 -8 -13 -20 5 -14 20
-39 18 -27 -2 4 -7 2 -8 -4 -4 -6 4 -8 14 -5 23 5 12 2 15 -9 10 -12 -4 -15 0
-10 16 3 12 2 19 -3 15 -4 -4 -14 0 -22 8 -11 11 -12 18 -4 28 6 7 8 15 6 18
-3 3 6 3 20 1 13 -3 23 -9 20 -13 -3 -5 2 -16 12 -25 16 -16 17 -16 23 0 3 9
10 16 15 15 5 -1 11 3 13 9 2 6 -4 11 -13 11 -9 0 -14 4 -10 9 3 6 -8 8 -26 6
-26 -4 -29 -2 -19 10 10 12 9 15 -3 15 -10 0 -14 7 -10 23 3 16 2 18 -5 8 -8
-11 -11 -10 -14 5 -2 10 3 24 12 31 12 10 12 12 1 13 -10 0 -7 8 9 25 27 29
53 34 43 8z m172 7 c3 -6 17 -8 29 -6 13 2 29 0 37 -6 11 -8 10 -8 -5 -4 -16
5 -17 4 -7 -8 7 -8 9 -21 5 -27 -4 -7 -3 -9 3 -6 6 4 16 0 22 -7 10 -11 8 -17
-6 -24 -10 -6 -17 -13 -15 -16 5 -13 1 -26 -9 -26 -5 0 -8 4 -4 9 3 5 0 13 -6
17 -7 4 -9 3 -6 -2 3 -6 2 -16 -2 -23 -6 -9 -9 -3 -9 15 0 16 5 35 12 43 8 12
8 13 -1 7 -8 -4 -13 -2 -13 4 0 7 -7 10 -15 6 -10 -3 -15 1 -15 12 0 13 -2 14
-9 3 -6 -9 -11 -10 -15 -2 -4 6 -12 11 -17 11 -6 0 -8 -4 -5 -9 3 -4 -3 -16
-14 -26 -14 -12 -20 -14 -20 -5 0 10 -4 10 -17 -1 -10 -7 -15 -9 -11 -5 4 5 0
15 -10 22 -15 11 -14 12 10 10 15 -2 25 1 22 5 -3 5 7 11 21 15 14 3 25 10 25
16 0 5 5 6 10 3 6 -3 10 -1 10 4 0 14 17 14 25 1z m139 -6 c3 -8 2 -12 -4 -9
-6 3 -10 10 -10 16 0 14 7 11 14 -7z m-564 -8 c16 -20 21 -56 7 -56 -7 0 -6
-4 3 -10 11 -7 11 -10 2 -10 -7 0 -11 -4 -8 -9 3 -5 -1 -12 -10 -15 -28 -11
-35 -7 -24 14 9 16 8 20 -6 20 -14 0 -15 2 -3 17 12 15 12 16 -3 10 -10 -3
-18 -3 -18 1 0 4 -3 16 -6 27 -4 16 0 20 25 22 16 1 34 -4 41 -11z m190 4 c0
-5 -5 -10 -11 -10 -5 0 -7 5 -4 10 3 6 8 10 11 10 2 0 4 -4 4 -10z m452 -28
c8 -9 8 -16 -2 -25 -10 -10 -12 -9 -7 4 3 10 -1 16 -9 16 -8 0 -13 -6 -10 -13
3 -9 -3 -10 -25 -4 -17 5 -31 5 -35 -1 -3 -5 -10 -7 -15 -3 -5 3 -7 10 -3 15
3 5 9 7 14 4 4 -3 13 2 20 10 14 17 57 16 72 -3z m2212 0 c2 -4 -4 -8 -14 -8
-10 0 -16 4 -14 8 3 4 9 8 14 8 5 0 11 -4 14 -8z m-824 -23 c0 -6 -6 -7 -12
-3 -8 4 -10 3 -5 -2 5 -5 14 -9 20 -9 7 -1 11 -7 9 -14 -1 -7 2 -10 7 -6 16 9
32 -30 18 -44 -9 -10 -9 -11 4 -6 10 4 19 -3 27 -22 11 -25 11 -26 -2 -10 -8
10 -16 15 -18 10 -5 -9 33 -47 51 -50 6 -2 11 3 11 10 0 8 4 7 11 -3 9 -12 10
-11 6 6 -2 12 1 21 8 21 10 0 11 -7 3 -26 -14 -34 -16 -65 -5 -72 5 -3 2 -9
-7 -12 -20 -8 -42 28 -24 39 7 4 8 3 4 -4 -4 -7 -3 -12 3 -12 5 0 9 9 8 19 0
10 -7 17 -13 14 -15 -6 -26 -32 -18 -44 3 -5 0 -9 -6 -9 -6 0 -8 -4 -5 -10 3
-5 1 -10 -4 -10 -6 0 -11 5 -11 11 0 5 -5 7 -10 4 -6 -4 -8 -11 -4 -16 7 -12
-17 -7 -32 6 -19 18 -25 64 -11 85 8 11 17 17 22 12 5 -4 5 -2 1 5 -3 6 -17
10 -31 7 -29 -5 -41 11 -24 32 7 9 20 12 33 8 12 -4 18 -3 14 1 -4 4 -22 9
-40 11 -45 6 -57 21 -23 30 20 5 23 9 13 15 -10 7 -10 9 0 9 7 0 12 6 11 13
-3 25 1 38 11 32 6 -3 10 -11 10 -16z m924 -35 c4 -10 2 -13 -6 -8 -7 5 -9 2
-6 -8 4 -8 2 -21 -3 -29 -7 -11 -9 -11 -9 -1 0 7 -4 10 -10 7 -5 -3 -10 -1
-10 5 0 6 -4 8 -10 5 -6 -3 -7 1 -4 9 3 9 10 14 14 11 4 -3 13 2 20 10 15 19
16 19 24 -1z m-1775 -27 c0 -9 -2 -9 -6 1 -2 6 -9 10 -14 6 -5 -3 -9 0 -9 6 0
6 -5 8 -12 4 -7 -4 -8 -3 -4 4 9 15 46 -3 45 -21z m-168 2 c4 -7 5 -18 2 -26
-3 -7 2 -13 11 -13 9 0 16 -6 16 -12 0 -9 3 -8 10 2 7 12 12 10 29 -9 25 -29
25 -30 5 -27 -9 1 -30 -11 -48 -28 -30 -30 -31 -32 -13 -47 18 -14 17 -15 -10
-13 -24 1 -32 -5 -50 -37 -12 -22 -18 -37 -13 -34 11 7 21 -21 14 -40 -7 -17
7 -20 22 -5 16 16 14 -22 -2 -41 -12 -13 -11 -19 6 -37 12 -12 16 -22 10 -22
-6 0 -8 -4 -5 -10 4 -6 -1 -7 -11 -3 -12 4 -15 2 -12 -8 3 -8 -2 -20 -11 -27
-12 -10 -13 -12 -1 -6 13 7 13 5 2 -8 -10 -13 -10 -17 0 -21 8 -4 7 -6 -4 -6
-10 -1 -18 -6 -18 -12 0 -5 -6 -7 -12 -3 -8 5 -7 0 2 -11 8 -10 10 -16 4 -12
-6 3 -20 -1 -30 -9 -10 -9 -14 -13 -7 -10 6 4 15 1 19 -5 4 -7 3 -9 -4 -5 -6
3 -15 -1 -20 -10 -8 -15 -10 -15 -15 0 -3 8 -2 18 4 21 5 4 7 11 4 16 -4 5 -2
9 4 9 5 0 8 8 6 18 -2 9 -4 21 -4 25 -1 5 -11 5 -23 2 -17 -6 -20 -4 -15 9 4
9 3 16 -2 16 -4 0 -8 6 -9 13 -2 30 -13 62 -22 65 -6 2 -8 8 -4 13 3 5 13 5
25 -1 11 -6 17 -15 15 -19 -3 -4 1 -8 9 -8 11 0 12 4 4 14 -9 10 -8 13 2 13
11 0 11 2 -1 10 -8 5 -10 10 -5 10 6 0 4 4 -4 9 -12 7 -12 13 -3 24 7 7 8 18
4 22 -4 4 7 0 25 -10 18 -10 29 -23 26 -29 -3 -6 -3 -8 1 -4 4 3 8 10 8 15 0
4 4 15 9 24 11 22 -26 65 -52 61 -10 -2 -19 1 -19 7 0 12 37 24 50 16 15 -10
12 8 -7 35 -10 14 -16 36 -14 49 3 24 3 24 -23 8 -14 -10 -26 -14 -26 -9 0 12
29 49 30 38 0 -6 7 -1 15 10 10 14 17 16 23 7 5 -9 15 -8 40 4 18 9 30 18 28
21 -3 2 0 14 6 26 10 18 9 19 -4 9 -15 -13 -28 -8 -28 9 0 12 52 1 61 -13z
m479 11 c0 -5 -5 -10 -11 -10 -5 0 -7 5 -4 10 3 6 8 10 11 10 2 0 4 -4 4 -10z
m957 -10 c-3 -11 -1 -20 4 -20 5 0 9 -4 9 -10 0 -5 -8 -7 -17 -4 -13 4 -14 3
-5 -3 15 -12 5 -43 -14 -43 -8 0 -11 -6 -7 -17 5 -12 3 -14 -7 -8 -10 6 -12 4
-7 -7 3 -9 0 -21 -6 -27 -8 -8 -6 -11 9 -11 28 0 26 -24 -2 -37 -20 -9 -24 -8
-29 8 -4 10 -11 19 -16 19 -5 0 -9 5 -9 11 0 5 6 7 13 4 6 -4 -1 5 -17 18 -33
28 -59 29 -64 1 -7 -35 -17 -34 -17 2 0 18 4 34 8 34 5 0 5 5 2 10 -3 6 1 10
10 10 9 0 13 -4 10 -10 -9 -14 8 -12 24 3 10 8 12 8 7 0 -3 -6 -2 -14 4 -18 5
-3 10 1 10 10 0 13 4 14 23 4 21 -12 21 -11 7 6 -14 17 -14 18 10 5 21 -10 23
-10 13 1 -7 7 -13 17 -13 22 0 4 6 5 13 1 7 -5 7 -2 -2 10 -8 9 -10 16 -5 15
28 -5 46 2 40 17 -3 8 -2 12 4 9 6 -3 10 -1 10 4 0 6 3 11 6 11 4 0 4 -9 1
-20z m-999 -23 c12 5 12 1 -3 -25 -22 -36 -28 -34 -31 9 -1 21 1 28 8 21 6 -6
17 -8 26 -5z m-298 -22 c5 3 11 1 15 -5 4 -6 10 -8 15 -5 4 3 13 -1 19 -9 9
-10 8 -15 -4 -20 -22 -8 -47 4 -41 21 4 9 2 11 -7 6 -18 -11 -36 -12 -43 -2
-3 5 0 9 5 9 6 0 10 3 10 8 -3 20 3 25 12 9 6 -9 14 -15 19 -12z m-584 0 c13
-4 14 -8 4 -20 -17 -20 -23 -19 -36 9 -12 25 -13 25 32 11z m-516 -4 c0 -8 37
-24 53 -22 10 1 4 -21 -10 -36 -16 -18 -21 -17 -48 13 -26 28 -29 36 -18 47 9
10 23 9 23 -2z m2651 -8 c13 -16 12 -17 -3 -4 -17 13 -22 21 -14 21 2 0 10 -8
17 -17z m-845 -38 c2 -13 0 -15 -8 -7 -8 8 -16 8 -23 2 -9 -7 -17 -5 -26 7 -8
9 -9 14 -3 10 7 -4 15 0 18 9 7 19 38 4 42 -21z m-380 -7 c5 4 1 -2 -9 -14 -9
-11 -17 -26 -17 -32 0 -7 -4 -12 -9 -12 -14 0 -25 21 -14 29 5 3 8 13 8 21 -2
26 8 34 20 17 7 -9 16 -13 21 -9z m386 -28 c-4 -3 -7 -14 -6 -25 1 -13 -5 -21
-15 -21 -11 0 -16 8 -15 26 2 14 3 31 3 38 1 10 5 10 21 0 10 -7 16 -15 12
-18z m-1067 -11 c-4 -5 -1 -9 5 -9 7 0 10 -7 6 -15 -3 -8 -1 -15 4 -15 6 0 10
6 11 13 0 9 2 9 6 -1 2 -6 10 -9 16 -6 7 4 2 -3 -11 -15 -12 -12 -20 -26 -17
-31 4 -7 -10 -7 -33 -1 -1 1 2 9 7 19 7 13 6 27 -4 45 -13 26 -10 41 7 31 4
-3 6 -10 3 -15z m250 2 c-3 -6 -11 -11 -16 -11 -5 0 -4 6 3 14 14 16 24 13 13
-3z m225 5 c0 -2 -7 -7 -16 -10 -8 -3 -12 -2 -9 4 6 10 25 14 25 6z m-565 -35
c-9 -16 -25 -3 -18 15 4 10 9 12 15 6 6 -6 7 -15 3 -21z m795 19 c0 -5 -5 -10
-11 -10 -5 0 -7 5 -4 10 3 6 8 10 11 10 2 0 4 -4 4 -10z m-227 -24 c7 -18 53
-26 68 -12 8 8 8 5 -1 -12 -6 -13 -9 -29 -7 -37 4 -9 -1 -11 -15 -7 -14 3 -19
1 -14 -6 3 -6 1 -14 -5 -18 -7 -4 -9 -3 -6 2 3 6 2 16 -3 24 -5 8 -5 19 0 25
6 7 1 16 -13 25 -20 12 -21 12 -8 -4 16 -19 15 -21 -19 -30 -17 -5 -21 -4 -11
2 8 6 11 17 8 26 -4 9 -2 16 4 16 6 0 7 5 4 10 -3 6 -2 10 3 10 6 0 12 -6 15
-14z m139 7 c-6 -2 -10 -9 -6 -14 3 -5 0 -9 -5 -9 -12 0 -14 13 -4 23 3 4 11
7 17 6 6 0 5 -3 -2 -6z m1568 -3 c5 8 7 3 7 -13 -1 -15 -5 -27 -9 -27 -5 0 -8
-7 -8 -16 0 -8 -4 -12 -10 -9 -5 3 -10 1 -10 -6 0 -7 -3 -9 -7 -6 -3 4 -13 1
-21 -6 -13 -10 -15 -9 -9 6 4 10 7 23 7 28 0 6 5 7 10 4 9 -6 12 -2 14 28 1
17 20 29 25 16 2 -8 6 -7 11 1z m-2725 -10 c3 -6 -1 -7 -9 -4 -18 7 -21 14 -7
14 6 0 13 -4 16 -10z m2015 -25 c0 -13 -5 -27 -12 -31 -7 -4 -8 -3 -4 4 5 8 0
12 -13 12 -12 0 -21 7 -21 15 0 8 3 14 8 14 20 -3 32 2 26 13 -4 7 -3 8 4 4 7
-4 12 -18 12 -31z m-314 -11 c-5 -13 6 -18 27 -15 4 0 7 -7 7 -16 0 -15 2 -16
10 -3 6 9 10 10 10 3 0 -6 -5 -15 -10 -18 -8 -5 -8 -11 0 -20 8 -9 5 -14 -12
-19 -17 -4 -27 0 -38 17 -8 12 -24 32 -36 43 l-21 21 26 16 c28 17 45 13 37
-9z m231 6 c-2 -11 -9 -26 -15 -32 -10 -10 -10 -6 -1 20 12 36 20 42 16 12z
m-2059 -9 c3 -8 -1 -12 -9 -9 -7 2 -15 10 -17 17 -3 8 1 12 9 9 7 -2 15 -10
17 -17z m83 -28 c11 -15 11 -16 -1 -6 -9 9 -17 9 -26 2 -8 -7 -14 -6 -20 2 -4
8 -3 9 4 5 7 -4 12 -2 12 3 0 17 16 13 31 -6z m1046 1 c-3 -3 -12 -4 -19 -1
-8 3 -5 6 6 6 11 1 17 -2 13 -5z m1725 -18 c7 4 8 2 4 -4 -4 -6 -13 -9 -21 -6
-8 4 -12 11 -8 17 5 8 8 7 11 -1 2 -7 9 -9 14 -6z m-1140 -28 c-7 -7 -12 -8
-12 -2 0 14 12 26 19 19 2 -3 -1 -11 -7 -17z m358 -23 c5 3 12 0 16 -6 5 -8 3
-9 -6 -4 -10 6 -12 4 -6 -11 4 -10 4 -15 0 -12 -3 4 -19 1 -35 -7 -26 -14 -52
-4 -28 10 5 4 8 13 5 21 -3 9 0 11 11 7 11 -4 14 -2 9 5 -4 7 -2 12 3 12 6 0
12 8 12 18 1 9 4 5 6 -11 2 -15 8 -25 13 -22z m-1894 19 c-9 -6 -16 -17 -16
-25 -1 -10 -5 -8 -15 5 -16 22 -8 32 25 32 19 0 19 -2 6 -12z m1948 -10 c3 -8
2 -12 -4 -9 -6 3 -10 10 -10 16 0 14 7 11 14 -7z m-184 -29 c11 -13 10 -14 -4
-9 -9 3 -16 10 -16 15 0 13 6 11 20 -6z m179 -8 c-2 -1 -14 -10 -26 -20 -16
-14 -23 -15 -29 -6 -4 7 -3 10 3 6 6 -4 16 0 23 8 7 8 17 15 23 15 6 0 8 -1 6
-3z m-4 -39 c-3 -35 -14 -55 -30 -55 -18 0 -19 9 -3 25 7 7 8 12 3 12 -4 0 0
9 10 20 22 25 22 25 20 -2z m-167 -21 c8 -10 6 -16 -9 -25 -16 -10 -19 -10
-19 3 0 8 -5 15 -11 15 -5 0 -7 5 -4 10 9 14 30 12 43 -3z m15 -42 c1 -12 49
-51 57 -47 3 2 4 8 2 14 -1 5 2 7 8 3 8 -5 8 -11 1 -19 -6 -7 -8 -16 -4 -19 3
-4 2 -7 -4 -7 -6 0 -14 7 -17 16 -3 8 -10 12 -16 9 -5 -3 -10 0 -10 7 0 11 -2
10 -9 0 -6 -10 -10 -8 -16 10 -13 41 -14 49 -3 46 5 -2 10 -8 11 -13z m90 0
c-3 -9 -8 -14 -10 -11 -3 3 -2 9 2 15 9 16 15 13 8 -4z m84 -31 c1 -5 -4 -18
-12 -28 -12 -16 -18 -17 -27 -8 -9 9 -9 12 1 12 7 0 9 5 6 10 -3 6 -3 15 0 21
8 11 27 8 32 -7z m-1982 -74 c3 -5 1 -10 -4 -10 -6 0 -11 5 -11 10 0 6 2 10 4
10 3 0 8 -4 11 -10z"/>
<path d="M1890 3770 c0 -12 28 -21 35 -11 2 5 -4 11 -15 14 -11 3 -20 2 -20
-3z"/>
<path d="M3110 3451 c0 -5 5 -13 10 -16 6 -3 10 -2 10 4 0 5 -4 13 -10 16 -5
3 -10 2 -10 -4z"/>
<path d="M1126 3447 c3 -10 9 -15 12 -12 3 3 0 11 -7 18 -10 9 -11 8 -5 -6z"/>
<path d="M1253 3387 c-3 -7 -3 -9 2 -5 4 4 17 3 27 -3 16 -8 19 -8 16 2 -5 16
-36 20 -45 6z"/>
<path d="M2500 3385 c0 -2 6 -8 13 -14 10 -8 14 -7 14 2 0 8 -6 14 -14 14 -7
0 -13 -1 -13 -2z"/>
<path d="M265 3220 c-3 -6 1 -7 9 -4 18 7 21 14 7 14 -6 0 -13 -4 -16 -10z"/>
<path d="M3734 2718 c-4 -7 -4 -10 1 -6 4 4 16 3 26 -3 11 -5 19 -7 19 -5 0 3
-9 10 -19 16 -15 7 -22 7 -27 -2z"/>
<path d="M3707 2291 c-2 -10 1 -18 9 -18 18 0 26 24 9 30 -7 3 -15 -2 -18 -12z"/>
<path d="M560 2159 c0 -5 5 -7 10 -4 6 3 10 8 10 11 0 2 -4 4 -10 4 -5 0 -10
-5 -10 -11z"/>
<path d="M3645 1880 c3 -5 8 -10 11 -10 2 0 4 5 4 10 0 6 -5 10 -11 10 -5 0
-7 -4 -4 -10z"/>
<path d="M195 1370 c-3 -5 -1 -10 4 -10 6 0 11 5 11 10 0 6 -2 10 -4 10 -3 0
-8 -4 -11 -10z"/>
<path d="M3565 1160 c-3 -5 -1 -10 4 -10 6 0 11 5 11 10 0 6 -2 10 -4 10 -3 0
-8 -4 -11 -10z"/>
<path d="M2227 839 c7 -7 15 -10 18 -7 3 3 -2 9 -12 12 -14 6 -15 5 -6 -5z"/>
<path d="M1033 685 c0 -8 4 -12 9 -9 5 3 6 10 3 15 -9 13 -12 11 -12 -6z"/>
<path d="M2668 603 c7 -3 16 -2 19 1 4 3 -2 6 -13 5 -11 0 -14 -3 -6 -6z"/>
<path d="M1630 541 c0 -5 7 -11 14 -14 10 -4 13 -1 9 9 -6 15 -23 19 -23 5z"/>
<path d="M1590 519 c0 -5 5 -7 10 -4 6 3 10 8 10 11 0 2 -4 4 -10 4 -5 0 -10
-5 -10 -11z"/>
<path d="M1607 283 c-6 -14 -2 -27 14 -51 14 -19 17 -20 23 -7 3 9 2 13 -3 10
-5 -3 -12 -1 -16 5 -3 5 -1 10 4 10 6 0 11 5 11 10 0 6 -6 9 -12 8 -7 -2 -12
3 -10 10 2 13 -5 17 -11 5z"/>
<path d="M1540 200 c0 -4 9 -10 21 -13 12 -3 19 -1 17 5 -5 13 -38 20 -38 8z"/>
<path d="M2825 260 c-3 -6 1 -7 9 -4 18 7 21 14 7 14 -6 0 -13 -4 -16 -10z"/>
<path d="M2905 221 c-3 -5 -2 -12 3 -15 5 -3 9 1 9 9 0 17 -3 19 -12 6z"/>
<path d="M582 3984 c-9 -9 -9 -15 -1 -20 8 -5 6 -10 -5 -16 -9 -5 -21 -6 -26
-3 -13 8 -13 3 2 -32 6 -15 11 -31 10 -35 -1 -5 3 -8 8 -8 13 0 13 6 -2 33
-11 21 -10 21 7 7 11 -9 16 -10 11 -3 -8 14 17 57 27 46 4 -3 6 5 5 19 -2 27
-17 32 -36 12z"/>
<path d="M770 3979 c0 -10 -4 -19 -10 -19 -5 0 -10 -4 -10 -9 0 -5 13 -8 28
-8 24 1 28 6 27 26 -1 30 -35 39 -35 10z m30 -13 c0 -3 -4 -8 -10 -11 -5 -3
-10 -1 -10 4 0 6 5 11 10 11 6 0 10 -2 10 -4z"/>
<path d="M1207 3983 c3 -8 8 -12 10 -9 3 2 20 -2 39 -10 20 -8 34 -10 34 -4 0
5 5 10 11 10 5 0 7 -6 3 -12 -4 -8 -3 -10 2 -5 5 5 9 14 9 20 0 7 10 13 23 13
24 1 42 -20 42 -52 0 -4 7 0 16 7 15 12 14 15 -5 30 -19 16 -20 18 -4 22 10 3
-19 5 -65 6 -53 1 -81 -3 -77 -9 3 -5 1 -10 -4 -10 -6 0 -11 4 -11 8 0 5 -6 9
-14 9 -8 0 -12 -6 -9 -14z m188 -22 c3 -5 2 -12 -3 -15 -5 -3 -9 1 -9 9 0 17
3 19 12 6z"/>
<path d="M1428 3964 c-10 -20 -13 -36 -8 -39 6 -4 10 -2 10 4 0 6 6 8 14 5 11
-4 14 1 12 21 -2 18 1 25 10 21 7 -3 17 1 23 7 7 9 2 13 -17 13 -21 1 -31 -6
-44 -32z"/>
<path d="M3298 3990 c13 -6 31 -6 45 0 18 7 14 9 -23 9 -37 0 -41 -2 -22 -9z"/>
<path d="M3424 3988 c10 -5 23 -5 34 1 14 8 10 10 -16 9 -26 -1 -30 -3 -18
-10z"/>
<path d="M3440 3971 l-25 -7 25 -13 c14 -8 22 -10 18 -6 -4 5 -3 14 3 22 6 7
10 13 8 12 -2 -1 -15 -4 -29 -8z"/>
<path d="M3356 3952 c-2 -4 4 -8 14 -8 10 0 16 4 14 8 -3 4 -9 8 -14 8 -5 0
-11 -4 -14 -8z"/>
<path d="M3839 3958 c-6 -21 -5 -37 2 -32 5 3 9 0 9 -7 0 -7 6 -4 14 6 16 22
12 35 -10 35 -8 0 -14 -1 -15 -2z"/>
<path d="M3444 3920 c-5 -5 -22 -11 -36 -12 -19 -2 -24 -6 -18 -14 6 -6 7 -14
3 -17 -3 -4 0 -7 7 -7 7 0 11 -3 7 -6 -7 -7 24 -41 31 -36 3 2 8 -2 13 -9 6
-10 11 -10 23 0 9 8 16 9 16 3 0 -6 -6 -12 -12 -15 -10 -3 -8 -9 4 -21 10 -9
16 -13 13 -10 -3 4 3 13 13 20 11 9 13 13 4 14 -7 0 -11 4 -8 9 6 9 -22 26
-36 23 -4 -1 -5 5 -2 13 4 8 10 15 16 15 5 0 7 4 4 9 -10 16 38 -2 51 -18 11
-14 12 -13 13 7 0 15 -6 22 -19 22 -10 0 -22 7 -25 16 -3 8 -10 12 -16 9 -5
-3 -10 -1 -10 4 0 14 -23 14 -36 1z"/>
<path d="M3810 3889 c0 -5 -4 -7 -10 -4 -23 14 -8 -25 17 -45 23 -18 28 -19
35 -5 5 8 16 15 23 15 8 0 15 4 15 9 0 11 -30 25 -47 22 -7 -1 -13 3 -13 9 0
5 -4 10 -10 10 -5 0 -10 -5 -10 -11z"/>
<path d="M1198 3853 c-3 -5 -3 -14 -2 -20 1 -7 2 -18 3 -25 2 -16 11 -4 16 20
4 21 -10 40 -17 25z"/>
<path d="M1080 3770 c12 -23 25 -27 17 -6 -3 8 -1 17 6 20 7 2 2 5 -11 5 -20
1 -21 -2 -12 -19z"/>
<path d="M3352 3768 c6 -18 25 -21 25 -3 0 8 -7 15 -14 15 -8 0 -13 -5 -11
-12z"/>
<path d="M3444 3732 c1 -19 -3 -26 -14 -24 -8 2 -11 0 -7 -5 5 -4 14 -8 20 -8
7 0 12 -7 13 -15 1 -26 15 -60 25 -60 5 0 2 11 -7 25 -10 15 -12 25 -5 25 6 0
11 -5 11 -12 0 -6 3 -8 6 -5 4 4 0 17 -8 29 -7 13 -13 33 -12 45 1 12 -4 24
-11 27 -8 3 -12 -5 -11 -22z"/>
<path d="M3377 3733 c-14 -14 -6 -32 13 -30 11 1 20 7 20 15 0 7 5 10 12 6 7
-4 8 -3 4 4 -8 13 -39 16 -49 5z"/>
<path d="M3637 3722 c6 -15 5 -16 -12 -2 -17 14 -17 14 -4 -8 8 -12 15 -18 17
-12 2 6 8 8 13 4 5 -3 9 1 9 9 0 8 -7 17 -14 20 -11 4 -13 1 -9 -11z"/>
<path d="M3526 3722 c-3 -5 1 -9 9 -9 8 0 15 4 15 9 0 4 -4 8 -9 8 -6 0 -12
-4 -15 -8z"/>
<path d="M3550 3660 c0 -5 5 -10 11 -10 5 0 7 5 4 10 -3 6 -8 10 -11 10 -2 0
-4 -4 -4 -10z"/>
<path d="M3230 3635 c0 -8 6 -15 13 -15 8 0 14 7 14 15 0 8 -6 15 -14 15 -7 0
-13 -7 -13 -15z"/>
<path d="M3513 3635 c0 -8 4 -12 9 -9 5 3 6 10 3 15 -9 13 -12 11 -12 -6z"/>
<path d="M3971 3271 c-1 -20 1 -21 14 -11 16 14 21 25 6 16 -5 -4 -12 0 -14 6
-3 7 -6 2 -6 -11z"/>
<path d="M3986 3195 c4 -8 8 -15 10 -15 2 0 4 7 4 15 0 8 -4 15 -10 15 -5 0
-7 -7 -4 -15z"/>
<path d="M3787 3015 c-8 -19 13 -31 24 -14 13 20 11 29 -5 29 -8 0 -16 -7 -19
-15z"/>
<path d="M3967 2904 c-3 -5 1 -15 9 -22 16 -14 18 -5 5 17 -5 7 -11 9 -14 5z"/>
<path d="M3941 2830 c-12 -27 -14 -68 -7 -102 4 -17 2 -28 -4 -28 -6 0 -8 -4
-5 -10 3 -5 1 -10 -4 -10 -18 0 -13 -28 8 -49 11 -11 28 -18 38 -16 10 2 20 4
23 4 3 1 7 29 8 62 3 56 2 61 -15 54 -48 -19 -49 -19 -30 2 18 20 24 69 8 58
-5 -3 -12 5 -14 17 -2 13 -5 21 -6 18z"/>
<path d="M3895 2760 c-3 -5 -1 -10 4 -10 6 0 11 5 11 10 0 6 -2 10 -4 10 -3 0
-8 -4 -11 -10z"/>
<path d="M45 1960 c4 -7 -2 -9 -19 -6 -25 5 -26 3 -26 -50 0 -34 4 -53 10 -49
6 3 10 13 10 21 0 8 7 14 15 14 8 0 21 13 29 28 13 26 13 29 -6 41 -12 7 -17
8 -13 1z"/>
<path d="M67 1845 c-3 -7 3 -15 14 -18 11 -3 19 0 19 8 0 18 -27 27 -33 10z"/>
<path d="M117 1846 c-4 -10 -5 -21 -2 -24 9 -9 17 6 13 25 -3 17 -4 17 -11 -1z"/>
<path d="M0 1429 c0 -12 7 -19 19 -19 12 0 18 6 17 17 -4 24 -36 26 -36 2z"/>
<path d="M100 1290 c-7 -16 -16 -27 -20 -25 -5 3 -12 0 -16 -6 -4 -8 -3 -9 4
-5 7 4 12 4 12 1 0 -11 -28 -36 -37 -33 -19 7 -18 -48 1 -55 10 -4 13 -1 10 8
-4 9 0 12 13 9 24 -6 64 27 66 54 1 17 6 22 19 19 9 -3 19 2 22 10 8 20 8 20
-10 27 -8 3 -12 2 -9 -3 3 -5 1 -12 -5 -16 -5 -3 -10 0 -10 8 0 8 -6 20 -14
26 -11 9 -16 5 -26 -19z"/>
<path d="M227 1240 c3 -9 11 -17 19 -17 11 0 11 3 1 16 -10 12 -9 14 6 8 10
-4 16 -3 12 2 -10 17 -42 8 -38 -9z"/>
<path d="M0 1224 c0 -8 5 -12 10 -9 6 3 10 10 10 16 0 5 -4 9 -10 9 -5 0 -10
-7 -10 -16z"/>
<path d="M4 1110 c1 -16 5 -32 9 -36 9 -9 20 42 12 55 -12 21 -23 11 -21 -19z"/>
<path d="M3957 763 c3 -7 9 -10 14 -7 14 8 11 21 -5 21 -8 0 -12 -6 -9 -14z"/>
<path d="M3956 714 c-3 -8 -2 -13 3 -9 5 3 11 0 13 -7 3 -7 7 -8 10 -3 3 6 0
15 -7 22 -10 10 -14 9 -19 -3z"/>
<path d="M15 669 c-4 -6 -5 -13 -2 -16 7 -7 27 6 27 18 0 12 -17 12 -25 -2z"/>
<path d="M115 669 c-10 -15 3 -25 16 -12 7 7 7 13 1 17 -6 3 -14 1 -17 -5z"/>
<path d="M3987 664 c-4 -4 -26 -9 -49 -11 -24 -3 -48 -9 -55 -15 -7 -6 -20 -8
-28 -4 -11 4 -14 2 -10 -7 4 -6 -1 -3 -10 8 l-17 20 2 -20 c4 -34 0 -46 -10
-40 -5 3 -10 1 -10 -4 0 -10 13 -14 52 -14 10 0 15 -3 13 -7 -7 -11 15 -17 42
-12 19 3 21 7 12 23 -8 15 -6 19 6 19 9 0 18 6 21 14 3 9 12 12 21 9 11 -4 14
-2 9 5 -5 8 -2 10 8 6 11 -4 16 0 16 15 0 22 -3 25 -13 15z"/>
<path d="M90 638 c0 -10 -5 -18 -12 -18 -8 0 -7 -6 4 -16 12 -12 20 -14 34 -5
18 10 18 10 1 11 -10 0 -16 4 -13 8 2 4 1 14 -5 22 -7 13 -9 12 -9 -2z"/>
<path d="M1 526 c-1 -24 1 -27 14 -16 16 14 21 25 6 15 -5 -3 -12 3 -14 12 -3
11 -5 6 -6 -11z"/>
<path d="M46 543 c-3 -3 -6 -16 -5 -27 0 -15 2 -17 6 -6 3 8 10 18 16 21 6 4
6 9 -1 12 -5 4 -12 4 -16 0z"/>
<path d="M3926 541 c-3 -5 1 -11 9 -15 9 -3 15 0 15 9 0 16 -16 20 -24 6z"/>
<path d="M3796 514 c-10 -7 -23 -15 -28 -16 -5 -2 -1 -18 8 -36 12 -25 22 -32
38 -30 11 2 20 9 19 15 -2 7 6 10 16 8 15 -3 18 2 17 25 -1 16 -4 31 -7 35
-13 12 -45 12 -63 -1z"/>
<path d="M96 483 c-14 -14 -26 -33 -26 -43 0 -9 -11 -22 -25 -28 -16 -7 -23
-17 -19 -27 3 -8 2 -15 -4 -15 -6 0 -13 6 -15 13 -3 6 -6 -5 -6 -26 -1 -23 3
-36 9 -32 6 3 10 0 10 -7 1 -8 6 -5 16 7 8 11 12 26 9 34 -4 10 -2 11 8 3 16
-14 34 -3 39 23 5 31 38 46 62 30 16 -12 23 -12 48 1 27 14 34 38 12 39 -22 2
-54 17 -49 24 2 5 -6 13 -20 19 -20 9 -27 7 -49 -15z"/>
<path d="M3874 473 c3 -6 3 -19 0 -28 -6 -13 -9 -14 -16 -3 -8 10 -9 10 -5 -2
5 -20 33 -25 40 -6 3 8 -1 22 -9 33 -9 10 -13 13 -10 6z"/>
<path d="M3470 418 c0 -9 -9 -19 -19 -23 -12 -3 -19 -14 -18 -26 1 -10 6 -17
12 -15 5 2 9 8 8 14 -2 6 3 9 11 6 7 -3 19 2 26 11 11 13 11 19 -3 33 -16 15
-17 15 -17 0z"/>
<path d="M3924 355 c-24 -23 -25 -25 -7 -25 11 0 25 11 31 25 6 14 10 25 7 25
-2 0 -16 -11 -31 -25z"/>
<path d="M1230 361 c0 -6 4 -13 10 -16 6 -3 7 1 4 9 -7 18 -14 21 -14 7z"/>
<path d="M1216 327 c3 -10 9 -15 12 -12 3 3 0 11 -7 18 -10 9 -11 8 -5 -6z"/>
<path d="M116 321 c-3 -5 3 -11 13 -14 14 -3 18 -1 14 9 -6 16 -19 18 -27 5z"/>
<path d="M2323 295 c-18 -19 -16 -33 5 -43 23 -13 42 -4 42 19 0 10 5 19 11
19 5 0 7 -5 3 -11 -4 -7 -1 -10 7 -7 8 3 20 -1 27 -9 16 -16 32 -17 32 -2 0 5
-4 7 -10 4 -5 -3 -10 1 -10 10 0 21 -41 36 -59 21 -11 -8 -15 -8 -18 2 -6 16
-15 15 -30 -3z"/>
<path d="M2231 284 c0 -11 3 -14 6 -6 3 7 2 16 -1 19 -3 4 -6 -2 -5 -13z"/>
<path d="M1880 278 c0 -4 7 -8 15 -8 8 0 15 4 15 8 0 5 -7 9 -15 9 -8 0 -15
-4 -15 -9z"/>
<path d="M3950 271 c0 -8 -3 -11 -7 -8 -6 7 -32 -22 -33 -36 0 -5 10 -7 23 -5
14 2 21 -2 19 -10 -1 -8 2 -11 8 -7 6 3 8 11 4 16 -3 6 1 18 8 27 30 34 30 42
4 40 -15 -1 -26 -9 -26 -17z"/>
<path d="M42 233 c-13 -25 -18 -42 -13 -38 6 3 16 -5 22 -19 7 -14 20 -28 31
-32 10 -3 16 -9 14 -13 -3 -4 1 -8 9 -8 8 0 15 6 15 14 0 7 6 13 14 13 16 0
29 27 20 41 -3 5 0 9 5 9 20 0 11 20 -11 30 -13 5 -17 9 -10 9 7 1 10 6 7 11
-4 6 -11 8 -16 5 -5 -4 -9 -1 -9 5 0 6 -4 8 -10 5 -5 -3 -18 -2 -27 3 -15 8
-22 2 -41 -35z"/>
<path d="M1750 267 c0 -9 4 -18 9 -21 5 -3 11 -15 14 -26 4 -16 2 -18 -13 -10
-13 7 -21 7 -25 0 -3 -5 -5 -10 -3 -11 50 -12 76 -6 59 15 -7 8 -8 16 -4 18 4
1 -2 14 -14 27 -18 19 -23 20 -23 8z"/>
<path d="M2015 262 c2 -2 -7 -14 -20 -27 -28 -25 -23 -38 10 -25 13 5 25 6 29
3 3 -3 12 -3 21 0 21 9 -1 56 -26 54 -10 -1 -16 -3 -14 -5z"/>
<path d="M444 251 c4 -6 1 -14 -8 -17 -16 -6 -11 -34 7 -34 6 0 7 3 4 6 -3 4
-2 15 3 25 7 12 6 20 -2 25 -7 4 -8 3 -4 -5z"/>
<path d="M2158 230 c-7 -16 -16 -26 -22 -23 -5 3 -6 1 -3 -4 4 -6 0 -16 -9
-23 -8 -7 -13 -19 -10 -26 3 -7 1 -16 -3 -19 -16 -9 1 -45 20 -45 11 0 19 5
19 10 0 6 7 10 16 10 13 0 14 -3 5 -14 -9 -10 -8 -16 4 -26 10 -8 13 -23 10
-41 -5 -28 -4 -29 35 -29 30 0 40 4 40 16 0 9 -5 12 -12 8 -8 -5 -7 -1 2 10
16 21 24 56 12 56 -17 0 -21 -14 -9 -29 11 -14 10 -14 -6 -2 -12 10 -15 17 -7
25 19 19 10 29 -10 11 -20 -18 -21 -18 -15 1 6 19 6 19 -6 0 -11 -18 -12 -17
-24 10 -10 23 -10 34 1 56 8 15 11 33 8 41 -3 8 -1 18 5 22 17 10 13 22 -9 28
-14 4 -23 -2 -32 -23z m52 -172 c0 -12 -6 -9 -26 13 -19 22 -19 22 4 8 12 -8
22 -17 22 -21z"/>
<path d="M1878 233 c7 -3 16 -2 19 1 4 3 -2 6 -13 5 -11 0 -14 -3 -6 -6z"/>
<path d="M743 213 c-20 -8 -15 -23 7 -23 11 0 20 -5 20 -12 0 -15 15 0 15 15
1 21 -19 30 -42 20z"/>
<path d="M890 205 c0 -9 5 -15 11 -13 6 2 11 8 11 13 0 5 -5 11 -11 13 -6 2
-11 -4 -11 -13z"/>
<path d="M1 194 c0 -11 3 -14 6 -6 3 7 2 16 -1 19 -3 4 -6 -2 -5 -13z"/>
<path d="M592 173 c-7 -6 -12 -20 -12 -29 0 -13 3 -14 14 -5 10 9 15 9 18 1 2
-7 11 -3 22 9 12 13 14 21 7 21 -7 0 -10 4 -6 9 8 14 -30 9 -43 -6z"/>
<path d="M2265 180 c-3 -6 1 -7 10 -4 10 4 15 2 13 -6 -2 -7 5 -14 14 -15 14
-3 15 0 5 16 -13 21 -32 25 -42 9z"/>
<path d="M745 170 c3 -5 8 -10 11 -10 2 0 4 5 4 10 0 6 -5 10 -11 10 -5 0 -7
-4 -4 -10z"/>
<path d="M1836 173 c-4 -4 -13 -8 -19 -8 -6 0 -17 -10 -23 -23 -10 -20 -13
-21 -24 -7 -16 19 -33 5 -24 -19 4 -11 10 -13 18 -7 8 7 21 3 40 -14 22 -19
33 -22 47 -14 11 5 19 12 19 15 0 3 -4 3 -9 -1 -5 -3 -12 -2 -15 3 -2 4 4 8
14 9 22 2 35 -13 20 -22 -17 -11 -11 -44 10 -55 11 -6 20 -7 20 -3 0 4 5 2 12
-5 9 -9 16 -8 30 5 19 17 25 39 8 28 -5 -3 -10 -3 -10 1 0 9 41 44 51 44 10 0
5 28 -8 41 -15 15 -36 1 -28 -18 5 -13 3 -14 -10 -3 -13 11 -20 11 -41 0 -21
-12 -27 -11 -42 5 -9 10 -12 15 -5 11 7 -4 9 1 6 14 -3 11 -9 18 -13 15 -5 -3
-10 0 -12 6 -2 5 -7 7 -12 2z m91 -85 c2 -17 0 -19 -7 -8 -5 8 -6 18 -4 22 8
12 10 10 11 -14z"/>
<path d="M3980 154 c0 -8 5 -12 10 -9 6 3 10 10 10 16 0 5 -4 9 -10 9 -5 0
-10 -7 -10 -16z"/>
<path d="M465 150 c-11 -4 -23 -6 -27 -3 -5 2 -8 -1 -8 -6 0 -6 -3 -10 -7 -10
-5 1 -15 1 -22 0 -12 -1 -12 -4 -3 -13 17 -17 15 -31 -3 -24 -8 3 -15 0 -15
-7 0 -8 -4 -6 -10 3 -8 13 -10 12 -10 -2 0 -10 8 -18 18 -19 9 0 12 -3 5 -5
-7 -3 -9 -12 -6 -19 4 -11 10 -12 25 -4 14 8 23 8 31 0 6 -6 20 -11 32 -11 17
1 16 3 -8 16 -16 8 -25 20 -21 26 4 7 3 8 -4 4 -8 -5 -11 0 -8 16 3 13 5 26 5
31 1 4 15 7 32 7 17 0 28 -4 24 -10 -3 -5 0 -7 8 -4 7 2 14 11 14 19 0 8 -4
12 -8 9 -4 -2 -9 0 -11 5 -1 4 -12 5 -23 1z"/>
<path d="M533 125 c0 -8 4 -12 9 -9 5 3 6 10 3 15 -9 13 -12 11 -12 -6z"/>
<path d="M3516 118 c3 -4 0 -8 -6 -8 -7 0 -10 -6 -7 -12 2 -7 10 -12 17 -10 7
2 10 -3 7 -11 -3 -8 1 -14 9 -14 8 0 13 6 10 12 -2 7 1 18 7 25 9 10 8 12 -5
7 -11 -4 -15 -2 -12 7 3 7 -2 13 -10 13 -8 0 -13 -4 -10 -9z"/>
<path d="M715 100 c-3 -5 -1 -10 4 -10 6 0 11 5 11 10 0 6 -2 10 -4 10 -3 0
-8 -4 -11 -10z"/>
<path d="M3877 102 c-5 -7 -12 -10 -16 -8 -3 3 -7 -4 -7 -14 0 -10 4 -16 8
-14 4 3 8 1 8 -3 0 -5 7 -18 16 -29 15 -18 15 -18 10 0 -6 16 -4 17 9 6 8 -7
15 -9 16 -4 0 5 4 -1 9 -13 9 -23 39 -27 56 -9 12 14 14 76 2 76 -5 0 -7 4 -4
9 8 12 -63 4 -79 -9 -10 -8 -14 -7 -17 7 -3 13 -6 15 -11 5z m53 -16 c0 -3 -4
-8 -10 -11 -5 -3 -10 -1 -10 4 0 6 5 11 10 11 6 0 10 -2 10 -4z"/>
<path d="M258 93 c7 -3 16 -2 19 1 4 3 -2 6 -13 5 -11 0 -14 -3 -6 -6z"/>
<path d="M492 93 c-10 -4 -10 -8 0 -21 11 -13 11 -15 -2 -8 -8 5 -4 -2 9 -15
16 -17 25 -20 28 -11 3 7 11 19 19 27 13 12 12 15 -5 25 -21 11 -29 11 -49 3z"/>
<path d="M2320 80 c0 -5 -7 -10 -15 -10 -8 0 -15 -5 -15 -11 0 -5 5 -7 12 -3
7 5 8 3 2 -7 -5 -8 -9 -18 -9 -24 -1 -5 -6 -9 -13 -8 -7 2 -12 -2 -12 -7 0 -6
10 -9 23 -7 39 7 56 18 50 34 -5 12 -7 12 -14 1 -6 -9 -9 -9 -9 -1 0 7 6 16
14 20 12 7 12 10 0 21 -8 7 -14 8 -14 2z"/>
<path d="M2383 83 c-7 -2 -13 -11 -13 -19 0 -9 5 -12 11 -8 7 4 7 -1 -1 -16
-11 -20 -10 -22 4 -17 9 4 16 2 16 -2 0 -14 47 11 60 32 7 12 8 17 1 12 -6 -3
-14 1 -17 9 -6 15 -36 20 -61 9z"/>
<path d="M3275 60 c-3 -5 -15 -10 -26 -10 -11 0 -17 -4 -14 -10 3 -5 1 -10 -4
-10 -6 0 -11 5 -11 11 0 5 -4 8 -10 4 -5 -3 -7 -12 -4 -20 4 -8 10 -12 15 -9
5 3 9 1 9 -3 0 -5 14 -10 30 -11 24 -2 30 2 30 18 0 11 -6 20 -12 20 -8 0 -5
7 6 15 11 8 15 15 9 15 -7 0 -15 -4 -18 -10z"/>
<path d="M642 34 c-21 -21 -22 -23 -5 -28 10 -3 39 -5 66 -5 39 1 47 5 47 21
0 10 -4 16 -10 13 -5 -3 -10 -1 -10 5 0 6 -5 8 -10 5 -6 -4 -7 -12 -3 -18 3
-7 -3 -3 -15 7 -12 11 -22 15 -22 10 0 -5 -4 -4 -8 1 -4 7 -16 2 -30 -11z"/>
<path d="M200 30 c-6 -11 -9 -20 -8 -21 52 -13 87 -6 69 15 -6 7 -9 15 -6 17
2 3 -7 6 -20 7 -16 1 -28 -6 -35 -18z"/>
<path d="M2104 42 c-6 -4 -13 -15 -17 -24 -5 -16 0 -18 38 -18 26 0 45 5 45
11 0 6 -7 9 -15 5 -8 -3 -14 -2 -12 2 1 4 -2 8 -7 9 -5 1 -12 6 -15 12 -4 5
-11 7 -17 3z"/>
<path d="M360 24 c0 -8 -4 -12 -10 -9 -5 3 -10 1 -10 -4 0 -6 7 -11 15 -11 8
0 15 9 15 20 0 11 -2 20 -5 20 -3 0 -5 -7 -5 -16z"/>
<path d="M2015 20 c-7 -11 -8 -11 23 -14 13 -2 26 2 29 7 3 6 1 7 -5 3 -7 -4
-12 -2 -12 3 0 14 -27 14 -35 1z"/>
<path d="M3432 18 c-8 -10 -4 -13 14 -14 14 -1 23 3 21 9 -5 17 -23 19 -35 5z"/>
<path d="M3724 21 c4 -5 0 -12 -6 -14 -7 -3 15 -6 50 -6 34 -1 62 1 62 3 0 2
-8 10 -17 17 -11 10 -14 10 -9 2 4 -7 2 -13 -3 -13 -6 0 -11 6 -11 13 0 8 -3
8 -9 -2 -8 -12 -14 -13 -36 -3 -14 7 -24 8 -21 3z"/>
</g>
</svg>
