<svg xmlns="http://www.w3.org/2000/svg" xmlns:xlink="http://www.w3.org/1999/xlink" width="1706.667" height="1277.333" viewBox="0 0 1280 958" preserveAspectRatio="xMidYMid meet" xmlns:v="https://vecta.io/nano"><g fill="gold"><path d="M179.3 1.1c1.4.8 2.2.8 3 0s.3-1.1-1.8-1.1c-2.6.1-2.8.2-1.2 1.1z"/><use xlink:href="#B"/><path d="M4.4 6.5C3.7 8.2 5.6 11 7.5 11s3.6-2.5 2.9-4.4c-.8-2-5.3-2.1-6-.1zm567.8-.3c-3 3 .1 7.3 3.6 5.1 2.3-1.4 2.5-2.9.7-4.7-2-1.9-2.7-2-4.3-.4z"/><use xlink:href="#C"/><path d="M1061.7 23.7c-1.3 1.2-.7 3.3.8 3.3.8 0 1.5-.9 1.5-2 0-2-1.1-2.6-2.3-1.3zM596.2 44.2c-2.7 2.7-.6 6.8 3.5 6.8 3.1 0 5.2-4.2 3.3-6.5-1.5-1.8-5.1-2-6.8-.3z"/><use xlink:href="#D"/><path d="M759.1 53.9c-1.6 2.8 1.4 5.1 3.6 2.8 1.3-1.3 1.4-1.9.3-3.1-1.7-2.1-2.7-2-3.9.3zm-126.5 0c-1 1.6.5 4.2 2.3 3.9 2.1-.4 2.1-4.2-.1-4.6-.9-.2-1.9.1-2.2.7zm359 0c-.4.7-.5 1.5-.2 1.8.9.9 1.9-.4 1.4-1.8-.4-1.1-.6-1.1-1.2 0z"/><use xlink:href="#E"/><use xlink:href="#F"/><path d="M29.2 69.2c-1.7 1.7-1.5 5.3.3 6.8 2 1.7 6.2.5 7-2.1 1.3-4-4.4-7.6-7.3-4.7z"/><use xlink:href="#G"/><path d="M900.9 75.6c-1.7 2.1 0 4.8 3.4 5.2 1.8.2 2.7-.2 3.2-1.8 1.3-4.1-3.8-6.8-6.6-3.4z"/><use xlink:href="#H"/><use xlink:href="#I"/><use xlink:href="#J"/><path d="M585.3 94.7c-1.9.7-1.6 5 .4 5.7 2.4 1 5.1-2 3.7-4.1-1.2-1.9-2.3-2.4-4.1-1.6zm130.4 10.9c-1.5 1.5-.7 6.3 1.3 7.4 3.3 1.7 6.2-.4 5.8-4.3-.3-2.7-.7-3.2-3.3-3.5-1.7-.2-3.4 0-3.8.4zm-28.2 1.8c-2 1.5-1.7 4.4.7 5.9 1.2.8 2.1.7 3.2-.2 3.6-3-.1-8.5-3.9-5.7zm188.2-.8c-1.3 1.3-.7 5.2.9 5.8 2.2.9 4.6-1.3 4.2-3.8-.3-2.1-3.7-3.4-5.1-2zm-93.3 1.8c-1.2 3.1 0 5.1 3.1 5.1 2.7 0 3-.3 3-3 0-2.5-.4-3-2.8-3.3-1.7-.2-2.9.2-3.3 1.2z"/><use xlink:href="#B" x="-184" y="106"/><path d="M654.5 113.6c-1.1 1.2-1.2 2-.5 3.5 1.2 2.2 3.3 2.5 4.9.5 2.5-3-1.6-6.7-4.4-4zm21.8 2.6c-4.8 5.3-5.5 10.3-2.3 15.6 5.1 8.3 17.7 7.4 21.1-1.5 3.3-8.7-2.5-16.3-12.4-16.3-3.2 0-4.9.6-6.4 2.2zM727 120c-1.1 1.1-2 2.7-2 3.5 0 2.2 3.9 5.7 5.7 5.1.8-.3 1.8-.6 2.2-.6 1.6 0 2.9-4.6 1.8-6.6-2.1-3.9-4.7-4.4-7.7-1.4z"/><use xlink:href="#K"/><path d="M456 130c0 1.3.7 2 2 2s2-.7 2-2-.7-2-2-2-2 .7-2 2z"/><use xlink:href="#L"/><use xlink:href="#H" x="749" y="63"/><path d="M574.2 140.2c-1.8 1.8-1.4 4.6.7 5.8 1.5.7 2.3.6 3.5-.6 2-1.9 2-2.9 0-4.8-1.9-1.9-2.6-2-4.2-.4zm532 3c-1.6 1.6-1.5 3.8.1 3.8 1.9 0 3.6-2 3-3.6-.6-1.7-1.5-1.8-3.1-.2zM977 146.1c0 2.5 3.3 2.2 3.8-.4.2-1.2-.3-1.7-1.7-1.7-1.5 0-2.1.6-2.1 2.1zm-453.7 1.6a18.11 18.11 0 0 1-1 2.5c-.2.5 0 .8.5.8s1.4-1.1 2-2.5c.7-1.6.8-2.5.1-2.5-.5 0-1.2.8-1.6 1.7zM408 154.2c0 .6 1.1 3 2.5 5.4s2.2 4.5 1.8 4.7c-2.1 1.3-7.4 1.7-9.1.8-1.3-.7-2.2-.7-3.1.2s-1.6.9-3.1-.1c-2.3-1.4-4-1.6-4-.3 0 .5 1.4 1.4 3.1 2s2.9 1.6 2.7 2.3c-.7 2-5 3.8-8.3 3.6-2.4-.3-3.1-.8-3.5-3.2-.3-1.6-1.1-3.1-1.7-3.4-2.2-.7-1.4 2.9 1.7 7.5 2.8 4.1 2.9 4.6 1.5 6.6-2.2 3.1-1.9 5.8 1 9.1 1.4 1.6 2.5 3.3 2.5 3.7 0 2.4 15.2 7 16.4 5 .4-.6 2.6-1.1 4.9-1.1s5.5-.7 7-1.5c2.5-1.3 2.8-1.3 3.3.3 1.5 4.9 4.7 10.2 7 11.7 2 1.3 2.3 1.9 1.4 3.1-.7.7-1 2.1-.6 2.9.8 2.1 3.7 1.9 4.3-.4.7-2.8 8.1-3.5 10.6-.9 4.5 4.6 11.4-1.4 7.9-7-.5-.7-.4-3.4.1-6.1 1.3-5.9-.1-9.8-4.7-13.9-2.7-2.4-3.2-3.4-2.8-6.3.3-2.8-.2-3.9-3-6.7-2.9-2.7-3.9-3.1-6.5-2.6-4.7.9-7.5 4.5-7.5 9.4.1 2.4-.3 3.8-.9 3.4-.6-.3-.9-1.8-.7-3.3.1-1.5-.7-4-1.9-5.6-1.1-1.7-2.2-3.9-2.4-5-.3-1.6-1.1-1.9-3.5-1.7-3.5.4-5-1.1-8.9-8.6-2.7-5.3-3.5-6.1-3.5-4zm149.5 4.8c.4.6 1.1.8 1.6.5 1.4-.9 1.1-1.5-.7-1.5-.8 0-1.2.5-.9 1z"/><use xlink:href="#M"/><path d="M529 170.5c-.9 1.1-1 1.9-.3 2.6 1.7 1.7 4.8.6 4.8-1.6 0-2.5-2.8-3.1-4.5-1zm224.4.9c-.9 2.4.4 4.8 2.3 4.4 1.2-.2 1.8-1.2 1.8-2.8 0-2.9-3.2-4.1-4.1-1.6z"/><use xlink:href="#N"/><path d="M973.1 184c-1.9 1.1-.6 4.1 1.4 3.4 1.6-.6 2-2.9.7-3.8-.4-.2-1.4-.1-2.1.4z"/><use xlink:href="#O"/><use xlink:href="#G" x="139" y="118"/><path d="M510.7 194.7c-1.3 1.2-.7 2.3 1.3 2.3 1.1 0 2-.7 2-1.5 0-1.5-2.1-2.1-3.3-.8zm146.4 3.7c-1.6 2-.5 5.3 2 6.1 2.7.9 5.1-1.3 4.7-4.4-.2-2-.9-2.7-2.9-2.9-1.4-.2-3.1.4-3.8 1.2zM409 199.7c-.9.2-2.8 2.3-4.4 4.6-2.2 3.4-2.6 4.9-2.2 7.9.9 5.3 4 10.1 6.8 10.3 1.3.2 3.7.8 5.5 1.6 2.8 1.1 3.7 1.1 6.7-.4 6.7-3.1 8.9-10.4 5.2-17.5-2.7-5.3-11-8.3-17.6-6.5z"/><use xlink:href="#C" x="-415" y="190"/><path d="M487.9 205.7c-2.4 6.5-4.9 14.3-4.9 15.8 0 2.1 1.7 1.9 2.9-.3.9-1.7 5.1-16.3 5.1-17.7 0-1.7-2.2-.1-3.1 2.2zm-483.4-.3c-1.2.9-1.5 1.9-1 3.5.9 3 5.9 2.6 6.3-.6.4-2.9-2.8-4.7-5.3-2.9zm497.6 2.8c-1 3-.9 3.1.4 1.4.8-1.1 1.5-2.6 1.5-3.3 0-2.2-.8-1.4-1.9 1.9z"/><use xlink:href="#J" x="11" y="124"/><use xlink:href="#P"/><path d="M689.1 208.4c-.9 1-.9 1.6-.1 2.1 1.7 1 3.7-1.2 2.4-2.5-.8-.8-1.5-.6-2.3.4zm-136.5 3.1c-1.9 2-2 2.6-.3 4.9.8 1.1 2.3 1.7 3.8 1.4 2-.2 2.4-.8 2.4-3.8 0-2.8-.4-3.6-2.1-3.8-1.2-.2-2.9.4-3.8 1.3zm-95.4 2.7c-1.4 1.4-1.5 4.7-.3 6.6 1.4 2.3 5.3 1 6.4-2.1 1.5-4.5-2.9-7.7-6.1-4.5zm128.2.2c-1.1 2.8.1 5.1 2.5 5.1 3.2 0 4.9-2.8 3.2-4.9-1.7-2-5-2.1-5.7-.2zm94.6 0a1.58 1.58 0 0 0 1.6 1.6c.9 0 1.4-.5 1.2-1.2-.6-1.8-2.8-2.1-2.8-.4z"/><use xlink:href="#G" x="636" y="141"/><path d="M432.9 221.2c-1.7 4.1-.2 6.3 4.2 6.3 3.1 0 3.4-.3 3.4-2.9 0-2.2-.7-3.3-3.2-4.7l-3.1-1.8-1.3 3.1zm187.6-.7c-2.2 1.3-4.9 2.5-5.9 2.5-4.2 0-10.8 4.3-13.6 8.6-3.2 5-4.6 11.9-2.9 14 .6.7.8 1.7.5 2.2s.7 2.9 2.3 5.4c6.5 10.2 20.6 11.8 29.5 3.3 6-5.8 7.2-14.5 3.3-23-1.3-2.8-2.2-5.6-1.9-6.3.7-2.2-1.8-6.9-4.4-8.1-3.1-1.4-2.2-1.5-6.9 1.4z"/><use xlink:href="#P" x="496" y="14"/><use xlink:href="#Q"/><path d="M689.3 224.6c-.3.8-.1 2 .5 2.6 1.6 1.6 4.2.2 4.2-2.2s-3.8-2.8-4.7-.4zm128.9-.4c-.7.7-1.2 2-1.2 3 0 2.3 2.7 7.8 3.9 7.8 1.5 0 3.1-2.6 3.7-6 .6-2.6.3-3.6-1.1-4.7-2.3-1.6-3.7-1.7-5.3-.1z"/><use xlink:href="#J" x="200" y="145"/><path d="M415.2 229.2c.5 1.5 2.8 1.8 2.9.3 0-.6-.7-1.2-1.7-1.3-1-.3-1.5.1-1.2 1zm757.1-.5c-.7.2-1.3 1.6-1.3 2.9 0 2.2.4 2.5 2.8 2.2 2.1-.2 2.7-.8 2.7-2.8 0-2.4-1.7-3.4-4.2-2.3zm-429.1 4.6c-3.2 1.5-6.5 8.2-5.7 11.6 1.1 4.5 3.5 7.2 8.1 9.1 3.1 1.4 4.4 2.5 4.4 3.9 0 3.2 4.8 8 9.1 9.1 3.4.9 4.6.8 7.7-.8 6.4-3.3 7.6-6.1 6.9-16.2-.2-2.6-.7-3.4-1.8-3.2-.9.1-2.9-.5-4.5-1.3s-3.9-1.5-5.1-1.5c-1.4 0-2.3-.6-2.3-1.5 0-2.9-3-7.5-6-9-3.4-1.7-7.5-1.8-10.8-.2z"/><use xlink:href="#G" x="222" y="160"/><path d="M1218.3 235.9c-7.1 4.5-7.5 12.3-.8 15.5 5 2.4 9 2 12.5-1.2 6.6-5.9 4.1-14.5-4.5-15.7-3-.4-4.8-.1-7.2 1.4z"/><use xlink:href="#F" x="809" y="168"/><path d="M482.7 236.7c-.3.5-.2 1.5.3 2.2 1 1.7 4.3.6 3.8-1.2-.6-1.5-3.4-2.2-4.1-1zm-318.5 2.5c.6 1.8 2.8 2.1 2.8.4a1.58 1.58 0 0 0-1.6-1.6c-.9 0-1.4.5-1.2 1.2zm299 1c-2.2 2.2-1.4 5.7 1.3 6.4 3.1.8 7.5-.3 7.5-1.8 0-.6.8-2 1.8-3.1 1.6-1.9 1.6-2-.5-1.5-1.3.4-2.6.2-2.9-.3-.8-1.3-5.8-1.1-7.2.3zm-66.7 1.8c-.3.5-2 1.6-3.8 2.5-4 1.9-8.6 7.6-10.4 12.9-1.3 3.5-1.2 4.8.3 10.5 2.2 8.3 5.2 12.3 12.3 16.5 5 2.8 6.4 3.2 12.2 3 7.4-.2 11.3-1.8 16.4-7 6.2-6.2 8-14.4 5.3-23.8-1.6-5.4-9-12.8-14.4-14.4-4.9-1.4-17-1.6-17.9-.2z"/><use xlink:href="#K" x="-230" y="114"/><path d="M1086.7 241.6c-.4.4-.7 1.6-.7 2.6 0 1.4.6 1.9 2.3 1.6 1.4-.2 2.2-1 2.2-2.3 0-2-2.5-3.2-3.8-1.9zm-303.1 1.3c-.4.5-.2 1.2.3 1.5.5.4 1.2.2 1.5-.3.4-.5.2-1.2-.3-1.5-.5-.4-1.2-.2-1.5.3z"/><use xlink:href="#G" x="231" y="171"/><path d="M717.5 247.6c-1.8 1.8-1.6 3.3.7 4.7 2.1 1.4 4.8.2 4.8-2.2 0-3-3.4-4.5-5.5-2.5zm-198.7.3c-4.7 1-6.2 2.2-8.9 7.7-2.1 4.5-2.1 4.6-.3 8.2 1.1 2 2.6 4.2 3.4 4.9 1.2 1 .9 1.2-2.2 1.3-5.3 0-8.5 1.8-10.3 5.7-1.4 2.8-1.4 3.9-.3 6.9 1.3 3.8 6.1 7.4 9.7 7.4 8.1 0 12.9-9.6 8-15.8-2-2.6-2-2.7-.2-3 10.6-1.6 13.3-4.3 13.3-13 0-4.1-.5-5.5-2.9-8.1-3-3.2-3.3-3.3-9.3-2.2z"/><use xlink:href="#K" x="-149" y="120"/><use xlink:href="#D" x="276" y="206"/><path d="M6.2 251.2c-1.5 1.8.1 4.1 2.4 3.6 2.3-.4 2.6-4.1.3-4.6-.9-.1-2.1.3-2.7 1zm841.7 3c-.6 1.3-1.8 2.7-2.5 3.1-2.6 1.5-1 6.7 2.1 6.7.7 0 2.7-1.9 4.5-4.1 2.6-3.2 3.1-4.5 2.3-5.8-1.6-2.6-5-2.5-6.4.1z"/><use xlink:href="#P" x="62" y="48"/><path d="M264.8 256.1c-2.4 1.4-2.3 6.1.2 8.4 4.5 4.1 11-1.8 7.6-7-1.7-2.6-4.8-3.2-7.8-1.4zm523.7-.2c-.6 1.1.9 2.3 1.9 1.4.9-.9.7-2.3-.3-2.3-.6 0-1.2.4-1.6.9zm-298.7 2.6c-.8 1.9-.8 2.8.2 4 2.8 3.3 8.8.8 7.3-3.1-1.5-4.1-5.8-4.6-7.5-.9zm454.4 3.6c.2.7 1 1.5 1.7 1.7.8.3 1.2-.1.9-.9-.2-.7-1-1.5-1.7-1.7-.8-.3-1.2.1-.9.9zm-457.3 5.6c-1.9.5-3.1 3.7-2.2 5.9.7 2 5 2.9 6.8 1.4 2.1-1.8 1.9-5.7-.4-7-1.1-.5-2.1-.9-2.3-.9-.2.1-1 .3-1.9.6zm196.2 2.9c-1.2 1.5-2.1 3-2.1 3.5 0 2.2 1.6 4.3 4.3 5.4 2.6 1.1 2.9 1.7 3.1 6 .2 6.2 3.7 9.5 9.9 9.5 6.4-.1 9.7-3.6 9.7-10.5 0-2.9-.7-4.4-3.2-6.7-2.8-2.6-3.8-2.9-7.5-2.5-4 .4-4.3.3-4.3-1.9 0-2.4-3.3-5.4-6.1-5.4-1 0-2.7 1.2-3.8 2.6zm250.9-1c0 .9.7 1.4 1.7 1.2 2.5-.5 2.8-2.8.4-2.8-1.2 0-2.1.6-2.1 1.6z"/><use xlink:href="#G" x="42" y="196"/><use xlink:href="#R"/><use xlink:href="#P" x="555" y="66"/><use xlink:href="#S"/><path d="M442.3 275.5c-6 7.5-1.7 18.5 7.2 18.5 5.1 0 7.4-1.1 9.5-4.5 2.8-4.5 2.5-8.4-.8-12.4-2.4-2.9-3.6-3.5-8.3-3.8-4.9-.5-5.6-.3-7.6 2.2zm134.5.5c-2.4 1.8-2.8 2.9-2.8 7 0 4.2.4 5.2 3.1 7.4 3.5 3 5.8 3.2 9.8 1.1 5.3-2.7 6.5-11 2.1-15-3.1-2.8-9-3.1-12.2-.5zm154.1 1.3c-2.2 1.4-3.9 3.7-4.7 6.2-4.3 12.8 15.2 17.8 20.3 5.3 2.2-5.5 1.9-7.6-1.4-10.9-3.7-3.7-9.2-3.9-14.2-.6zm-178 2c-3.1 2.1-3.4 2.8-3.7 7.7-.3 5.1 0 5.8 3.1 8.8l3.4 3.3 4.4-1.7c2.4-.9 4.9-2.2 5.4-2.9.6-.6 1.6-1.1 2.3-.9.7.1.8 0 .2-.3s-.8-1.8-.4-3.8c.4-2.3 0-4.4-1.5-7.2-3-6-7.3-7-13.2-3zm238.3-.7c.4 2.1 2.2 2.3 2.6.1.2-1-.3-1.7-1.3-1.7s-1.5.6-1.3 1.6z"/><use xlink:href="#I" x="163" y="197"/><path d="M265.7 280.4c-.3.8.1 2 .9 2.7 1.2 1 1.8.9 3.1-.3.8-.9 1.2-2.1.9-2.7-1-1.6-4.3-1.4-4.9.3z"/><use xlink:href="#T"/><path d="M767.2 285.2c-1.8 1.8-1.4 2.8.8 2.8 1.1 0 2-.6 2-1.4 0-2.1-1.5-2.7-2.8-1.4zm15.1 2.3c-1.9 3.9-.7 6.5 3.1 6.5 4.7 0 6.3-5.7 2.4-8.4-3.1-2.2-3.6-2.1-5.5 1.9z"/><use xlink:href="#G" x="431" y="211"/><path d="M110.3 285.7c-2.1.8-1.5 4.3.6 4.3 1.1 0 2.3-.5 2.7-1.1.8-1.4-1.7-3.8-3.3-3.2zm862.5.4c-1 .5-1.8 1.8-1.8 2.9 0 1-1.3 3.2-3 4.8-3.7 3.8-3.8 7.1-.4 11.1 2 2.4 3.4 3.1 6.1 3.1 6.7 0 12.3-9.3 7.7-13.1-1-.8-1.3-2.1-.9-3.7 1.1-4.5-3.6-7.6-7.7-5.1zM1089 288c0 .5.4 1 .9 1 .6 0 1.3-.5 1.6-1 .3-.6-.1-1-.9-1-.9 0-1.6.4-1.6 1z"/><use xlink:href="#K" x="-376" y="161"/><path d="M334.8 290.1c-2.2 1.3-2.4 6.2-.2 8.3 3.4 3.4 8.4.8 8.4-4.4 0-4.2-4.3-6.2-8.2-3.9zm461.5-.4c-1.6.6-1.7 3.5-.1 5.1.9.9.9 1.2 0 1.2-2.3 0-6.2 4.8-6.2 7.6 0 2.6 3.2 6.5 6.4 7.7 4.1 1.6 9.6-3.1 9.6-8.2 0-2.4-3.7-7.1-5.6-7.1-1.1 0-1.2-.4-.2-1.9.9-1.5.9-2.3-.1-3.5-1.4-1.7-1.8-1.8-3.8-.9z"/><use xlink:href="#U"/><path d="M516 292c-4 4-1.2 10.2 4.6 10.2 5.5 0 7.8-6.9 3.4-10.4-2.9-2.3-5.5-2.3-8 .2zm296.7-.6c-.7 1.7 1.8 4 3.3 3.1.5-.3 1-1.5 1-2.6 0-2.3-3.5-2.7-4.3-.5zm-283 .2c-.4.4-.7 1.6-.7 2.6 0 1.3.7 1.8 2.6 1.8 2.1 0 2.5-.4 2.2-2.2-.3-2.3-2.7-3.5-4.1-2.2zm397 1.8c-.7 1.8.1 2.6 2.5 2.6 1.3 0 1.8-.6 1.6-1.7-.4-2.2-3.4-2.9-4.1-.9zm-640.8 1.8c-1 1.8-.8 2.4.7 3.5 2.1 1.5 3.4 1.3 4.8-.9.7-1.2.6-2.1-.3-3.2-1.9-2.2-3.8-2-5.2.6z"/><use xlink:href="#S" x="-277" y="23"/><path d="M833.6 297.6c-2.4 2.3-2.6 2.8-1.3 4.1 1.2 1.2 1.8 1.2 3.4.2 4-2.4 5.2-6.9 2-6.9-.7 0-2.5 1.2-4.1 2.6z"/><use xlink:href="#G" x="731" y="224"/><path d="M941.2 300.2c-3.3 3.3.1 7.8 4.7 6.3 2.4-.7 3.1-2.4 2-5.3-.9-2.4-4.7-3-6.7-1zm-114.7 1.2c-2 1.5-1.5 4.6.8 4.6 2 0 4-2.7 3.3-4.5-.7-1.9-1.7-1.9-4.1-.1zm-254.4 2.2c-2.7 3.5-2.6 5.9.4 8.9 4.7 4.8 11.5 1.9 11.5-4.8 0-6.6-7.8-9.3-11.9-4.1zm158.6 1.8c-.3.8.1 2 .9 2.7 1.2 1 1.8.9 3.1-.3.8-.9 1.2-2.1.9-2.7-1-1.6-4.3-1.4-4.9.3zm-55.4.6c-1.8.4-3.9 1.3-4.7 2-2.9 2.4-5.5 9.5-5.7 15.7-.2 6.5 1 9.3 4 9.3.9 0 3.5.7 5.8 1.5 10.9 3.8 23.6-5.1 21.8-15.4-1.1-6.8-2.6-9.1-7.1-11.1-5.1-2.4-9.7-3-14.1-2zm254.6 1.2c-.7 3.4-.7 9.4.2 10.4.6.7 2.7 1.6 4.8 2 2 .3 4.6 1.3 5.9 2.1 3 1.8 6 .8 6.8-2.3.8-3.2-.7-4.8-7.5-8l-7.3-3.5c-1.8-.9-2.8-1.1-2.9-.7z"/><use xlink:href="#Q" x="227" y="87"/><use xlink:href="#G" x="-25" y="240"/><path d="M31.8 315.7c-12.1 5.1-15.8 16.3-8.5 25.7 4.3 5.4 9.8 7.6 16.7 6.5 9.6-1.5 15-9.4 13.5-19.6-.6-3.9-1.5-5.6-5-8.9-3.6-3.5-5.1-4.2-9-4.6-2.6-.2-6 .2-7.7.9z"/><use xlink:href="#B" x="37" y="311"/><path d="M822.6 316.6c-.9.8-1.6 1.8-1.6 2.2.1 3.8 6.3 4.2 6.8.5.4-3-3.1-4.9-5.2-2.7zm-258.4.6c-2.9 2.9-.1 7.8 4.4 7.8 3.2 0 5.1-3.8 3.5-6.9-1.3-2.3-5.9-2.9-7.9-.9zm268.4 2c-2.6 3.6-2 8.5 1.3 11.9 5.1 5 12.1 2.9 12.1-3.7 0-4.1-2.2-8.9-4.5-9.8-3.5-1.3-7.4-.6-8.9 1.6zm-516.2.3c-.9 2.3.3 4.5 2.5 4.5 2.3 0 3.5-2.8 2-4.6s-3.8-1.8-4.5.1z"/><use xlink:href="#V"/><path d="M922.1 321.6c-3.4 2.8-4 6.3-1.9 10.8 1 2.3.8 2.9-1.5 5-5.6 5.2-2.2 13.9 5.8 15 4.7.7 5.7.2 7.9-4.2 1.6-3.2 1.6-3.5-.3-6.8-1.2-1.9-2.1-3.7-2.1-3.9 0-.3 1.6-1.1 3.5-1.9 5.9-2.5 6.3-10.5.6-14.3-4.4-3-8.2-2.9-12 .3z"/><use xlink:href="#W"/><path d="M1034.2 322.2c.6 1.8 2.8 2.1 2.8.4a1.58 1.58 0 0 0-1.6-1.6c-.9 0-1.4.5-1.2 1.2zm-396.9 2.4c-6.5 5.1-2.3 13.6 5.2 10.8 3-1.2 3.7-5.2 1.8-9.5-1-2.1-2.2-3.9-2.8-3.9-.5 0-2.5 1.2-4.2 2.6zm60.7-.1c0 .8.9 1.5 2 1.5s2-.7 2-1.5-.9-1.5-2-1.5-2 .7-2 1.5zm176-.1c0 .8.4 1.7.9 2 1.1.7 3.3-1.8 2.4-2.7-1.2-1.2-3.3-.7-3.3.7zm-155.8.8c-1.6 1.6-1.5 3.3.3 4.8 2.4 2 6.7-.3 6.3-3.3-.3-2.5-4.5-3.6-6.6-1.5zM612 326.3c-1.3.7-2.9 2.5-3.5 4.1-.8 2.5-.6 3.1 1.8 5.2 3 2.6 7.6 3.1 9.5 1.2 1.3-1.3 1.6-7.6.4-9.5s-5.5-2.4-8.2-1zm148 2.5c-2.4 1.9-2.1 4.2.5 4.2 1.4 0 3.5-2.9 3.5-4.9 0-1.6-1.5-1.3-4 .7zm-233.6 1.7c-.4.8-.3 2.2 0 3.1.8 2.1 5 1.4 5.4-1 .6-3.1-4.3-5-5.4-2.1zm46.7-.6c-1.5 1-.8 4.1.9 4.1 1.5 0 2.5-2.9 1.4-4-.5-.5-1.5-.5-2.3-.1zm297.1 1.3c-3.3 3.3.6 9.6 5.2 8.4 2.9-.7 4.5-4.9 2.9-7.5-1.3-2-6.4-2.6-8.1-.9zm344.8 1.3c-2 2.5-.8 5 2.5 5 2.4 0 3.1-.5 3.3-2.4.6-3.7-3.4-5.5-5.8-2.6z"/><use xlink:href="#W" x="-71" y="14"/><path d="M456 340c-.6 1.2-.9 2.4-.7 2.7.3.2 1.1-.5 1.7-1.7s.9-2.4.7-2.7c-.3-.2-1.1.5-1.7 1.7z"/><use xlink:href="#D" x="-131" y="295"/><path d="M675.4 340.6c-.9 3.4 1.5 5.9 4.9 5 5.1-1.2 4-7.6-1.3-7.6-2.4 0-3.1.5-3.6 2.6zm77.6-1.1c-.7.8-1 2.5-.6 4 .5 2 1.3 2.5 3.6 2.5 1.9 0 3.3-.7 4-1.9 1.3-2.5 1.3-2.7-.6-4.5-2-2-4.8-2-6.4-.1z"/><use xlink:href="#O" x="-346" y="155"/><path d="M718.6 340.7c-.4.9 0 2.3.9 3.2 1.3 1.4 1.7 1.4 3.1-.1.9-.9 1.4-2.4 1.1-3.2-.8-2.1-4.3-2-5.1.1zm45.6-.5c-3.1 3.1 1 7.5 4.3 4.8 1.9-1.6 1.9-2.5-.1-4.4-1.9-1.9-2.6-2-4.2-.4zm-203 1.4c-2.7 1.8-2.9 5.5-.4 7.7 3.7 3.4 9.2 1.1 9.2-3.8 0-2.3-3.2-5.5-5.5-5.5-.6 0-2.1.7-3.3 1.6zm-271.3.9c-3.4 1.8-5.1 5.9-4.3 10.1.6 3.2 2.6 5.8 6.7 8.7 1.6 1.1 1.7 1.6.6 4.2-1.9 4.6-1.9 7.6.3 13.1 1.7 4.5 2.6 5.5 7.1 7.7 11.2 5.5 22 .4 24.1-11.5 1.1-5.9-3.1-13.1-9.4-16.3-2.7-1.4-5.6-2.5-6.5-2.5-1 0-1.5-1-1.5-3.5 0-1.9-.5-4.6-1.2-6-2.3-5-10.3-7-15.9-4z"/><use xlink:href="#X"/><path d="M345 344.5c-1 1.2-1 1.8 0 3 2 2.5 5.5 1.5 5.5-1.5s-3.5-4-5.5-1.5zm181.5 1.3c-3.3 2.3-4.1 3.5-4.3 6.4-.4 5 2.4 7.8 7.7 7.8 3.1 0 4.4-.6 6-2.6 1.2-1.5 2.1-3.4 2.1-4.2 0-2.3-4.9-10.2-6.3-10.2-.7.1-3 1.3-5.2 2.8zm22.8-2.1c-2.1.8-1.5 4.3.6 4.3 1.1 0 2.3-.5 2.7-1.1.8-1.4-1.7-3.8-3.3-3.2zm320.9.5c-2.6 2.6-.3 8.8 3.2 8.8 1.7 0 4.2-2.2 4.9-4.3 1.3-3.7-5.3-7.3-8.1-4.5zm146.5.6c-2.2 2.5-2.1 7.5.1 9.5 2.3 2.1 8.6 2.2 10.6.1.9-.8 1.6-2.8 1.6-4.4 0-5.6-8.7-9.2-12.3-5.2zm-624.3.7c-.7 1.8.3 3.5 2.1 3.5 2.1 0 2.8-1.9 1.5-3.5-1.6-1.9-2.9-1.9-3.6 0zm516.3-.8c-1.5 1.4-.7 4.3 1.2 4.3 2.3 0 3.4-2.3 1.8-3.9-1.3-1.3-2.1-1.4-3-.4zM361 347.2c0 .7.5 2 1 2.8.8 1.2 1 1.1 1-.7 0-1.2-.4-2.5-1-2.8-.5-.3-1 0-1 .7zm279.3.2c-4.4 2.1-3.5 6.6 1.3 6.6 2.9 0 3.7-1.3 2.9-5-.7-3.2-.9-3.3-4.2-1.6zm68.1-.3c-.3.6 0 1.7.8 2.5 1.3 1.3 1.6 1.3 2.7 0 .7-.8 1-2 .6-2.6-.8-1.3-3.2-1.3-4.1.1zm-13.3 3.8c-1.9 1.2-.6 4.3 1.6 3.9 1-.2 1.8-1.2 1.8-2.2 0-2.2-1.4-2.9-3.4-1.7zm158.9.6c-1.6 2-.6 4.5 1.9 4.5 2 0 3.7-3.2 2.6-5-.9-1.5-3.1-1.2-4.5.5z"/><use xlink:href="#G" x="521" y="278"/><path d="M745.3 352.7c-1.9.7-1.6 5.3.3 6 1.8.7 4.5-.6 5.1-2.4.4-1.1-2.3-4.4-3.5-4.2-.4 0-1.3.3-1.9.6zm37.3 3.9c-3.7 3.7-.1 10.3 4.9 9 1.4-.4 3.1-1.7 3.7-3.1 2.3-5.2-4.6-10-8.6-5.9zm88.6 2.7c-4.9 5-6.8 10.1-5.2 14.2.9 2.2.7 2.9-1.1 4.4-1.5 1.2-2 2.3-1.5 3.8.9 2.8 3.2 3.6 5 1.7 1.3-1.3 1.9-1.2 5.3.6 13.5 7.2 28.4-7.3 21.5-21-2.6-5.3-7.4-8-14.1-8-5.4 0-5.9.2-9.9 4.3z"/><use xlink:href="#H" x="130" y="281"/><path d="M611.5 358c-.9 1.5 1.4 4 3.1 3.3 2.2-.8 1.8-4.3-.5-4.3-1.1 0-2.3.5-2.6 1zm148.5 2c-2.6 2.6-2.5 4.6.5 7.5 2.9 3 5.8 3.2 8.5.5 2.6-2.6 2.5-5.2-.3-7.8-2.9-2.7-6.1-2.8-8.7-.2zm-83.3-.4c-1.3 1.3-.7 2.4 1.4 2.4 1.1 0 1.9-.5 1.7-1.2-.5-1.4-2.2-2.1-3.1-1.2z"/><use xlink:href="#B" x="10" y="355"/><path d="M408 365c-2.4 2.4-2.5 4.8-.4 7.8 3.1 4.4 10.4 1.6 10.4-4 0-2.4-3.5-5.8-6-5.8-1.1 0-2.9.9-4 2zm325.6-.7c-2.4 1.8-1.7 5.1 1.2 5.5 1.2.2 2.7 1.2 3.2 2.3 1.2 2.1 3.5 2.5 4.5.8.4-.5 0-1.8-.9-2.8s-1.6-2.4-1.6-3.2c0-1.8-1.9-3.9-3.5-3.9-.6 0-1.9.6-2.9 1.3zm543.4.3c0 .8.5 1.2 1 .9.6-.3 1-1 1-1.6 0-.5-.4-.9-1-.9-.5 0-1 .7-1 1.6z"/><use xlink:href="#T" x="-697" y="83"/><path d="M390.5 366c-.7 1.2.2 3 1.6 3 1.2 0 1.2-2.7 0-3.5-.5-.3-1.2-.1-1.6.5zm190.9 1.8c-1.7 1.5-4.1 4.2-5.3 6-2.2 3.1-2.3 3.7-1.2 9 1.3 6.6 4.7 10.7 10.2 12.4 4.9 1.4 10.1.3 14-2.9 3.9-3.3 5.2-6.5 5-12.8-.2-7.5-5.7-12.6-15.1-13.8-3.9-.6-4.9-.3-7.6 2.1zm219.1-1.8c.4.6 1.1.8 1.6.5 1.4-.9 1.1-1.5-.7-1.5-.8 0-1.2.5-.9 1zm25.7.2c-.7.7-1.2 2.1-1.2 3.3 0 4.4 6 6.3 8 2.6 1.4-2.7 1.3-3.7-.6-5.5-1.8-1.9-4.5-2.1-6.2-.4zm125.5 5.5c-.4.3-.7 1.7-.7 3 0 1.6-.6 2.3-1.9 2.3-2 0-3.5 2.5-2.5 4.1 1 1.7 4.6.9 5.1-1.1.3-1.1 1.3-2 2.3-2 2.5 0 4.3-2.5 3.5-5-.6-1.9-4.3-2.8-5.8-1.3zm-889.3 1.9c-5.7 2.8-7.3 11.1-3 15.7 2.9 3.1 6.4 4.2 11.2 3.3 6.3-1.2 9.4-9.5 5.7-15.6-2.9-4.9-8.2-6.2-13.9-3.4zm336.6.4c0 1.1.6 2 1.3 2 1.9 0 2.7-1 2-2.6-.8-2.1-3.3-1.7-3.3.6zm268 .4c-.7.9-1 2.7-.8 4 .4 2 0 2.5-2.4 3-4.5.9-8.8 6-8.8 10.5 0 10 11.5 14.4 18.6 7 3.5-3.7 3.8-9.5.6-13.9-1.8-2.4-1.9-2.9-.6-3.4 1.1-.4 1.4-1.7 1.2-4.3-.3-3.4-.6-3.8-3.4-4.1-1.9-.2-3.6.3-4.4 1.2z"/><use xlink:href="#G" x="-22" y="301"/><path d="M791 375.9c0 2.6 2.7 3.4 3.9 1.2 1.2-2.1.5-3.1-2.1-3.1-1.1 0-1.8.7-1.8 1.9zm197.5-.9c.3.5.8 1 1.1 1 .2 0 .4-.5.4-1 0-.6-.5-1-1.1-1-.5 0-.7.4-.4 1zM694 378.5c-1 1.1-1 1.9-.2 2.7 1.5 1.5 4.4.2 4-1.9-.4-2.3-2.2-2.7-3.8-.8zm-11 2.3l-2.3 1.9 2.1 2.1c2.6 2.6 4.5 2.8 6.6.6 1.9-1.9 2-3.6.4-5.2-1.7-1.7-4.2-1.5-6.8.6z"/><use xlink:href="#E" x="475" y="319"/><path d="M937 383.4c-2.7 3.3 1.8 7.2 4.8 4.2 1.3-1.3 1.4-2 .6-3.4-1.5-2.3-3.8-2.6-5.4-.8z"/><use xlink:href="#T" x="367" y="102"/><path d="M525.5 385.5l-3 1.3 3.7.7c4.7.9 8.8-.1 8.8-2s-5.3-1.9-9.5 0z"/><use xlink:href="#J" x="40" y="304"/><path d="M81.6 388.1c-3.5 2.8-3.6 8-.1 11.4 4.7 4.8 12 2.1 13.1-4.7 1.2-7.2-7-11.4-13-6.7zm736.6.5c.4 2.1 2.2 2.3 2.6.1.2-1-.3-1.7-1.3-1.7s-1.5.6-1.3 1.6zm-422.8 1.9c-.4.8-1 1.2-1.6.9-1.9-1.2-5.9.7-6.9 3.3-.7 1.9-.6 3.1.6 4.9 3.2 5 10.3 1.4 9.2-4.6-.4-1.7-.2-3 .3-3 .6 0 1-.7 1-1.5 0-1.9-1.9-1.9-2.6 0zm406.6.7c-5.4 1.5-6.2 2.6-5.5 7.2.9 5.5 4.3 8.6 9.6 8.6 7.8 0 11.7-8.2 6.8-14.4-2.2-2.8-4.8-3.2-10.9-1.4zm-482.4 1.3c-1.5.8-3.6 1.5-4.6 1.5s-2 .7-2.4 1.5c-.3.8-1.5 1.5-2.7 1.5-2.7 0-9.4 6.8-11.4 11.7-2.2 5.1-1.9 9.2 1.1 15.1 2.1 4.2 3.6 5.8 7.5 7.7 6.9 3.6 13.4 3.4 18.6-.4 10-7.2 12.8-16.3 7.9-25.3-1.7-3.2-2.1-5-1.4-5.4s.5-1-.6-1.6c-.9-.5-1.6-1.7-1.6-2.7 0-2.3-3.1-5.1-5.6-5.1-1 0-3.2.7-4.8 1.5zm169.1-.1c-1.6.7-4.5 2.7-6.5 4.4-2 1.8-5.1 4.1-6.9 5.2-5.8 3.5-8.7 12.1-6.3 18.4.7 1.9.4 3.6-1.1 7.2-1.3 2.8-1.9 5.9-1.6 7.7.3 2.1-.2 4-1.5 5.8-1.8 2.4-1.8 2.9-.4 6.2 1 2.4 2.3 3.8 4 4.3 1.4.3 2.7 1 2.7 1.5.3 2 .5 2.4 1.2 3.6 1.2 1.9 5.7 1.6 6.4-.3.3-.9.1-2.5-.6-3.6s-.9-2.8-.5-4c.6-2 .6-2 1.8.3.6 1.3 2.4 2.8 3.8 3.3 5.1 1.8 9.1-5 5.2-8.8-2-2.1-5.3-2-7.5 0-1.7 1.5-1.9 1.4-2.5-1-.9-3.7-.1-4.1 5.7-2.8 2.8.7 7.2 1.2 9.8 1.2 4.7 0 13.4-3 14.6-5 .3-.6 2-1 3.6-1 1.7 0 3.2-.6 3.5-1.5.4-.8 1.2-1.5 1.9-1.5s2.3-.8 3.6-1.9c2.1-1.6 2.2-2.2 1.1-4.5-.6-1.4-2-2.6-3-2.6-.9 0-2.8-.7-4-1.6-2.2-1.5-2.2-1.7-.6-3.5.9-1 2.2-1.9 2.9-1.9s2-.9 3.1-2.1c1.1-1.3 2.6-1.8 3.9-1.5 1.1.3 4.3.3 7.2-.1 6.3-.7 7.5-2.6 3.8-6-1.4-1.3-2.5-2.8-2.5-3.2 0-1.2-5.7-3.1-9.4-3.1-4.6 0-8.2-2.2-7.8-4.7.4-3.1-1.6-3.8-4.7-1.5-3.3 2.4-8.7 3.7-9.6 2.3-.7-1.3-5-3.6-8-4.4-1.1-.3-3.3 0-4.8.7zm117.8-.5c-.6 1.1.9 2.3 1.9 1.4.9-.9.7-2.3-.3-2.3-.6 0-1.2.4-1.6.9zm24.2-.3c-1.3 1.3-.7 5.2.8 5.8 2.7 1 4.6-.5 4.3-3.3-.3-2.6-3.5-4.1-5.1-2.5zm200.3 1.9c-1.5 1.8-.6 4.5 1.3 4.5.8 0 2-.7 2.7-1.5 1-1.2 1-1.8 0-3-1.6-1.9-2.4-1.9-4 0z"/><use xlink:href="#G" x="679" y="319"/><path d="M134 395.4c0 .9.5 1.6 1 1.6.6 0 1-.4 1-.9 0-.6-.4-1.3-1-1.6-.5-.3-1 .1-1 .9z"/><use xlink:href="#E" x="807" y="334"/><path d="M449.6 397.6c-3.2 3.2-.7 7.8 3.9 7.2 2.4-.2 3.1-.8 3.3-3.1.6-5-3.8-7.5-7.2-4.1zm259.1-.9c-1.1 1.1-.8 4.8.5 6.1 3 3 7.5 0 6.4-4.3-.5-1.9-1.3-2.5-3.5-2.5-1.5 0-3.1.3-3.4.7zM97 399c-1.1 1.1-2 2.7-2 3.5 0 1.8 3.5 5.5 5.3 5.5 2.4 0 5.7-3.1 5.7-5.5 0-5.1-5.4-7.1-9-3.5z"/><use xlink:href="#S" x="-25" y="126"/><path d="M402.4 402.1c-.8 1.4 1.8 3.1 3 1.9.9-.9 0-3-1.4-3-.5 0-1.2.5-1.6 1.1z"/><use xlink:href="#I" x="706" y="321"/><path d="M842.1 404.9c-1.3 2.4.4 4.6 4.2 5.5 3.3.8 4.2-.8 2.8-4.7-1.3-3.2-5.5-3.7-7-.8zm-298.5 1.7c-.9.8-1.6 2.6-1.6 3.8 0 2.3 2.8 5.6 4.7 5.6.6 0 2.5.8 4.1 1.7 2.5 1.4 3.2 1.5 4.6.4 2.6-2.2 1.9-5.1-2.4-9.2-4.3-4.2-6.9-4.8-9.4-2.3zm322.8.8c-.3.7-.4 1.7-.3 2.2.4 2.2-.2 3.3-2.2 3.9-2.9.9-4.4 4.7-3 7.3 2.2 4 14.2 5.7 16.1 2.3 1.9-3.7.9-13.1-1.5-13.1-.6 0-2-.9-3-2-2.1-2.3-5.3-2.6-6.1-.6z"/><use xlink:href="#G" x="607" y="333"/><path d="M925.9 408.6c-1.7 2.1 0 4.9 3.2 4.9 1.8 0 2.5-.6 2.7-2.4.6-3.8-3.4-5.5-5.9-2.5zm-332.9.9c-.7.8-2 1.5-3 1.5-2.8 0-4.3 2.5-3 4.9 1.4 2.6 4.6 2.7 6 .2.6-1.2 1.7-1.7 2.9-1.4 2.6.7 4.8-3.2 3-5.3-1.5-1.8-4.3-1.8-5.9.1zm-475.4 1.7c-2.5 3.6-2 6.6 1.5 8.7 1.7 1 3.7 2.8 4.5 4 1.7 2.3 6.3 2.8 8.2.9 2.5-2.5.7-9.8-2.3-9.8-.8 0-1.5-.6-1.5-1.4 0-2-3.9-4.6-6.7-4.6-1.2 0-2.9 1-3.7 2.2zm441.4-.7c-1.5 1.8-.4 5.2 1.9 6 4 1.2 7-2 5.1-5.6-1.3-2.2-5.2-2.5-7-.4zm429.7-.2c-.8 2.1.8 3.9 2.9 3.5 2.7-.5 2.5-4.2-.2-4.6-1.2-.2-2.4.3-2.7 1.1zm9.8.5c-4.2 2.6-6.5 6.4-6.5 10.7 0 7.6 5.9 13.3 12.5 12.2 1.9-.3 4.4.1 6 .9 3.6 1.8 5.9 1.8 7.6-.2 1.1-1.3 1.1-2.1-.3-4.5-1.1-1.9-1.4-3.7-.9-5.6 1-3.8-.6-9.7-3.5-12.4-3.3-3.1-10.9-3.7-14.9-1.1zm266.2-1.1c-1.2 1.1-.8 2.3.8 2.3a1.54 1.54 0 0 0 1.5-1.5c0-1.6-1.2-2-2.3-.8z"/><use xlink:href="#H" x="319" y="335"/><path d="M967.3 411.7c-1.9.7-1.6 5.3.3 6 1.8.7 4.5-.6 5.1-2.4.4-1.1-2.3-4.4-3.5-4.2-.4 0-1.3.3-1.9.6zm-554.8 1.2c-.3.5-.1 1.2.5 1.6.5.3 1-.1 1-.9 0-1.8-.6-2.1-1.5-.7z"/><use xlink:href="#C" x="85" y="403"/><path d="M721.2 418.2c-.7.7-1.2 2.8-1.2 4.8 0 3 .5 3.9 2.5 4.8 4 1.8 6.2 1.4 8.4-1.4 2.7-3.4 2.6-4.6-.2-7.2-2.5-2.4-7.6-2.9-9.5-1z"/><use xlink:href="#P" x="506" y="211"/><path d="M358.5 420.2c-.7 1.7-1.8 2.3-4 2.2-1.6-.1-5.8.3-9.3.8-5.3.9-6.2 1.3-5.7 2.8.3.9.1 4.7-.4 8.5-.9 6.4-.9 6.9 1.2 8.6 1.9 1.6 2 2 .9 3.9-1.8 3-.8 3.6 1.8 1s4-1.8 4 2.1c0 3.2.6 3.5 3.4 1.4 1.1-.8 2.9-1.2 4.2-.9 2.9.7 8.8-2.1 10.2-4.9 2.2-4.5 2.2-6.4.2-9-1.1-1.4-2-3.5-2-4.7s-.9-3.3-1.9-4.6c-1.3-1.7-1.7-3.4-1.4-5.9.5-4.1.2-4.4-1.2-1.3zm40.2-.8c-.4.9 0 1.3 1.1 1.2.9-.2 1.8-.8 2-1.4.5-1.7-2.5-1.5-3.1.2z"/><use xlink:href="#C" x="5" y="408"/><path d="M682 419.9c-2.4 4.5.4 9.1 5.6 9.1 4.1 0 6.6-6 3.8-9.1-2.3-2.6-8-2.6-9.4 0z"/><use xlink:href="#Y"/><path d="M820 419.5c-2.6 3.1 1.3 8.2 4.4 5.6 1.9-1.6 2.1-4.2.4-5.9-1.6-1.6-3.3-1.5-4.8.3z"/><use xlink:href="#G" x="611" y="345"/><use xlink:href="#N" x="-565" y="244"/><path d="M780.2 421.2c.3.7 1.3 1.5 2.2 1.6 1.2.3 1.7-.1 1.4-1-.3-.7-1.3-1.5-2.2-1.6-1.2-.3-1.7.1-1.4 1zm-181.5 1.5c-1.3 1.2-.7 5 .9 6.3 1.1 1 2.3 1.1 4.2.4 4.9-1.7 3.6-7.4-1.8-7.4-1.4 0-3 .3-3.3.7zm56.6 1.9c-.8 2 .8 4.8 3 5.2 2.2.5 4.2-3.5 2.6-5.4s-4.8-1.8-5.6.2zm-127.3.9c-2 2.4-.3 5.5 3 5.5 2 0 3.1-.6 3.5-2 .8-2.5-1-5-3.5-5-1 0-2.3.7-3 1.5zm51.7-.8c-.4.3-.7 2.1-.7 3.9 0 6.3 7.9 8.4 10.1 2.7 1-2.8-.1-5.7-2.7-6.7-2.1-.8-5.9-.8-6.7.1zm250-.1c-1 1-.9 4.2.2 4.8 1.8 1.1 4.2-.6 3.9-2.8-.3-2.1-2.8-3.3-4.1-2zM259.5 428c-.7 1.2.2 3 1.6 3 .5 0 .9-.9.9-2 0-2.1-1.5-2.7-2.5-1zm25.1.6c-2.4 2.3-.3 5.6 3.2 5.2 2-.2 2.8-.9 3-2.7.6-3.8-3.3-5.4-6.2-2.5zm305.9 1.4c-.9 1.5.4 3 2.6 3 1.2 0 1.9-.7 1.9-2 0-2.1-3.3-2.9-4.5-1zm-324.4 1.4c-.9 1-.8 1.6.4 2.6 1.9 1.6 4.1-.1 3.2-2.4-.8-2-2.1-2-3.6-.2z"/><use xlink:href="#O" x="-502" y="247"/><path d="M602.3 432.6c-.3.8.2 2.3 1.1 3.2 1.5 1.5 1.7 1.5 3.2 0 2.1-2.1 1.1-4.8-1.6-4.8-1.1 0-2.3.7-2.7 1.6z"/><use xlink:href="#I" x="465" y="350"/><path d="M158.5 434c-3.4 3.7.7 10 5.6 8.5 1.1-.4 2.7-1.7 3.5-3.1 1.5-2.2 1.5-2.6 0-4.9-2-3.1-6.5-3.4-9.1-.5zm220.9-.5c-.7 1.7 1.2 4.5 3.1 4.5s3.6-2.5 2.9-4.4c-.8-2-5.3-2.1-6-.1z"/><use xlink:href="#K" x="-784" y="305"/><path d="M935.7 436.8c-3.3 3.6-.8 9.2 4 9.2 2.5 0 5.3-3 5.3-5.7 0-4.6-6.2-6.9-9.3-3.5zm-103.7.6c-2 2.5-.8 6.1 2.1 6.4 3.6.4 5.5-2.1 4.1-5.3-1.3-2.8-4.3-3.3-6.2-1.1zm193.5-.4c-.3.6.1 1.3 1 1.6 1.9.8 3 0 2-1.5-.8-1.4-2.2-1.4-3-.1zm-572.2 1c-2.6 1.1-4.1 5.6-2.6 7.9.5.9 2.1 2.2 3.5 3 2.3 1.3 2.9 1.3 5.2-.2 3.4-2.3 3.7-7.8.4-10.1-2.5-1.8-3.3-1.9-6.5-.6z"/><use xlink:href="#G" x="362" y="364"/><path d="M575.2 440.4c-5.1 2.8-7.5 9.3-5.1 13.9 4.5 8.7 14.3 10.1 19.9 2.9 6.8-8.5-5.2-22.2-14.8-16.8z"/><use xlink:href="#G" x="356" y="366"/><path d="M996.7 440.8c-3.5 3.8-1.3 9.2 3.7 9.2 1.8 0 3.6-.3 4-.8.4-.4 2-.7 3.4-.7 3.6 0 4.2-3.2.8-4.4-1.3-.6-3-1.9-3.6-3.1-1.4-2.6-6.1-2.7-8.3-.2zm-569.2.2c-.3.5-.2 1 .4 1 .5 0 1.3-.5 1.6-1 .3-.6.2-1-.4-1-.5 0-1.3.4-1.6 1zm425 .2c-5.4 2.9-6 8.4-1.6 12.9 4.5 4.5 11.8 3.6 14-1.8 1.5-3.7.3-7.2-3.5-10.2-2.9-2.3-5.8-2.6-8.9-.9z"/><use xlink:href="#G" x="608" y="367"/><use xlink:href="#L" x="518" y="310"/><path d="M878.4 443.4c-.3.8-.3 2 0 2.5.4.6.1 1.9-.6 3-1.1 1.7-1 2.3.4 3.7 2.9 3 4.7 1.1 4.5-4.8-.2-4.1-.6-5.3-2-5.6-.9-.2-2 .3-2.3 1.2zm-244.8 1.5c-1.1 1.7.6 4.1 2.9 4.1 2.4 0 3.5-1.6 2.8-3.8-.5-1.4-4.9-1.6-5.7-.3z"/><use xlink:href="#H" x="521" y="370"/><path d="M828.1 446.8c-.8 1.5-.7 2.3.5 3.3 1.7 1.4 3.1.4 3.6-2.6.4-2.6-2.8-3.2-4.1-.7zm-415.9.9c-1.3 2.6-.4 4.3 2.4 4.3 1.9 0 2.4-.5 2.4-2.4 0-1.3-.7-2.7-1.6-3-2.2-.8-2.2-.8-3.2 1.1zm602 1.6c-1.2 1.3-2.2 3.5-2.2 4.9 0 1.9-.9 3.1-3.3 4.5-2 1.2-3.3 2.8-3.4 4.3-.3 3.8-1.7 4.2-5.3 1.5-2.5-1.8-4.7-2.5-8-2.5-5.4 0-8.7 2-10.6 6.6s-1.8 7.8.6 12.6c1.1 2.3 2 4.7 2 5.4 0 .6.9 2.2 2 3.6 1.3 1.8 1.6 2.8.8 3.6-.5.5-.7 1.5-.4 2.1 1 1.6 3.6 1.4 3.6-.3 0-.8 1.6-1.6 3.9-2 4.3-.7 7.7-4 8.7-8.5 1.2-5.5 1.5-5.7 3.2-2.8 1.8 3.1 6.8 6.1 11.7 7.1 8.8 1.8 19.5-7.9 19.5-17.7 0-4.2-5.6-12.2-9.7-13.8-1.4-.5-2.3-1.7-2.3-2.9 0-7-6.4-10.4-10.8-5.7z"/><use xlink:href="#J" x="579" y="367"/><path d="M1064 450.5c0 1 .7 1.5 1.8 1.3 2.1-.4 1.9-2.2-.2-2.6-1-.2-1.6.3-1.6 1.3z"/><use xlink:href="#T" x="155" y="169"/><use xlink:href="#Z"/><path d="M690.4 454.4c-4.2 4.2-4.5 8.5-.9 13.9 2 2.9 3.4 3.8 6.5 4.3 2.2.4 4 .9 4 1.3 0 .3-1.1 1.8-2.4 3.3-3.8 4-5.6 9.1-4.6 13 1.2 5.2 3.1 8.6 5.7 10.3 1.2.9 2.3 2.2 2.3 2.9 0 2.8 2.8 4 6.6 2.8 3.1-.9 3.6-.8 5 1.3 2.8 4.3 9.4 3.8 11.5-.9.9-1.9.8-3.1-.4-5.5-1.4-2.7-1.4-3.5-.1-5.9 2.2-4.2 1.8-12.8-.8-16.4-2.6-3.7-9-6.7-14-6.8h-3.7l2.4-3.6c4-5.9 2.9-12-2.7-15.4-5.2-3.2-10.3-2.7-14.4 1.4zm180.1-.8c-1.8 1.8-1.6 3.3.7 4.7 3.5 2.2 6.6-2.1 3.6-5.1-1.6-1.6-2.3-1.5-4.3.4zm130.9.9c-.9 2.3 1.4 4.5 2.6 2.5.5-.8.8-1.9.7-2.4-.6-1.7-2.7-1.8-3.3-.1zm-193 1.8c.3 1.1-.2 3.3-1 4.8-1.6 3.2-1.9 7.5-.4 8.4.6.3 1 1.5 1 2.6 0 1.2.4 1.7 1.1 1.4.6-.4 2 .2 3.2 1.3s4.4 2.3 7 2.7c4.3.6 4.9.4 5.4-1.4.3-1.1 1.1-2.2 1.9-2.5s1.4-1.2 1.4-2.1c0-.8.5-2.4 1.1-3.4 1.7-2.6.4-6.4-3.5-10.6-3.3-3.5-3.5-3.5-10.6-3.4-6.7.1-7.1.3-6.6 2.2zm-71.2 1.2c-1.2 1.4-2.8 2.5-3.5 2.5-2.3 0-6.4 5.4-7.1 9.4-.9 4.9.6 8.5 4.7 11.3 8.5 5.8 19.7.1 19.7-10 0-3.3-3.2-9.2-5.5-10.1-.9-.3-2-1.7-2.5-3.1-1.2-3.2-3-3.2-5.8 0z"/><use xlink:href="#K" x="-785" y="329"/><path d="M845.4 457.5c-.4.9-.2 2.1.4 2.7 1.6 1.6 4.7.5 4.7-1.7 0-2.6-4.2-3.4-5.1-1z"/><use xlink:href="#Q" x="334" y="234"/><path d="M525 458.5c-1.9 2.3-.3 5.5 3 5.5s4.7-3.2 2.3-5.5c-1.8-1.9-3.7-1.9-5.3 0zm129.2.2c.4 2.2 4.3 2.5 4.3.3 0-.8-1.1-1.6-2.3-1.8-1.9-.3-2.3 0-2 1.5zm-208.8.7c-1 2.6 0 5.1 2.1 5.1 2.8 0 3.2-4 .5-5.5-1.6-.9-2.1-.8-2.6.4zm216.6 1.1c-1.1 1.3-1.1 1.8.2 3.1 2 2 5 .7 4.6-2-.4-2.6-3-3.2-4.8-1.1zm178.2 1.7c-.7.7-1.2 2.5-1.2 4 0 2.1.6 3.1 2.6 3.8 3.2 1.3 4.1.7 4.9-3.1 1.1-4.8-3.1-7.9-6.3-4.7z"/><use xlink:href="#S" x="-279" y="190"/><path d="M1038.5 464c-1.1 1.7.5 3.2 2.1 1.9.7-.6 1.1-1.5.8-2-.7-1.2-2.1-1.1-2.9.1z"/><use xlink:href="#X" x="527" y="121"/><path d="M857.7 464.7c-1.3 1.2-.7 4.4.9 5 2.3.9 4.8-2.5 3.3-4.4-1.2-1.4-3.2-1.7-4.2-.6zm-266.1 1.9c-.9.8-1.6 1.9-1.6 2.4 0 1.3 3 4 4.5 4s4.5-2.7 4.5-4-3-4-4.5-4c-.7 0-2.1.7-2.9 1.6zm21.2-.1c-4.4 2.4-8.2 6.9-10.5 12.3-1.8 4.4-1.9 5.8-1.1 9.4.6 2.4 1.7 5 2.4 5.9.8.8 1.4 2 1.4 2.6 0 .5.9 1.8 2 2.8s2 2.7 2 3.8 1.1 3.5 2.5 5.3 2.5 4 2.5 4.8c0 2.3 3.6 3.9 6 2.6 2-1 2.2-1.6 2.4-5.3.1-1.3 1.7-2.4 5.5-3.7 6.5-2.4 8.1-3.7 11-9.5 3.1-6.3 3.6-10.4 1.7-16.8-3.4-11.6-18.4-19.3-27.8-14.2zm572.6-.4c-.9 1.6 1.8 3 3.3 1.7.7-.6 1-1.4.7-1.9-.7-1.3-3.1-1.1-4 .2zm-528.8 2.8c-1 1.1-2.4 1.7-3.2 1.4-3.7-1.4-10.4 4.4-10.4 9 0 3.2 3.5 5.9 7.7 6.1 4.8.1 7.9-2.2 8.8-6.4.3-1.5 1.6-3.2 3-3.8 2.9-1.3 3.3-4.3.9-6.6-2.1-2.1-4.7-2-6.8.3z"/><use xlink:href="#N" x="-491" y="293"/><path d="M451.1 471.4c-.6 1.3-1.7 2.8-2.5 3.3-.8.4-1.7 2-2.1 3.4-.6 2.4-.1 3.1 4.8 6.3 3 2 6.5 3.6 7.9 3.6 6.3 0 10.5-7.8 7.4-13.8-1.7-3.3-2.5-3.7-9.9-4.7-4.4-.6-4.8-.4-5.6 1.9zm100.1.2c-3 2-3.1 8.8-.3 10.4 4.9 2.6 11.1-.4 11.1-5.3 0-3-3.5-6.7-6.3-6.7-1.2 0-3.3.7-4.5 1.6zm416-.4c-2 2-1.5 6.6.9 7.8 2.6 1.4 6.9-1.1 6.9-4 0-3.9-5.1-6.5-7.8-3.8zm-564.1 1.2c-7 2.5-12.1 10.9-10.7 17.7.5 2.6.4 2.7-2.7 2.3-2.8-.5-3.6 0-7 4-3.3 3.9-4.2 4.5-6.5 4-1.9-.4-2.3-.3-1.4.4 1.5 1 1.7 5.8.7 14.5-.7 5-1.4 6.5-5.4 11-4.3 4.9-4.4 5-.8 1.9 3.8-3.2 5.7-4 5.7-2.2 0 .5 2.5 2.8 5.6 5 3 2.3 5.8 4.8 6.1 5.6.8 2.1-3 6.6-6.8 7.8-2.8.9-3.4 1.7-3.7 4.1-.7 8.5-1 9-6.2 11-8.5 3.3-4.9 6.2 4 3.2 2.8-1 3.5-1.7 3.6-3.9.1-3.4 2.7-7.5 5.3-8.3 1.1-.3 2.4-2 3-3.7 1.6-4.6 4.1-7.1 5.7-5.7 1 .8.9 1.7-.7 4.2-3.5 5.8-1.8 11.5 3.9 13.5 7.1 2.4 12.9-5 10.3-13.1-.7-1.9-1.8-3.8-2.6-4.1-2.6-1-1.6-2.3 3-4 7.9-3.1 11.2-10.1 8-17-1-2.2-1.5-4.6-1.1-6.1s0-3.7-.9-5.5c-2.3-4.4-1.9-5.6 2.3-6.8 2.1-.7 4.7-2.1 5.7-3.2s2.8-2 4-2c1.7 0 2.4-.7 2.9-3.1.3-1.7.1-3.9-.4-4.9-.6-1-1-2.3-1-2.8 0-1.2 13-6.8 14.7-6.4 1.5.3 4-4.4 2.9-5.5-.3-.4-1.2-.1-1.8.5-.9.9-2 .6-4.5-.9-3.9-2.4-5-2-3.3 1.1 1.4 2.7.2 4.4-5.2 7.1L424 484l-2-3.2c-1.1-1.8-2-3.8-2-4.5 0-1.1-9.9-5.4-12.3-5.2-.7 0-2.7.6-4.6 1.3zm486.3 4.1c-2 3.1-1 6.3 2.3 7.1 3.4.9 5.7-.6 6.1-4 .7-5.5-5.3-7.8-8.4-3.1zm-225.3 2.6c-1.8 2.4-2 3.3-1.1 3.9.7.5 2 .4 2.9 0 .9-.5 2.4-1.1 3.4-1.4 2.5-.8 1.9-5-.8-5.4-1.4-.2-2.9.8-4.4 2.9z"/><use xlink:href="#G" x="771" y="403"/><use xlink:href="#G" x="808" y="403"/><path d="M958 478.6c0 1.7 2.2 1.4 2.8-.4.2-.7-.3-1.2-1.2-1.2a1.58 1.58 0 0 0-1.6 1.6zm-126.5.3c-.6.5-2.8 1.1-4.9 1.3-4.6.4-6.7 2.8-5 5.5 1.7 2.8 5.3 2.8 8.3 0 1.4-1.3 3.4-2.7 4.4-3.1 1.1-.3 1.7-1.3 1.5-2.3-.4-2-2.9-2.8-4.3-1.4z"/><use xlink:href="#G" x="498" y="406"/><path d="M378.7 480.6c-1.2 1.2-.8 4.2.6 4.7 2.1.8 3.9-.8 3.5-2.9-.3-1.9-2.9-3-4.1-1.8zm487.5 1.6c.2 1.5 1 2.3 2.3 2.3 3 0 2.7-3.9-.3-4.3-2-.3-2.3 0-2 2zm79.9-.4c-1.2 2.3.4 5.2 2.9 5.2 2.6 0 4.5-3.6 2.9-5.6-1.6-1.9-4.6-1.8-5.8.4z"/><use xlink:href="#D" x="-249" y="438"/><path d="M575.2 482.1c-4.7 1.8-4.8 8.4-.2 10.9 2.8 1.5 4.8 1.2 7-1 4.7-4.7-.4-12.3-6.8-9.9z"/><use xlink:href="#V" x="-86" y="163"/><path d="M804.1 484.4c-.8 1-.7 1.7.3 2.6 1.7 1.3 3.6.6 3.6-1.5 0-1.9-2.7-2.6-3.9-1.1z"/><use xlink:href="#T" x="-434" y="205"/><path d="M816.4 487.7c-.4 1.5-1.3 1.8-4.5 1.5-3.4-.4-4.6.1-7 2.4-2.8 2.7-4 7.4-1.9 7.4 2.6 0 .6 2.9-2.7 3.8-9.3 2.7-11 3.6-13.1 7.3-1.5 2.6-2.2 5.5-2.2 8.9 0 4.7.4 5.6 3.7 8.8 2.1 2.1 4.2 4.6 4.8 5.7 1.3 2.4 4.4 3.2 5.6 1.4.6-1 1-1 2.3 0 1.9 1.6 3.6.6 3.6-2 0-1.1.8-2.3 1.8-2.6.9-.4 2.5-1.7 3.5-3s2.5-2.3 3.3-2.3 2.2-.4 3.2-.8c.9-.5 3.5-1.7 5.7-2.8 3.9-1.9 4-2 4.1-7.2 0-2.9-.3-4.8-.6-4.1-.6.8-1.3.8-3-.1-1.2-.7-3.3-1-4.7-.7-2 .4-2.6-.2-3.8-3.1-1.4-3.3-1.4-3.6 1.4-6.8 2-2.2 2.8-4 2.4-5.3-.4-1.5-.1-2.1 1.1-2.1 1.3 0 1.7-.7 1.4-2.7-.4-3.3-3.7-4.5-4.4-1.6zm-297.7 1.9c-1.4 1.4-.7 3.5 1.1 3.2.9-.2 1.7-1 1.7-1.7 0-1.6-1.8-2.5-2.8-1.5zm208.8 1.9c-1.4 1.3-2.5 3.3-2.5 4.5 0 2.8 4.3 7 7.3 7 1.3 0 3.3 1.1 4.5 2.5 3.8 4.4 8.2 2.4 8.2-3.8 0-2.4-2.7-5.7-4.7-5.7-.5 0-1.5-1.1-2.1-2.5-1.1-2.3-4.7-4.5-7.3-4.5-.5 0-2.1 1.1-3.4 2.5zm318.2.2c-1.4 1.4-.6 5.2 1.2 5.8 1.4.4 2 1.8 2.3 6.2.4 4.9 1 6.1 4.1 9 3 2.7 4.5 3.3 8.2 3.3s5.2-.6 8.1-3.3c2.1-1.9 3.8-4.7 4.3-6.8 2.3-10.1-9.4-18.4-18.3-13.1-3.4 2-3.5 2-4.1.1-.6-1.8-4.4-2.7-5.8-1.2zm-370.2 1.6c-4.8 1.9-6.1 3-7.9 6.5-3.4 6.5-.1 15 7.1 18.7a62.71 62.71 0 0 1 6.5 3.7c3.2 2.2 4.8 2.3 4.8.4 0-.8 1.1-2.7 2.4-4.3 3.3-4 5.9-10.3 5.6-13.8-.3-3.9-4-8.8-8.3-10.9-4-1.8-6-1.9-10.2-.3zm196.5.2c-1.5 1.9.3 4.7 2.6 3.8 1.8-.7 1.8-2.7 0-4.2-1-.9-1.6-.8-2.6.4z"/><use xlink:href="#K" x="-413" y="366"/><use xlink:href="#I" x="131" y="413"/><path d="M849 495.9c0 1.5.6 2.1 2.1 2.1 1.4 0 1.9-.5 1.7-1.7-.5-2.6-3.8-2.9-3.8-.4zm124.4.7c-1.6 2.4-1.6 2.7.3 5.2 2.4 3.3 5.8 3.9 8.4 1.6 2.3-2.1 2.4-4.2.3-7.2-2.2-3.1-6.9-3-9 .4z"/><use xlink:href="#G" x="-35" y="423"/><path d="M591.1 498.8c-1.5 2.8 1.3 6.2 5 6.2 2.5 0 2.9-.4 2.9-2.8 0-1.5-.5-3.3-1.2-4-1.8-1.8-5.6-1.4-6.7.6zm-227.4-.1c-1.5 1.4-.6 5.3 1.3 6.3 4.1 2.2 8.1-1.2 6-5.1-1-1.9-5.9-2.7-7.3-1.2zm160.3.1c0 .5-1.1 1.4-2.5 2-1.4.7-2.8 1.9-3.1 2.7-.8 2.1 2.4 5.5 5.1 5.5s3.5-1.7 3.5-7.1c0-2.8-.4-3.9-1.5-3.9-.8 0-1.5.4-1.5.8z"/><use xlink:href="#G" x="424" y="425"/><path d="M1037.4 499.1c-.8 1.4 1.1 3.3 2.5 2.5 1.6-1 1.3-3.6-.3-3.6-.8 0-1.8.5-2.2 1.1zM.4 501.5c-.4.9 0 2.3.9 3.2 2.1 2.1 4.9.9 4.5-1.9s-4.5-3.8-5.4-1.3zm870.4.2c-4.9.8-6.9 5.7-3.8 9.1 2.6 2.7 6.1 2.8 8.5.2 1.6-1.8 1.7-2.5.6-6-.6-2.2-1.5-3.9-1.9-3.9-.4.1-1.9.4-3.4.6zm90.2 1.2c0 2.8 2.1 3.7 3.6 1.6 1.6-2.2 1-3.5-1.7-3.5-1.2 0-1.9.7-1.9 1.9zm-530 .4c-.8.7-2 2.1-2.6 3.2-.8 1.4-2 1.9-3.9 1.7-3.5-.4-7.5 2.3-7.5 5 0 1.2 1 3.7 2.3 5.5 2.7 4 7 4.4 11.3 1 2.1-1.6 4.2-2.2 7.6-2.2 4.6 0 4.9.1 5.9 3.5 1.5 4.4 2.5 5.8 6.2 7.7 3.8 1.9 8.7 1 12.6-2.2 1.6-1.4 3.5-2.3 4.3-2 .7.3 2.5-.4 4-1.6 2.5-2.1 2.6-2.4 1.3-4.9-.8-1.5-2.5-3-3.8-3.4-1.3-.3-2.9-1.7-3.7-3.1-3.3-6.2-12-7.8-16.9-3.1-3.1 3-4.1 3.2-4.1 1 0-.8-1.3-2.9-2.9-4.5-3.2-3.1-7.4-3.8-10.1-1.6zm119.2-.1c-1.7 1.7-1.5 3.6.7 4.8 3 1.5 5.3.2 4.9-2.9-.3-2.9-3.5-4-5.6-1.9zm296.9.1c-1.5 1.8-.5 4.4 2 5.2 2.6.9 5.1-1.3 4.7-3.9-.4-2.5-4.9-3.4-6.7-1.3z"/><use xlink:href="#Q" x="224" y="280"/><use xlink:href="#S" x="-292" y="232"/><path d="M502.4 508.1c-1 1.7 2.3 4.6 3.7 3.2.7-.7.9-1.9.6-2.7-.7-1.8-3.3-2.1-4.3-.5zm540 .3c-.8 2.2 1.5 7.6 3.2 7.6 1.8 0 3-4.9 1.7-6.9-1.4-2.2-4.2-2.6-4.9-.7zm66.6.6c-1.8 1.1-.4 4.2 1.7 3.8 1-.2 1.9-1 2.1-1.9.4-1.9-1.9-3.1-3.8-1.9zm-369.4 2.6c-1.9 1.8-2 3.4-.5 6.8.9 2 .7 3.3-1.4 7.8-3.2 6.6-2.7 10.8 1.5 14.3 4.2 3.6 11.9 3.6 15.3-.1 3.2-3.4 4.1-9.3 2.1-13.3-.9-1.6-1.6-4.4-1.6-6 0-3.3-2.7-5.5-5.4-4.5-1.1.4-1.6 0-1.6-1.3 0-2.3-3-5.3-5.3-5.3-.8 0-2.3.7-3.1 1.6z"/><use xlink:href="#G" x="612" y="438"/><path d="M875.3 514.4c-1.3 1.3-2.3 2.7-2.3 3.1s-.7 1.3-1.6 2c-3.9 2.8 1.9 15 9.4 19.5 1.8 1.1 3.2 2.6 3.2 3.4s1.2 2.8 2.6 4.5c2.2 2.7 3.2 3.1 7.6 3.1 4.2 0 5.4-.5 7.9-2.9 2.6-2.6 2.9-3.6 2.8-8.1-.2-5.8-1.5-7.5-5.9-8.5-2.8-.6-3-.9-3-5.3 0-6.2-3.5-11.7-8.1-12.6-6.3-1.2-10.3-.7-12.6 1.8z"/><use xlink:href="#G" x="575" y="439"/><path d="M625.8 515.1c-3.4 1.3-4.2 3.6-3.3 9.9 1.3 9.2 10.5 13.2 17.3 7.5 10.1-8.4-1-22.1-14-17.4zm209.6 0c-.3.6 0 1.7.7 2.5 1.8 1.7 4.4.2 3.6-2-.7-1.8-3.3-2.1-4.3-.5zm172.4 2c-1.1.6-1.8 2.2-1.8 3.8 0 3.9 2.8 7 7.1 8 7 1.6 9.3-3.3 4.2-8.8-3.1-3.4-6.9-4.6-9.5-3zm-531.5 4.1c-9.6 2.5-9.7 16.1-.1 18.9 4.8 1.3 9.2.2 11.7-3.2 1.2-1.6 3-2.9 3.9-2.9 2.7 0 4.2-2 4.2-5.5 0-4.4-3-7-7-6.1-1.8.3-4.5 0-6.3-.7-2.1-.9-4.3-1.1-6.4-.5z"/><use xlink:href="#V" x="144" y="201"/><path d="M553.2 522.2c-2.7 2.7-.6 6.8 3.5 6.8 2.9 0 4.8-3.3 3.3-6-1.2-2.2-4.9-2.7-6.8-.8zm477.3-.2c-.3.6.1 1.3 1 1.6 1.9.8 3 0 2-1.5-.8-1.4-2.2-1.4-3-.1zm-451 1c-.7 1.2.2 3 1.6 3 1.2 0 1.2-2.7 0-3.5-.5-.3-1.2-.1-1.6.5zm-78.5 1.5c0 .9.5 1.5 1.1 1.3s1.1-.8 1.1-1.3-.5-1.1-1.1-1.3-1.1.4-1.1 1.3z"/><use xlink:href="#F" x="574" y="456"/><use xlink:href="#W" x="214" y="204"/><path d="M1177.2 525.2c.7 1.9 3.8 2.2 3.8.4 0-1-.9-1.6-2.1-1.6s-1.9.5-1.7 1.2zm-478.8.6c-2 1.3-2.3 4.1-.7 5.7 1.9 1.9 4.2 1.6 5.7-.8 1.9-3-2-7-5-4.9z"/><use xlink:href="#J" x="259" y="445"/><use xlink:href="#Z" x="176" y="76"/><use xlink:href="#B" x="284" y="523"/><path d="M990 528.5c-1.7 2-.5 6.2 2.1 7 2.4.8 5.9-1.9 5.9-4.5 0-3.7-5.5-5.5-8-2.5zm-481.3 5.7c-3.6 4.8-4 7.1-2.1 11.2 3.5 7.1 13.5 5.3 14.2-2.5.2-2.6-.5-4.6-2.8-7.7-3.7-5.1-6.1-5.3-9.3-1zM783 533c-1.2 1.2-2 3.3-2 5.5 0 2.7-.4 3.5-1.8 3.5-4.6 0-5.3 4.2-1.7 10 5.3 8.3 14 5.7 12.2-3.7-.4-2 .2-3.6 1.9-5.6 3.1-3.6 3-6.2-.1-9.2-2.9-3-5.8-3.2-8.5-.5z"/><use xlink:href="#Y" x="390" y="114"/><path d="M359 534c0 .5.4 1 .9 1 .6 0 1.3-.5 1.6-1 .3-.6-.1-1-.9-1-.9 0-1.6.4-1.6 1zm199.3.6c-.8 2.2 1 4.9 3.2 4.9 1 0 2.2-.7 2.8-1.6 1.5-2.4.1-4.9-2.8-4.9-1.5 0-2.8.7-3.2 1.6zm256.8 0c-2.5 1.8-2.8 6.5-.5 8.8 1.9 2 2.4 2 5.2 0 2.2-1.5 3-5.7 1.4-8-1.3-1.9-3.9-2.3-6.1-.8z"/><use xlink:href="#T" x="-210" y="253"/><path d="M949.7 535.7c-1.2 1.2-.7 5 .8 6.3 2.3 1.9 6.5.4 6.5-2.3 0-1.3-.5-2.8-1.2-3.5-1.3-1.3-5-1.6-6.1-.5z"/><use xlink:href="#G" x="128" y="463"/><path d="M945.5 537c.3.5 1 1 1.6 1 .5 0 .9-.5.9-1 0-.6-.7-1-1.6-1-.8 0-1.2.4-.9 1zm22.4 1.3c-2.6 1.7-3.5 3.1-3.7 5.7-.6 5.7 1.5 10.6 5.7 13.9 7.3 5.8 17.3 3.5 21.4-4.7 1-2 1.9-2.6 3.8-2.4 1.5.1 3.3-.6 4.3-1.7 1.7-1.9 1.7-2-.8-3.6-1.6-1.1-2.6-2.7-2.6-4 0-1.5-.8-2.6-2-3-3.3-1-4.3.4-3.6 5.1.3 2.4.3 4.4 0 4.4s-1.4-2-2.5-4.5c-1.2-2.8-3.1-5.1-4.9-6-4.4-2.3-11.1-1.9-15.1.8zm-546.9.2c-1.7 2-.5 6.2 2 7 4.7 1.5 8.2-2.3 6-6.5-1.3-2.4-6.1-2.7-8-.5zm195.6 1.4c-.7 1.1 1.8 3.3 2.7 2.4.4-.3.7-1.2.7-2 0-1.5-2.6-1.8-3.4-.4z"/><use xlink:href="#F" x="438" y="473"/><use xlink:href="#T" x="173" y="259"/><path d="M834.5 542c.3.5.8 1 1.1 1 .2 0 .4-.5.4-1 0-.6-.5-1-1.1-1-.5 0-.7.4-.4 1z"/><use xlink:href="#U" x="-320" y="253"/><use xlink:href="#G" x="-66" y="470"/><path d="M1032.5 545.4c-3.1 4.6 1.4 11.6 7.4 11.6 3.9 0 5.8-1.9 6.5-6.6.5-3.9.5-4.1-3.3-5.7-5.4-2.4-8.7-2.2-10.6.7zm-211.1.1c-.7 1.8.3 3.5 2.1 3.5s2.6-1.5 1.9-3.4c-.8-2-3.3-2.1-4-.1zm46.8-.3c-.7.7-1.2 1.5-1.2 1.9 0 1.6 3.1 3.8 4.5 3.3 2-.8 1.9-5-.1-5.8s-1.8-.8-3.2.6zm-428.5 1.6c-3.7 4-.4 10.2 5.3 10.2 2.9 0 7-2.9 7-5 0-5.8-8.5-9.4-12.3-5.2zm507.3.7c-1.3 1.4-3.4 2.5-4.7 2.5-3.5 0-6.6 3.6-5.8 6.8 1.4 5.6 4.4 6.6 8.9 3.1 2.9-2.3 4.7-1.9 2.7.5-.7.8-1.1 2.7-.9 4.3.2 2.3.8 2.9 3.5 3.1 2.7.3 3.5-.1 4.4-2.1.8-1.7.8-3 .1-4.3-.8-1.4-.4-2.3 1.9-4.5 3.4-3.2 3.7-5.7.8-9.3-2.8-3.5-7.7-3.6-10.9-.1zm-389.8.1c-3 2.1-2.9 5.9.3 8 2.3 1.5 2.7 1.5 5 0 3.2-2.1 3.3-5.9.3-8-1.2-.9-2.5-1.6-2.8-1.6s-1.6.7-2.8 1.6zm272.9-.6c-.9.5-1.1 1.7-.7 3.6.7 2.8.8 2.8 2.2 1 2.4-3.3 1.4-6.4-1.5-4.6zm-38.2 6c-3.3 3.3-3.7 6.4-1.2 11.5 1.1 2.2 2.4 3.5 3.7 3.6 10.7.5 11.9.4 12.4-1 .3-.7-.3-2-1.3-2.7-1.2-.9-1.6-2-1.2-3.6.4-1.3.3-3.7-.1-5.3-.7-2.4-1.7-3.2-5.1-4.2-4.2-1.2-4.4-1.1-7.2 1.7zm69.4-1.4c-.3.8-.1 2 .6 2.7 1.4 1.4 4.7-1.5 3.7-3.2-1-1.6-3.6-1.3-4.3.5zm49.1 1.9c-1 2.4 1.2 4.2 3.4 2.9 2.4-1.6 2.1-3.8-.6-4.2-1.3-.2-2.5.3-2.8 1.3zM595 554.7c0 1-.9 2.6-2 3.6-1.6 1.3-1.8 2.1-1 4.2.5 1.4.7 3.8.4 5.4-1.3 6.2 7.1 13 13.7 11.1 3.8-1.1 7.9-4.7 7.9-6.9 0-.8.9-2.5 2.1-3.7 1.8-2 2-2.8 1.2-7.6-.7-4.3-1.2-5.3-2.8-5.3-1.3 0-2.1.8-2.3 2.3-.3 1.8-.7 2.2-2 1.6-.9-.5-4-.9-6.9-.9-4.8 0-5.1-.1-5-2.5.1-1.6-.4-2.5-1.5-2.8-1.2-.2-1.8.3-1.8 1.5z"/><use xlink:href="#G" x="273" y="480"/><use xlink:href="#G" x="611" y="480"/><use xlink:href="#E" x="502" y="493"/><path d="M829.7 557.7c-.9 1.7.6 8.3 1.8 8.3 1.9 0 3-5.7 1.5-7.5-1.4-1.6-2.6-1.9-3.3-.8z"/><use xlink:href="#G" x="241" y="485"/><path d="M704.4 559.9c-2.2.6-7.4 6.1-7.4 7.9 0 1.4 2.8 2.3 3.5 1.1 1.2-1.8 2.5.3 2.5 4 0 2.4.9 5.2 2.5 7.5 1.9 2.9 2.2 3.8 1.1 4.2-.8.3-2.6-.7-4-2.1-2.3-2.2-3.3-2.6-6.1-2.1-2.9.6-3.6.3-5.5-2.3-1.3-2-3.3-3.3-5.6-3.7-2.5-.5-3.8-1.4-4.5-3.1-.7-1.9-1.5-2.4-3.5-2.1-3.7.4-5.4 3.2-3.2 5.4 1.4 1.5 1.5 2 .1 5.1-1.2 2.9-1.2 4.1-.2 6.5 1.4 3.5 5.4 6.8 8.3 6.8 1.4 0 2.8 1.2 4.1 3.7 1.3 2.3 3.1 4 5 4.6 5.1 1.6 5.8 2.7 5.1 7.5-.5 4-.3 4.7 2.3 7.1 3.2 3 2.8 4.3-2.1 7.5-2.3 1.5-2.8 2.6-2.8 5.7 0 5.3 2.8 8 8.3 8 2.3 0 6.3.2 8.8.5 4.8.6 9.3-.9 11.8-4 1.2-1.4 1.8-1.2 5.8 1.6 3.8 2.7 5.5 3.3 11.4 3.6 6.7.4 6.9.5 6.9 3.1 0 3.7 6.6 9.1 11 9.1 4.2 0 9-4.7 9-8.8 0-3.6-3.1-7.8-6.5-8.6-3-.8-3.1-1.5-.4-6 3.1-5.3 2.8-9.6-.9-15.6-2.4-3.8-3-5.6-2.2-6.5 1.2-1.5.4-4.1-1.5-4.9-.9-.3-1.2-1.7-.9-4.3.7-5.1-2.5-10.3-6.1-10.3-3.8 0-10.5 4.1-11.2 6.9-.5 1.9 0 3 2.2 4.8 1.5 1.3 2.6 2.5 2.4 2.7s-2.1.6-4.1 1c-3.4.6-3.8.5-3.8-1.4 0-1.1-.9-4-2.1-6.4-1.1-2.4-2.1-5.6-2.3-7.1s-1-3.2-1.9-3.7c-1.3-.7-1.4-1.4-.7-3.4 2.4-6.2.2-10.4-8.9-17.2-3.1-2.4-9.5-3.4-13.7-2.3zm479.1.1c-.3.5.1 1 1 1s1.3-.5 1-1c-.3-.6-.8-1-1-1s-.7.4-1 1zm-729.3 3.1c-4.1 3-4.6 4.2-4.3 9.9.4 5.3 8.8 9.3 15 7.2 2.6-.9 3.1-.8 3.6.9.7 2 4.2 3.9 7.3 3.9.9 0 2.9-1.2 4.5-2.5 2.7-2.4 2.7-2.5 1.1-5.9-1.7-3.5-4.9-5.6-8.4-5.6-1.4 0-2-.7-2-2.3 0-3.5-2.7-6.5-6.8-7.7-5.2-1.4-5.3-1.4-10 2.1z"/><use xlink:href="#S" x="-248" y="288"/><use xlink:href="#G" x="596" y="487"/><use xlink:href="#Y" x="-97" y="143"/><path d="M873.3 564.1c-1.8 1.1-3 2.6-2.7 3.3.7 1.8 7.4 2.8 9.1 1.4 1.9-1.6 1.6-4.6-.6-5.8-2.5-1.3-2-1.3-5.8 1.1zm-232 .5c-.7 1.8 1.7 3.8 3.1 2.4 1.1-1.1.1-4-1.4-4-.6 0-1.3.7-1.7 1.6z"/><use xlink:href="#J" x="41" y="482"/><path d="M1169.8 563.5c-1 1 .4 5.4 1.9 5.9 2.6 1 3.2-.3 1.6-3.4-1.4-2.9-2.4-3.6-3.5-2.5z"/><use xlink:href="#Z" x="217" y="113"/><path d="M931.3 566.1c-4.2 2.6-4.1 3.8.3 6.6 4.1 2.7 5.3 2.8 7.8 1 3.8-2.8 1.3-9.7-3.3-9.7-.9 0-3.1 1-4.8 2.1zm87.5-.7c-1 1-1.2 3-.8 7.6.5 5.2 1.1 6.7 3.3 8.6 7.5 6.4 16 2.1 14.3-7.2-.8-3.9-3.9-6.8-9.6-8.8-5.5-1.9-5.5-1.9-7.2-.2zm-644.9.9c-3.9 1.8-5.9 3.7-5.9 5.8 0 1-.9 2.4-1.9 3.1-5.8 4.1-1.7 17.5 6.6 21.7 3.7 1.9 12.2 1.3 16.1-1.1l3.5-2.1-.5 6.9c-.4 5.2 0 7.9 1.3 10.9 1 2.2 2 5.2 2.3 6.6.8 3.7 5.5 5.6 9.6 3.9 6.4-2.6 13-10.9 13-16.2 0-7-13.1-18.8-19.5-17.6-2.2.5-2.3.3-1.9-5.1.4-4.9.1-6.1-2.3-9.6-1.6-2.1-4.2-4.7-5.9-5.7-4-2.3-11.2-3.1-14.5-1.5zm312.8-.6c-.9.9 2.2 4.3 4 4.3 2 0 1.6-2.8-.6-4-2.3-1.2-2.6-1.2-3.4-.3zM307 567c-.8.5-1.1 1.2-.7 1.6s1.3.2 1.9-.4c1.5-1.5.7-2.4-1.2-1.2z"/><use xlink:href="#G" x="169" y="493"/><path d="M748.7 567.7c-1.2 1.1-.8 2.3.8 2.3a1.54 1.54 0 0 0 1.5-1.5c0-1.6-1.2-2-2.3-.8z"/><use xlink:href="#I" x="394" y="486"/><path d="M998.4 568.1c-.3.6-.1 1.6.4 2.1 1.3 1.3 4.5-.8 3.6-2.3-.7-1.2-3.1-1.1-4 .2zm-167.5 2.3c-.8 1.8-.7 3 .5 5.4.9 1.7 1.6 3.7 1.6 4.5s.7 2 1.5 2.7 1.7 2.8 2 4.9c1.4 8 1.7 9.1 4.4 12.2 2.3 2.6 3.5 3.1 6.9 3.1 8.6-.1 11.4-4.5 10.7-16.8-.5-8.4-1.3-10.3-4.1-10.4-.6 0-1.7.7-2.4 1.5s-1.9 1.5-2.7 1.5c-2.8 0-7.3-3.4-7.3-5.5-.1-3.5-2.4-5.5-6.4-5.5-2.9 0-3.9.5-4.7 2.4zm-137.5.1c-.7 1.8.3 3.5 2.1 3.5 2.1 0 2.8-1.9 1.5-3.5-1.6-1.9-2.9-1.9-3.6 0zm-33 1c-1.4 3.4 1.3 5.6 4.5 3.6 1-.7 1.1-1.3.2-3-1.4-2.4-3.9-2.8-4.7-.6z"/><use xlink:href="#S" x="-198" y="298"/><path d="M628.5 571.8c-5.4 1.8-9.1 7.4-8 12.1.6 2.7.4 2.9-3.5 3.4-6.2.8-9 3.9-9 9.8 0 6.6 2.9 9.9 9.3 10.6 4.3.5 4.9.3 8.2-3 2.8-2.8 3.5-4.3 3.5-7.4 0-3.6.2-3.9 4.3-5.3 8.6-3 10.3-13.7 2.8-18.7-3.5-2.4-4.3-2.5-7.6-1.5z"/><use xlink:href="#G" x="589" y="499"/><path d="M575.3 574c-3.6 1.5-5.6 5.5-4.9 9.5.5 2.6.3 3.5-.7 3.5-2.1 0-5.9 4.6-5.5 6.7.2 1 1.3 1.9 2.6 2.1 2.7.4 7.2-2.3 7.2-4.3 0-1 1.1-1.3 4-1.2s4.6-.5 6.5-2.3c6.4-6-1-17.4-9.2-14zm-171.1.9c-.8.4-1.2 1.9-1 3.2.2 1.9.9 2.4 3.3 2.4 3.3 0 4.5-2.5 2.5-5-1.4-1.7-2.9-1.9-4.8-.6zm401 .8c.4 2.3 2.1 2.6 3.4.5 1-1.5.8-1.8-1.3-2-1.8-.1-2.4.2-2.1 1.5zm-368 1.5c-2.1 2.1-1.4 5.7 1.4 7 3.1 1.4 5.7.1 6.2-3.1.7-4.2-4.6-6.9-7.6-3.9z"/><use xlink:href="#L" x="22" y="446"/><path d="M904.4 580.6c-.8 3.1.6 4.7 3.6 4.2 5.3-.7 4.7-6.8-.6-6.8-1.7 0-2.5.7-3 2.6zm54.7-.9c-1.2 1-2.2 2.7-2.2 3.8.1 1.1.1 4.4.1 7.3.1 4.3.6 5.9 2.5 7.8 3.1 3.1 6.9 3.1 10.1-.2 2.2-2.1 2.5-3.1 2-6.2-.4-2-.9-5.4-1.2-7.5-1-6.1-6.8-8.7-11.3-5zm208.3-.4c-.8 2.2 1.4 6.7 3.7 7.6 6.1 2.2 9.2-2.4 4.6-6.7-2.6-2.4-7.5-2.9-8.3-.9z"/><use xlink:href="#T" x="17" y="298"/><use xlink:href="#T" x="190" y="298"/><path d="M1062.4 581.5c-.9 2.3.3 4.5 2.5 4.5 2.3 0 3.5-2.8 2-4.6s-3.8-1.8-4.5.1z"/><use xlink:href="#R" x="-115" y="310"/><path d="M537.5 586.2c-3.7 4.4-3 10 1.6 14.2 2.7 2.4 3.8 2.7 7.2 2.3 8.4-1.1 11.9-9.9 6.6-16.6-2.1-2.6-3-3-7.6-3-4.6-.1-5.4.2-7.8 3.1z"/><use xlink:href="#N" x="-152" y="407"/><path d="M759.8 588.6c-2 1-2.8 2.2-2.8 4.3 0 3.2 1.7 5 8.1 7.9 5.6 2.7 8 2.8 11 .3 3-2.4 3.2-8.3.4-11-2.8-2.6-13-3.6-16.7-1.5zM485 589.9c-1.3 2.6.1 5.7 3 6.6 3 1 5.2-1.3 4.8-4.9-.3-2.7-.7-3.1-3.5-3.4-2.4-.2-3.4.2-4.3 1.7zm680 2.1c-5.7 5.7 1.2 15 11.2 15 7.8 0 11-5.2 6.7-11.1-4.2-5.9-13.8-8-17.9-3.9zm-244 .5c0 1 .7 1.5 1.8 1.3 2.1-.4 1.9-2.2-.2-2.6-1-.2-1.6.3-1.6 1.3zm-136.1 2.1c-1.7 2.1 0 4.9 3.2 4.9 2.7 0 3.7-2.8 1.9-5-1.6-1.9-3.4-1.9-5.1.1zm144.1 2.8c0 .8.5 1.8 1 2.1 1.3.8 4.2-1.4 3.4-2.6-.9-1.5-4.4-1-4.4.5z"/><use xlink:href="#D" x="-164" y="555"/><path d="M957.5 602c.3.5 1 1 1.6 1 .5 0 .9-.5.9-1 0-.6-.7-1-1.6-1-.8 0-1.2.4-.9 1zm-159.2 5.6c-.4 1.1.1 2.2 1.2 3.1 1.6 1.1 2.1 1.1 3.3-.1.8-.8 1.2-2.2.9-3-.8-2.1-4.6-2.1-5.4 0zm410.7-.6c0 .5.7 1 1.6 1 .8 0 1.2-.5.9-1-.3-.6-1-1-1.6-1-.5 0-.9.4-.9 1zm-918.5 1.9c-11.9 2-19.6 14.3-17.1 27.4.9 4.8 6.7 10.4 14.4 13.8l6.5 3 4.4-2.1c2.3-1.1 4.7-2 5.2-2 2.1 0 6.9-3.5 8.8-6.4 3.1-4.8 4.6-12.6 3.4-17.3-1.4-5-6.9-12.1-10.7-13.8-3.6-1.6-9.5-3.5-10.3-3.4-.3.1-2.4.4-4.6.8zm480.7 1.3c.2 1.7.9 2.2 2.3 2 2.8-.5 3-.9 1.5-2.7-1.9-2.3-4.2-1.9-3.8.7zm56.9-.5c-2.4 1-7 6.7-7.1 8.9 0 3.1 4.4 10.8 6.4 11.2 3.3.7 6.6-.8 7.2-3.2.3-1.4 1.4-3.2 2.5-4.2 2.1-1.9 2.5-6.1.8-9.8-1.4-3.1-5.9-4.4-9.8-2.9zm67.6.7c-.7 1.7 1.8 4 3.3 3.1.5-.3 1-1.5 1-2.6 0-2.3-3.5-2.7-4.3-.5z"/><use xlink:href="#P" x="596" y="407"/><path d="M635.2 616c-7.1 4.4-6.9 14.1.5 17.9 6.5 3.3 14-.9 15-8.5.4-3.2 0-4.4-2.4-7.1-3.7-4.2-8.6-5.1-13.1-2.3zm365 .2c-1.5 1.5-1.6 6 0 7.6 1.8 1.8 5.3 1.4 7.4-.9 1.7-1.9 1.7-2.3.3-4.7-1.6-3-5.7-4-7.7-2zm-71.9.5c-.7.3-1.3 1.3-1.3 2.3 0 1.9 1.7 3 3.8 2.3.6-.3 1.2-1.3 1.2-2.3 0-1.9-1.7-3-3.7-2.3zm-144.9 1.8c-.4.8-.2 2.1.4 2.8.6.6 1.2 2.3 1.4 3.7.2 2 .9 2.5 3.3 2.5 4.2 0 4.3-2.5.2-6.9-3.8-4-4.5-4.3-5.3-2.1zm166.4-.4c-4.4 1-10.4 4.6-13.4 8-1.1 1.3-2.9 4.6-3.9 7.2-3.8 10.4 2.6 23.9 13.6 28.6 4.5 2 6.5 2.3 12.9 1.9 4.6-.3 8.6-1.2 10.5-2.3 3.4-2 10.5-13.6 10.5-17.1 0-1.7.7-2.4 3-2.9 2.8-.6 4.3-2.5 1.9-2.5-.6 0-.8-.8-.4-1.9.3-1-.1-2.4-1-3.1-.8-.7-1.3-2-1-2.9.3-1-.6-2.2-2.5-3.3-3-1.7-3.9-4.1-2-5.3.6-.3 1-1.1 1-1.6 0-.6-1.2-.1-2.6 1-3.3 2.6-4.6 2.6-6.9.1-1.9-2.1-10.4-5.1-13.9-4.9a44.23 44.23 0 0 0-5.8 1zm-148.4 1.4c-.9 2.3.4 4.7 2.3 4.3 2.2-.4 3-3.8 1.1-4.9-1.9-1.3-2.8-1.1-3.4.6zm58.6 2c-1.5 1.8-.6 4.5 1.3 4.5.8 0 2-.7 2.7-1.5 1-1.2 1-1.8 0-3-1.6-1.9-2.4-1.9-4 0zm-338.5 1.9c-2.2 1.6-1.6 4.4 1.1 6.3 1.9 1.2 2.4 1.2 3.8-.3 3.6-3.5-.9-9-4.9-6zm48.5.2c0 .8.5 1.2 1 .9.6-.3 1-1 1-1.6 0-.5-.4-.9-1-.9-.5 0-1 .7-1 1.6z"/><use xlink:href="#J" x="126" y="542"/><path d="M865.3 625.6c-1.3 3.4 3.5 7 6 4.5.7-.7.5-1.8-.7-3.5-1.9-3-4.4-3.4-5.3-1zm-64.6 1c-1.2 1.2-.8 4.1.8 5.4 2 1.7 4.7-.5 4.3-3.4-.3-2.1-3.7-3.4-5.1-2zm190.5 1.9c-5.7 4.8-4.4 12.8 2.6 15.9 4.6 2.1 7.7 1.2 11.5-3.4 3.2-3.8 3.2-4 .7-8.9-1.3-2.6-3-4.3-5.1-5-4.7-1.6-6.4-1.4-9.7 1.4zm-97.5-.9c-1.4 1.4-.7 3.5 1.1 3.2.9-.2 1.7-1 1.7-1.7 0-1.6-1.8-2.5-2.8-1.5zm-221 1.9c-.8 1.8 1.1 3.1 2.5 1.7 1.1-1.1.3-3.2-1.2-3.2-.4 0-1 .7-1.3 1.5zm96.8 1c-3 2.9-3.2 6.8-.5 9.5 3.2 3.2 6.7 3.6 9.6.9 3.2-3 3.2-7.2-.1-10.4-3.1-3.2-5.9-3.2-9 0zm-533.3 2.7c-.7.7-1.2 2.1-1.2 3.3 0 2.9 1.9 4.5 5.2 4.5 3.6 0 5.6-3.6 3.9-6.9-1.3-2.3-5.9-2.9-7.9-.9zm340.4.4c-2.3 2.2-2 4.1.8 5.9 4.8 3.2 9-2 4.8-5.8-2.3-2.1-3.6-2.1-5.6-.1zm79.1-.2c-1.4 3.5 2.3 6.7 5 4.5.8-.7 1.3-2.2 1.1-3.3-.4-2.6-5.2-3.5-6.1-1.2zm150.3.1c-2.6 3.2 1.3 8.1 4.8 5.9 3.4-2.2 2.2-7.4-1.8-7.4-1 0-2.3.7-3 1.5z"/><use xlink:href="#J" x="476" y="551"/><use xlink:href="#G" x="433" y="561"/><path d="M628.8 636.5c-3 1.7-5.2 7.1-4.3 10.8 1.2 4.8 5.4 7.2 11.7 6.8.9-.1 3.1-2.2 4.9-4.7l3.1-4.6-1.8-3.5c-3.3-6.2-7.9-7.8-13.6-4.8zm-561.1 1.2c-1.5 1.4-.6 2.4 2 2.1 3.4-.4 4.3-2.8 1.1-2.8-1.4 0-2.8.3-3.1.7zm730 0c-.4.3-.7 1.1-.7 1.7s.5.5 1.2-.2c.6-.6.9-1.4.7-1.7-.3-.3-.9-.2-1.2.2zm20.3.8c-1.5 1.8-.5 3.5 2.1 3.5 1.2 0 1.9-.7 1.9-1.9 0-2.4-2.5-3.4-4-1.6z"/><use xlink:href="#M" x="665" y="476"/><path d="M801 641.3c0 .7-.9 1.8-2 2.5-2.8 1.7-2.5 5 .5 6.4 1.8.8 2.8.8 3.9-.1 2.2-1.9 2.5-5.9.6-8.1-2-2.3-3-2.5-3-.7zm-134.6 1.8c-1.1.6-2.8 2.3-3.7 3.9-5.4 9 4.5 18.5 14.2 13.6 5.5-2.9 6.4-11.1 1.6-15.6-2.6-2.5-9-3.5-12.1-1.9z"/><use xlink:href="#U" x="23" y="353"/><use xlink:href="#L" x="822" y="512"/><use xlink:href="#P" x="928" y="439"/><path d="M771.5 648.4c-5.9 5.9-3.6 14.7 4.7 17.7l4.7 1.7 2.1-3.9c2.2-4.4 2.6-11.5.7-14-3.3-4.3-8.7-5-12.2-1.5zm285.7-1.2c-3 3 .9 6.9 4.4 4.3 1.5-1.1 1.7-1.7.8-3.2-1.4-2.3-3.6-2.7-5.2-1.1zM999 651c0 1.5.5 2 1.8 1.8.9-.2 1.7-1 1.7-1.8s-.8-1.6-1.7-1.8c-1.3-.2-1.8.3-1.8 1.8zm-161.6 1.4c-1 2.6.1 5.1 2.3 5.4 3 .4 4.9-3.1 2.7-5.2-1.9-2-4.3-2.1-5-.2zm207 2.7c-.8 1.4 1.1 3.3 2.5 2.5 1.6-1 1.3-3.6-.3-3.6-.8 0-1.8.5-2.2 1.1zm-580.3 2.3c-3 3.2-2.5 7.5 1.1 9.5 2.2 1.3 3 1.3 5.1.2 5.1-2.7 5.2-9.2.2-11.1-3.6-1.4-3.9-1.3-6.4 1.4zm268.6.3c-1.4 1.3-.7 3.6 2.2 7.2 1.5 2 3.1 4.6 3.5 5.9.4 1.2 2 2.9 3.6 3.7 9.7 5 17.8-5.5 11-14.3-2.1-2.7-3-3.1-5.5-2.7l-6.1 1.1c-1.8.4-3.5.1-3.8-.5-.8-1.2-3.9-1.5-4.9-.4zm340.7.3c-3 1.2-5.6 5.5-4.8 8.4.7 3.1 5.4 5.2 8.2 3.7 2.7-1.4 4.5-6.7 3.2-9.2-1.4-2.6-4.1-3.8-6.6-2.9zm-260.7.7c-1.5 1.4-.7 4.3 1.2 4.3 2.6 0 3.6-1.7 2.1-3.5-1.4-1.6-2.3-1.9-3.3-.8zm60.8 2.3c-2.3 2.5-1.4 6.1 2.8 10.6l3.2 3.5 3.4-2.6c1.9-1.4 4.1-2.5 4.9-2.5 1.3 0 1.3-.3 0-1.8-.9-.9-1.9-2.7-2.3-4-.7-2.4-5.2-5.2-8.3-5.2-1 0-2.7.9-3.7 2zm-564.8.7c-4.5 5.1-9.7 20.1-6.6 19.1 1.5-.4 8.4-13.6 9.5-18.1.7-3.1-.5-3.5-2.9-1zm665.1.9c-2 4.2 1.8 8.2 6.5 7 2.3-.5 2.7-1.2 2.7-4.5 0-4.1-1.1-5.1-5.6-5.1-1.7 0-2.8.8-3.6 2.6zm-66.3-.7c-.3.5-.1 1.2.5 1.6 1.2.7 3-.2 3-1.6 0-1.2-2.7-1.2-3.5 0zm-371 1.1c-.3.6.1.7.9.4 1.8-.7 2.1-1.4.7-1.4-.6 0-1.3.4-1.6 1zm258.5-.1c0 .5-.9 1.1-2.1 1.4-2.2.6-2.2 2.8 0 3.5.7.2 1.5-.5 1.8-1.7s.9-2.1 1.4-2.1.9-.5.9-1a.94.94 0 0 0-1-1c-.5 0-1 .4-1 .9zm-353.9 3.6c-2 2.3-3.9 3.5-5.6 3.5-2.6 0-6.5 3.1-6.5 5.3 0 .7.7 2.3 1.6 3.5 1.3 1.9 2.4 2.3 5.4 2.1 2.2-.2 4.5.3 5.5 1.1 1.2 1 3.7 1.4 6.9 1.3l8.5-.2c1.8-.1 4-.6 4.7-1.2 2.1-1.7 1.7-6.6-.6-7.9-1.1-.6-2.3-2.2-2.6-3.5-1-3.9-5.9-7.5-10.4-7.5-3.1 0-4.4.6-6.9 3.5zm59.6-1.1c-.3.8 0 1.9.7 2.5 1.8 1.5 4.8.3 4.4-1.8s-4.4-2.7-5.1-.7zm392.7 1.1c-.4.8-.1 2.2.6 3 2.6 3.2 7.8.8 5.9-2.7-1.2-2.2-5.7-2.4-6.5-.3zm19.3.1c-1.3 1.4-.7 5.2 1 5.8 2.5 1 5.1-2 3.7-4.2-1.2-1.9-3.6-2.7-4.7-1.6zm-335.1 4.6c-2.3 4.5-2 7.5.9 9.4 3.3 2.2 7.7.7 9-3 .9-2.6.6-3.1-3-6.2-2.2-1.9-4.3-3.4-4.7-3.4-.3 0-1.4 1.4-2.2 3.2zm323.1-.5c-1.2 1.1-.7 3.3.8 3.9 2 .8 4.5-1.3 3.8-3.2-.5-1.4-3.4-1.9-4.6-.7z"/><use xlink:href="#V" x="-46" y="352"/><use xlink:href="#Q" x="400" y="449"/><path d="M784.9 674.6c-1.6 1.9-.7 4.9 1.6 5.1 2.4.3 6.8-3.2 6.3-4.9-.6-1.7-6.5-1.9-7.9-.2z"/><use xlink:href="#V" x="117" y="356"/><path d="M562.1 677.4c-2.8 3.3 2.2 8.3 5.5 5.5.8-.7 1.4-2.4 1.2-3.8-.2-2-.9-2.7-2.9-2.9-1.4-.2-3.1.4-3.8 1.2zm85.8 3.2c-1.5 1.8-.2 4.7 2.4 5.2 2.5.5 4-3.3 2.1-5.2-1.9-2-2.8-2-4.5 0zm-44.2.2c-1.3.3-1.7 1.1-1.5 3 .2 2.1.9 2.8 2.9 3 2.8.3 4.3-1.6 3.3-4.2-.7-1.7-2.3-2.4-4.7-1.8zm360 1.4c-4.7 3.7-1.6 11.8 4.7 11.8 4.2 0 6.4-1.8 7.2-5.6.5-2.5.1-3.7-1.5-5.3-2.4-2.4-7.8-2.8-10.4-.9zm-585 3c-.9.7-1.9 2.6-2.3 4.3-1.5 8.2 11.3 10.6 13.1 2.4 1.3-5.7-6-10.2-10.8-6.7zm560 1c-.6 1.8 1.1 4.8 2.7 4.8.8 0 1.9-.7 2.6-1.5 1-1.2 1-1.8 0-3-1.5-1.8-4.7-2-5.3-.3zM552 688.5c-1 1.2-1 1.8 0 3 1.6 2 3.6 1.9 4.4-.1.6-1.6-.9-4.4-2.4-4.4-.4 0-1.3.7-2 1.5zm327.6-.7c-.9 1.4 1.2 3.5 2.8 2.9 2.3-.9 2-3.7-.3-3.7-1.1 0-2.2.4-2.5.8zm-306.1 1.6c-3.3 1.4-5.5 5.2-5.5 9.2 0 3.7 5.9 9.4 9.7 9.4 2.8 0 11.3-5.1 11.3-6.8-.1-2.6-3.2-9-5.4-10.9-3-2.6-5.7-2.8-10.1-.9z"/><use xlink:href="#X" x="414" y="346"/><path d="M610 690.6c-1 1.1-1 1.7 0 2.8 1.5 1.9 4 1 4-1.4s-2.5-3.3-4-1.4z"/><use xlink:href="#Z" x="152" y="240"/><use xlink:href="#R" x="-97" y="422"/><path d="M562.4 695.1c-.8 1.4 1.1 3.3 2.5 2.5.6-.4 1.1-1.4 1.1-2.2 0-1.6-2.6-1.9-3.6-.3zm-199 2.4c-4 6.1 4.4 12.7 9.6 7.5 4.1-4.1 1.3-10-4.8-10-2.2 0-3.6.7-4.8 2.5zm671.9-1.5c-2.9 1.2-4.5 4.4-3.7 7.5.5 2 .3 2.5-1.3 2.5-2.6 0-6.1 3.9-6.9 7.7-1.3 6.5 5.8 13.5 12.2 11.9 3.1-.8 10.4-8.3 10.4-10.7 0-1.7-3.2-5.5-5.2-6.1-.9-.3-.6-1.2 1-3.3 5.1-6.4 1-12.5-6.5-9.5zm-692.2 2.6c-2.6 3.3-2.6 3.5 0 6.8 2.8 3.6 7.7 3.3 9.8-.6 1.4-2.5 1.4-2.9-.5-5.5-2.9-3.9-6.6-4.1-9.3-.7zm729.3-1.1c-.8 2 .4 3.5 2.7 3.5 2.1 0 2.5-2 .7-3.8-1.6-1.6-2.7-1.5-3.4.3z"/><use xlink:href="#G" x="453" y="624"/><path d="M856 699.4a1.58 1.58 0 0 0 1.6 1.6c1.7 0 1.4-2.2-.4-2.8-.7-.2-1.2.3-1.2 1.2zm-307.5 2.8c-7.8 4.3-11.3 12.9-8.4 20.5 1.6 4.3 7.9 10.2 12.1 11.3 7.3 2 15.5-1 20.2-7.3 1.5-2 2-4.2 2-8.2-.2-10.4-7.8-17.5-18.6-17.5-2.9 0-6.2.6-7.3 1.2zm226.9.2c-1 2.6.1 5.1 2.4 5.4 1.4.2 2.4-.3 2.8-1.5.3-1 1-2.6 1.5-3.6.6-1.1.6-1.7-.1-1.7-.5 0-1 .5-1 1.2 0 .9-.3.9-1.2 0-1.6-1.6-3.7-1.5-4.4.2zm111.3.2c-.4.4-.7 1.7-.7 3 0 2.3 1.7 3.4 5.1 3.4 1.7 0 2-.6 1.7-3.3-.2-2.6-.8-3.3-2.8-3.5-1.4-.2-2.9 0-3.3.4zm-159 3.1c-1.4 1.3-.7 4.3 1.2 5.3 2.6 1.4 2.9 1.3 4.1-1.1.9-1.5.8-2.4-.1-3.5-1.2-1.5-4.1-1.9-5.2-.7zm137.7 3.8c-.4.8-1 1.3-1.4 1-1.4-.9-2.3 1.6-1 2.8.9.9 1.5.7 2.6-.7.8-1.1 1.4-1.6 1.4-1.2 0 .5.7.3 1.5-.4s1.2-1.6.9-2.1c-.8-1.4-3.4-1-4 .6z"/><use xlink:href="#Q" x="406" y="486"/><path d="M1185.2 709.9c.4 1.3 1.8 1.6 1.9.4 0-.4-.5-.9-1.1-1.2-.7-.2-1.1.2-.8.8zm-889 1.8c-.7.3-1.8 1.6-2.3 3-1.3 3.6 1.2 7.3 4.9 7.3 3.5 0 5.2-1.6 5.2-5 0-4.3-3.9-6.9-7.8-5.3zm589.1 1.9c-.8 2.1 1.3 4.2 2.8 2.7 1.3-1.3.5-4.3-1.1-4.3-.6 0-1.3.7-1.7 1.6zm-568.5 1.9c-1 2.2-.9 2.9 1 4.7 1.8 1.9 2.5 2 4.7 1 1.6-.8 2.5-2 2.5-3.5 0-5-6.2-6.6-8.2-2.2zm613.5-1c-1.2.8-2.7 3-3.3 4.9-2.3 7.2 4.7 14.7 12.2 13.2 1.8-.4 4.4-.8 5.8-1 3.4-.5 3.4-.4 2-2.1-.6-.8-.9-2.3-.5-3.5 2.5-7.9-9.3-16.3-16.2-11.5z"/><use xlink:href="#G" x="770" y="640"/><path d="M991.7 714.7c-.4.3-.7 1.3-.7 2 0 2.2 7.4 1.3 7.8-1 .3-1.3-.4-1.7-3.1-1.7-1.8 0-3.7.3-4 .7zm-753.3 2.2c-2.2 1-5.6 3.6-7.4 5.8-3.7 4.4-7.5 14.9-6.1 16.7.5.6 1.2 2.7 1.6 4.7.8 4.5 7.9 12.5 12 13.5 1.7.4 3.5 1.1 4.1 1.5 1.3 1.1 13.2 0 14-1.2.3-.5 1.3-.9 2.3-.9 2.4 0 7.4-5.6 10-11.1 2-4.2 2.1-5.3 1.2-11-1.3-8.1-5-13.3-12.1-17.1-6.3-3.4-13.4-3.7-19.6-.9z"/><use xlink:href="#H" x="623" y="643"/><path d="M869.7 719.7c-.4.3-.7 1.2-.7 2 0 1.5 2.6 1.8 3.4.4.7-1.1-1.8-3.3-2.7-2.4zm-52 2c-1.2 1.1-.7 3.3.8 3.9 2 .8 4.5-1.3 3.8-3.2-.5-1.4-3.4-1.9-4.6-.7z"/><use xlink:href="#T" x="177" y="440"/><path d="M966.1 723.4c-1.6 2-.3 4.6 2.4 4.6 2.5 0 3.8-2.1 2.9-4.5-.8-1.9-3.8-1.9-5.3-.1zm-381.5 1.9c-1.1.8-1.7 2.3-1.4 3.8.2 2 .8 2.4 3.8 2.4 2.8 0 3.6-.4 3.8-2.1.3-2-2-5.4-3.7-5.4-.4 0-1.5.6-2.5 1.3zm82.1 1c-.8 2.1.8 3.9 2.9 3.5 2.7-.5 2.5-4.2-.2-4.6-1.2-.2-2.4.3-2.7 1.1zm462.5-.6c-1.9.7-4.2 5.8-4.2 9.1 0 4 3.8 9.2 8.5 11.9s12.7 3 16.5.8c1.4-.8 3.3-1.8 4.3-2.1 2.3-.8 2.2-2-.4-4.2-1.1-.9-2.9-3.3-4-5.2-2.8-5.2-6.1-8.5-9.9-9.8-3.4-1.2-8.5-1.5-10.8-.5z"/><use xlink:href="#M" x="387" y="564"/><use xlink:href="#G" x="333" y="655"/><path d="M847.7 729.2c-.8 2.3 1.3 4.8 3.9 4.8 2.9 0 4.2-2.4 2.4-4.5-1.5-1.8-5.7-2-6.3-.3zm133.9 1.3c-5.8 5.4-2.2 16.5 6 18.1 9.8 1.8 16.5-10.6 9.5-17.7-4-3.9-11.4-4.2-15.5-.4z"/><use xlink:href="#D" x="-60" y="686"/><use xlink:href="#P" x="775" y="523"/><path d="M892.5 733c-.4.7 0 1.9.9 2.8 1.5 1.5 1.8 1.5 2.6.2.5-.8.8-2 .7-2.5-.5-1.5-3.4-1.8-4.2-.5zm171 0c-.7 1.2 1.1 4 2.6 4 1.4 0 1-2.6-.5-3.9-1-.9-1.6-.9-2.1-.1zm-285.9 1.6c-2.1 2-2 7.3 0 10.2 4.1 5.9 11.4 4.3 11.4-2.4 0-2.6-.8-4.3-2.9-6.5-3.3-3.2-6.2-3.7-8.5-1.3zm100 .6c-.9 3.3-.8 3.6 1.4 5.8s6.9 2.7 8.8.8c3.4-3.4-.2-8.8-6-8.8-2.9 0-3.7.5-4.2 2.2zm-183.3.8c-4.8 1.9-6 10.4-2 14.4 2.1 2 2.3 3.1 1.9 8.2-.5 7.2 1.5 10.4 7.8 12.3 7.3 2.2 13.5-1.3 14.6-8.1.8-4.6-1.7-9.4-5.9-11.4-3.1-1.5-3.3-1.8-3.3-7.1.1-4.6-.3-5.8-2.3-7.4-2.4-2-7.1-2.4-10.8-.9zm143 2c-1 1.1-2.8 2-4 2-1.5 0-2.7.9-3.5 2.5-1.6 3.5 1.3 6.7 5.6 6.3 2.6-.3 3.1-.7 2.8-2.8-.1-1.8.4-2.8 2-3.5 3-1.3 3.4-4.1.9-5.5-1.7-.9-2.4-.7-3.8 1zM651 739.9c0 2.4 2.5 3.4 4 1.6s.5-3.5-2.1-3.5c-1.2 0-1.9.7-1.9 1.9zm411.4.6c-.7 1.7 2.1 6.5 3.6 6.5.6 0 1 1.9 1 4.3 0 3 .9 5.6 2.8 8.8 3.6 5.5 5.8 7.4 9.1 7.5 1.4 0 3.4.4 4.4.9 1.5.6 1.8.4 1.5-1.1-.2-1.4.2-1.8 1.8-1.6l2.1.3-2-6.2c-2.3-7.1-7.7-13.3-12.6-14.4-1.7-.4-3.1-1.1-3.1-1.6 0-.9-5.9-4.9-7.3-4.9-.4 0-1 .7-1.3 1.5zm97.8-.4c.2.7 1 1.5 1.7 1.7.8.3 1.2-.1.9-.9-.2-.7-1-1.5-1.7-1.7-.8-.3-1.2.1-.9.9zm4.2.4c-1 2.5.4 4.5 3 4.5 2.9 0 4-2.4 2-4.5-2-1.9-4.3-1.9-5 0zM864 742c0 1.3.7 2 2 2s2-.7 2-2-.7-2-2-2-2 .7-2 2zm292-.6c0 1.5 2.4 2.8 3.4 1.9.7-.7-1.3-3.3-2.5-3.3-.5 0-.9.6-.9 1.4zm-359.7 3.7c-1.6 1.6-.5 3.9 1.8 3.9 2.2 0 2.5-2.2.6-3.9-1-.8-1.6-.8-2.4 0zm-405.4 9.2c-5.2 3.5-10.2 6.6-11.1 7-1 .3-1.8 1.1-1.8 1.7 0 1.4.7 1.3 3.8-.9l11.5-7.6c4.8-3.1 8.7-5.8 8.7-6.1 0-1.2-2.5.1-11.1 5.9zm174.8-3.5c-3.6 4-.9 11.2 4.2 11.2 3.5 0 6.1-2.8 6.1-6.7 0-5.5-6.7-8.5-10.3-4.5z"/><use xlink:href="#M" x="439" y="588"/><path d="M822.4 753.5c-.4.8-1.5 1.5-2.5 1.5-9.1 0-15.7 10.5-11.4 18 .8 1.4 1.4 3.7 1.5 5.2 0 3.1 2.6 4.9 5.5 3.8 1.1-.4 2.8-.3 3.8.2 4.5 2.3 15.1-3 15.3-7.7.1-1.2.4-2.7.7-3.2.9-1.5-1.2-7.2-4-11.1-1.4-1.8-2.2-3.6-1.9-3.9s.1-1.4-.5-2.4c-1.2-2.3-5.7-2.5-6.5-.4z"/><use xlink:href="#C" x="136" y="744"/><path d="M733.4 760.5C725 764 728 778 737.2 778c4.3 0 7.8-4 7.8-8.7 0-7.1-5.6-11.3-11.6-8.8zM310 765.6c-1.4 3.6-1.2 6.4.3 6.4 1.4 0 4-6.7 3.1-8.2-1-1.5-2.5-.8-3.4 1.8zm377.6-.7c-1.1 1.8.6 4.1 3 4.1 1.9 0 2.4-.5 2.4-2.5s-.5-2.5-2.4-2.5c-1.4 0-2.7.4-3 .9zm180.9 1.3c-5.4 4.7-2.7 12.9 5.3 15.7 4.8 1.7 8.1.7 10.7-3.3 3.4-5.2-2-13-9.8-14.3-2.6-.4-4 0-6.2 1.9zm-189.8 1.5c-1.1 1-.8 4.1.4 4.9.6.3 1.8-.1 2.7-.9 1.3-1.3 1.3-1.9.2-3.1-1.4-1.7-2.3-2-3.3-.9z"/><use xlink:href="#B" x="285" y="765"/><path d="M1003.3 770.1c-2 2.1-1.5 4.7 1.2 6.5 2.1 1.4 3 1.4 5.5.4 2.7-1.1 6.7-5.7 5.8-6.6-.2-.2-2.9-.6-5.9-1-3.8-.4-5.8-.2-6.6.7zm-334.6 1.5c-1.5 1.6-.7 5.3 1.4 5.9 3 1 5.8-1.9 4.3-4.3-1.2-1.8-4.5-2.8-5.7-1.6zm339.6 10c-.7 2 2.2 4.5 4.4 3.7.8-.3 1.3-1.5 1.1-2.7-.4-2.7-4.5-3.5-5.5-1z"/><use xlink:href="#T" x="130" y="501"/><path d="M945.8 782.6c-1.1 1 .3 3.4 1.9 3.4.8 0 1.3-.7 1.1-1.7-.3-1.8-2-2.7-3-1.7zm75.4.6c.5 1.5 2.8 1.8 2.9.3 0-.6-.7-1.2-1.7-1.3-1-.3-1.5.1-1.2 1zm-334.8 6.3c-.8 2.1.2 4.5 1.9 4.5 2.1 0 3.8-2.5 3.1-4.4-.8-2-4.3-2.1-5-.1zm127.6 3c0 2.8 2.9 4.8 5 3.5 1.1-.7 1.2-1.4.2-3.4-1.6-3.5-5.2-3.6-5.2-.1z"/><use xlink:href="#T" x="97" y="515"/><path d="M949.2 799.2c.4 3 4.8 3.9 4.8 1 0-1.8-1.8-3.2-4.2-3.2-.5 0-.8 1-.6 2.2zm-339 1c-3.4 3.4 1.4 10.2 5.6 7.9 4.8-2.6 3.1-9-2.3-9.1-1.2 0-2.6.5-3.3 1.2zm382.5 5.5c-1 1.5 1 3.5 2.9 3.1 2.6-.5 2.4-3.2-.3-3.6-1.1-.2-2.3.1-2.6.5zM887 810c0 1.2-.7 2-1.6 2-1 0-1.4.7-1.2 2.2s1 2.3 2.3 2.3c1.4 0 2-.6 1.9-2.3 0-1.2.3-2.2.8-2.2.4 0 .8-.9.8-2s-.7-2-1.5-2-1.5.9-1.5 2zm-66.5.9c-.9 1.5 1.3 5.1 3.1 5.1 1.1 0 1.4-.8 1.2-2.7-.3-2.8-3-4.3-4.3-2.4zm-158 2.6c-1.4 1.3-2.5 3.6-2.5 5 0 3.1 4.1 7.5 7 7.5 7.9 0 10.5-10.6 3.4-13.9-3.7-1.6-5.2-1.4-7.9 1.4zm167.2 1.1c-1 1 1.2 4.4 2.8 4.4 1.8 0 2-2.1.3-3.8-1.3-1.3-2.2-1.5-3.1-.6zm-561.4 2.5c-10.5 3-9.1 18 1.9 20.4 3.6.8 7.7-1.2 10.4-5.2 1.8-2.7 2-4 1.4-6.8-1-4.5-2.6-6.5-6.7-8.2-1.8-.7-3.4-1.3-3.5-1.2-.2 0-1.7.5-3.5 1z"/><use xlink:href="#Y" x="188" y="398"/><path d="M985 820.9c0 1 4.7 2.1 5.4 1.3.3-.3.3-.9 0-1.3-.7-1.2-5.4-1.2-5.4 0zm-157 2.6c-.8 1-1.1 3.2-.7 6.2.4 3.8 1.2 5.4 4.1 8 4.8 4.4 7.3 4.3 8.2-.3.3-1.9.4-5.2.1-7.2-1.1-6.4-8.5-10.6-11.7-6.7zm125.9 1.2c-2.8 7.3-.4 14.3 5.6 16.9 3.1 1.3 3.3 1.6 2.8 4.8-.3 1.9-.3 4.7.1 6.1.7 2.7 6.7 10 9.5 11.5 2.5 1.3 13.3-1.5 15.4-4.1 2.4-3 2.3-10.5-.3-14.4-2.6-4-2.5-6.3.2-6.7 2.9-.4 3.5-3.4 1.2-5.9-3.2-3.5-8.3-1.3-7.1 3.1.5 1.8 0 2-4.3 2-4.8 0-4.9-.1-5.6-3.5-.9-5.2-9.7-12.5-15-12.5-.8 0-1.9 1.2-2.5 2.7zm-320.1 15.4c-2.6 1.5-2.4 7.5.3 8.9 3.1 1.7 6.2.8 7.7-2.3 2.5-5.3-2.8-9.7-8-6.6zm277.5 11.1c-.4.7-.9 2.6-1 4.3-.1 1.6-.5 4.6-.8 6.6-1.7 9.4 8.1 16.5 15.8 11.5 2.3-1.6 2.7-2.5 2.7-6.8 0-6-1.9-9.2-6.8-11.1-2-.8-4.6-2.4-5.6-3.6-2.2-2.4-3.2-2.6-4.3-.9zM248.5 857c-.3.6.1.7.9.4 1.8-.7 2.1-1.4.7-1.4-.6 0-1.3.4-1.6 1zm57.5 4.1c0 1.4.5 1.9 1.7 1.7 2.6-.5 2.9-3.8.4-3.8-1.5 0-2.1.6-2.1 2.1z"/><use xlink:href="#H" x="125" y="789"/><path d="M622.2 900.6c-4.3 3-1.8 10.4 3.6 10.4 5 0 7.2-7.5 3-10.4-1.2-.9-2.7-1.6-3.3-1.6s-2.1.7-3.3 1.6z"/><use xlink:href="#Q" x="339" y="698"/><path d="M993.4 940.3c-1.4 3-1.4 3.7 0 7 1.7 4.1 5.9 6.8 7.8 4.9.6-.6 1.3-3.2 1.5-5.9.4-3.9.1-5.2-1.7-7.1-3-3.2-5.7-2.8-7.6 1.1zm17.6 13.4c0 2 1.8 4.3 3.3 4.3.4 0 .7-1.2.5-2.7-.4-3.2-3.8-4.6-3.8-1.6z"/></g><defs ><path id="B" d="M696.7 4.6c-.8.8.1 2.4 1.4 2.4.5 0 .9-.7.9-1.5 0-1.5-1.2-2-2.3-.9z"/><path id="C" d="M551.4 11.5c-.4.9-.2 2.1.4 2.7 1.5 1.5 4.4.1 4-1.9-.4-2.3-3.6-2.9-4.4-.8z"/><path id="D" d="M736.5 43.9c-.7 1.2 1.2 2.4 2.5 1.6 1.1-.7.4-2.5-1-2.5-.5 0-1.1.4-1.5.9z"/><path id="E" d="M76.6 61.8c-.3.6-.1 1.4.5 1.7 1.5 1 2.5-.3 1.2-1.6-.7-.7-1.3-.7-1.7-.1z"/><path id="F" d="M329.2 68.7c.2 1 1 1.8 1.8 1.8 2.2 0 1.8-2.9-.3-3.3-1.4-.3-1.8.1-1.5 1.5z"/><path id="G" d="M414 74a1.08 1.08 0 0 0 1 1c.6 0 1-.5 1-1a.94.94 0 0 0-1-1c-.5 0-1 .4-1 1z"/><path id="H" d="M266 76.1c0 .5.5.7 1 .4.6-.3 1-.8 1-1.1 0-.2-.4-.4-1-.4-.5 0-1 .5-1 1.1z"/><path id="I" d="M378 82.5a1.54 1.54 0 0 0 1.5 1.5 1.54 1.54 0 0 0 1.5-1.5 1.54 1.54 0 0 0-1.5-1.5 1.54 1.54 0 0 0-1.5 1.5z"/><path id="J" d="M652.2 82.1c.2.6.8 1 1.3 1s1.1-.4 1.3-1-.4-1.1-1.3-1.1-1.5.5-1.3 1.1z"/><path id="K" d="M1208.5 128c-.3.5-.1 1 .4 1 .6 0 1.1-.5 1.1-1 0-.6-.2-1-.4-1-.3 0-.8.4-1.1 1z"/><path id="L" d="M95.5 131.9c-.8 1.5.3 3.1 2.1 3.1.9 0 1.4-.7 1.2-1.7-.4-2-2.4-2.8-3.3-1.4z"/><path id="M" d="M233.5 164c-.4.7-.3 1.6.3 2.2 1.4 1.4 4.5.2 4-1.5-.6-1.6-3.4-2.1-4.3-.7z"/><path id="N" d="M818.5 177c-.8 1.4.3 3 2.1 3 .8 0 1.4-.9 1.4-2 0-2.1-2.4-2.8-3.5-1z"/><path id="O" d="M1118 185c0 1.6.5 2.1 2.3 1.8 1.2-.2 2.2-1 2.2-1.8s-1-1.6-2.2-1.8c-1.8-.3-2.3.2-2.3 1.8z"/><path id="P" d="M287 207c0 .5.5 1 1.1 1 .5 0 .7-.5.4-1-.3-.6-.8-1-1.1-1-.2 0-.4.4-.4 1z"/><path id="Q" d="M662 223.5c0 .8.5 1.5 1 1.5.6 0 1-.7 1-1.5s-.4-1.5-1-1.5c-.5 0-1 .7-1 1.5z"/><path id="R" d="M938.7 271.6c-.9 1 .2 2.4 1.9 2.4.8 0 1.4-.7 1.4-1.5 0-1.5-2.1-2.1-3.3-.9z"/><path id="S" d="M1062.4 273.1c-1 1.7 1.3 3.6 2.7 2.2 1.2-1.2.4-3.3-1.1-3.3-.5 0-1.2.5-1.6 1.1z"/><path id="T" d="M785 282c0 .5.7 1 1.5 1s1.5-.5 1.5-1c0-.6-.7-1-1.5-1s-1.5.4-1.5 1z"/><path id="U" d="M869.4 290.4c-1 2.6.4 4.8 2.8 4.4 1.7-.2 2.3-1 2.3-2.8s-.6-2.6-2.3-2.8c-1.3-.2-2.5.3-2.8 1.2z"/><path id="V" d="M755.5 320c-.4.6-.3 1.6.3 2.2s1.2.6 1.7-.2c.4-.6.3-1.6-.3-2.2s-1.2-.6-1.7.2z"/><path id="W" d="M612.2 321.7c.2 1 1 1.8 1.8 1.8s1.6-.8 1.8-1.8c.2-1.2-.3-1.7-1.8-1.7s-2 .5-1.8 1.7z"/><path id="X" d="M686.5 343.1c-1 1.5.3 2.5 1.6 1.2.7-.7.7-1.3.1-1.7-.6-.3-1.4-.1-1.7.5z"/><path id="Y" d="M786.6 418.7c-1.1 1.1-.6 2.3.9 2.3.8 0 1.5-.4 1.5-.9 0-1.3-1.6-2.2-2.4-1.4z"/><path id="Z" d="M636.7 451.6c-1.4 1.5-.6 3.4 1.4 3.4 1.4 0 1.9-.5 1.7-1.7-.3-1.8-2-2.7-3.1-1.7z"/></defs></svg>